<?xml version="1.0" encoding="UTF-8"?>
<svg id="Livello_2" data-name="Livello 2" xmlns="http://www.w3.org/2000/svg" viewBox="0 0 259.67 46.16">
  <defs>
    <style>
      .cls-1 {
        fill: #dc0c18;
      }

      .cls-2 {
        fill: #1e1e1c;
      }
    </style>
  </defs>
  <g id="Livello_1-2" data-name="Livello 1">
    <g id="Livello_2-2" data-name="Livello 2-2">
      <g>
        <g>
          <path class="cls-1" d="M70.75,42.05c.31.39.54.93.54,1.55,0,1.24-.85,2.56-2.48,2.56h-25.91c-1.4,0-2.48-1.16-2.48-2.48V3.1c0-1.4,1.16-2.48,2.48-2.48h18.85c1.55,0,2.48,1.24,2.48,2.48,0,.47-.16.93-.47,1.32l-11.64,15.67,18.54,21.88h0l.08.08Z"/>
          <path class="cls-1" d="M33.52,0c-1.01,0-1.55.39-2.33,1.47L.78,41.82c-.54.7-.78,1.24-.78,1.86,0,1.55,1.32,2.48,2.48,2.48h31.03c1.4,0,2.48-1.09,2.48-2.48V2.79c0-1.71-.93-2.79-2.48-2.79Z"/>
        </g>
        <g>
          <path class="cls-2" d="M82.39,30.02c2.09-2.02,5.12-3.03,8.07-3.03,6.05,0,8.3,2.95,8.3,9.54v9.08h-5.43v-1.94h-.08c-.93,1.47-2.95,2.33-5.12,2.33s-6.59-1.4-6.59-5.66,6.36-6.05,11.56-6.05v-.31c0-1.78-1.4-2.64-3.26-2.64s-3.34.85-4.5,1.86l-3.03-3.26h0l.08.08ZM93.33,37.7h-.78c-2.64,0-5.59.31-5.59,2.48s1.4,1.86,2.56,1.86c2.41,0,3.72-1.47,3.72-3.72v-.62h.08Z"/>
          <path class="cls-2" d="M116.84,45.62v-2.33h0c-1.16,1.78-3.49,2.87-5.9,2.87-5.43,0-8.61-4.58-8.61-9.62s3.26-9.46,8.53-9.46,4.5,1.24,5.51,2.41h0v-11.25h5.97v27.39h-5.51,0ZM112.26,31.89c-2.79,0-4.27,2.25-4.27,4.58s1.47,4.65,4.27,4.65,4.34-2.25,4.34-4.65-1.63-4.65-4.34-4.65v.08Z"/>
          <path class="cls-2" d="M138.87,45.62v-9.85c0-2.02-.54-3.8-2.72-3.8s-3.18,1.78-3.18,3.88v9.78h-5.97v-18.08h5.74v2.48h0c.85-1.63,2.87-3.03,5.43-3.03,4.89,0,6.59,3.8,6.59,7.37v11.17h-5.97l.08.08Z"/>
          <path class="cls-2" d="M149.73,18.23h4.34v17.3h.08l6.59-7.29h5.59l-7.53,7.84,7.99,9.54h-5.74l-6.9-8.92h-.08v8.92h-4.34v-27.39h0Z"/>
          <path class="cls-2" d="M169.36,28.16h4.19v2.87h0c.93-2.02,2.79-3.41,5.04-3.41s.78,0,1.09.08v3.96c-.62-.16-.93-.16-1.32-.16-3.96,0-4.65,3.41-4.65,4.65v9.31h-4.34v-17.38h0v.08Z"/>
          <path class="cls-2" d="M190.31,27.7c5.28,0,9.46,3.65,9.46,9.15s-4.19,9.31-9.46,9.31-9.46-3.8-9.46-9.31,4.19-9.15,9.46-9.15h0ZM190.31,42.51c3.41,0,5.04-2.95,5.04-5.66s-1.63-5.59-5.04-5.59-5.04,2.87-5.04,5.59,1.63,5.66,5.04,5.66Z"/>
          <path class="cls-2" d="M204.04,28.16h4.11v2.79h0c.78-1.71,2.79-3.26,5.43-3.26,4.5,0,6.44,3.49,6.44,7.06v10.86h-4.34v-9.62c0-2.09-.47-4.65-3.26-4.65s-4.03,2.41-4.03,4.73v9.54h-4.34v-17.38h0v-.08Z"/>
          <path class="cls-2" d="M233.52,27.7c5.28,0,9.46,3.65,9.46,9.15s-4.19,9.31-9.46,9.31-9.46-3.8-9.46-9.31,4.19-9.15,9.46-9.15ZM233.52,42.51c3.41,0,5.04-2.95,5.04-5.66s-1.63-5.59-5.04-5.59-5.04,2.87-5.04,5.59,1.63,5.66,5.04,5.66Z"/>
          <path class="cls-2" d="M256.72,32.82c-.78-1.01-2.25-1.86-3.8-1.86s-2.79.54-2.79,1.86,1.32,1.71,3.8,2.25c2.56.62,5.59,1.78,5.59,5.2s-3.41,5.82-7.22,5.82-5.51-1.01-7.14-2.87l2.87-2.72c.93,1.24,2.56,2.17,4.5,2.17s2.79-.54,2.79-2.09-1.32-1.86-3.96-2.48c-2.56-.62-5.12-1.71-5.12-4.89s3.49-5.59,6.9-5.59,5.12.85,6.52,2.64l-2.79,2.48h0l-.16.08Z"/>
        </g>
      </g>
    </g>
  </g>
</svg>