<?xml version="1.0" encoding="UTF-8"?>
<svg id="Livello_1" data-name="Livello 1" xmlns="http://www.w3.org/2000/svg" version="1.1" viewBox="0 0 185.78 12.09">
  <defs>
    <style>
      .cls-1 {
        fill: #000;
        stroke-width: 0px;
      }
    </style>
  </defs>
  <path class="cls-1" d="M64.4.7c1.13-.07,2.02.51,2.41,1.56.35.93.33,2.86,1.77,1.81,1.29-.95,2.38-3.32,4.43-1.74,2.14,1.64,1.45,4.75,5.33,3.44.77-.26,2.52-1.32,2.87,0,.38,1.42-1.94,2.93-3.11,3.25-1.7.46-3.91-.54-5.09-1.77-.4-.41-1.09-1.54-1.66-1.65-1.16-.22-1.97,1.45-3.06,1.67-.88.18-2.18-.28-2.62-1.09-.6-1.09-.14-2.89-1.96-2.32-2.87.89-5.86,4.43-9.01,4.68-2.67.21-2.07-2.79-.3-3.34,1.3-.41,2.81-.16,4.18-.74,1.97-.84,3.62-3.61,5.83-3.75Z"/>
  <path class="cls-1" d="M7.02,3.12c1.26-.1,3.83-.35,3.68,1.53-.15,1.83-2.59,1.01-3.79,1.14-.87.09-3.51.91-3.46,2,.07,1.57,3.04.27,3.8-.06,4.25-1.85,8.46-5.93,12.99-1.95.86.76,2.26,2.54.88,3.47-1.63,1.1-2.46-.62-3.77-1.12-5.37-2.04-9.85,3.38-14.84,2.84-1.84-.2-2.74-1.83-2.22-3.56.77-2.54,4.27-4.08,6.72-4.28Z"/>
  <path class="cls-1" d="M85.84,8.34s.56.18.66.19c3.05.35,7.44-4.23,11.09-4.37,2.02-.08,5.15,1.17,6.02,3.11.33.73.21,1.88-.62,2.19-1.52.57-2.52-1.08-3.92-1.5-5.24-1.59-9.44,3.49-14.46,2.99-2.61-.26-2.57-2.57-1.46-4.41,1.47-2.41,4.01-3.32,6.74-3.46.88-.05,2.91-.16,3.01,1.03.2,2.39-2.26,1.55-3.63,1.66-.95.07-3.77.82-3.62,2.09,0,.09.14.43.2.48Z"/>
  <path class="cls-1" d="M151.65,3.92c.65-.64,2-.46,2.66.1.95.82.57,2.01.82,3.07.43.27,2.18-.79,2.64-1.04.71-.4,1.38-.92,2.12-1.28,2.84-1.41,9.19-2.38,12.12-1.16,1.69.7,1.9,1.79.12,2.56-2.33,1.01-3.15-.44-5.05-.49-3.65-.11-6.18,1.86-9.18,3.45-1.92,1.02-4.26,2.35-5.82,0-.73-1.11-1.43-4.19-.41-5.2Z"/>
  <path class="cls-1" d="M132.35,10.07c.86,1.38-.65,1.78-1.74,1.94-4.73.69-9.67-3.48-5.68-7.9,2.69-2.97,8.12-4.44,12.03-4.05,1.08.11,2.63.83,1.8,2.13-.9,1.4-3.39.9-4.83.98-2.02.12-7.4,1.52-7.11,4.24.22,2.09,3.89,2.65,5.53,2.66Z"/>
  <path class="cls-1" d="M23.84,2.04c1.08-.11,2.02.3,2.16,1.46.06.53-.23,1.97.5,2.01.63.04,3.1-1.72,3.92-2.08,3.14-1.39,7.56-1.51,9.71,1.6.6.87,1.99,3.99-.03,3.78-.72-.07-.94-.74-1.38-1.21-2.76-2.89-5.26-3.09-8.68-1.06-1.86,1.1-3.95,3.36-6.14,1.64-1.67-1.32-3.19-5.81-.07-6.14Z"/>
  <path class="cls-1" d="M115.79.88c7.05-.65,1.37,7.44-2.97,6.85-1.53-.21-1.07-2.16.14-2.52.68-.21,2.25-.04,2.47-1.02.31-1.37-1.94-.16-2.43.17-2.67,1.81-2.21,4.78,1.15,5.16,1.09.13,2.39-.27,3.38-.07,1.1.22.54,1.03-.16,1.41-2.38,1.31-6.65,1.42-8.21-1.19-2.48-4.14,2.81-8.44,6.62-8.79Z"/>
  <path class="cls-1" d="M184.45,10.66c-.2.2-1.71.66-2.07.75-2.7.65-6.43.46-7.1-2.85-.59-2.9,1.59-5.68,4.12-6.83,1.56-.7,5.88-1.9,6.21.71.25,1.97-2.15,4.03-3.79,4.75-.93.41-3.17,1.11-3.48-.34-.45-2.12,3.21-1.3,3.79-2.82-.4-.85-1.21-.41-1.86-.09-1.51.75-3.2,2.35-2.19,4.15.73,1.3,2.5,1.51,3.84,1.43.57-.03,2.22-.43,2.59,0,.22.26.17.91-.07,1.13Z"/>
  <path class="cls-1" d="M46.36,7.45c-1.05-2.53,1.7-1.96,2.93-2.8.8-.55.74-1.36-.37-1.09-1.8.44-4.39,2.82-2.93,4.75.87,1.15,2.48,1.24,3.81,1.21.48,0,3.15-.46,2.66.69-.32.75-2.63,1.31-3.41,1.43-8.1,1.23-7.64-7.64-1.45-10.12,2.04-.82,6.86-1.61,5.53,2.12-.86,2.4-4.17,4.75-6.76,3.8Z"/>
  <path class="cls-1" d="M144.02,1.67c1.73-.79,4.14-.43,4.84,1.53,1.79,5.03-8.69,10.49-11.87,6.31-2.34-3.07,2.58-7.33,5.46-7.15,1,.06,1.65.98.89,1.79-.91.97-3.14,1.39-3.35,3.09-.19,1.51,1.52,1.38,2.52,1.08,1.38-.42,4.34-2.26,4.09-3.95-.24-1.63-3.03-.81-2.58-2.72Z"/>
</svg>