<?xml version="1.0" encoding="UTF-8"?><svg id="Layer_2" xmlns="http://www.w3.org/2000/svg" width="85.945" height="20.431" viewBox="0 0 85.945 20.431"><g id="Layer_1-2"><path d="M69.072,18.238h-2.795v-5.61h-5.618v-2.793h5.604c.004-.073.01-.131.01-.189,0-1.113-.01-2.226.002-3.339.019-1.753.642-3.264,1.893-4.496,1.092-1.076,2.413-1.674,3.945-1.792,3.206-.246,6.071,1.928,6.686,5.086.081.412.108.839.114,1.26.015,1.093.008,2.186,0,3.278,0,.151.038.197.193.195.721-.006,1.443-.016,2.163.006,2.241.07,4.206,1.783,4.595,3.989.472,2.675-1.169,5.126-3.827,5.718-2.617.583-5.325-1.199-5.816-3.834-.06-.325-.086-.659-.093-.99-.015-.644-.008-1.289-.002-1.933.002-.132-.035-.172-.169-.172-2.239.004-4.478.004-6.716,0-.148,0-.173.052-.172.183.003,1.742.002,3.484.002,5.227v.206ZM72.596,9.835c1.115,0,2.229-.003,3.343.003.143,0,.189-.036.189-.184-.006-1.113-.001-2.226-.006-3.339-.001-.215-.021-.432-.053-.646-.297-1.974-2.299-3.319-4.25-2.859-1.616.381-2.733,1.769-2.745,3.428-.009,1.133-.002,2.266-.002,3.399q0,.197.197.198h3.327M78.918,13.862h.008c0,.332-.016.665.003.997.073,1.335,1.325,2.253,2.625,1.934.994-.243,1.665-1.182,1.592-2.227-.07-1-.896-1.856-1.911-1.917-.733-.044-1.471-.017-2.207-.025-.104,0-.111.057-.111.135.002.368.001.735.001,1.103" fill="#234080" stroke-width="0"/><path d="M2.266,17.32v3.111H.196v-7.981h2.06v.978c.019.013.038.026.058.039.008-.028.013-.057.024-.083.503-1.175,1.985-1.277,2.84-.642.497.369.769.885.908,1.472.228.959.207,1.91-.198,2.823-.307.69-.822,1.146-1.592,1.27-.896.144-1.65-.269-1.959-.947-.008-.018-.022-.032-.033-.048-.012.003-.025.005-.038.008M2.202,15.327c.002.341.048.668.214.966.165.296.41.461.761.448.339-.013.574-.189.701-.488.255-.597.255-1.205-.006-1.799-.135-.308-.381-.485-.735-.484-.357,0-.599.177-.753.485-.139.276-.176.574-.182.872" fill="#234080" stroke-width="0"/><path d="M36.472,14.307h-1.84c.023-.132.034-.254.065-.372.197-.734.706-1.168,1.402-1.394.849-.276,1.71-.261,2.556.012.861.277,1.309.898,1.325,1.862.022,1.248.005,2.497.005,3.746,0,.019-.006.039-.011.071h-1.935v-.785c-.012-.005-.024-.009-.036-.013-.023.026-.052.049-.069.078-.312.529-.798.765-1.388.812-.379.03-.756.004-1.118-.127-.613-.221-.991-.725-1.017-1.381-.009-.215.003-.434.042-.645.098-.524.433-.86.91-1.066.473-.205.977-.273,1.482-.335.244-.031.489-.065.727-.125.23-.059.324-.191.325-.38.002-.207-.114-.369-.332-.434-.243-.071-.501-.089-.717.052-.14.092-.233.257-.376.424M37.922,15.751c-.33.069-.636.126-.937.199-.135.033-.274.079-.391.153-.331.208-.307.702.036.87.398.194,1.151.023,1.26-.607.035-.201.023-.41.032-.615" fill="#234080" stroke-width="0"/><path d="M47.565,14.293c-.005-.241.064-.465.165-.679.271-.575.748-.913,1.34-1.091.833-.252,1.674-.237,2.5.027.859.275,1.313.898,1.33,1.859.022,1.249.006,2.498.006,3.746,0,.024-.007.048-.012.081h-1.941v-.793c-.012-.003-.024-.006-.036-.009-.022.028-.049.054-.068.085-.311.521-.792.756-1.376.804-.384.031-.767.007-1.133-.13-.641-.24-.966-.717-1.009-1.386-.014-.209.002-.424.04-.63.099-.53.436-.869.92-1.076.469-.201.967-.268,1.467-.331.249-.032.5-.067.742-.128.22-.055.313-.188.317-.371.004-.202-.104-.366-.313-.432-.268-.086-.544-.094-.784.07-.099.068-.151.203-.228.305-.029.038-.07.094-.106.094-.59.006-1.179.003-1.769.002-.014,0-.028-.009-.052-.017M50.828,15.753c-.276.058-.537.104-.794.169-.174.043-.351.095-.51.175-.182.092-.25.269-.24.471.01.186.101.323.268.407.513.254,1.204-.106,1.273-.671.022-.183.003-.371.003-.551" fill="#234080" stroke-width="0"/><path d="M12.724,15.823h-3.805c-.084.455.193.976.761,1.056.44.061.836-.024,1.091-.441.017-.028.063-.055.095-.055.599-.003,1.198-.002,1.821-.002-.011.07-.015.127-.029.183-.173.699-.604,1.188-1.26,1.465-.923.39-1.871.421-2.817.096-.774-.265-1.29-.811-1.55-1.581-.26-.771-.273-1.556-.008-2.328.381-1.103,1.198-1.676,2.332-1.831.512-.071,1.019-.032,1.508.135,1.03.353,1.595,1.105,1.773,2.154.063.368.059.748.088,1.149M10.765,14.668c.019-.483-.394-.855-.928-.851-.524.003-.952.391-.927.851h1.855Z" fill="#234080" stroke-width="0"/><path d="M45.55,3.723V1.419h1.301v7.045h-1.3v-.885c-.012-.007-.025-.013-.038-.02-.032.027-.077.048-.096.083-.573,1.088-2.073,1.245-3.001.389-.499-.461-.745-1.054-.852-1.71-.124-.762-.064-1.507.255-2.217.32-.713.841-1.2,1.631-1.345.78-.142,1.559.12,1.958.887.022.04.063.071.095.106.016-.01.031-.02.047-.029M45.549,5.636c.006-.375-.033-.744-.192-1.089-.204-.445-.543-.699-1.041-.726-.532-.029-.962.164-1.195.649-.375.784-.376,1.588.025,2.365.232.447.626.674,1.138.651.489-.021.827-.279,1.043-.708.18-.36.229-.746.222-1.142" fill="#234080" stroke-width="0"/><path d="M29.785,14.155v-1.51h.366q.376,0,.376-.383v-1.31h2.076v1.688h.998v1.505h-.983c-.003.069-.008.118-.008.167,0,.674-.001,1.349,0,2.024,0,.302.133.43.44.417.119-.005.238-.026.367-.042.094.451.189.897.276,1.345.007.035-.035.109-.066.116-.622.148-1.25.231-1.885.091-.738-.163-1.194-.717-1.208-1.493-.014-.805-.005-1.611-.007-2.416v-.199h-.742Z" fill="#234080" stroke-width="0"/><path d="M.177,4.295c.085-.183.148-.358.243-.513.35-.576.894-.872,1.536-.998.598-.117,1.196-.092,1.771.122.756.282,1.144.855,1.159,1.641.025,1.288.007,2.577.007,3.866,0,.014-.006.029-.011.052h-1.254v-.781c-.05.048-.075.063-.089.085-.395.607-.987.825-1.673.81-.281-.006-.574-.064-.838-.161C.304,8.151-.075,7.465.012,6.7c.075-.659.432-1.074,1.041-1.297.478-.174.981-.214,1.481-.272.199-.024.399-.055.595-.096.471-.097.514-.414.373-.775-.136-.345-.535-.542-.978-.514-.469.029-.85.195-1.056.651-.014.031-.08.061-.118.056-.379-.047-.757-.101-1.173-.158M3.609,5.817c-.247.056-.45.11-.656.147-.213.039-.431.048-.642.093-.224.048-.458.092-.662.191-.494.242-.518.923-.044,1.204.154.091.344.149.524.169.563.063,1.217-.176,1.385-.833.08-.309.066-.642.095-.971" fill="#234080" stroke-width="0"/><path d="M53.068,5.986h-3.884c-.119.508.254,1.191.774,1.418.39.171.795.175,1.196.044.274-.09.476-.275.61-.533.02-.038.067-.094.097-.091.386.031.77.071,1.168.111-.103.442-.318.792-.658,1.056-.667.518-1.436.659-2.256.556-.788-.098-1.418-.467-1.841-1.153-.217-.352-.338-.74-.389-1.149-.083-.684-.056-1.359.222-2.001.397-.916,1.113-1.396,2.096-1.504.465-.051.918-.006,1.352.164.791.31,1.215.928,1.413,1.725.109.439.114.886.1,1.357M51.845,5.095c-.006-.484-.179-.877-.587-1.127-.469-.287-.962-.277-1.43.005-.412.248-.593.643-.636,1.122h2.653Z" fill="#234080" stroke-width="0"/><path d="M40.533,8.467h-1.252v-.779c-.049.043-.074.056-.088.078-.398.611-.994.82-1.686.818-.314,0-.621-.06-.91-.192-.627-.286-.984-.881-.939-1.567.052-.768.385-1.229,1.129-1.441.452-.129.928-.172,1.393-.252.218-.037.44-.057.655-.109.33-.08.442-.277.369-.609-.062-.283-.233-.483-.5-.582-.41-.151-.821-.129-1.188.11-.156.101-.255.288-.385.431-.034.037-.092.084-.133.079-.379-.045-.757-.1-1.148-.154.102-.388.298-.702.587-.958.374-.332.819-.507,1.307-.579.563-.082,1.118-.051,1.649.167.737.302,1.131.864,1.142,1.656.018,1.259.006,2.518.006,3.776,0,.03-.004.06-.008.107M39.256,5.843c-.446.072-.861.134-1.274.209-.206.038-.414.086-.609.159-.284.106-.443.319-.447.633-.004.317.145.541.428.665.136.059.287.101.434.114.573.052,1.256-.184,1.411-.941.056-.277.041-.568.057-.839" fill="#234080" stroke-width="0"/><path d="M11.046,2.824v5.644h-1.298v-.958c-.013-.004-.026-.008-.039-.012-.022.033-.046.065-.065.1-.523.996-1.831,1.329-2.771.701-.481-.321-.679-.806-.755-1.353-.026-.193-.032-.391-.033-.587-.002-1.112,0-2.225,0-3.338v-.187h1.351v.177c0,1.037-.003,2.074.002,3.111.001.165.017.334.059.492.186.714.915,1.021,1.559.657.462-.261.653-.679.654-1.195,0-1.017,0-2.034,0-3.051q0-.201.207-.201h1.129" fill="#234080" stroke-width="0"/><path d="M18.729,8.582c-1.42-.002-2.441-.884-2.664-2.299-.115-.734-.059-1.449.268-2.122.416-.86,1.12-1.319,2.064-1.42.619-.067,1.207.028,1.748.344.574.336.943.841,1.142,1.468.224.704.231,1.418.023,2.126-.354,1.198-1.32,1.904-2.581,1.903M20.101,5.649c.002-.407-.055-.803-.243-1.17-.234-.459-.607-.707-1.124-.707-.513,0-.895.242-1.11.702-.36.772-.366,1.561-.01,2.335.215.468.597.725,1.127.722.542-.002.913-.273,1.141-.752.17-.357.223-.738.219-1.13" fill="#234080" stroke-width="0"/><path d="M26.812,4.284c-.404.043-.787.084-1.165.124-.3-.751-1.141-.796-1.645-.584-.162.068-.3.168-.375.333-.12.264-.03.567.249.69.265.115.553.179.834.253.379.1.767.167,1.14.286.485.155.872.439,1.028.957.193.64.002,1.264-.526,1.675-.563.439-1.221.573-1.918.562-.516-.008-1.01-.107-1.46-.374-.428-.252-.714-.614-.836-1.098-.012-.048-.017-.097-.03-.171.436-.043.859-.084,1.279-.125.015.023.027.034.03.047.119.466.44.676.9.71.326.024.646.004.939-.159.277-.153.396-.416.315-.68-.062-.202-.214-.322-.401-.379-.298-.09-.604-.153-.905-.231-.341-.088-.688-.157-1.017-.278-.558-.205-.918-.597-.969-1.211-.054-.639.172-1.158.723-1.508.545-.345,1.154-.428,1.785-.394.385.02.757.103,1.101.288.458.246.764.615.896,1.121.01.039.015.078.028.146" fill="#234080" stroke-width="0"/><path d="M26.762,18.237v-7.287c.05-.004.094-.01.138-.01.594,0,1.189.003,1.783-.004.13,0,.16.042.159.164-.003,2.325-.003,4.65,0,6.975.001.127-.026.176-.165.174-.59-.008-1.179-.003-1.769-.004-.044,0-.089-.005-.146-.008" fill="#234080" stroke-width="0"/><path d="M41.155,10.947h2.061v7.284c-.039.004-.082.013-.125.013-.6,0-1.2,0-1.8.003-.108,0-.15-.025-.149-.142.003-2.347.002-4.694.002-7.041,0-.034.006-.069.011-.117" fill="#234080" stroke-width="0"/><rect x="20.466" y="10.947" width="2.056" height="7.285" fill="#234080" stroke-width="0"/><path d="M17.493,14.161c-.139-.016-.282-.044-.426-.046-.191-.003-.386-.01-.571.026-.534.107-.824.501-.827,1.104-.003.932-.001,1.863-.001,2.794v.193h-2.069v-5.786h2.013v1.08c.016.003.031.007.047.01.021-.049.046-.097.062-.147.153-.477.424-.843.931-.985.259-.074.519-.061.775.01.037.01.087.061.088.094.003.538,0,1.077-.002,1.615,0,.009-.009.018-.02.038" fill="#234080" stroke-width="0"/><path d="M30.661,7.394c.07.364.136.708.201,1.05-.827.319-2.121.14-2.454-.935-.054-.174-.079-.365-.081-.548-.007-.977-.003-1.954-.003-2.931v-.198h-.802v-1.004h.8v-1.409h1.352v1.405c.299,0,.58,0,.861.001.277.002.249-.036.25.25.001.245,0,.491,0,.752h-1.101c-.003.068-.008.122-.008.175-.001.912-.001,1.823.001,2.735,0,.095.008.192.029.284.068.307.298.465.613.425.109-.014.218-.033.342-.052" fill="#234080" stroke-width="0"/><path d="M12.897,2.824v-1.406h1.35v1.212c0,.193,0,.194.201.194h.901v.993c-.048.003-.101.008-.154.008-.272,0-.545.004-.817-.001-.095,0-.133.026-.133.128.004.951-.003,1.903.006,2.854.004.444.252.721.743.625.073-.014.148-.024.241-.039.068.356.136.708.206,1.074-.688.18-1.336.198-1.929-.22-.433-.305-.611-.75-.614-1.266-.005-.982,0-1.964,0-2.945v-.204h-.803c0-.324-.004-.624.005-.924,0-.029.081-.078.125-.079.215-.009.432-.004.673-.004" fill="#234080" stroke-width="0"/><rect x="44.398" y="13.293" width="2.06" height="4.939" fill="#234080" stroke-width="0"/><path d="M32.052,2.825c.41,0,.807-.003,1.204.005.03,0,.082.076.083.118.009.217.004.433.005.65,0,.047.006.095.027.158.368-.846,1.019-1.117,1.889-.981v1.188c-.193-.017-.377-.045-.562-.047-.773-.006-1.303.52-1.304,1.293-.002,1.022,0,2.043,0,3.065v.189h-1.342V2.825Z" fill="#234080" stroke-width="0"/><path d="M25.752,10.947c-.288.701-.565,1.378-.843,2.056-.108.263-.109.263-.396.263-.348,0-.695,0-1.042,0-.054,0-.108-.006-.178-.01.147-.779.29-1.542.435-2.308h2.024Z" fill="#234080" stroke-width="0"/><rect x="44.397" y="10.946" width="2.058" height="1.666" fill="#234080" stroke-width="0"/></g></svg>