<?xml version="1.0" encoding="UTF-8"?><svg id="Layer_2" xmlns="http://www.w3.org/2000/svg" width="212.458" height="212.458" viewBox="0 0 212.458 212.458"><g id="Layer_1-2"><path d="M212.458,106.229c0,58.669-47.56,106.229-106.229,106.229S0,164.898,0,106.229,47.56,0,106.229,0s106.229,47.56,106.229,106.229" fill="#0099b7" stroke-width="0"/><path d="M156.788,81.297c3.671,1.861,8.199.724,10.568-2.66,2.393-3.419,1.915-8.077-1.161-10.916-3.041-2.806-7.668-3.033-11.074-.264l-15.806-7.621c-1.901-11.815-12.4-20.19-24.243-19.428-11.596.745-20.977,10.153-21.508,21.974l-12.394,10.601c-3.684-2.998-7.959-4.855-12.766-5.333l.022-10.849c4.299-1.19,6.75-5.194,6.139-9.339-.603-4.093-4.197-7.138-8.341-7.091-4.15.047-7.663,3.169-8.177,7.238-.523,4.14,1.919,7.997,6.163,9.199l.003,10.856c-10.437.984-18.794,8.868-20.552,18.9-1.823,10.406,3.549,20.639,13.263,25.039,6.707,3.038,14.325,2.742,21.012-1.147,5.429-3.159,9.728-8.773,11.062-15.823l9.404,7.293c-1.633,4.103-.09,8.472,3.581,10.578,3.562,2.043,8.163,1.131,10.692-2.131,2.572-3.316,2.317-8.01-.671-11.013-2.902-2.917-7.509-3.333-11.035-.736l-11.664-9.091c-.244-5.032-2.036-9.585-5.193-13.566l9.808-8.331c1.482,7.508,6.399,13.416,12.483,16.399,7.406,3.63,15.472,3.021,22.253-1.041l9.378,12.504c-12.935,3.461-20.352,16.916-16.037,29.742l-8.438,6.331c-5.162-8.921-15.317-13.389-25.366-11.021-9.448,2.226-16.664,10.363-17.591,20.289l-10.859-.02c-1.19-4.302-5.192-6.748-9.339-6.138-4.09.601-7.14,4.196-7.092,8.341.047,4.148,3.174,7.663,7.239,8.176,4.142.522,7.998-1.916,9.2-6.166l10.845.006c1.241,12.374,11.954,21.779,24.594,20.866,10.216-.737,18.404-8.019,20.795-17.815l13.671,6.585c-1.46,4.147.364,8.433,4.022,10.329,3.761,1.949,8.315.731,10.668-2.651,2.428-3.49,1.832-8.183-1.262-10.963-3.09-2.776-7.678-2.898-10.993-.184l-15.531-7.504c.01-2.936-.357-5.445-1.223-8.224l8.439-6.3c6.515,11.292,20.712,15.036,31.751,8.415,9.221-5.531,13.432-16.517,10.166-26.794-3.105-9.77-12.5-16.451-22.944-15.99l-10.766-14.373c4.664-4.246,7.151-9.753,7.599-15.828l13.104,6.341c-1.464,4.157.362,8.455,4.102,10.349M159.095,69.945c2.318-.848,4.641.387,5.393,2.597.698,2.048-.37,4.468-2.611,5.243-2.006.695-4.324-.276-5.183-2.306-.882-2.085.03-4.668,2.401-5.534M104.614,101.364c2.307-.87,4.644.33,5.424,2.54.722,2.043-.307,4.493-2.61,5.289-1.957.676-4.281-.242-5.168-2.307-.875-2.036-.003-4.633,2.354-5.522M62.327,49.906c-.646-2.208.561-4.633,3.022-5.232,2.386-.581,4.481.958,5.009,3.025.581,2.275-.844,4.519-3.023,5.054-2.209.543-4.389-.733-5.008-2.847M57.993,107.444l-.059-4.079c-.016-1.154.938-2.294,2.191-2.295l12.253-.011c1.334,0,2.292,1.057,2.304,2.311l.036,3.995c-5.241,2.643-11.336,2.639-16.725.079M78.883,104.545c.381-4.044-2.12-7.595-6.164-7.604l-12.631-.028c-4.115-.009-6.694,3.517-6.379,7.624-8.147-7.351-8.165-19.693-.791-27.166,7.419-7.518,19.608-7.496,27.009.218,7.164,7.468,7.044,19.808-1.044,26.956M52.675,146.967c-2.153.54-4.37-.688-5.018-2.877-.625-2.111.532-4.572,2.974-5.192,2.377-.604,4.529.882,5.06,2.996.564,2.25-.769,4.509-3.016,5.073M101.894,159.758c-5.388,2.593-11.511,2.58-16.736-.04l.011-4.089c.003-1.214,1.008-2.218,2.274-2.219l12.031-.01c1.329,0,2.431.922,2.428,2.263l-.008,4.095ZM106.111,156.899c.37-3.999-2.116-7.623-6.262-7.634l-12.389-.033c-4.072-.011-6.903,3.335-6.494,7.631-8.032-7.025-8.288-19.439-1.001-26.981,7.415-7.674,19.64-7.702,27.071-.062,7.296,7.5,7.172,19.834-.925,27.079M136.508,153.552c2.389-.585,4.522.925,5.042,3.059.544,2.229-.836,4.471-3.056,5.022-2.162.537-4.357-.736-4.991-2.852-.651-2.174.568-4.633,3.005-5.229M135.432,134.641l-.024-4.187c-.006-1.104,1.02-2.167,2.188-2.167l12.307-.004c1.342,0,2.237,1.128,2.245,2.337l.025,3.955c-5.249,2.665-11.397,2.643-16.741.066M157.123,104.532c7.409,7.448,7.433,19.824-.715,27.202.239-4.008-2.181-7.596-6.356-7.599l-12.482-.011c-4.073-.004-6.714,3.437-6.39,7.626-8.054-7.223-8.189-19.453-1.006-26.952,7.328-7.651,19.501-7.752,26.949-.266M124.939,80.16c-5.215,2.627-11.429,2.637-16.725.029l-.021-4.049c-.006-1.277.997-2.287,2.319-2.287l12.018-.004c1.39-.001,2.416.975,2.414,2.426l-.005,3.885ZM129.195,77.309c.246-4.105-2.206-7.445-6.42-7.654l-12.392.033c-4.089.011-6.727,3.418-6.429,7.617-8.064-7.232-8.166-19.464-.982-26.954,7.32-7.631,19.471-7.735,26.915-.27,7.417,7.438,7.473,19.801-.692,27.228" fill="#fff" stroke-width="0"/><path d="M93.315,128.319c-4.816.134-8.333,4.127-8.114,8.768.212,4.469,4.024,8.063,8.639,7.899,4.501-.159,8.157-3.916,8.034-8.564-.117-4.43-3.771-8.236-8.559-8.103M94.889,140.592c-2.028.7-4.341-.289-5.188-2.303-.891-2.116.033-4.694,2.412-5.545,2.323-.83,4.634.403,5.385,2.614.698,2.053-.389,4.468-2.609,5.234" fill="#fff" stroke-width="0"/><path d="M65.109,76.062c-4.806.709-7.801,5.155-7.007,9.703.774,4.432,4.981,7.506,9.531,6.785,4.457-.706,7.645-4.919,6.931-9.51-.68-4.369-4.727-7.674-9.455-6.978M67.153,88.391c-2.299.456-4.382-.997-4.884-3.109-.54-2.269.843-4.627,3.334-5.071,2.42-.431,4.415,1.255,4.81,3.319.445,2.324-1.13,4.438-3.26,4.861" fill="#fff" stroke-width="0"/><path d="M145.188,119.754c4.457-.752,7.503-4.981,6.848-9.42-.669-4.54-4.862-7.818-9.632-7.028-4.731.783-7.582,5.224-6.86,9.563.771,4.628,5.095,7.652,9.644,6.885M142.885,107.466c2.408-.538,4.486,1.046,4.961,3.159.504,2.244-.95,4.424-3.027,4.938-2.293.567-4.431-.806-5.022-2.819-.681-2.318.613-4.725,3.088-5.278" fill="#fff" stroke-width="0"/><path d="M115.645,48.809c-4.84.54-8.004,4.895-7.331,9.521.641,4.411,4.733,7.643,9.361,7.035,4.404-.579,7.729-4.65,7.172-9.26-.527-4.37-4.442-7.828-9.202-7.296M117.423,61.172c-2.375.471-4.441-1.032-4.917-3.139-.519-2.294.896-4.637,3.389-5.049,2.435-.402,4.4,1.309,4.767,3.369.416,2.33-1.182,4.411-3.239,4.819" fill="#fff" stroke-width="0"/></g></svg>