<?xml version="1.0" encoding="UTF-8"?><svg id="Layer_2" xmlns="http://www.w3.org/2000/svg" width="107.707" height="107.678" viewBox="0 0 107.707 107.678"><g id="Layer_1-2"><path d="M21.765,90.134c2.495.304,4.448,1.341,5.96,3.294,1.555-1.901,3.47-3.02,5.622-3.237-.611-1.65-1.262-3.316-1.834-5.01-.162-.48-.142-1.042-.113-1.561.047-.822.112-1.548-.473-2.317-.622-.819.073-1.901,1.172-2.206.357-.099.759-.317.974-.605,3.228-4.334,8.979-5.327,13.218-2.255,4.269,3.093,5.173,8.844,2.084,13.239-.133.19-.257.387-.441.665,2.458.293,4.398,1.353,5.927,3.268,1.558-1.882,3.461-3.011,5.991-3.251-1.238-1.625-2.049-3.287-2.27-5.216-.474-4.141,1.889-8.174,5.779-9.768,3.924-1.609,8.479-.382,11.028,2.988.38.503.712.902,1.431,1.036,1.168.218,1.498,1.484.825,2.493-.218.327-.364.8-.325,1.184.236,2.289-.312,4.178-2.233,7.255,2.399.305,4.378,1.35,5.906,3.293,1.542-1.917,3.468-3.006,5.978-3.279-1.996-2.514-2.745-5.259-2.087-8.324.484-2.25,1.688-4.057,3.509-5.443,3.575-2.72,8.578-2.509,11.904.477,3.787,3.401,4.133,8.038.938,13.248.441.1.863.187,1.281.29,3.574.883,6.108,4.01,6.167,7.689.042,2.557.02,5.115.009,7.673-.006,1.346-.572,1.904-1.929,1.912-2.102.012-4.204.012-6.306,0-1.21-.007-1.907-.629-1.876-1.63.029-.958.697-1.514,1.876-1.523,1.643-.012,3.286-.003,4.911-.003,0-2.522.218-5.013-.065-7.445-.259-2.23-2.295-3.702-4.573-3.722-4.449-.04-8.9-.048-13.349,0-2.662.028-4.716,2.104-4.774,4.749-.045,2.095-.009,4.191-.009,6.418h1.191c2.873,0,5.746-.006,8.619.003,1.216.003,1.955.615,1.954,1.577-.002.964-.739,1.577-1.956,1.577-24.632.004-49.264.004-73.895,0-1.257,0-1.949-.551-1.976-1.532-.029-1.033.678-1.621,1.986-1.624,2.831-.007,5.662-.002,8.555-.002,0-2.453.159-4.835-.046-7.185-.192-2.204-2.274-3.944-4.504-3.971-4.554-.056-9.11-.057-13.664-.001-2.364.03-4.415,1.877-4.59,4.254-.166,2.255-.036,4.532-.036,6.903,1.876,0,3.688-.001,5.5,0,.351,0,.703-.02,1.051.013.9.083,1.518.745,1.508,1.581-.01.84-.631,1.536-1.539,1.547-2.733.034-5.467.042-8.199-.005-.933-.016-1.496-.631-1.502-1.569-.022-2.872-.136-5.754.05-8.615.249-3.851,3.174-6.642,7.461-7.338-2.009-2.574-2.789-5.42-1.997-8.584.528-2.11,1.695-3.833,3.429-5.146,3.549-2.685,8.387-2.562,11.745.307,1.98,1.692,3.101,3.842,3.306,6.458.203,2.6-.617,4.879-2.284,6.976M55.501,104.452h22.926c0-2.006.008-3.957-.006-5.908-.003-.417-.05-.84-.129-1.25-.434-2.24-2.274-3.913-4.543-3.941-4.55-.055-9.103-.059-13.653,0-2.41.032-4.435,1.957-4.569,4.37-.123,2.196-.026,4.404-.026,6.728M52.282,104.468c0-1.97.006-3.855-.004-5.74-.002-.454-.023-.913-.091-1.361-.329-2.166-2.259-3.979-4.487-4.009-4.585-.062-9.172-.057-13.758-.003-2.119.025-4.184,1.603-4.398,3.677-.252,2.441-.059,4.928-.059,7.436h22.797ZM73.19,83.888c.002-3.399-2.801-6.231-6.203-6.265-3.441-.034-6.311,2.806-6.318,6.254-.008,3.396,2.788,6.222,6.203,6.269,3.422.048,6.316-2.819,6.318-6.258M40.759,77.623c-3.447.028-6.266,2.911-6.214,6.356.051,3.396,2.917,6.201,6.303,6.167,3.41-.034,6.213-2.853,6.218-6.255.005-3.442-2.866-6.295-6.307-6.268M8.443,83.875c-.002,3.471,2.839,6.308,6.281,6.272,3.429-.035,6.186-2.824,6.187-6.257,0-3.434-2.759-6.236-6.172-6.266-3.461-.031-6.294,2.781-6.296,6.251M99.292,83.86c-.011-3.427-2.789-6.218-6.208-6.237-3.455-.018-6.271,2.806-6.262,6.282.009,3.433,2.778,6.22,6.203,6.243,3.447.023,6.278-2.817,6.267-6.288" fill="#fff" stroke-width="0"/><path d="M68.181,36.14c3.174,0,6.188.112,9.19-.028,3.706-.173,5.8,2.55,5.736,5.715-.117,5.779-.031,11.562-.034,17.343-.003,3.594-2.01,5.601-5.595,5.602-7.604,0-15.208.007-22.812-.012-.675-.002-1.19.141-1.66.662-.774.857-1.626,1.643-2.442,2.462-.999,1.004-2.158,1.439-3.529.893-1.408-.561-1.982-1.69-1.982-3.157,0-.239,0-.479,0-.785-.336-.028-.604-.05-.872-.073-2.642-.229-4.59-2.296-4.619-4.959-.028-2.551-.007-5.102-.007-7.794h-2.685c-2.347,0-4.695.02-7.043-.006-3.057-.033-5.148-2.113-5.159-5.165-.02-6.097-.021-12.194.001-18.291.011-3.038,2.143-5.141,5.174-5.174,1.051-.012,2.103-.02,3.154.004,1.075.025,1.737.628,1.757,1.546.021.967-.654,1.585-1.791,1.604-1.051.019-2.104-.018-3.154.013-1.248.036-1.969.723-1.973,1.978-.021,6.132-.024,12.264,0,18.395.006,1.339.768,1.929,2.32,1.929,7.779.005,15.559.03,23.337-.024,1.341-.009,2.361.336,3.215,1.367.777.939,1.647,1.802,2.476,2.699.113-.052.226-.105.339-.157,0-.711-.017-1.422.004-2.132.033-1.108.567-1.669,1.68-1.738.663-.042,1.332.009,1.996-.025,1.101-.055,1.796-.694,1.8-1.783.022-6.237.023-12.474,0-18.711-.005-1.132-.783-1.789-2.022-1.799-2.418-.02-4.836-.007-7.254-.007-4.8,0-9.601.001-14.402,0-.315,0-.634.02-.945-.022-.846-.115-1.336-.647-1.387-1.467-.052-.834.417-1.398,1.225-1.608.331-.087.695-.061,1.044-.061,7.149-.003,14.297-.005,21.446,0,3.453.002,5.466,2.027,5.473,5.493.004,2.377,0,4.753,0,7.275M48.213,65.423c.105.072.21.144.314.216.678-.744,1.416-1.443,2.021-2.242,1.125-1.483,2.561-1.847,4.385-1.825,7.562.093,15.125.042,22.688.037,1.592,0,2.282-.653,2.285-2.2.011-5.987.012-11.974,0-17.96-.004-1.5-.678-2.137-2.217-2.143-2.906-.01-5.812-.004-8.718,0-.234,0-.468.039-.633.053-.082.108-.122.135-.122.162-.015,2.555,0,5.111-.048,7.666s-1.999,4.586-4.528,4.8c-.302.026-.602.064-.915.098-.017.33-.04.573-.04.816-.001,1.426-.564,2.531-1.907,3.1-1.394.59-2.593.167-3.621-.876-.812-.822-1.586-1.692-2.47-2.428-.433-.361-1.074-.642-1.629-.658-2.519-.069-5.041-.03-7.562-.03h-2.764c0,2.758-.033,5.379.018,7.998.019.916.795,1.538,1.781,1.593.628.036,1.26-.002,1.89.015,1.218.032,1.763.588,1.79,1.826.013.66.002,1.321.002,1.982" fill="#fff" stroke-width="0"/><path d="M46.469,39.303c-4.38,0-8.761.005-13.141-.008-.447,0-.927-.027-1.335-.186-.696-.271-.993-.865-.9-1.608.093-.746.534-1.205,1.278-1.326.309-.05.629-.033.944-.033,8.761-.002,17.521-.002,26.282-.001.245,0,.492-.006.735.014.914.076,1.422.625,1.469,1.491.046.832-.437,1.393-1.253,1.583-.369.086-.765.071-1.148.071-4.311.005-8.621.003-12.931.003" fill="#fff" stroke-width="0"/><path d="M51.88,32.894c-2.592,0-5.185.007-7.777-.003-1.267-.004-1.969-.547-2.002-1.508-.035-.999.708-1.644,1.995-1.647,5.255-.013,10.51-.013,15.765,0,1.215.003,1.956.641,1.96,1.588.003.955-.73,1.56-1.953,1.565-2.663.011-5.325.004-7.988.004" fill="#fff" stroke-width="0"/><path d="M40.728,45.647c-2.592,0-5.183.007-7.775-.003-1.21-.004-1.913-.623-1.884-1.619.027-.943.717-1.532,1.875-1.534,5.184-.009,10.367-.01,15.55,0,1.149.003,1.826.616,1.828,1.576.002.967-.67,1.569-1.819,1.575-2.592.013-5.183.004-7.775.004" fill="#fff" stroke-width="0"/><path d="M34.707,32.875c-.733,0-1.468.035-2.199-.009-.853-.052-1.354-.564-1.419-1.402-.069-.887.373-1.584,1.257-1.639,1.597-.1,3.207-.091,4.806-.005.836.045,1.302.708,1.282,1.529-.021.865-.513,1.455-1.424,1.516-.764.051-1.535.01-2.303.01" fill="#fff" stroke-width="0"/><path d="M73.182,8.026c-1.333-.709-2.536-1.208-3.544-1.967-.323-.244-.32-1.241-.129-1.772.266-.74,1.066-.917,1.779-.654.911.337,1.801.761,2.641,1.249.664.385.995,1.096.616,1.795-.279.515-.858.867-1.363,1.349" fill="#fff" stroke-width="0"/><path d="M9.838,42.735c.023-.452.025-.907.076-1.356.1-.881.594-1.394,1.494-1.442.858-.046,1.578.539,1.616,1.429.04.97-.012,1.952-.118,2.918-.093.844-.696,1.307-1.511,1.306-.868-.002-1.44-.506-1.546-1.395-.058-.48-.011-.973-.011-1.46" fill="#fff" stroke-width="0"/><path d="M20.465,19.575c-1.254-.022-2.11-1.212-1.557-2.134.583-.973,1.325-1.903,2.184-2.631.355-.301,1.337-.241,1.775.048.383.252.725,1.243.527,1.578-.625,1.059-1.495,1.978-2.312,2.914-.156.178-.506.188-.617.225" fill="#fff" stroke-width="0"/><path d="M87.179,19.558c-.161-.075-.551-.145-.765-.377-.707-.767-1.405-1.555-2.001-2.408-.454-.65-.278-1.354.299-1.889.583-.541,1.361-.653,1.903-.13.841.814,1.635,1.731,2.22,2.736.536.92-.396,2.101-1.656,2.068" fill="#fff" stroke-width="0"/><path d="M18.455,23.586c-.758,1.326-1.32,2.522-2.086,3.568-.416.567-1.302.584-1.783.046-.381-.428-.724-1.221-.586-1.711.279-.984.794-1.953,1.423-2.763.296-.382,1.15-.625,1.627-.49.51.144.874.807,1.405,1.35" fill="#fff" stroke-width="0"/><path d="M97.883,42.517c0,.734.05,1.227-.011,1.705-.108.847-.676,1.317-1.489,1.336-.81.018-1.446-.409-1.545-1.258-.117-.999-.191-2.02-.119-3.019.062-.856.653-1.383,1.557-1.37.892.013,1.421.511,1.537,1.394.064.482.058.972.07,1.212" fill="#fff" stroke-width="0"/><path d="M10.339,50.923c.022-.904.446-1.508,1.311-1.666.878-.161,1.533.27,1.765,1.11.249.903.399,1.84.513,2.771.11.896-.371,1.5-1.221,1.687-.867.191-1.497-.223-1.794-1.057-.151-.424-.229-.876-.316-1.319-.101-.513-.175-1.03-.258-1.526" fill="#fff" stroke-width="0"/><path d="M18.794,66.449c1.167.017,3.316,2.946,2.976,4.054-.355,1.153-1.748,1.559-2.58.668-.684-.732-1.29-1.567-1.785-2.438-.6-1.056.208-2.302,1.389-2.284" fill="#fff" stroke-width="0"/><path d="M94.18,25.997c-.577.564-.959,1.238-1.46,1.344-.517.109-1.357-.166-1.689-.573-.603-.737-1.076-1.658-1.324-2.577-.138-.513.112-1.4.508-1.71.391-.306,1.507-.361,1.743-.07.833,1.025,1.424,2.246,2.222,3.586" fill="#fff" stroke-width="0"/><path d="M93.129,32.542c.008-1.04.4-1.591,1.157-1.784.8-.204,1.517.075,1.799.865.349.977.63,1.999.772,3.025.111.802-.363,1.403-1.196,1.596-.778.181-1.454-.095-1.726-.819-.376-1.003-.586-2.069-.806-2.883" fill="#fff" stroke-width="0"/><path d="M12.735,36.353c-1.297-.029-2.035-.886-1.855-1.865.164-.888.394-1.769.673-2.628.284-.876,1.095-1.328,1.87-1.086.839.261,1.299.864,1.143,1.745-.169.957-.354,1.938-.737,2.82-.212.488-.844.794-1.094,1.014" fill="#fff" stroke-width="0"/><path d="M81.062,13.011c-.514-.204-.837-.266-1.079-.44-.707-.508-1.401-1.037-2.063-1.602-.691-.591-.792-1.478-.307-2.151.482-.67,1.394-.87,2.136-.37.778.524,1.591,1.057,2.194,1.754.335.388.492,1.19.332,1.675-.157.476-.816.787-1.213,1.134" fill="#fff" stroke-width="0"/><path d="M38.496,5.305c-.236,1.481-1.801,1.482-2.834,2.132-.673.423-1.375.499-2.041-.038-.823-.664-.791-1.92.147-2.492.827-.504,1.721-.93,2.632-1.259,1.065-.383,2.13.431,2.096,1.657" fill="#fff" stroke-width="0"/><path d="M90.517,67.592c.035,1.204-1.763,3.812-2.596,3.91-.514.061-1.277-.098-1.556-.452-.314-.398-.449-1.239-.237-1.686.423-.896,1.045-1.751,1.766-2.433.363-.343,1.179-.469,1.683-.322.45.131.752.771.94.983" fill="#fff" stroke-width="0"/><path d="M24.703,73.366c.524.243.906.343,1.191.568.654.516,1.281,1.072,1.88,1.653.691.669.725,1.597.137,2.241-.56.612-1.455.701-2.167.136-.708-.561-1.464-1.114-1.994-1.824-.315-.421-.432-1.203-.269-1.702.144-.444.797-.723,1.222-1.072" fill="#fff" stroke-width="0"/><path d="M93.803,52.975c.154-.806.268-1.747.524-2.647.239-.84.898-1.258,1.776-1.09.866.166,1.356.769,1.267,1.65-.094.931-.278,1.861-.516,2.768-.223.846-.851,1.27-1.735,1.163-.846-.102-1.358-.809-1.316-1.844" fill="#fff" stroke-width="0"/><path d="M17.164,62.317c-.427.428-.79.995-1.307,1.26-.708.364-1.411.019-1.777-.653-.464-.851-.862-1.752-1.169-2.671-.275-.825.05-1.522.855-1.906.757-.361,1.637-.049,2.029.764.465.966.847,1.973,1.369,3.206" fill="#fff" stroke-width="0"/><path d="M92.55,63.679c-1.229-.019-2-.968-1.693-1.96.297-.957.72-1.885,1.18-2.777.367-.712,1.075-.883,1.807-.657.752.233,1.241.852,1.021,1.595-.332,1.118-.831,2.2-1.379,3.234-.173.327-.731.449-.936.565" fill="#fff" stroke-width="0"/><path d="M30.39,9.772c-.013,1.189-2.88,3.371-4.006,3.048-1.136-.325-1.535-1.748-.657-2.594.697-.671,1.479-1.279,2.3-1.792,1.082-.677,2.377.095,2.363,1.338" fill="#fff" stroke-width="0"/><path d="M45.5.802c1.095.013,1.68.398,1.841,1.228.167.859-.171,1.542-1.035,1.797-.898.265-1.82.471-2.745.611-.868.131-1.491-.267-1.724-1.146-.222-.834.182-1.602,1.07-1.87.929-.281,1.89-.456,2.593-.62" fill="#fff" stroke-width="0"/><path d="M83.205,73.441c.309.274.924.572,1.085,1.03.163.465.057,1.232-.248,1.611-.601.748-1.389,1.362-2.163,1.948-.621.471-1.332.403-1.921-.111-.599-.524-.786-1.328-.31-1.88.784-.907,1.775-1.638,2.7-2.417.139-.117.399-.091.857-.181" fill="#fff" stroke-width="0"/><path d="M64.076,4.459c-.827-.195-1.826-.366-2.78-.677-.804-.262-1.086-.951-.927-1.764.154-.787.7-1.278,1.476-1.189,1.063.122,2.129.347,3.147.673.802.257,1.061.985.869,1.788-.197.824-.789,1.185-1.785,1.169" fill="#fff" stroke-width="0"/><path d="M53.839,3.178c-.454,0-.913.038-1.362-.01-.837-.089-1.344-.584-1.411-1.424-.072-.898.4-1.545,1.261-1.652.997-.123,2.03-.119,3.03-.011.862.093,1.36.715,1.312,1.614-.049.892-.577,1.401-1.468,1.478-.451.038-.908.006-1.362.005" fill="#fff" stroke-width="0"/></g></svg>