<?xml version="1.0" encoding="UTF-8"?><svg id="Layer_2" xmlns="http://www.w3.org/2000/svg" width="184" height="184" viewBox="0 0 184 184"><g id="Layer_1-2"><path d="M184,92C184,41.19,142.81,0,92,0S0,41.19,0,92s41.19,92,92,92,92-41.19,92-92" fill="#f1716f" stroke-width="0"/><path d="M51.423,65.587c0-3.374-.002-6.595.001-9.816.002-1.767.661-2.429,2.418-2.433,1.969-.004,3.938,0,6.002,0,0-2.57,0-5.049,0-7.528,0-.351-.02-.704.015-1.052.097-.948.793-1.641,1.743-1.74.316-.033.637-.015.956-.015,25.232-.001,50.463-.001,75.695-.001,2.219,0,2.746.534,2.746,2.779,0,28.134,0,56.269-.002,84.403,0,5.26-3.108,9.369-7.996,10.526-.859.203-1.767.279-2.652.28-25.551.014-51.101.015-76.652.008-6.204-.001-10.691-4.478-10.693-10.671-.008-20.766-.004-41.532-.002-62.298,0-1.777.654-2.438,2.409-2.441,1.97-.005,3.94,0,6.011,0M55.257,57.195v70.788c0,1.753-.636,2.654-1.886,2.676-1.282.022-1.948-.903-1.948-2.708v-58.467h-4.587v60.717c0,.287-.003.575.013.861.191,3.332,3.007,6.038,6.344,6.101,3.673.068,6.632-2.821,6.643-6.572.023-8.325.008-16.65.009-24.976,0-.35-.021-.706.027-1.051.13-.931.915-1.62,1.832-1.649.952-.029,1.791.666,1.945,1.631.04.25.028.509.028.764,0,8.357.003,16.714-.004,25.072,0,.571-.049,1.145-.114,1.714-.209,1.839-1.003,3.45-2.139,5.071h.988c22.615,0,45.23.002,67.845-.001,4.188,0,6.911-2.755,6.912-6.984.002-27.431.001-54.863.001-82.295v-1H63.678v1.175c0,12.919,0,25.837,0,38.756,0,.35.021.706-.029,1.05-.143.97-.981,1.666-1.934,1.642-.919-.023-1.706-.709-1.84-1.64-.05-.345-.029-.7-.029-1.051,0-9.505,0-19.011,0-28.516v-1.108h-4.587Z" fill="#fff" stroke-width="0"/><path d="M100.364,73.248c-9.597,0-19.195.001-28.792,0-1.908,0-2.54-.623-2.541-2.504-.002-4.24-.003-8.481,0-12.722.002-1.711.669-2.387,2.367-2.387,19.354-.002,38.709-.002,58.063,0,1.677,0,2.348.692,2.35,2.405.003,4.241.003,8.482,0,12.723-.001,1.839-.639,2.484-2.464,2.484-9.661.002-19.322,0-28.984,0M72.911,69.349h54.99v-9.834h-54.99v9.834Z" fill="#fff" stroke-width="0"/><path d="M69.031,98.844c0-5.899,0-11.798,0-17.696,0-1.918.615-2.546,2.496-2.546,9.437-.002,18.875-.002,28.313,0,1.881,0,2.498.63,2.498,2.544,0,11.829,0,23.658,0,35.488,0,1.944-.615,2.548-2.592,2.548-9.374,0-18.748,0-28.122,0-2.008,0-2.593-.597-2.593-2.642,0-5.899,0-11.798,0-17.696M98.435,82.514h-25.517v32.793h25.517v-32.793Z" fill="#fff" stroke-width="0"/><path d="M100.316,128.369c-9.533,0-19.066,0-28.599,0-.35,0-.706.021-1.05-.031-.966-.147-1.658-.991-1.629-1.943.028-.918.716-1.699,1.648-1.83.345-.049.7-.028,1.051-.028,19.129-.001,38.259-.001,57.389-.001,1.757,0,2.654.63,2.679,1.878.026,1.282-.903,1.956-2.699,1.956h-28.79" fill="#fff" stroke-width="0"/><path d="M119.692,82.435c-3.282,0-6.563.008-9.845-.004-1.299-.005-2.155-.794-2.148-1.926.006-1.129.861-1.878,2.172-1.903.032-.001.064-.001.096-.001,6.531,0,13.062-.003,19.593.003,1.379.001,2.253.766,2.245,1.925s-.878,1.901-2.268,1.904c-3.282.007-6.563.002-9.845.002" fill="#fff" stroke-width="0"/><path d="M119.712,91.621c-3.313,0-6.627.017-9.94-.007-1.617-.012-2.643-1.552-1.801-2.791.337-.497,1.11-.983,1.69-.989,6.722-.068,13.444-.052,20.167-.036,1.158.003,1.973.836,1.978,1.898.004,1.098-.835,1.913-2.058,1.919-3.345.017-6.691.006-10.036.006" fill="#fff" stroke-width="0"/><path d="M119.849,96.975c3.218,0,6.436-.004,9.654.002,1.405.002,2.274.716,2.303,1.868.029,1.187-.867,1.961-2.306,1.962-6.5.004-12.999.004-19.498,0-1.442,0-2.334-.773-2.303-1.965.03-1.155.893-1.863,2.305-1.865,3.282-.006,6.563-.002,9.845-.002" fill="#fff" stroke-width="0"/><path d="M119.753,109.995c-3.25,0-6.499.004-9.749-.002-1.444-.002-2.334-.77-2.305-1.962.028-1.157.89-1.867,2.302-1.868,6.499-.004,12.999-.004,19.498,0,1.441,0,2.336.773,2.306,1.961-.029,1.152-.898,1.867-2.303,1.869-3.25.006-6.499.002-9.749.002" fill="#fff" stroke-width="0"/><path d="M119.652,119.182c-3.218,0-6.436.004-9.654-.002-1.41-.002-2.272-.714-2.299-1.872-.028-1.191.862-1.957,2.308-1.958,6.5-.004,12.999-.004,19.498,0,1.405,0,2.274.719,2.301,1.871.027,1.188-.868,1.957-2.309,1.959-3.282.006-6.563.002-9.845.002" fill="#fff" stroke-width="0"/><path d="M63.75,96.184c.014,1.078-.847,1.951-1.913,1.939-1.029-.011-1.86-.846-1.874-1.884-.015-1.076.85-1.951,1.914-1.939,1.032.012,1.86.845,1.873,1.884" fill="#fff" stroke-width="0"/></g></svg>