<?xml version="1.0" encoding="UTF-8"?>
<svg id="Livello_1" data-name="Livello 1" xmlns="http://www.w3.org/2000/svg" version="1.1" viewBox="0 0 415.58 100.27">
  <defs>
    <style>
      .cls-1 {
        fill: #007e56;
      }

      .cls-1, .cls-2, .cls-3, .cls-4 {
        stroke-width: 0px;
      }

      .cls-2 {
        fill: #e30523;
      }

      .cls-3 {
        fill: #124487;
      }

      .cls-4 {
        fill: #fff;
      }
    </style>
  </defs>
  <g>
    <polygon class="cls-3" points="355.28 41.62 338.78 75.08 322.27 41.62 311.73 41.62 338.78 92.52 365.82 41.62 355.28 41.62"/>
    <g>
      <path class="cls-3" d="M227.32,50.44c8.19,0,14.86,6.66,14.86,14.86v26.11l8.52-.04v-26.64c0-12.89-10.49-23.38-23.38-23.38s-23.38,10.49-23.38,23.38v26.64l8.52.04v-26.11c0-8.19,6.67-14.86,14.86-14.86"/>
      <path class="cls-3" d="M169.24,41.71c-13.75,0-24.93,11.18-24.93,24.93s11.22,25.01,25.01,25.01c9.56,0,18.68-5.91,22.68-14.7l.13-.29h-9.47l-.06.08c-2.89,3.89-7.88,6.22-13.36,6.22-6.64,0-12.33-3.31-14.86-8.63l-.15-.36c-1.21-2.28-1.38-4.91-1.38-7.41,0-2.9.54-5.33,1.65-7.45,2.53-5.47,7.94-8.62,14.83-8.62,7.61,0,13.37,4.04,15.82,11.09l.23.67h-24.81s-.5,1.47-.5,4.31c0,1.82.34,3.24.37,3.38h33.83l-.02-1.25c-.09-5.66-.36-7.5-1.65-10.92-3.47-9.45-13.07-16.06-23.36-16.06"/>
      <path class="cls-3" d="M284.99,50.56c8.72,0,12.4,4.27,18.38,16.28l12.39,24.57,9.55-.04-12.38-25.3c-6.84-15.26-13.89-24.71-27.93-24.71s-25.03,11.23-25.03,25.03,11.23,25.03,25.03,25.03c3.77,0,13.15-.82,18.65-8.45l.07-.1-4.27-8.39-.19.33c-2.87,5.08-8.74,8.62-14.27,8.62-8.64,0-15.93-7.52-15.93-16.43s7.3-16.43,15.93-16.43"/>
    </g>
  </g>
  <polygon class="cls-3" points="128.25 16.26 97.18 21.71 104.96 12.43 127.75 7.87 133.39 1.1 139.64 0 140.74 6.24 136.3 13.86 139.82 36.83 133.73 47.33 128.25 16.26"/>
  <path class="cls-2" d="M93.25,92.46l34.46-49.19-2.53-14.29-31.93,45.46h0l-29.03-41.33c-4.39-6.26-11.65-10.35-19.87-10.35-13.41,0-24.27,10.86-24.27,24.27s10.86,24.27,24.27,24.27c8.62,0,16.18-4.5,20.49-11.27l-6.86-9.8c-1.45,6.19-7,10.8-13.62,10.8-7.74,0-14.01-6.27-14.01-14s6.27-14,14.01-14c4.74,0,8.93,2.36,11.46,5.98l37.44,53.45h0Z"/>
  <path class="cls-1" d="M93.25,57.43l24.01-34.22-14.31,2.52-9.69,13.86-12.59-17.98C72.64,10.17,59.37,2.7,44.34,2.7,19.85,2.7,0,22.54,0,47.03s19.85,44.34,44.34,44.34c12.84,0,24.4-5.46,32.5-14.18l-6.07-8.66c-6.25,7.68-15.77,12.58-26.43,12.58-18.82,0-34.07-15.25-34.07-34.07S26.29,12.97,44.34,12.97c11.54,0,21.74,5.74,27.9,14.53l21,29.93h0Z"/>
  <path class="cls-4" d="M123.93,22.01l1.25,6.98-31.93,45.46h0l-29.03-41.33c-4.39-6.26-11.65-10.35-19.87-10.35-13.41,0-24.27,10.86-24.27,24.27s10.86,24.27,24.27,24.27c8.62,0,16.18-4.5,20.49-11.27l5.95,8.49c-6.25,7.68-15.77,12.58-26.43,12.58-18.82,0-34.07-15.25-34.07-34.07S26.29,12.97,44.34,12.97c11.54,0,21.74,5.74,27.9,14.53l21,29.93h0l24.01-34.22,6.67-1.2"/>
  <g>
    <path class="cls-3" d="M371.18,79.63l-1.46-.63c-1.59-.66-3.15-1.45-3.15-3.12,0-1.77,1.26-2.96,3.13-2.96,1.74,0,2.55.77,3.46,2.19l.15.23,2.46-1.63-.12-.22c-1.23-2.25-3.37-3.54-5.89-3.54-3.65,0-6.41,2.51-6.41,5.83s2.54,4.84,4.93,5.93l1.4.62c1.95.88,3.64,1.64,3.64,3.98,0,2.22-1.74,3.9-4.04,3.9-2.1,0-3.73-1.46-4.13-3.72l-.05-.29-2.92.8.05.25c.75,3.56,3.54,5.87,7.11,5.87,4.01,0,7.15-3.09,7.15-7.03s-2.73-5.33-5.3-6.47Z"/>
    <path class="cls-3" d="M386.86,78.47c-4.05,0-7.35,3.3-7.35,7.35v14.45h3.02v-14.45c0-2.39,1.94-4.33,4.33-4.33s4.33,1.94,4.33,4.33-1.94,4.33-4.33,4.33c-.85,0-1.69-.26-2.45-.76l-.42-.27v3.44l.16.07c.83.36,1.74.54,2.7.54,4.05,0,7.35-3.3,7.35-7.35s-3.3-7.35-7.35-7.35Z"/>
    <polygon class="cls-3" points="405.33 68.9 394.81 92.79 398.08 92.79 405.27 75.97 408.52 83.78 404.09 83.78 402.89 86.57 409.71 86.57 412.31 92.79 415.58 92.79 405.33 68.9"/>
  </g>
</svg>