<?xml version="1.0" encoding="UTF-8"?>
<svg id="Livello_1" data-name="Livello 1" xmlns="http://www.w3.org/2000/svg" version="1.1" viewBox="0 0 348.64 124.13">
  <defs>
    <style>
      .cls-1 {
        fill: #000;
        stroke-width: 0px;
      }
    </style>
  </defs>
  <path class="cls-1" d="M27.56,124.13h-7.35l-1.66-5.1h-9.88l-1.62,5.1H0l10.16-28.27h7.2l10.2,28.27ZM56.8,124.13h-7v-28.27h7v28.27ZM119.32,95.86c7.83,0,13.09,5.65,13.09,14.31,0,4.98-1.74,8.97-4.9,11.39-2.21,1.66-5.06,2.57-8.62,2.57h-11.62v-28.27h12.06ZM168.87,95.86c5.61,0,9.88,2.89,9.88,8.15,0,3.28-1.62,5.69-4.9,6.84v.12c2.45.83,3.72,2.37,4.11,5.18.59,3.72.2,7.27,1.19,7.63v.36h-6.8c-.75-.43-.63-3.76-1.07-6.56-.36-2.61-1.7-4.03-4.71-4.03h-4.23v10.6h-7v-28.27h13.52ZM209.13,124.13h-7v-28.27h7v28.27ZM242.92,110.68c.63,2.12,1.3,4.95,1.3,4.98h.08s.71-2.9,1.31-4.98l4.39-14.83h7.08l-9.29,28.27h-7.24l-9.33-28.27h7.28l4.43,14.83ZM300.63,101.63h-14.43v5.06h12.38v5.46h-12.38v6.05h14.67v5.93h-21.67v-28.27h21.43v5.77ZM339.66,110.05c.43.79,1.92,3.56,1.94,3.6h.08s-.08-3.41-.08-4.39v-13.4h6.84v28.27h-7.04l-8.3-14c-.47-.75-2.02-3.8-2.02-3.8h-.08s.08,3.64.08,4.63v13.17h-6.84v-28.27h7.04l8.38,14.19ZM114.26,118.24h4.11c4.59,0,6.96-2.89,6.96-8.07s-2.49-8.46-6.88-8.46h-4.19v16.53ZM13.6,103.17s-.67,2.53-1.15,3.99l-2.17,6.84h6.64l-2.13-6.84c-.47-1.46-1.11-3.99-1.11-3.99h-.08ZM162.35,108.35h5.26c2.77,0,4.19-1.31,4.19-3.44s-1.34-3.52-4.03-3.52h-5.42v6.96ZM43.89,13.12H14.86v14.9h22.09v12.73H14.86v25.07H.1V0h43.79v13.12ZM90.02,65.82h-14.76V0h14.76v65.82ZM151.79,48.06L167.33,0h15.64l-23.95,65.82h-15.54L119.54,0h16.32l15.93,48.06ZM257.15,13.03h-29.81v12.83h23.16v12.63h-23.16v14.21h31.96v13.12h-46.72V0h44.57v13.03ZM334.07,42.73V0h14.56v65.82h-13.39l-28.93-43.52v43.52h-14.56V0h14.07l28.25,42.73Z"/>
</svg>