<?xml version="1.0" encoding="UTF-8"?>
<svg id="Livello_1" data-name="Livello 1" xmlns="http://www.w3.org/2000/svg" xmlns:xlink="http://www.w3.org/1999/xlink" version="1.1" viewBox="0 0 234.82 106.59">
  <defs>
    <style>
      .cls-1 {
        clip-path: url(#clippath);
      }

      .cls-2 {
        fill: none;
      }

      .cls-2, .cls-3, .cls-4 {
        stroke-width: 0px;
      }

      .cls-3 {
        fill: #5f5f5e;
      }

      .cls-4 {
        fill: #4aaa42;
      }
    </style>
    <clipPath id="clippath">
      <rect class="cls-2" y="-.85" width="234.82" height="118.33"/>
    </clipPath>
  </defs>
  <path class="cls-3" d="M196.08,10.69c-1.38-2.34-3.41-3.82-6.53-3.82-2.99,0-6.24,2.2-6.76,5.21-1.35,7.8,18.23,4.58,15.54,20.11-1.61,9.27-8.73,15.84-18.52,15.82-6.62,0-10.82-3.7-13.19-9.05l7.03-5.7c.65,3.57,3.47,6.77,7.48,6.77,3.82,0,6.71-3.12,7.33-6.68.83-4.79-3.51-6.15-7.03-7.56-5.74-2.47-9.75-5.48-8.5-12.67,1.33-7.68,8.32-13.87,16.41-13.86,4.25,0,9.82,2.04,12.21,5.18l-5.48,6.26"/>
  <g class="cls-1">
    <path class="cls-4" d="M104.32,90.18c-3.13-1.5-6.26-3.36-9.41-5.67C74.39,69.4,55.63,38.9,41.68-.05h-9.45c14.11,40.65,33.58,72.98,55.38,90.29-2.92-1.45-6.03-3.57-8.99-5.74C58.11,69.39,39.35,38.9,25.39-.05h-9.46c13.98,40.29,33.74,72.83,55.3,90.25-2.89-1.52-6.47-4.13-9.41-6.34C41.54,68.43,23.01,38.21,9.18-.05H-.12c14.59,41.44,34.64,74.42,56.73,91.19,12.82,9.75,25.68,13.69,38.21,11.72.57-.09,1.13-.24,1.69-.37,4.92.99,9.82,1.14,14.66.37.56-.09,1.1-.24,1.65-.35,4.91.98,9.8,1.12,14.64.36,19.56-3.07,35.29-20.18,45.96-46.76h-9.44c-7.7,17.9-17.39,29.1-29.61,34.24,9.27-8.14,16.59-18.94,22.74-34.24h-9.41c-7.73,17.95-16.52,28.99-28.79,34.1,9.29-8.14,15.69-18.78,21.84-34.1h-9.4c-7.04,16.35-16.17,28.23-27.02,34.07"/>
    <path class="cls-3" d="M166.81,22.14l-.19,1.18c-2.17,13.16-11.08,24.85-26.08,24.85-14.11,0-21.14-11.5-19.02-24.36,2.18-13.29,13.23-24.72,27.66-24.72,8.21,0,14.73,4.02,17.28,11.13l-9.05,4.33c-1.24-4.2-4.81-7.42-9.81-7.42-9.11,0-15.08,8.96-16.34,16.69-1.27,7.73,1.86,16.32,10.97,16.32,5.9,0,11.65-4.94,12.77-10.57h-10.26l1.22-7.42h20.84"/>
  </g>
  <polyline class="cls-3" points="217.95 7.91 216.26 18.17 231.27 18.17 229.97 26.08 214.96 26.08 212.88 38.69 228.48 38.69 227.17 46.6 202.16 46.6 209.82 0 234.82 0 233.53 7.91 217.95 7.91"/>
  <path class="cls-3" d="M187.62,60.54l-.82,4.92c-1.06.59-2.7.91-3.9.91-3.35,0-4.89-2.41-4.41-5.25.5-2.96,3.02-5.24,6.03-5.24,1.81,0,2.84.5,3.47,1.3l-1.12,1.03c-.68-.79-1.57-1.06-2.56-1.06-2.26,0-4.03,1.79-4.4,3.98-.38,2.26.99,3.98,3.18,3.98.93,0,1.86-.18,2.52-.52l.47-2.78h-2.19s.21-1.27.21-1.27h3.53"/>
  <path class="cls-3" d="M189.64,63.25c-.2,1.17.75,1.95,1.91,1.95.76,0,1.39-.4,1.98-1l.82.74c-.85.92-1.89,1.37-3.16,1.36-2.09,0-3.15-1.52-2.81-3.51.33-2.01,2.03-3.52,4.01-3.51,2.34,0,2.92,1.81,2.64,3.53l-.08.45h-5.31M193.77,62.24c.16-1.12-.32-1.95-1.59-1.95-1.24,0-2.23,1.06-2.38,1.94h3.97Z"/>
  <path class="cls-3" d="M199.73,61.13c-.23-.37-.62-.67-1.24-.67-.58,0-1.15.27-1.23.75-.14.81.98.92,1.51,1.05,1.04.27,1.81.69,1.6,1.95-.25,1.51-1.72,2.1-3.04,2.1-1.09,0-1.85-.28-2.36-1.19l1.08-.79c.33.41.74.79,1.47.79.64,0,1.38-.27,1.48-.84.13-.76-.9-.91-1.42-1.03-1.03-.27-1.92-.63-1.71-1.91.23-1.4,1.62-2.06,2.86-2.06.88,0,1.74.31,2.08,1.11l-1.1.75"/>
  <path class="cls-3" d="M205.46,60.55h-1.8s-.5,3.03-.5,3.03c-.13.75-.26,1.54.69,1.54.29,0,.66-.04.93-.2l-.19,1.16c-.32.17-.92.22-1.17.22-1.94,0-1.77-1.2-1.59-2.27l.58-3.49h-1.45s.19-1.1.19-1.1h1.45l.32-1.88h1.26l-.31,1.88h1.8s-.19,1.1-.19,1.1"/>
  <path class="cls-3" d="M209.89,59.29c1.97,0,3.26,1.57,2.93,3.52-.32,1.94-2.14,3.51-4.11,3.5-1.97,0-3.26-1.56-2.93-3.51.33-1.95,2.14-3.51,4.11-3.51M208.91,65.13c1.34,0,2.34-.97,2.57-2.32.23-1.36-.45-2.33-1.79-2.33-1.34,0-2.34.97-2.57,2.33-.23,1.36.45,2.33,1.79,2.33"/>
  <path class="cls-3" d="M214.36,59.46h1.26l-.18,1.03h.03c.44-.71,1.36-1.2,2.18-1.2.2,0,.39.03.55.09l-.28,1.37c-.2-.05-.4-.1-.6-.1-1.23,0-2.01.67-2.26,2.14l-.56,3.36h-1.26s1.12-6.69,1.12-6.69"/>
  <path class="cls-3" d="M219.23,63.28c-.19,1.17.75,1.95,1.91,1.95.77,0,1.39-.4,1.99-1l.82.74c-.85.92-1.89,1.37-3.16,1.37-2.09,0-3.15-1.53-2.82-3.51.34-2,2.03-3.51,4.01-3.51,2.33,0,2.93,1.81,2.64,3.53l-.07.45h-5.31M223.37,62.26c.16-1.12-.31-1.95-1.58-1.95-1.24,0-2.23,1.06-2.38,1.95h3.97Z"/>
  <path class="cls-3" d="M184.65,82.45c.35.74,1.13,1.07,1.94,1.07.89,0,2.08-.56,2.27-1.66.39-2.3-4.78-.88-4.12-4.78.2-1.17,1.47-2.79,3.86-2.79,1.08,0,2.09.23,2.69,1.15l-1.27,1c-.25-.52-.85-.88-1.63-.88-1.5,0-2.1.9-2.21,1.52-.43,2.52,4.76,1.02,4.15,4.62-.33,1.93-2.08,3.09-4,3.09-1.28,0-2.44-.44-2.96-1.38l1.28-.96"/>
  <path class="cls-3" d="M192.63,81.67c-.2,1.17.76,1.95,1.93,1.95.78,0,1.41-.39,2-1l.84.74c-.86.92-1.91,1.37-3.2,1.37-2.12,0-3.18-1.53-2.85-3.51.34-2.01,2.05-3.51,4.05-3.51,2.36,0,2.96,1.81,2.67,3.53l-.08.45h-5.37M196.81,80.65c.16-1.12-.32-1.95-1.61-1.95-1.26,0-2.25,1.05-2.4,1.94h4.01Z"/>
  <path class="cls-3" d="M199.82,77.86h1.27s-.18,1.03-.18,1.03h.03c.44-.7,1.38-1.2,2.21-1.2.2,0,.39.03.55.08l-.29,1.37c-.2-.06-.41-.1-.61-.1-1.24,0-2.03.68-2.28,2.14l-.57,3.36h-1.27s1.13-6.69,1.13-6.69"/>
  <polyline class="cls-3" points="203.9 77.87 205.37 77.87 206.51 82.99 209.3 77.87 210.65 77.87 206.89 84.56 205.5 84.56 203.9 77.87"/>
  <path class="cls-3" d="M211.52,77.87h1.27l-1.13,6.69h-1.27s1.13-6.69,1.13-6.69M212.72,74.54c.51,0,.86.43.77.94-.09.5-.58.93-1.09.93s-.86-.43-.77-.93c.08-.51.58-.93,1.09-.93"/>
  <polyline class="cls-3" points="213.07 83.42 217.62 78.98 213.95 78.98 214.14 77.88 219.36 77.88 219.17 79.01 214.59 83.47 218.61 83.47 218.42 84.57 212.88 84.56 213.07 83.42"/>
  <path class="cls-3" d="M220.77,77.88h1.27l-1.13,6.69h-1.27l1.13-6.69M221.97,74.55c.51,0,.86.43.77.93-.08.51-.58.93-1.09.93s-.86-.43-.77-.93c.08-.51.58-.93,1.09-.93"/>
  <polyline class="cls-3" points="160.45 93.18 166.97 93.19 166.75 94.46 161.6 94.45 161.08 97.43 165.87 97.44 165.65 98.71 160.86 98.7 160.29 101.91 165.7 101.91 165.48 103.18 158.7 103.18 160.45 93.18"/>
  <path class="cls-3" d="M167.85,96.49h1.28l-.18,1.03h.03c.45-.71,1.39-1.2,2.43-1.2,1.31,0,2.32.78,2.01,2.56l-.75,4.3h-1.28l.69-3.95c.22-1.26-.43-1.72-1.24-1.72-1.07,0-2,.68-2.27,2.23l-.6,3.45h-1.28s1.17-6.69,1.17-6.69"/>
  <path class="cls-3" d="M175.66,100.31c-.2,1.17.76,1.95,1.94,1.95.79,0,1.43-.4,2.03-1l.84.73c-.88.92-1.94,1.37-3.24,1.37-2.14,0-3.21-1.53-2.87-3.52.35-2,2.08-3.51,4.11-3.51,2.38,0,2.98,1.81,2.67,3.53l-.08.45h-5.42M179.89,99.3c.17-1.12-.31-1.95-1.61-1.95-1.27,0-2.28,1.06-2.44,1.95h4.05Z"/>
  <path class="cls-3" d="M182.88,96.5h1.29l-.19,1.03h.03c.45-.7,1.39-1.2,2.24-1.2.2,0,.39.03.55.08l-.3,1.37c-.21-.06-.41-.1-.61-.1-1.26,0-2.06.68-2.31,2.14l-.59,3.36h-1.28s1.17-6.69,1.17-6.69"/>
  <path class="cls-3" d="M193.1,103.14c-.35,2.02-1.95,3.45-4.16,3.44-1.29,0-2.3-.33-3.1-1.2l.92-1.07c.54.7,1.37,1.09,2.36,1.09,1.91,0,2.5-1.18,2.7-2.31l.18-.99h-.04c-.62.8-1.62,1.18-2.54,1.18-1.99,0-3.19-1.48-2.84-3.43.35-1.98,1.96-3.51,4.05-3.51.92,0,1.78.41,2.16,1.13h.03l.17-.96h1.28l-1.16,6.63M187.94,99.85c-.24,1.36.46,2.24,1.83,2.25,1.37,0,2.38-.89,2.62-2.25.24-1.35-.45-2.33-1.81-2.33-1.37,0-2.4.97-2.64,2.33"/>
  <path class="cls-3" d="M196.09,100.32c-.21,1.17.75,1.95,1.94,1.95.78,0,1.42-.39,2.03-1l.84.73c-.87.92-1.94,1.37-3.23,1.37-2.14,0-3.21-1.53-2.86-3.52.35-2,2.08-3.52,4.11-3.51,2.38,0,2.98,1.81,2.68,3.53l-.08.45h-5.42M200.32,99.31c.17-1.12-.32-1.95-1.61-1.95-1.27,0-2.28,1.06-2.44,1.95h4.06Z"/>
  <path class="cls-3" d="M206.73,97.62h-1.84s-.53,3.03-.53,3.03c-.13.75-.27,1.54.7,1.54.3,0,.66-.04.95-.2l-.2,1.16c-.33.17-.94.23-1.2.23-1.98,0-1.8-1.2-1.61-2.27l.61-3.49h-1.48l.19-1.1h1.48l.33-1.88h1.28s-.33,1.88-.33,1.88h1.84l-.2,1.1"/>
  <path class="cls-3" d="M208.26,96.52h1.28l-1.17,6.69h-1.28l1.17-6.69M209.49,93.19c.51,0,.87.42.78.93-.09.51-.59.93-1.11.93-.51,0-.87-.43-.78-.93.09-.51.59-.93,1.11-.93"/>
  <path class="cls-3" d="M215.7,98.3c-.39-.49-.84-.75-1.55-.75-1.4,0-2.31,1.12-2.53,2.37-.22,1.26.46,2.27,1.79,2.27.71,0,1.26-.25,1.77-.75l.75.9c-.8.73-1.76,1.03-2.75,1.03-2.08,0-3.28-1.43-2.92-3.49.36-2.06,2.05-3.52,4.16-3.52.99,0,1.86.34,2.41,1.06l-1.12.87"/>
  <path class="cls-3" d="M217.73,96.52h1.28l-1.17,6.7h-1.28s1.17-6.7,1.17-6.7M218.96,93.19c.51,0,.87.42.78.93-.09.51-.59.93-1.1.93-.52,0-.87-.43-.78-.93.09-.51.59-.93,1.1-.93"/>
</svg>