<?xml version="1.0" encoding="utf-8"?>
<!-- Generator: Adobe Illustrator 26.3.1, SVG Export Plug-In . SVG Version: 6.00 Build 0)  -->
<svg version="1.1" id="Livello_1" xmlns="http://www.w3.org/2000/svg" xmlns:xlink="http://www.w3.org/1999/xlink" x="0px" y="0px"
	 viewBox="0 0 568 99.6" style="enable-background:new 0 0 568 99.6;" xml:space="preserve">
<style type="text/css">
	.st0{fill:#1D1D1B;}
	.st1{fill:#EC6608;}
</style>
<g>
	<g>
		<g>
			<path class="st0" d="M117.1,93.2c0-0.7,0.4-1.2,1-1.7c0.8-0.9,1.6-1.8,1.6-3.7V44.9c0-1.7-0.8-2.6-1.6-3.4
				c-0.7-0.8-1.1-1.3-1.1-2.1c0-0.9,0.8-1.4,1.7-1.4h15.2c2.6,0,4.2,1.7,4.2,4.3v45.6c0,1.9,0.8,2.8,1.7,3.7c0.6,0.4,1,1,1,1.7
				c0,0.9-0.6,1.3-1.4,1.3h-20.7C117.6,94.5,117.1,94,117.1,93.2z M118.8,22.7c0-5.5,3.9-9.2,9.8-9.2c5.8,0,9.6,3.7,9.6,9.2
				s-3.9,9.3-9.6,9.3C122.7,32.1,118.8,28.3,118.8,22.7z"/>
			<path class="st0" d="M147.5,93.2c0-0.7,0.4-1.2,1-1.7c0.8-0.9,1.6-1.8,1.6-3.7V40.9h-4.8c-0.9,0-1.4-0.6-1.4-1.6
				c0-0.9,0.6-1.4,1.4-1.4h4.8v-2c0-12.2,8-20.2,20.5-20.2c9.4,0,15.9,4.5,15.9,10.3c0,3.7-2.7,6.4-6.9,6.4c-4.3,0-6.9-3-7.8-6.8
				c-1-4.3-2.4-8.1-5.8-8.1c-2.8,0-4.4,2.3-4.4,6.9c0,4.9,2,9.4,6.1,13.4h11.1c1,0,1.6,0.6,1.6,1.4c0,1-0.6,1.6-1.6,1.6h-10.3v46.9
				c0,1.8,0.7,2.7,1.7,3.3c1.1,0.8,1.7,1.2,1.7,2c0,0.9-0.4,1.3-1.4,1.3h-21.4C148,94.5,147.5,94,147.5,93.2z"/>
			<path class="st0" d="M178.2,66.2c0-17.7,11.9-29.4,29.9-29.4s29.8,11.6,29.8,29.4c0,17.7-11.9,29.4-29.8,29.4
				C190,95.6,178.2,84,178.2,66.2z M219.7,74c0-14.3-4.8-35.7-14-35.7c-6.1,0-9.3,9-9.3,20.3c0,14.4,4.8,35.6,14.2,35.6
				C215.9,94.2,219.7,87.1,219.7,74z"/>
			<path class="st0" d="M242.2,93.2c0-0.7,0.4-1.2,1-1.7c0.8-0.9,1.6-1.8,1.6-3.7V44.9c0-1.7-0.8-2.6-1.6-3.4
				c-0.7-0.8-1.1-1.3-1.1-2.1c0-0.9,0.8-1.4,1.7-1.4H259c2.6,0,4.2,1.7,4.2,4.3v7.2c2.9-7.9,7.9-12.6,14.4-12.6
				c5.4,0,10.3,3.2,10.3,9.6c0,5.4-3.4,9.4-9,9.4c-3.7,0-6-1.9-7.3-4.5c-1.1-1.9-2.2-3.5-3.9-3.5s-3.2,1.3-4.5,4.5v35.5
				c0,1.8,0.7,2.7,1.7,3.3c1.1,0.8,1.7,1.2,1.7,2c0,0.9-0.4,1.3-1.4,1.3h-21.4C242.7,94.5,242.2,94,242.2,93.2z"/>
			<path class="st0" d="M290.3,93.2c0-0.7,0.4-1.2,1-1.7c0.8-0.9,1.6-1.8,1.6-3.7V44.9c0-1.7-0.8-2.6-1.6-3.4
				c-0.7-0.8-1.1-1.3-1.1-2.1c0-0.9,0.8-1.4,1.7-1.4H307c2.6,0,4.2,1.7,4.2,4.3v5.9c4.1-6.9,10.8-11.3,18.2-11.3
				c8.1,0,14.4,4.2,16.3,12c4-7.3,10.9-12,18.6-12c9.6,0,16.9,6,16.9,16.9V88c0,1.9,0.8,2.8,1.6,3.7c0.6,0.4,1,1,1,1.7
				c0,0.9-0.6,1.3-1.4,1.3h-20.7c-0.9,0-1.4-0.4-1.4-1.3c0-0.7,0.4-1.2,1-1.7c0.9-0.9,1.7-1.8,1.7-3.7V52.6c0-4.9-3.2-7.9-7.4-7.9
				c-3.8,0-7.1,2.4-9.3,6.2c0.1,0.9,0.1,1.8,0.1,2.8v34.2c0,1.9,0.8,2.8,1.7,3.7c0.6,0.4,1,1,1,1.7c0,0.9-0.6,1.3-1.4,1.3H327
				c-0.9,0-1.4-0.4-1.4-1.3c0-0.7,0.4-1.2,1-1.7c0.8-0.9,1.6-1.8,1.6-3.7V52.6c0-4.9-3-7.9-7.3-7.9c-3.8,0-7,2.3-9.2,6v37.2
				c0,1.9,0.8,2.8,1.7,3.7c0.6,0.4,1,1,1,1.7c0,0.9-0.6,1.3-1.4,1.3h-20.7C290.9,94.5,290.3,94,290.3,93.2z"/>
			<path class="st0" d="M388.8,93.2c0-0.7,0.4-1.2,1-1.7c0.8-0.9,1.6-1.8,1.6-3.7V44.9c0-1.7-0.8-2.6-1.6-3.4
				c-0.7-0.8-1.1-1.3-1.1-2.1c0-0.9,0.8-1.4,1.7-1.4h15.2c2.6,0,4.2,1.7,4.2,4.3v45.6c0,1.9,0.8,2.8,1.7,3.7c0.6,0.4,1,1,1,1.7
				c0,0.9-0.6,1.3-1.4,1.3h-20.7C389.3,94.5,388.8,94,388.8,93.2z M390.6,22.7c0-5.5,3.9-9.2,9.8-9.2c5.8,0,9.6,3.7,9.6,9.2
				s-3.9,9.3-9.6,9.3C394.4,32.1,390.6,28.3,390.6,22.7z"/>
			<path class="st0" d="M414.1,82.1c0-4,2.8-6.5,6.9-6.5c4.8,0,7,3.4,8.4,7.2c2,5.5,4.3,11.5,11.5,11.5c5.2,0,9.3-3.2,9.3-8.4
				c0-6.7-6.7-9.6-15.6-13c-9.3-3.5-19.4-7.8-19.4-19.2c0-10.5,8.5-16.9,24.4-16.9c14.6,0,22.3,5.5,22.3,12.3c0,3.8-2.4,5.8-6.1,5.8
				c-4.7,0-6.8-3.1-7.9-6.4c-2-5.3-3.8-10.3-9.9-10.3c-5.1,0-8.5,3.3-8.5,7.9c0,6.7,7.1,9.5,15.7,13c9.1,3.5,19.3,8,19.3,19.3
				c0,10.9-9.4,17.3-25.6,17.3C424.5,95.6,414.1,90.1,414.1,82.1z"/>
			<path class="st0" d="M469.7,80.6V40.9h-5.3c-0.4,0-0.9-0.3-0.9-0.9c0-0.8,0.9-1,3.2-1.3c8.5-1.3,15.4-5.4,18.2-13
				c0.9-2.4,1.3-3.4,2.2-3.4c0.7,0,1,0.6,1,1.2v14.4H501c1,0,1.4,0.7,1.4,1.4c0,1-0.4,1.6-1.4,1.6h-12.9v41.9c0,3.3,2,5.3,5.2,5.3
				c2.7,0,5.1-1.6,6.5-2.8c1-0.9,1.4-1.2,1.9-1.2c0.4,0,0.7,0.3,0.7,0.9c0,4-7.1,10.5-16.7,10.5C476.1,95.6,469.7,89.6,469.7,80.6z"
				/>
			<path class="st0" d="M501,80.7c0-14.2,17.3-18.6,34-19V51c0-9.5-3.9-12.9-8.7-12.9c-5.4,0-6.4,5-7.4,11.6
				c-0.6,4.2-1.8,8.4-8.2,8.4c-5.2,0-7.8-3-7.8-7.1c0-7.7,9.3-14.3,24.5-14.3c14.7,0,26,6.2,26,20.7v29.7c0,2.1,0.7,2.8,1.7,3.3
				c0.7,0.3,1,0.7,1,1.3c0,1.9-3.2,3.7-8.2,3.7c-6.2,0-10.5-2.8-12.1-7.9c-4.1,5-10.2,7.9-17.3,7.9C508.1,95.6,501,89.9,501,80.7z
				 M529.4,88.4c2.2,0,4.4-0.8,6-2.1c-0.2-1-0.3-2.2-0.3-3.4v-18c-1.4-0.9-3.1-1.4-5.2-1.4c-6.5,0-11.1,4.2-11.1,11.5
				C518.8,83,523.5,88.4,529.4,88.4z"/>
		</g>
	</g>
	<g>
		<g>
			<path class="st0" d="M0.1,61.6c0-0.2,0.1-0.4,0.3-0.5c0.3-0.3,0.5-0.5,0.5-1.1V47c0-0.5-0.2-0.8-0.5-1.1
				c-0.2-0.2-0.3-0.4-0.3-0.6c0-0.3,0.2-0.5,0.5-0.5H6c0.8,0,1.4,0.5,1.4,1.4V60c0,0.6,0.2,0.8,0.5,1.1c0.1,0.2,0.3,0.3,0.3,0.5
				C8.1,61.8,8,62,7.7,62H0.5C0.2,62,0.1,61.8,0.1,61.6z M0.7,40.1C0.7,38.2,2.1,37,4,37c2,0,3.3,1.3,3.3,3.1S6,43.2,4,43.2
				C2.1,43.2,0.7,42,0.7,40.1z"/>
			<path class="st0" d="M9.5,61.6c0-0.2,0.1-0.4,0.3-0.5c0.3-0.3,0.5-0.5,0.5-1.1V40.5c0-0.5-0.2-0.8-0.5-1.1
				c-0.2-0.2-0.3-0.4-0.3-0.6c0-0.3,0.2-0.5,0.5-0.5h5.4c0.8,0,1.4,0.5,1.4,1.4V60c0,0.6,0.2,0.8,0.5,1.1c0.1,0.2,0.3,0.3,0.3,0.5
				c0,0.3-0.1,0.4-0.4,0.4H9.9C9.6,62,9.5,61.8,9.5,61.6z"/>
		</g>
	</g>
	<path class="st1" d="M113.4,82.8c-0.2-1-0.7-1.3-2.2-1.8c-1.9-0.7-4.8-2.2-8.6-6.2L81.4,52.3c11.4-5.6,18-15.3,16.3-26.2
		c-2.1-13.7-16-20.6-34.5-17.8l-42.1,6.6c-1.1,0.2-1.8,0.9-1.6,2c0.1,0.9,0.7,1.3,1.8,2c1.1,0.7,2.3,1.8,2.8,4.9l10.2,65.6
		c0.5,3.1-0.3,4.5-1.2,5.5s-1.3,1.6-1.1,2.5c0.2,1.1,1,1.6,2.1,1.4l25.2-3.9c1-0.2,1.8-0.9,1.6-2c-0.1-0.9-0.7-1.3-1.8-2
		s-2.4-1.8-2.9-4.9L44.9,13.4l8.8-1.4c13.4-2.1,21.5,12.8,23.1,23.6c1,6.5-0.3,12.5-4.5,16L68,55.5c-1.7,1.5-5.7,5.6-1.7,10.6
		L79,80.5c6.2,7.3,15.2,10.3,24.1,8.9C109.4,88.4,113.9,85.5,113.4,82.8z"/>
	<g>
		<path class="st0" d="M558.6,5.5l-3.9,3.6c3.2-0.4,4.4,2.6,4.4,2.6l3.3-2.9C562.5,8.8,562.8,5.5,558.6,5.5z"/>
		<path class="st0" d="M566.5,0.8c-0.9-0.8-2.8-1.2-4-0.1c-1,1-3.3,3.2-3.7,3.7c0,0,4.6-0.1,4.9,4.1c0.9-1,4.1-3.5,4.1-3.9
			C567.9,3.4,567.7,1.9,566.5,0.8z"/>
		<path class="st0" d="M549.2,17.8c-0.6-0.6-1.3-0.5-1.5-0.2c-0.1,0.3,0.1,0.9,0.6,1.3c0.6,0.4,1.1,0.4,1.2,0.3
			C549.7,19.1,549.9,18.5,549.2,17.8z"/>
		<path class="st0" d="M551.5,13.7l-3.1,2.9c0.9,0.1,2,1.1,2,2l3.4-3C553.8,15.6,553.8,13.7,551.5,13.7z"/>
		<path class="st0" d="M561.7,17.5c-1-2.3-2.1-3.7-3.4-5.6c-1.1-1.5-2.4-2-3.6-1.9c-0.3,0-0.6,0.1-0.9,0.3c0.3,0,0.6,0,0.9,0.1
			c1.9,0.4,2.4,2.6,2.4,2.6s-1.3-1.9-3-2c-0.7,0-1.2,0.1-1.6,0.3c-0.1,0.1-0.3,0.3-0.4,0.5c0.5,0,1,0,1.7,0.2
			c1.9,0.5,2.2,2.7,2.2,2.7s-1.1-2-2.8-2.3c-0.6-0.1-1.1,0-1.5,0.1c-0.1,0.2-0.1,0.5-0.1,0.7c0,0,3.5,0.1,3.2,3.2
			c0,0.6-1.7,1.6-1.7,1.6s3.3,2.6,4.8,2.5C559.5,20.2,562.7,19.8,561.7,17.5z"/>
		<g>
			<path class="st0" d="M549.5,21.9c-2.4-3.2-3.8-2.8-3.8-2.8c1.5-2.3,2.7-4.6,2.6-6.1c0-1.2-2.4,0-3.7,0.8c-0.5,0.3-1.9,1-2.1,1
				c0,0-1.9-1-2.7-1c-2.9-0.3-5.9,4.6-8.1,7.7c-1,1.4,0.4,3.5,0.4,3.6c0,0-2.3,3.2-0.3,4.2c0.6,0.4,2.9,0,5.3-1.8
				c0.3,0.2,3.2,2,6.8,2.1c1.4,0,2.5,0,3.3,0c0.2-0.9,0.3-1.5,0.9-2.1C550.4,25.2,551,23.9,549.5,21.9z"/>
		</g>
		<path class="st0" d="M565.2,31.3c0,0-12.1-0.2-19-0.4c4.3,0.9,8.1,3.3,11.5,7.5c3.8-1.9,8-3.9,9.4-5.4c1.7-1.8,0.7-5.8-0.2-7.5
			c-1.2-2.4-4-6.3-4-6.3l-3.9,2.3c0,0,1.1,7.3,1.6,8.4C560.6,30.4,565.2,31.3,565.2,31.3z"/>
	</g>
</g>
</svg>
