<?xml version="1.0" encoding="UTF-8"?><svg id="Layer_2" xmlns="http://www.w3.org/2000/svg" width="184" height="184" viewBox="0 0 184 184"><g id="Layer_1-2"><path d="M184,92C184,41.19,142.81,0,92,0S0,41.19,0,92s41.19,92,92,92,92-41.19,92-92" fill="#0099b7" stroke-width="0"/><path d="M103.79,134.941c.061,1.708.212,3.23.151,4.744-.125,3.09-2.649,5.618-5.749,5.671-4.532.077-9.067.081-13.599-.002-3.095-.057-5.608-2.601-5.724-5.695-.058-1.514.095-3.035.158-4.7-1.951-.749-3.598-2.2-3.952-4.556-.45-2.995-.404-5.943,2.432-8.03.266-.197.3-.922.212-1.355-.896-4.44-3.015-8.17-6.458-11.16-4.892-4.249-8.083-9.55-9.605-15.85-3.852-15.939,6.502-32.2,22.586-35.498,9.267-1.899,17.93-.512,25.651,5.074,15.106,10.927,16.17,33.165,2.201,45.761-3.518,3.172-5.996,6.828-6.982,11.475-.169.801-.166,1.375.601,1.962,1.434,1.098,2.143,2.657,2.158,4.48.008,1.021.079,2.067-.106,3.059-.439,2.35-1.943,3.856-3.975,4.62M97.569,121.221c1.218,0,2.474.324,3.341-.116.564-.286.56-1.687.812-2.589.039-.14.081-.28.121-.42,1.338-4.635,4.05-8.304,7.6-11.541,12.122-11.05,11.351-30.178-1.556-39.734-6.024-4.461-12.877-5.914-20.234-4.991-7.882.987-14.271,4.623-18.7,11.299-7.207,10.863-5.073,25.107,5.022,34.008,3.592,3.166,5.981,7.042,7.177,11.665.209.805.391,1.616.581,2.404h3.646v-20.141c-1.357,0-2.634.037-3.909-.007-3.916-.136-6.954-3.624-6.416-7.334.564-3.889,3.547-6.038,8.048-5.798,3.447.184,6.08,2.996,6.17,6.606.022.859.004,1.72.004,2.585h4.365c0-.957-.027-1.83.005-2.7.109-2.94,1.963-5.464,4.703-6.193,1.038-.277,2.172-.324,3.253-.281,2.727.109,4.723,1.451,5.838,3.939,1.911,4.264-1.197,9.034-5.95,9.178-1.3.039-2.603.006-3.921.006v20.155ZM91.361,131.395c3.359,0,6.719.012,10.078-.005,1.783-.008,2.582-.831,2.624-2.63.008-.328.008-.657,0-.985-.045-1.793-.842-2.602-2.643-2.612-3.031-.018-6.062-.006-9.093-.006-3.651,0-7.303-.011-10.955.006-1.786.009-2.582.832-2.623,2.631-.006.292-.005.584,0,.876.029,1.934.806,2.716,2.752,2.723,3.286.011,6.573.003,9.86.002M91.517,135.285c-2.191,0-4.381-.022-6.571.008-1.273.018-2.133.838-2.281,2.066-.274,2.268.233,3.63,1.524,4.036.274.086.575.107.865.119.473.02.948.009,1.423.009,3.687,0,7.374.013,11.06-.006,1.79-.01,2.599-.847,2.624-2.623.005-.365.008-.73,0-1.095-.04-1.645-.879-2.5-2.511-2.513-2.044-.017-4.088-.004-6.132-.001M93.554,101.149h-4.189v20.092h4.189v-20.092ZM97.556,97.167c1.463,0,2.775.067,4.077-.017,1.626-.104,2.722-1.537,2.483-3.095-.223-1.445-1.405-2.288-3.226-2.3-1.9-.011-3.16.81-3.314,2.294-.104.998-.02,2.015-.02,3.118M85.46,97.127c0-.601-.033-1.14.005-1.674.224-3.1-1.754-4.099-4.5-3.585-1.274.239-2.115,1.392-2.081,2.7.032,1.236.917,2.421,2.142,2.529,1.431.127,2.881.03,4.434.03" fill="#fff" stroke-width="0"/><path d="M113.005,123.286c.927-.926,1.795-1.794,2.768-2.766,1.569,1.598,3.172,3.246,4.793,4.875,1.239,1.245,2.057,1.241,3.36-.005,1.901-1.819,3.796-3.646,5.683-5.479,1.152-1.12,1.143-2.003-.022-3.174-1.495-1.503-3.005-2.991-4.498-4.496-1.019-1.027-1.118-1.807-.315-3.02,2.751-4.156,4.663-8.661,5.737-13.528.295-1.337.943-1.821,2.331-1.83,2.194-.014,4.387.005,6.581-.007,1.529-.008,2.145-.604,2.154-2.114.016-2.704.013-5.408.002-8.113-.007-1.648-.618-2.267-2.246-2.276-2.303-.013-4.606.003-6.91-.006-1.456-.006-2.117-.509-2.368-1.898-.871-4.809-2.749-9.211-5.315-13.343-1.056-1.7-.994-2.239.396-3.626,1.5-1.497,3.009-2.987,4.502-4.492,1.099-1.108,1.108-1.972.015-3.111-1.899-1.977-3.808-3.945-5.73-5.899-.988-1.005-1.923-1.003-2.945-.003-1.515,1.484-3.003,2.994-4.51,4.486-1.201,1.19-1.886,1.282-3.277.368-4.104-2.697-8.552-4.563-13.348-5.618-1.438-.317-1.895-.898-1.903-2.365-.012-2.229.004-4.458-.006-6.687-.008-1.712-.506-2.197-2.229-2.199-2.633-.004-5.265-.01-7.898.002-1.69.008-2.243.562-2.251,2.235-.011,2.302.009,4.605-.008,6.907-.011,1.446-.524,2.068-1.944,2.325-4.809.87-9.213,2.751-13.353,5.302-1.683,1.037-2.205.972-3.622-.437-1.503-1.495-2.999-2.999-4.509-4.486-1.069-1.053-1.956-1.078-3.038-.051-2.014,1.913-4.013,3.842-6.001,5.783-.995.972-.98,1.913.034,2.937,1.517,1.533,3.061,3.039,4.58,4.57,1.066,1.076,1.155,1.84.311,3.114-2.733,4.124-4.629,8.597-5.695,13.428-.306,1.392-.947,1.865-2.408,1.873-2.157.01-4.314-.004-6.471.005-1.586.006-2.191.601-2.198,2.181-.012,2.667-.01,5.335,0,8.003.007,1.727.595,2.318,2.286,2.321,2.194.005,4.387-.004,6.581.003,1.527.005,2.18.499,2.442,1.946.866,4.772,2.729,9.141,5.275,13.243,1.111,1.791,1.046,2.274-.475,3.793-1.475,1.472-2.958,2.935-4.425,4.415-1.046,1.055-1.062,1.954-.028,3.031,1.924,2.004,3.86,3.996,5.808,5.976.933.949,1.907.963,2.866.014,1.635-1.617,3.233-3.273,4.815-4.88.944.984,1.794,1.872,2.605,2.719-1.705,1.752-3.431,3.755-5.398,5.484-2.121,1.866-5.379,1.603-7.388-.402-2.174-2.168-4.315-4.37-6.417-6.607-2.061-2.193-1.998-5.557.102-7.738,1.191-1.238,2.406-2.454,3.654-3.634.501-.474.611-.824.23-1.469-2.075-3.507-3.651-7.229-4.565-11.208-.158-.686-.477-.857-1.124-.842-1.608.037-3.218.027-4.826.008-3.521-.04-5.83-2.362-5.838-5.864-.006-2.887-.015-5.774.003-8.661.021-3.272,2.377-5.642,5.673-5.704,1.644-.031,3.291.026,4.934-.034.328-.013.859-.323.932-.593,1.138-4.224,2.875-8.182,5.234-12.026-1.276-1.256-2.551-2.5-3.814-3.756-2.52-2.509-2.499-5.946.06-8.437,2.043-1.988,4.094-3.97,6.159-5.935,2.316-2.205,5.705-2.204,7.986.024,1.41,1.376,2.762,2.811,4.09,4.169,2.24-1.073,4.296-2.18,6.446-3.054,2.118-.861,4.332-1.485,6.617-2.251,0-1.84-.006-3.772,0-5.703.013-3.566,2.344-5.896,5.904-5.902,2.815-.005,5.63-.006,8.445,0,3.377.008,5.623,2.234,5.663,5.628.023,1.97.004,3.941.004,5.578,4.375,1.843,8.562,3.608,13.057,5.502.961-.991,2.186-2.287,3.446-3.548,2.517-2.52,5.942-2.496,8.449.056,1.972,2.007,3.933,4.027,5.88,6.059,2.311,2.41,2.297,5.775-.027,8.144-1.177,1.2-2.36,2.396-3.579,3.554-.441.42-.544.735-.21,1.296,2.102,3.535,3.692,7.29,4.619,11.304.16.695.501.841,1.136.827,1.571-.034,3.144-.03,4.716-.006,3.96.062,6.162,2.296,6.164,6.23,0,2.741.011,5.482-.003,8.223-.018,3.385-2.403,5.76-5.813,5.796-1.608.017-3.218-.023-4.825.028-.308.01-.812.272-.877.513-1.158,4.253-2.89,8.254-5.251,12.084,1.295,1.282,2.571,2.531,3.83,3.794,2.472,2.482,2.465,5.942-.026,8.37-2.043,1.989-4.095,3.967-6.161,5.932-2.41,2.292-5.776,2.261-8.15-.073-1.744-1.714-3.464-3.451-5.12-5.103" fill="#fff" stroke-width="0"/></g></svg>