<?xml version="1.0" encoding="UTF-8"?><svg id="Layer_2" xmlns="http://www.w3.org/2000/svg" width="93.898" height="93.886" viewBox="0 0 93.898 93.886"><g id="Layer_1-2"><path d="M73.728,43.891c-1.43-.121-2.813-.142-4.16-.372-3.171-.541-4.799-2.317-5.18-5.51-.427-3.583-.246-7.132.656-10.635.052-.203.067-.415.108-.683-1.864-.682-3.003-2.033-3.56-3.896-.295-.987.056-1.713,1.048-1.976,1.352-.358,2.485-1.07,3.356-2.117,3.273-3.936,7.574-4.769,12.333-4.076,1.397.204,2.806.641,4.089,1.231,1.81.832,3.479,1.917,5.366,2.663,2.818,1.113,4.026,3.629,4.408,6.5.41,3.074.084,6.1-1.05,9.004-1.022,2.62-2.698,4.685-5.226,6.023-.286.152-.564.568-.602.89-.116.996-.189,2.017.52,2.882.113.138.206.32.235.493.299,1.77,1.438,3.103,2.305,4.589,2.028,3.476,2.991,7.332,3.682,11.249,1.879,10.644,2.067,21.381,1.671,32.146-.037.991-.663,1.619-1.521,1.588-.879-.031-1.419-.711-1.42-1.782-.002-5.131.132-10.266-.042-15.391-.245-7.237-.861-14.449-2.895-21.454-.615-2.117-1.358-4.202-2.742-5.949-.781-.985-1.636-1.841-1.569-3.246.033-.695-.471-.885-1.14-.695-2.638.75-5.285,1.471-7.921,2.228-.268.077-.562.271-.721.497-5.076,7.26-9.056,15-10.104,23.947-.76,6.486-1.391,12.988-2.079,19.483-.033.303-.048.609-.086.912-.116.933-.735,1.504-1.561,1.449-.818-.054-1.425-.716-1.381-1.636.087-1.8.154-3.606.366-5.393.708-5.97,1.371-11.949,2.252-17.894.927-6.252,3.589-11.887,6.745-17.291,1.09-1.865,2.357-3.626,3.516-5.452.431-.679.966-1.137,1.769-1.33.642-.154.629-.208.535-.996M65.232,23.334c.512.584,1.326.731,2.159.596,1.11-.179,2.199-.484,3.302-.715,3.168-.667,5.326.994,5.408,4.208.025.971-.069,1.95-.185,2.917-.126,1.048-.842,1.656-1.685,1.536-.887-.126-1.333-.819-1.244-1.909.067-.82.184-1.642.162-2.46-.034-1.307-.534-1.675-1.828-1.401-.835.177-1.665.394-2.472.668-.286.098-.643.375-.72.642-1.025,3.539-1.262,7.137-.694,10.783.208,1.341.973,2.195,2.319,2.335,1.574.164,3.161.215,4.744.264,1.157.036,1.595.296,1.959,1.395.158.479.26.978.396,1.501,1.863-.469,3.649-.92,5.455-1.375v-2.116c-.284-.134-.589-.269-.886-.419-1.75-.886-3.125-2.154-3.818-4.016-.17-.458-.22-1.223.044-1.529.613-.71.719-1.41.602-2.277-.112-.822.407-1.442,1.184-1.586.763-.142,1.538.259,1.64,1.078.117.945.23,2.018-.103,2.859-.404,1.02-.088,1.555.624,2.07.49.355,1.037.633,1.561.941.624.366,1.281.353,1.78-.131.996-.966,2.157-1.873,2.823-3.046,1.674-2.945,1.987-6.199,1.333-9.498-.396-1.997-1.565-3.393-3.663-3.895-.685-.164-1.413-.419-1.961-.84-2.777-2.135-5.922-2.8-9.325-2.458-1.827.183-3.505.791-4.875,2.088-1.317,1.248-2.645,2.485-4.036,3.79" fill="#fff" stroke-width="0"/><path d="M20.206,43.854c-.284.637-.012.929.525,1.037.81.164,1.302.685,1.767,1.335,4.203,5.88,7.667,12.164,9.434,19.19,1.061,4.215,1.611,8.575,2.156,12.9.561,4.451.837,8.938,1.234,13.409.025.273.057.553.023.822-.1.787-.756,1.385-1.494,1.33-.798-.059-1.322-.498-1.397-1.313-.142-1.552-.226-3.108-.356-4.66-.565-6.788-1.228-13.568-2.614-20.245-1.066-5.134-3.315-9.813-5.937-14.313-1.013-1.737-2.152-3.402-3.272-5.074-.202-.301-.556-.593-.897-.693-2.574-.754-5.157-1.477-7.748-2.17-1.004-.268-1.29-.124-1.302.883-.013,1.121-.574,1.834-1.228,2.634-1.963,2.399-2.83,5.31-3.566,8.25-1.325,5.293-1.987,10.697-2.18,16.131-.222,6.224-.168,12.458-.223,18.688-.011,1.156-.499,1.846-1.405,1.889-.939.045-1.502-.63-1.553-1.842-.344-8.102-.19-16.194.604-24.263.542-5.505,1.3-10.993,3.458-16.144.7-1.67,1.786-3.176,2.683-4.763.175-.31.305-.647.434-.98.319-.819.631-1.641.933-2.467.134-.363.288-.729.346-1.107.193-1.242-.148-2.052-1.386-2.777-3.289-1.928-4.744-5.141-5.374-8.762-.412-2.362-.513-4.742.121-7.091.813-3.013,2.639-5.035,5.744-5.788.255-.063.526-.187.72-.361,2.871-2.568,6.242-3.197,9.916-2.503,3.394.642,6.448,2.046,9.04,4.365,1.824,1.632,2.222,3.773,1.199,5.973-.122.262-.115.646-.03.933,1.13,3.837,1.404,7.74.94,11.7-.402,3.428-2.424,5.354-5.896,5.637-1.124.092-2.252.14-3.419.21M26.175,23.62c.102-.862-.128-1.497-.732-2.025-2.145-1.875-4.642-3.05-7.411-3.602-3.08-.614-5.895-.144-8.141,2.307-.204.223-.575.353-.889.406-2.353.398-3.738,1.61-4.192,3.972-.621,3.239-.254,6.387,1.243,9.359.644,1.28,1.586,2.303,2.791,3.092.67.438,1.328.605,2.036.133.63-.42,1.267-.834,1.872-1.289.466-.35.552-.771.271-1.351-.544-1.123-.506-2.321-.135-3.488.599-1.885,2.658-2.751,4.598-1.903-.267.761-.53,1.532-.812,2.296-.048.128-.157.271-.276.329-.835.406-1.14,1.187-.524,1.832.924.969.652,1.848.117,2.824-.99,1.804-2.549,2.922-4.368,3.671v2.17c.935.216,1.827.41,2.713.631.905.225,1.805.475,2.752.727.071-.34.119-.575.168-.81.367-1.756.822-2.082,2.621-2.087,1.311-.003,2.635-.018,3.929-.197,1.857-.257,2.525-1.008,2.76-2.869.419-3.309.237-6.586-.621-9.815-.41-1.541-.464-1.579-2.044-1.601-.844-.012-1.411-.367-1.593-1.21-.213-.986.587-1.816,1.786-1.788.663.015,1.323.176,2.081.286" fill="#fff" stroke-width="0"/><path d="M40.842,21.033c-1.78-.765-3.04.327-4.163,1.786-.278.361-.57.788-.956.97-.507.239-1.195.484-1.653.315-.405-.149-.778-.835-.853-1.332-.137-.896-.072-1.829-.031-2.744.025-.557-.203-.822-.652-1.151-1.32-.967-2.742-1.887-3.793-3.11-2.831-3.294-2.664-7.699.254-10.92,2.427-2.678,5.562-4.02,9.058-4.565,4.72-.736,9.211-.088,13.24,2.618,2.846,1.912,4.657,4.485,4.48,8.096-.123,2.499-1.328,4.477-3.154,6.093-2.661,2.354-5.858,3.447-9.338,3.81-.728.076-1.463.083-2.439.134M36.104,19.068c.805-.893,1.461-1.467,2.524-1.254.802.16,1.637.198,2.458.205,3.386.03,6.551-.716,9.247-2.877,3.265-2.616,3.342-6.318.217-9.09-.386-.342-.806-.657-1.247-.925-3.394-2.06-7.078-2.538-10.935-1.9-2.74.454-5.228,1.482-7.138,3.59-2.006,2.215-2.127,4.989-.111,7.189.983,1.073,2.29,1.903,3.57,2.631.919.523,1.566,1.03,1.415,2.431" fill="#fff" stroke-width="0"/><path d="M40.667,33.32c.009-5.613,4.279-10.306,9.507-10.951,4.61-.569,8.476,1.23,10.374,4.89,1.506,2.904,1.319,5.827-.123,8.693-.266.528-.284.933-.011,1.438.39.723.721,1.479,1.066,2.226.289.625.237,1.307-.322,1.645-.454.274-1.181.422-1.661.258-.939-.32-1.779-1.238-2.683-1.271-.894-.032-1.79.806-2.733,1.117-3.488,1.15-6.819.835-9.824-1.379-2.39-1.761-3.531-4.21-3.59-6.666M56.709,36.707c.276-.537.529-1.111.853-1.643,2.324-3.822.661-8.327-3.543-9.569-4.011-1.185-8.565,1.109-9.992,5.033-1.197,3.292.301,6.705,3.559,7.969,2.721,1.057,5.269.548,7.671-1.006.472-.305.991-.537,1.452-.784" fill="#fff" stroke-width="0"/><path d="M5.825,80.721c.325-5.543.572-11.093,1.02-16.626.153-1.89.687-3.781,1.275-5.598.748-2.308,2.577-3.481,4.93-3.589,2.326-.106,3.839,1.338,4.975,3.203.417.686.182,1.524-.443,1.944-.652.438-1.408.326-1.966-.311-.221-.252-.395-.544-.61-.802-1.395-1.676-3.512-1.423-4.135.658-.633,2.117-1.066,4.328-1.29,6.528-.832,8.163-.609,16.347-.267,24.528.022.519.053,1.038.052,1.557-.001.991-.574,1.646-1.436,1.669-.851.024-1.465-.608-1.503-1.609-.144-3.845-.273-7.69-.407-11.536-.065-.005-.13-.011-.195-.016" fill="#fff" stroke-width="0"/><path d="M87.952,79.156c-.19,5.416-.32,9.233-.462,13.049-.039,1.061-.648,1.709-1.531,1.68-.883-.03-1.434-.704-1.412-1.78.107-5.162.375-10.326.29-15.485-.074-4.45-.499-8.897-.869-13.337-.103-1.228-.467-2.462-.884-3.632-.692-1.937-2.468-2.318-3.966-.942-.785.72-1.652.773-2.266.138-.613-.634-.535-1.501.203-2.27,2.63-2.743,6.921-2.052,8.546,1.417,1.118,2.386,1.493,4.978,1.664,7.564.333,5.057.518,10.124.687,13.598" fill="#fff" stroke-width="0"/><path d="M71.13,85.648c.384-4.838.762-9.677,1.161-14.514.034-.416.12-.865.32-1.222.354-.634.97-.827,1.658-.609.833.263,1.086.9,1.011,1.724-.228,2.492-.524,4.982-.654,7.48-.223,4.269-.34,8.543-.498,12.814-.012.336.007.673-.008,1.008-.044.94-.619,1.551-1.453,1.555-.824.005-1.477-.614-1.482-1.537-.011-2.015.036-4.031.061-6.047.003-.213.022-.427.033-.64l-.149-.012Z" fill="#fff" stroke-width="0"/><path d="M22.738,85.153c0,2.719.054,4.92-.041,7.115-.021.503-.452,1.139-.886,1.426-.317.209-1.083.114-1.399-.148-.356-.295-.581-.922-.603-1.416-.209-4.667-.325-9.338-.548-14.004-.11-2.285-.383-4.563-.597-6.842-.115-1.226.314-1.951,1.256-2.054.961-.105,1.59.534,1.696,1.827.4,4.867.777,9.736,1.122,14.096" fill="#fff" stroke-width="0"/></g></svg>