<?xml version="1.0" encoding="UTF-8"?><svg id="Layer_2" xmlns="http://www.w3.org/2000/svg" width="151.025" height="187.267" viewBox="0 0 151.025 187.267"><g id="Layer_1-2"><path d="M87.083,156.786c1.131,5.794-.164,8.718-4.884,11.566-.486.294-.89,1.008-1.005,1.592-1.988,10.123-10.658,17.347-20.86,17.323-10.1-.023-18.806-7.299-20.735-17.259-.121-.626-.59-1.388-1.123-1.701-4.414-2.589-5.907-5.855-4.863-10.912.037-.176.032-.361.055-.652-2.818-1.073-4.984-2.883-6.011-5.804-1.423-4.048.245-8.617,4.091-10.688,1.221-.658,1.312-1.431,1.515-2.604.813-4.714-1.157-7.699-4.931-10.466-6.484-4.752-12.578-10.001-17.392-16.615C-11.081,80.314,1.543,36.446,36.272,22.462c9.683-3.899,19.692-4.753,30.061-4.219v27.083c-1.944,0-3.816-.023-5.687.005-3.583.053-6.229,2.57-6.277,5.937-.048,3.43,2.641,6.062,6.287,6.119,1.87.029,3.741.005,5.749.005v14.969h12.03c.277-3.71,1.652-6.913,4.626-9.284,2.297-1.833,4.929-2.718,7.872-2.655,6.322.135,10.73,4.546,11.906,12.072h17.869c0,2.602.168,5.161-.027,7.691-1.344,17.507-8.991,31.683-22.694,42.632-3.144,2.513-6.265,5.058-9.314,7.684-.565.486-.835,1.403-1.055,2.175-.165.582-.006,1.25-.037,1.877-.134,2.738-.01,4.853,2.852,6.875,5.119,3.615,3.97,11.506-1.581,14.504-.547.296-1.121.543-1.769.854M42.269,78.563c0-2.025.011-3.777-.003-5.529-.031-3.834-2.545-6.561-6.032-6.563-3.506-.001-6.003,2.709-6.032,6.561-.013,1.798-.002,3.596-.002,5.614H6.059c.847,13.85,5.835,25.667,15.728,35.103,5.038,4.805,10.622,9.041,16.026,13.452,1.091.89,1.534,1.777,1.48,3.172-.108,2.804-.032,5.614-.032,8.428h21.048v-23.832c-7.842-1.47-12.064-5.873-11.994-12.441.069-6.396,4.428-10.814,11.969-12.064v-11.901h-18.015ZM66.432,96.668c-2.029,0-3.785-.012-5.541.002-3.835.031-6.543,2.557-6.522,6.068.021,3.484,2.749,5.968,6.598,5.995,1.795.013,3.59.003,5.582.003v30.087h14.984c0-3.055-.079-6.002.052-8.939.035-.801.504-1.807,1.111-2.321,4.219-3.576,8.542-7.031,12.804-10.557,8.74-7.229,14.703-16.284,17.506-27.29.914-3.59,1.309-7.313,1.984-11.218h-18.357c0-2.033.026-3.906-.006-5.778-.062-3.553-2.618-6.213-5.964-6.249-3.442-.036-6.04,2.64-6.092,6.308-.027,1.867-.005,3.736-.005,5.803h-18.134v18.086ZM24.065,72.415c.776-6.852,5.016-11.404,11.007-11.954,2.853-.262,5.5.409,7.878,2.008,3.523,2.369,5.136,5.846,5.476,10.025h11.857v-8.949c-7.109-.928-11.67-5.353-11.954-11.51-.136-2.936.663-5.592,2.431-7.94,2.377-3.156,5.668-4.609,9.493-4.906v-14.905c-31.268-1.231-53.298,24.793-53.763,48.131h17.575ZM60.387,144.99c-7.609,0-15.218,0-22.828,0-.503,0-1.01-.029-1.508.025-1.668.183-2.82,1.426-2.814,2.996.005,1.571,1.157,2.8,2.832,2.98.497.053,1.005.025,1.508.025,15.218.001,30.436.002,45.654-.002.628,0,1.28.063,1.879-.08,1.514-.362,2.43-1.358,2.425-2.941-.005-1.582-.925-2.568-2.441-2.928-.54-.128-1.126-.073-1.691-.074-7.672-.003-15.344-.002-23.016-.002M45.798,169.216c.842,6.645,7.574,12.076,14.801,11.998,7.047-.076,13.697-5.605,14.373-11.998h-29.174ZM60.329,163.098c5.847,0,11.695.011,17.542-.005,2.244-.007,3.601-1.133,3.644-2.944.044-1.822-1.327-3.068-3.511-3.071-11.758-.015-23.516-.03-35.273.039-.906.005-2.162.411-2.62,1.072-.544.785-.861,2.32-.438,3.033.529.89,1.897,1.764,2.928,1.793,5.905.167,11.818.082,17.728.083" fill="#0099b7" stroke-width="0"/><path d="M126.835,54.294c0-1.981.026-3.853-.005-5.725-.06-3.557-2.609-6.219-5.955-6.259-3.445-.042-6.048,2.633-6.102,6.299-.026,1.822-.004,3.645-.004,5.621h-24.101v-14.845c-4.027-.321-7.32-1.766-9.699-4.924-1.77-2.35-2.573-5.002-2.438-7.939.283-6.161,4.853-10.595,12.063-11.524,0-1.839-.014-3.71.002-5.58.049-5.52,3.873-9.389,9.385-9.399,13.898-.025,27.796-.026,41.694,0,5.417.011,9.308,3.868,9.324,9.263.035,11.947.035,23.896,0,35.843-.016,5.298-3.894,9.194-9.154,9.247-4.716.048-9.432.008-14.149.004-.186,0-.373-.035-.861-.083M108.628,48.263c.808-6.937,5.134-11.519,11.173-11.975,2.86-.216,5.491.486,7.852,2.115,3.439,2.372,4.997,5.81,5.343,9.93,2.731,0,5.304.005,7.877-.002,3.097-.008,4.082-.972,4.083-4.035.006-11.384.005-22.768.001-34.151-.002-3.099-.97-4.079-4.036-4.08-13.397-.005-26.795-.005-40.192,0-3.102.001-4.074.965-4.081,4.032-.008,3.629-.002,7.259-.002,11.067-2.057,0-3.928-.023-5.799.005-3.581.054-6.228,2.571-6.276,5.937-.048,3.429,2.64,6.063,6.285,6.12,1.869.029,3.74.005,5.813.005v15.032h11.959Z" fill="#0099b7" stroke-width="0"/></g></svg>