<?xml version="1.0" encoding="UTF-8"?>
<svg id="Livello_1" data-name="Livello 1" xmlns="http://www.w3.org/2000/svg" version="1.1" viewBox="0 0 190.03 124.13">
  <defs>
    <style>
      .cls-1 {
        fill: #009894;
      }

      .cls-1, .cls-2 {
        stroke-width: 0px;
      }

      .cls-2 {
        fill: #373737;
      }
    </style>
  </defs>
  <g>
    <path class="cls-2" d="M12.84,103.24h-2.2v-6.59H2.17v6.59H0v-15.13h2.17v6.55h8.48v-6.55h2.2v15.13h0Z"/>
    <path class="cls-2" d="M33.1,95.65c0,4.35-3.33,7.79-8.28,7.79s-7.99-3.51-7.99-7.72,2.93-7.81,8.09-7.81c5.04,0,8.17,3.68,8.17,7.74ZM19.08,95.72c0,3.44,2.7,5.7,5.88,5.7,1.62,0,3.37-.67,4.42-1.8.96-1.04,1.51-2.68,1.51-3.99,0-2.5-1.91-5.68-5.86-5.68-4.24,0-5.95,3.24-5.95,5.77Z"/>
    <path class="cls-2" d="M47.01,90.02h-5.28v13.22h-2.17v-13.22h-5.19v-1.91h12.64v1.91Z"/>
    <path class="cls-2" d="M58.97,90.04h-6.41v4.62h6.19v1.93h-6.19v4.7h6.61v1.95h-8.78v-15.13h8.58v1.93Z"/>
    <path class="cls-2" d="M65.45,101.26h6.81v1.98h-9.01v-15.13h2.2v13.15Z"/>
    <path class="cls-2" d="M85.16,101.26h6.81v1.98h-9.01v-15.13h2.2v13.15h0Z"/>
    <path class="cls-2" d="M108.31,103.24h-2.22l-2.02-4.46h-6.43l-1.91,4.46h-2.22l6.5-15.22h1.53l6.77,15.22ZM103.19,96.83l-2.44-5.48-2.26,5.48h4.7Z"/>
    <path class="cls-2" d="M122.61,88.11c1.8,0,3.19,0,4.46,1.29.67.67,1.18,1.62,1.18,2.99,0,.76-.13,1.98-1.26,3.06-.96.91-2.15,1.22-4.5,1.22h-1.6v6.57h-2.17v-15.13h3.9ZM120.88,90.02v4.72h1.73c.87,0,1.75,0,2.4-.4.6-.35,1-1.04,1-2,0-.54-.13-1.2-.67-1.68-.67-.64-1.26-.64-2.82-.64h-1.64Z"/>
    <path class="cls-2" d="M143.04,103.24h-2.22l-2.02-4.46h-6.43l-1.91,4.46h-2.22l6.5-15.22h1.53l6.77,15.22ZM137.91,96.83l-2.44-5.48-2.26,5.48h4.7Z"/>
    <path class="cls-2" d="M148.21,101.26h6.81v1.98h-9.01v-15.13h2.2v13.15h0Z"/>
    <path class="cls-2" d="M172.31,103.24h-2.17v-11.78l-4.66,5.86h-.4l-4.7-5.86v11.78h-2.17v-15.13h2.04l5.04,6.21,5.01-6.21h2.02v15.13h-.01Z"/>
    <path class="cls-2" d="M190.03,103.24h-2.22l-2.02-4.46h-6.43l-1.91,4.46h-2.22l6.5-15.22h1.53l6.77,15.22ZM184.91,96.83l-2.44-5.48-2.26,5.48h4.7Z"/>
  </g>
  <g>
    <path class="cls-2" d="M85.7,117.07c-.81-.46-1.72-.77-2.66-.77-1.86,0-3.04,1.38-3.04,2.92,0,1.43,1.01,2.9,3.05,2.9.97,0,1.91-.32,2.73-.85v1.21c-.89.48-1.82.68-2.79.68-2.85,0-4.13-2.14-4.13-3.93,0-2.12,1.72-3.96,4.16-3.96,1.18,0,2.2.42,2.69.63v1.18Z"/>
    <path class="cls-2" d="M94.65,123.04h-1.13l-1.02-2.27h-3.27l-.97,2.27h-1.13l3.3-7.73h.78l3.43,7.73ZM92.04,119.78l-1.24-2.78-1.15,2.78h2.39Z"/>
    <path class="cls-2" d="M98.09,115.36c.91,0,1.62,0,2.27.65.34.34.6.83.6,1.52,0,.38-.07,1-.64,1.55-.48.46-1.09.62-2.29.62h-.81v3.34h-1.1v-7.68h1.98ZM97.21,116.33v2.4h.88c.44,0,.89,0,1.22-.2.3-.18.51-.53.51-1.01,0-.27-.07-.61-.34-.85-.34-.32-.64-.32-1.43-.32h-.84Z"/>
    <path class="cls-2" d="M104.54,115.36c.36,0,.83.03,1.32.25.83.35,1.21,1.12,1.21,1.89,0,.89-.45,1.57-1.29,1.9.7.46,1.13,1.17,1.71,2.12.32.53.52.79,1.05,1.53h-1.3c-.26-.37-1.33-2.05-1.58-2.38-.76-.97-1.13-.97-1.66-.97h-.29v3.35h-1.09v-7.68h1.92ZM103.71,116.29v2.42h.43c.17,0,.77,0,1.07-.11.52-.2.73-.69.73-1.1,0-.44-.23-.85-.59-1.02-.28-.14-.64-.18-1.31-.18h-.34Z"/>
    <path class="cls-2" d="M111.18,123.04h-1.1v-7.68h1.1v7.68Z"/>
  </g>
  <g>
    <path class="cls-1" d="M99.18,27.24c-.17-1.01-.02-2.03.23-3.02.24-1,.67-1.92,1.17-2.82,1.01-1.78,2.43-3.3,4.03-4.53l1.24-.88c.43-.25.87-.5,1.31-.73l.67-.35c.22-.11.46-.19.69-.28.46-.19.92-.36,1.39-.53.94-.3,1.91-.5,2.87-.68.98-.1,1.98-.17,2.97-.11-.79.65-1.59,1.18-2.38,1.68-.77.56-1.56,1.03-2.32,1.54-.73.55-1.53.96-2.23,1.51-.36.26-.73.5-1.09.75l-1.05.79c-1.38,1.06-2.72,2.16-3.96,3.41-1.24,1.25-2.44,2.58-3.53,4.24"/>
    <path class="cls-1" d="M102.86,35.07c.31-.97.91-1.82,1.57-2.58.67-.77,1.47-1.41,2.32-1.99,1.71-1.13,3.66-1.83,5.64-2.2l1.5-.22c.5-.02,1-.05,1.5-.06h.75c.25,0,.5.03.74.05.5.04.99.1,1.48.16.97.16,1.94.42,2.87.69.93.36,1.84.75,2.7,1.25-1,.23-1.95.34-2.89.42-.94.15-1.86.22-2.76.32-.9.15-1.8.17-2.68.34-.44.07-.88.11-1.31.18l-1.29.23c-1.71.32-3.4.7-5.07,1.25-1.67.56-3.34,1.2-5.07,2.17"/>
    <path class="cls-1" d="M101.1,40.13c.96-.35,2-.39,3.01-.32,1.02.06,2.02.31,2.98.64,1.93.68,3.68,1.8,5.17,3.15l1.08,1.05c.32.39.64.77.96,1.16l.46.59c.15.2.27.42.4.63.27.42.52.84.77,1.27.47.88.84,1.79,1.19,2.71.28.95.52,1.91.65,2.9-.79-.65-1.45-1.35-2.08-2.04-.69-.65-1.3-1.34-1.93-2-.67-.62-1.22-1.33-1.89-1.92-.32-.31-.62-.63-.93-.94l-.97-.89c-1.29-1.17-2.62-2.28-4.06-3.28-1.46-.99-2.97-1.92-4.8-2.71"/>
    <path class="cls-1" d="M129.35,21.41c-1.31-.19-2.57-.2-3.82-.13-.61,0-1.24.1-1.84.14l-1.82.26c-2.4.4-4.73,1.1-7.04,1.91-2.32.77-4.57,1.82-6.88,2.79-1.13.55-2.28,1.08-3.47,1.59-1.15.56-2.33,1.1-3.6,1.57.81-1.05,1.72-2.01,2.66-2.95.97-.89,2.01-1.71,3.06-2.52,2.19-1.49,4.53-2.83,7.09-3.69,2.54-.89,5.25-1.44,7.99-1.36.69.05,1.37.08,2.04.18.68.13,1.34.22,2,.43,1.3.37,2.58.91,3.61,1.78"/>
    <path class="cls-1" d="M112.53,1.96c-1.13.69-2.11,1.49-3.03,2.34-.47.4-.89.87-1.33,1.29l-1.24,1.35c-1.59,1.84-2.94,3.87-4.2,5.96-1.29,2.08-2.36,4.31-3.51,6.54-.52,1.14-1.07,2.29-1.66,3.43-.53,1.17-1.09,2.33-1.77,3.5-.04-1.33.05-2.65.17-3.97.19-1.3.45-2.6.75-3.89.74-2.54,1.67-5.07,3.11-7.37,1.38-2.31,3.12-4.46,5.28-6.15.56-.4,1.1-.81,1.68-1.17.6-.34,1.18-.69,1.82-.94,1.24-.54,2.57-.94,3.92-.93"/>
    <path class="cls-1" d="M58.61,30.53c.72-1.14,1.79-2.04,2.92-2.78.56-.4,1.17-.69,1.78-1.01.61-.3,1.25-.53,1.9-.78,2.59-.89,5.34-1.17,8.03-1.08,2.7.05,5.33.64,7.87,1.41,1.25.46,2.48.94,3.67,1.49,1.17.63,2.32,1.27,3.42,2.03-1.35-.06-2.63-.23-3.9-.42-1.28-.14-2.54-.3-3.78-.48-2.5-.24-4.96-.57-7.4-.61-2.44-.09-4.87-.06-7.29.27l-1.8.3c-.59.14-1.21.23-1.8.41-1.21.31-2.4.69-3.6,1.27"/>
    <path class="cls-1" d="M61.26,47.66c.35-1.3,1.09-2.48,1.94-3.53.42-.55.91-1.01,1.39-1.5.5-.47,1.04-.88,1.57-1.31,2.2-1.63,4.74-2.73,7.33-3.45,2.6-.76,5.28-.99,7.93-1.03,1.33.06,2.65.15,3.96.32,1.3.24,2.6.51,3.87.9-1.3.35-2.58.57-3.84.77-1.26.26-2.51.48-3.75.68-2.46.52-4.9.95-7.24,1.64-2.35.65-4.66,1.41-6.86,2.45l-1.63.83c-.52.31-1.09.59-1.59.93-1.06.67-2.09,1.4-3.06,2.31"/>
    <path class="cls-1" d="M93.99,27.32c-1.1-1.66-2.29-2.98-3.53-4.24-1.24-1.25-2.57-2.35-3.96-3.41l-1.05-.79c-.36-.26-.73-.49-1.09-.75-.7-.55-1.5-.97-2.23-1.51-.76-.5-1.55-.97-2.32-1.54-.8-.5-1.59-1.03-2.38-1.68,1-.06,1.99.01,2.97.11.96.18,1.94.38,2.87.68.47.17.93.34,1.39.53.23.09.47.18.69.28l.67.35c.44.23.88.48,1.31.73l1.24.88c1.6,1.23,3.02,2.74,4.03,4.53.5.89.92,1.83,1.17,2.82.25.98.4,2.02.23,3.02"/>
    <path class="cls-1" d="M91.63,29.8c-1.45-1.36-2.91-2.38-4.41-3.32-1.49-.93-3.04-1.7-4.63-2.41l-1.2-.53c-.41-.17-.83-.31-1.24-.48-.81-.38-1.68-.6-2.52-.96-.85-.31-1.73-.59-2.61-.97-.89-.31-1.79-.64-2.7-1.09.96-.28,1.94-.44,2.92-.57.98-.05,1.97-.07,2.95,0,.49.06.98.12,1.47.19.24.04.5.07.73.12l.72.19c.48.13.96.27,1.45.41l1.4.57c1.84.83,3.56,1.99,4.96,3.48.68.76,1.31,1.57,1.78,2.48.46.91.84,1.87.91,2.89"/>
    <path class="cls-1" d="M93.68,20.91c-.23-1.98-.69-3.7-1.22-5.38-.54-1.67-1.22-3.26-1.97-4.83l-.57-1.18c-.2-.39-.43-.77-.63-1.17-.38-.81-.89-1.54-1.3-2.36-.45-.79-.94-1.57-1.37-2.42-.48-.81-.95-1.64-1.35-2.58.91.4,1.76.92,2.6,1.45.77.6,1.55,1.22,2.25,1.91.34.36.67.72,1,1.1.17.19.33.37.48.57l.43.61c.28.41.56.83.84,1.25l.7,1.34c.87,1.82,1.44,3.82,1.53,5.86.03,1.02-.01,2.04-.24,3.04-.23,1-.57,1.98-1.17,2.79"/>
    <path class="cls-1" d="M91.73,36.12c-1.9-.61-3.65-.9-5.41-1.1-1.75-.2-3.47-.23-5.22-.19l-1.31.03c-.44.03-.88.07-1.32.1-.89.01-1.77.18-2.69.22-.91.09-1.82.21-2.77.25-.93.11-1.89.19-2.91.18.75-.67,1.56-1.23,2.39-1.76.87-.46,1.75-.91,2.67-1.26.47-.16.94-.32,1.41-.46.24-.07.47-.15.72-.2l.73-.14c.49-.09.98-.17,1.48-.25l1.51-.09c2.02-.04,4.07.26,5.97,1.01.94.39,1.86.85,2.67,1.47.83.6,1.58,1.31,2.08,2.2"/>
    <path class="cls-1" d="M93.23,40.08c-1.87.69-3.43,1.55-4.94,2.46-1.5.92-2.87,1.96-4.23,3.06l-1.01.84c-.33.29-.65.6-.98.89-.69.56-1.29,1.24-1.99,1.82-.66.63-1.3,1.29-2.03,1.9-.67.66-1.37,1.31-2.19,1.93.18-.98.47-1.93.8-2.87.4-.89.81-1.79,1.33-2.64.27-.42.55-.83.83-1.23.14-.2.28-.41.44-.6l.49-.57c.33-.38.67-.74,1.01-1.1l1.13-1c1.57-1.27,3.37-2.31,5.33-2.88.98-.27,1.99-.47,3.01-.48,1.02-.01,2.05.09,2.99.48"/>
    <path class="cls-1" d="M131.33,49.57c-.88-1-1.82-1.84-2.81-2.6-.47-.4-1-.73-1.49-1.09l-1.54-.99c-2.08-1.26-4.3-2.26-6.57-3.15-2.26-.93-4.64-1.61-7.04-2.38-1.21-.32-2.43-.68-3.66-1.06-1.24-.33-2.49-.68-3.75-1.17,1.3-.26,2.62-.39,3.94-.5,1.31-.03,2.64.02,3.97.09,2.63.31,5.28.81,7.78,1.84,2.5.98,4.92,2.34,6.94,4.19.48.48.98.96,1.43,1.47.43.54.88,1.05,1.23,1.63.73,1.13,1.35,2.38,1.57,3.71"/>
  </g>
  <polygon class="cls-1" points="103.24 64.53 91.21 64.53 96.5 40.77 97.91 40.77 103.24 64.53"/>
</svg>