<?xml version="1.0" encoding="UTF-8"?>
<svg id="Livello_1" data-name="Livello 1" xmlns="http://www.w3.org/2000/svg" version="1.1" viewBox="0 0 202.16 169.88">
  <defs>
    <style>
      .cls-1 {
        fill: #4db0e4;
      }

      .cls-1, .cls-2, .cls-3, .cls-4 {
        stroke-width: 0px;
      }

      .cls-2 {
        fill: #007bb1;
      }

      .cls-3 {
        fill: #6d6e70;
      }

      .cls-4 {
        fill: #fff;
      }
    </style>
  </defs>
  <g>
    <path class="cls-3" d="M28.02,57.43l-.34,29.72h-2.37v-14.31c0-1.35,0-2.71.04-4.06.04-1.35.08-2.54.13-3.6.04-1.06.04-1.9.08-2.58l.04-1.02h-.04l-.17.38-.51,1.02c-.21.42-.47.89-.72,1.44-.25.55-.51,1.1-.8,1.69l-7.03,13.46h-1.27l-7.03-13.46c-.3-.59-.59-1.19-.85-1.74-.25-.55-.47-1.06-.68-1.48l-.51-1.02-.17-.38h-.04l.04.97c.04.68.04,1.52.08,2.58.04,1.06.08,2.24.13,3.6.04,1.35.04,2.71.04,4.06v14.35h-2.37v-29.63h2.29l7.15,13.84c.55,1.02.97,1.86,1.31,2.54.34.68.59,1.23.8,1.65.21.42.34.72.42.89l.13.25h.08l.13-.25c.08-.17.21-.47.38-.89.17-.42.42-.97.76-1.65.34-.68.8-1.52,1.35-2.54l7.2-13.84h2.29Z"/>
    <path class="cls-3" d="M52.57,78.43h-13.93l-3.34,8.64h-2.54l11.72-29.63h2.24l11.72,29.63h-2.54l-3.34-8.64ZM51.81,76.27l-4.99-12.66c-.34-.85-.55-1.61-.76-2.29-.21-.68-.34-1.02-.38-1.02h-.04s-.17.34-.38,1.02c-.21.68-.42,1.44-.76,2.29l-4.91,12.66h12.23Z"/>
    <path class="cls-3" d="M79.24,87.06l-6.52-11.56c-.63.08-1.31.13-2.03.13h-5.04v11.43h-2.41v-29.63h7.49c1.57,0,3.01.21,4.28.63,1.27.42,2.37,1.02,3.26,1.82.89.8,1.57,1.78,2.03,2.92.47,1.14.72,2.41.72,3.81,0,2.12-.51,3.89-1.52,5.29-1.02,1.4-2.45,2.41-4.32,3.05l6.77,12.11h-2.71ZM70.94,73.47h-.04c2.5,0,4.4-.63,5.71-1.9,1.31-1.27,1.99-2.96,1.99-5.04s-.68-3.85-2.03-5.04c-1.35-1.19-3.22-1.78-5.63-1.78h-5.16v13.76h5.16Z"/>
    <path class="cls-3" d="M87.66,87.06v-29.63h2.41v29.63h-2.41Z"/>
    <path class="cls-3" d="M119.03,57.43l-.17,29.59h-2.2l-13.55-20.53c-1.02-1.52-1.86-2.71-2.41-3.68-.55-.97-.85-1.44-.89-1.44h-.08l.04.59c.04.38.04.93.08,1.61.04.68.08,1.48.13,2.41.04.93.04,1.9.04,2.96v18.07h-2.41v-29.63h2.24l13.5,20.45c.97,1.44,1.78,2.62,2.37,3.6.59.97.89,1.44.93,1.44h.04v-2.29c0-.68,0-1.48-.04-2.37-.04-.89-.04-1.82-.04-2.79v-17.99h2.41Z"/>
    <path class="cls-3" d="M143.57,78.43h-13.93l-3.34,8.64h-2.54l11.72-29.63h2.24l11.72,29.63h-2.54l-3.34-8.64ZM142.81,76.27l-4.99-12.66c-.34-.85-.55-1.61-.76-2.29-.21-.68-.34-1.02-.38-1.02h-.04s-.17.34-.38,1.02c-.21.68-.42,1.44-.76,2.29l-4.91,12.66h12.23Z"/>
    <path class="cls-3" d="M174.56,57.43h.08c2.03,0,3.89.34,5.59,1.06,1.69.72,3.17,1.74,4.4,3.05,1.23,1.31,2.2,2.88,2.88,4.74.68,1.86,1.02,3.89,1.02,6.14s-.34,4.28-1.02,6.1c-.68,1.82-1.61,3.34-2.84,4.61-1.23,1.27-2.67,2.24-4.32,2.92-1.65.68-3.47,1.02-5.46,1.02h-10.75v-29.63h10.41ZM174.94,84.78h.04c1.61,0,3.09-.3,4.44-.85,1.35-.55,2.54-1.35,3.51-2.41.97-1.06,1.74-2.37,2.29-3.89.55-1.52.85-3.26.85-5.16s-.3-3.77-.89-5.33c-.59-1.57-1.4-2.88-2.41-3.98-1.02-1.1-2.2-1.95-3.6-2.54-1.4-.59-2.92-.89-4.57-.89h-8.08v25.06h8.42Z"/>
    <path class="cls-3" d="M194.15,87.06v-29.63h2.41v29.63h-2.41Z"/>
    <path class="cls-3" d="M33.79,108.03l-.07.21c-1.03-1.58-2.33-2.74-3.91-3.5-1.58-.75-3.22-1.17-4.94-1.17-3.5,0-6.17,1.23-8.09,3.7-1.92,2.47-2.88,5.83-2.88,10.14s1.03,7.75,3.08,10.14c2.06,2.4,4.73,3.56,8.02,3.56,2.06,0,3.98-.48,5.69-1.44,1.71-.96,3.02-2.47,3.91-4.46l11.1,2.95c-1.71,4.39-4.39,7.81-8.02,10.35-3.63,2.54-7.88,3.7-12.75,3.7-3.22,0-6.24-.62-9.05-1.71-2.81-1.17-5.21-2.88-7.2-5.07-1.99-2.19-3.56-4.8-4.73-7.88-1.17-3.08-1.71-6.51-1.71-10.28s.55-7.2,1.71-10.28c1.17-3.08,2.74-5.69,4.73-7.88,1.99-2.19,4.39-3.91,7.2-5.07,2.81-1.17,5.83-1.78,9.05-1.78,4.59,0,8.64,1.1,12.06,3.36,3.43,2.26,6.1,5.41,8.02,9.46l-11.24,2.95Z"/>
    <path class="cls-3" d="M79.44,133.74h-17.34l-2.4,7.54h-11.93l17.2-47.98h11.65l17.2,47.98h-12l-2.4-7.54ZM76.15,123.66l-3.29-10.42c-.27-.89-.55-1.78-.75-2.67-.21-.89-.41-1.65-.62-2.33-.21-.69-.34-1.23-.48-1.64l-.21-.62h-.07l-.14.62c-.14.41-.27.96-.48,1.64-.21.69-.41,1.44-.69,2.33-.27.89-.55,1.78-.82,2.67l-3.36,10.42h10.9Z"/>
    <path class="cls-3" d="M116.11,93.37l-.07.07c2.74,0,5.21.34,7.4,1.1,2.19.75,4.11,1.85,5.69,3.22,1.58,1.37,2.74,3.08,3.56,5.14.82,2.06,1.23,4.32,1.23,6.85s-.41,4.8-1.23,6.85c-.82,2.06-1.99,3.77-3.56,5.21-1.58,1.44-3.43,2.54-5.62,3.29-2.19.75-4.66,1.1-7.4,1.1h-5.89v15.08h-11.24v-47.91h17.14ZM115.83,115.51v.07c2.06,0,3.63-.48,4.8-1.51,1.17-1.03,1.71-2.47,1.71-4.32s-.55-3.29-1.71-4.32c-1.17-1.03-2.74-1.58-4.8-1.58h-5.62v11.65h5.62Z"/>
    <path class="cls-3" d="M165.25,141.35l-8.23-15.56h-5.07v15.63h-11.24v-47.91h17c2.74,0,5.28.41,7.54,1.17,2.26.75,4.18,1.85,5.76,3.29,1.58,1.44,2.81,3.15,3.7,5.14.89,1.99,1.3,4.25,1.3,6.72,0,3.22-.69,5.96-2.12,8.29-1.44,2.33-3.43,4.11-6.03,5.41l10.01,17.82h-12.61ZM152.02,115.51l6.85.14c.96,0,1.78-.21,2.47-.55.69-.34,1.23-.82,1.65-1.37.41-.55.75-1.17.96-1.85.21-.69.34-1.37.34-2.12s-.14-1.44-.34-2.12c-.21-.69-.55-1.3-.96-1.85-.41-.55-.96-1.03-1.65-1.37-.69-.34-1.51-.55-2.47-.55h-6.85v11.65Z"/>
    <path class="cls-3" d="M184.72,141.28v-47.98h11.24v47.98h-11.24Z"/>
  </g>
  <g>
    <path class="cls-2" d="M71.91,24.24s-.06-.23-.13-.61c-.28-1.43-.77-4.95.72-6.04,1.89-1.39,2.25-3.75,4.97-4.34,2.72-.59,4.26-1.3,5.68-2.13,1.42-.83,1.66-1.54,2.72-2.72,1.06-1.18,1.89-2.25,2.84-3.31.95-1.06.83-1.3,2.24-1.54,1.42-.24,1.89-.71,2.96-1.3,1.06-.59.71-2.01,2.96-1.77,2.25.24,4.85,2.37,7.57,2.48,2.72.12,1.42-1.18,3.78.12,2.37,1.3,4.85,2.13,5.32,2.72.47.59,1.42.95,2.84.24,1.42-.71,4.37-2.01,5.79-1.54,1.42.47,1.77,1.42,4.26,1.54,2.48.12,7.45.47,10.4,1.18,2.96.71,2.72.47,4.61,1.89,1.89,1.42,2.49,1.89,3.91,2.01,1.42.12.71-1.18,2.95.59,2.24,1.77,6.98,5.56,8.98,5.44,2.01-.12,1.06-.3,3.9.44,2.84.74,4.37.86,5.8,1.1,1.42.24.94-.83,2.84.36,1.89,1.18,3.31,2.01,5.32,2.96,2.01.95,1.07.24,3.9.95,2.84.71,3.43,1.3,5.2,1.3s1.89-.47,4.38,0c2.48.47,2.6-.59,4.38.59,1.77,1.18,1.54.36,4.73,3.43,3.19,3.08,5.56,3.79,3.9,4.56-1.65.76-1.89.17-2.48,1-.59.83-2.48,1.42-3.9,1.66-1.42.24-10.17-.47-14.78,0-4.61.47-7.92.71-9.82,1.06-1.89.36-6.5.95-7.1,1.07-.59.12-3.43.47-5.44.71-2.01.24-10.52-.71-14.42,0-3.9.71-7.69,1.06-10.29,1.06s-3.66-.12-5.2,0c-1.54.12-5.2,0-5.2,0l-48.01-14.19-3.07-.95Z"/>
    <path class="cls-1" d="M130.67,46.94s-4.61.59-6.15.59-6.5-.48-7.22,0c-.71.47-5.79.82-7.09.59-1.3-.24-4.02-.64-6.03-.55-2.01.08-10.52-.86-12.3-.63-1.77.24-2.48-.31-4.37-.04-1.89.28-3.31.71-4.85.61-1.54-.1-4.49,1.24-8.75.69-4.26-.55-7.09-1.73-7.92-1.38-.83.35-1.89,0-3.31-.06-1.42-.05-6.98-.53-7.45-.53s-1.07-.47-.83-.95c.24-.47.72-1.3-.05-1.66-.77-.35-1.13-.59-2.31-.71-1.18-.12-1.77.59-4.02,0-2.25-.59-5.08.33-7.33-.01-2.25-.34-6.15-.58-7.21-.69-1.06-.12-2.13.24-2.6,0-.47-.24-2.25-.17-3.31-.03-1.07.15-2.37-.13-2.37-.13,0,0-.71-.43-1.3-.67-.59-.24-1.18-.83-1.18-.83l-1.3-1.18h-1.06s-.95-.12-1.77,0c-.83.12-1.66-.22-2.13-.05l-.47.17s.47.95-1.18.95-3.19.12-4.02.12-2.25-.24-2.13-.59l.12-.35s-3.43-.32-4.02-.34c-.59-.02-1.18-.49-1.18-.49,0,0-3.08-.24-3.43,0-.35.24.12-1.54,0-1.89-.12-.36.71-2.6,1.18-3.19.47-.59,1.06-2.48,1.06-2.48,0,0,1.06-1.65,1.54-.59.47,1.06.83,1.06.83,2.01s-.35,2.48.24,2.84c.59.36,1.42-.95,1.66-1.3.24-.36.24-1.3.83-1.18.59.12.71.24,1.42,1.07.71.83.95,1.06,1.06,1.54.12.47.12,1.42.12,1.42l.24.94,2.01-.35s-.24-2.96.24-3.43c.47-.47.83-1.07,1.3-1.07s.71-.35,1.18-.82c.47-.47.35-1.66,1.06-1.3.71.36.83.71,1.66,1.42.83.71.83.12,1.54.94.71.83.71,4.38.71,4.38,0,0,.71,1.06,2.01,0,1.3-1.07,2.01-1.54,2.36-2.25.35-.71.24-.83,1.18-1.06.95-.24,1.42-1.42,2.13-1.66.71-.24,1.3-.59,1.89-.59s1.66-.24,1.77-1.07c.12-.83-.47-1.77.35-2.01.83-.24,1.66-1.06,3.9-2.13,2.25-1.06,2.49-1.89,3.9-2.96,1.42-1.06,1.3-1.18,2.25-1.89.95-.71.95-1.3,2.48-1.18,1.54.12,2.84-.71,5.44.71,2.6,1.42,4.49,1.42,5.56,1.77,1.06.35,1.66.35,3.07.83,1.42.47,2.36.47,2.36.47,0,0,1.3-3.07,3.07-3.19,1.77-.12,4.14-.24,4.97,0,.83.24.59.35,2.13.59,1.54.24,2.25-1.33,4.02-1.31,1.77.01,1.54-1.4,3.43-1.52,1.89-.12,3.19-.35,5.32,0,2.13.36,3.31.36,4.97.36s3.67.57,5.79-.54c2.13-1.11,5.91-1.53,7.33-1.5,1.42.03,1.42-1.03,3.79.74,2.36,1.77,3.19,2.48,4.37,3.55,1.18,1.06,2.13,2.13,3.19,2.25,1.06.12,1.89-.24,2.84.59.95.83,1.18-.83,2.24,1.89,1.07,2.72,1.3,2.84,1.3,4.37s.47,1.77,1.77,3.78c1.3,2.01,1.53,1.07,2.48,2.13.95,1.06.83,1.3,1.18,2.36.35,1.07-.23.71.83,1.77,1.06,1.06,2.24,1.77,3.19,2.48.95.71,1.77,3.43,1.77,3.43Z"/>
  </g>
  <rect class="cls-2" x="0" y="150.73" width="202.16" height="18.7"/>
  <g>
    <path class="cls-4" d="M36.66,156.41h-.01c.48.01.9.07,1.28.2.38.13.71.32.99.56.27.24.48.54.62.89.14.36.21.75.21,1.19s-.07.83-.21,1.19-.35.65-.62.9c-.27.25-.59.44-.98.57-.38.13-.81.19-1.28.19h-1.02v2.62h-1.95v-8.32h2.97ZM36.61,160.26h0c.36.01.63-.07.83-.25.2-.18.3-.43.3-.75s-.1-.57-.3-.75c-.2-.18-.48-.27-.83-.27h-.98v2.02h.98Z"/>
    <path class="cls-4" d="M42.83,160.59c0-.65.1-1.25.3-1.78.2-.54.48-.99.82-1.37.35-.38.76-.68,1.25-.88.49-.2,1.01-.31,1.57-.31s1.09.11,1.57.31c.48.2.89.49,1.25.87.36.38.63.83.83,1.37.2.54.3,1.13.3,1.78s-.1,1.25-.3,1.79c-.2.54-.48.99-.83,1.37-.36.38-.77.67-1.25.87-.48.19-1,.3-1.57.3s-1.08-.11-1.57-.3c-.49-.2-.9-.5-1.25-.88-.35-.38-.62-.83-.82-1.37-.2-.54-.3-1.13-.3-1.79v.02ZM45.37,162.35c.33.43.8.64,1.39.64s1.06-.21,1.4-.64c.35-.43.51-1.02.51-1.79s-.17-1.37-.51-1.78c-.34-.42-.81-.63-1.4-.63s-1.06.21-1.39.63-.5,1.01-.5,1.78.17,1.36.5,1.79Z"/>
    <path class="cls-4" d="M58.63,164.74l-1.43-2.7h-.88v2.71h-1.95v-8.32h2.95c.48,0,.92.07,1.31.2.39.13.73.32,1,.57.27.25.49.55.64.89.15.34.23.74.23,1.17,0,.56-.12,1.04-.37,1.44-.25.4-.59.71-1.05.94l1.74,3.09h-2.19ZM56.33,160.26l1.19.02c.17,0,.31-.04.43-.1.12-.06.21-.14.29-.24.07-.1.13-.2.17-.32.04-.12.06-.24.06-.37s-.02-.25-.06-.37c-.04-.12-.1-.23-.17-.32-.07-.1-.17-.18-.29-.24s-.26-.1-.43-.1h-1.19v2.02Z"/>
    <path class="cls-4" d="M70.19,156.4v1.84h-2.32v6.48h-1.95v-6.48h-2.3v-1.84h6.57Z"/>
    <path class="cls-4" d="M73.09,160.59c0-.65.1-1.25.3-1.78.2-.54.48-.99.82-1.37.35-.38.76-.68,1.25-.88.49-.2,1.01-.31,1.57-.31s1.09.11,1.57.31c.48.2.89.49,1.25.87.36.38.63.83.83,1.37.2.54.3,1.13.3,1.78s-.1,1.25-.3,1.79c-.2.54-.48.99-.83,1.37-.36.38-.77.67-1.25.87-.48.19-1,.3-1.57.3s-1.08-.11-1.57-.3c-.49-.2-.9-.5-1.25-.88-.35-.38-.62-.83-.82-1.37-.2-.54-.3-1.13-.3-1.79v.02ZM75.62,162.35c.33.43.8.64,1.39.64s1.06-.21,1.4-.64c.35-.43.51-1.02.51-1.79s-.17-1.37-.51-1.78c-.34-.42-.81-.63-1.4-.63s-1.06.21-1.39.63c-.33.42-.5,1.01-.5,1.78s.17,1.36.5,1.79Z"/>
    <path class="cls-4" d="M95.65,156.4v1.84h-2.32v6.48h-1.95v-6.48h-2.3v-1.84h6.57Z"/>
    <path class="cls-4" d="M105.79,156.4v4.82c0,.58-.08,1.11-.25,1.56-.17.45-.39.83-.69,1.14-.3.31-.65.55-1.08.71-.43.15-.9.24-1.43.24s-1-.08-1.43-.24c-.43-.17-.79-.4-1.08-.71-.3-.31-.52-.69-.69-1.14-.17-.45-.25-.98-.25-1.56v-4.82h1.96v4.81c0,.64.13,1.11.38,1.4.25.3.62.44,1.11.44s.86-.14,1.11-.44c.25-.3.38-.76.38-1.4v-4.81h1.96Z"/>
    <path class="cls-4" d="M114.05,164.74l-1.43-2.7h-.88v2.71h-1.95v-8.32h2.95c.48,0,.92.07,1.31.2.39.13.73.32,1,.57.27.25.49.55.64.89.15.34.23.74.23,1.17,0,.56-.12,1.04-.37,1.44-.25.4-.59.71-1.05.94l1.74,3.09h-2.19ZM111.75,160.26l1.19.02c.17,0,.31-.04.43-.1.12-.06.21-.14.29-.24.07-.1.13-.2.17-.32.04-.12.06-.24.06-.37s-.02-.25-.06-.37c-.04-.12-.1-.23-.17-.32-.07-.1-.17-.18-.29-.24-.12-.06-.26-.1-.43-.1h-1.19v2.02Z"/>
    <path class="cls-4" d="M119.81,164.73v-8.33h1.95v8.33h-1.95Z"/>
    <path class="cls-4" d="M129.76,159.01l-.04.05c-.11-.37-.29-.64-.55-.82-.26-.18-.52-.26-.8-.26s-.49.06-.64.18-.23.26-.23.43c0,.13.05.24.13.33.08.1.2.19.36.27.15.08.35.18.56.27.21.1.45.2.7.31.27.12.56.25.85.4.29.15.54.33.76.54.23.2.42.44.56.7s.21.57.21.92c0,.37-.07.71-.21,1.02s-.35.58-.62.81c-.27.23-.59.4-.98.54-.38.12-.8.18-1.25.18s-.85-.06-1.2-.17c-.36-.12-.68-.3-.95-.52-.27-.23-.51-.49-.71-.8-.2-.31-.36-.65-.48-1.02l1.87-.5c.05.17.12.32.21.48s.2.29.33.4.29.21.45.29c.17.07.36.11.56.11.31,0,.55-.07.71-.2.17-.13.25-.3.25-.5,0-.15-.05-.29-.14-.39-.1-.11-.23-.21-.4-.31-.18-.1-.38-.19-.62-.27-.24-.08-.49-.18-.76-.31-.26-.12-.52-.27-.78-.42-.26-.14-.49-.31-.69-.5-.2-.19-.37-.42-.49-.68-.12-.26-.18-.57-.18-.93,0-.3.07-.59.21-.88.14-.29.35-.55.61-.77.26-.23.57-.4.93-.54.36-.13.76-.2,1.2-.2.38,0,.74.06,1.07.18.33.12.63.27.9.48.27.2.51.44.7.71.19.27.33.57.43.89l-1.86.51Z"/>
    <path class="cls-4" d="M141.03,156.4v1.84h-2.32v6.48h-1.95v-6.48h-2.3v-1.84h6.57Z"/>
    <path class="cls-4" d="M144.41,164.73v-8.33h1.95v8.33h-1.95Z"/>
    <path class="cls-4" d="M155.49,158.96v.04c-.19-.27-.42-.48-.69-.61-.27-.13-.56-.2-.86-.2-.61,0-1.07.21-1.4.64-.33.43-.5,1.01-.5,1.76s.18,1.34.54,1.76c.36.42.82.62,1.39.62.36,0,.69-.08.99-.25s.52-.43.68-.77l1.93.51c-.3.76-.76,1.36-1.39,1.8s-1.37.64-2.21.64c-.56,0-1.08-.11-1.57-.3-.49-.2-.9-.5-1.25-.88-.35-.38-.62-.83-.82-1.37-.2-.54-.3-1.13-.3-1.79s.1-1.25.3-1.78c.2-.54.48-.99.82-1.37.35-.38.76-.68,1.25-.88.49-.2,1.01-.31,1.57-.31.8,0,1.5.19,2.09.58.59.39,1.06.94,1.39,1.64l-1.95.51Z"/>
    <path class="cls-4" d="M160.64,160.59c0-.65.1-1.25.3-1.78.2-.54.48-.99.82-1.37.35-.38.76-.68,1.25-.88.49-.2,1.01-.31,1.57-.31s1.09.11,1.57.31c.48.2.89.49,1.25.87.36.38.63.83.83,1.37.2.54.3,1.13.3,1.78s-.1,1.25-.3,1.79c-.2.54-.48.99-.83,1.37-.36.38-.77.67-1.25.87-.48.19-1,.3-1.57.3s-1.08-.11-1.57-.3c-.49-.2-.9-.5-1.25-.88-.35-.38-.62-.83-.82-1.37-.2-.54-.3-1.13-.3-1.79v.02ZM163.18,162.35c.33.43.8.64,1.39.64s1.06-.21,1.4-.64c.35-.43.51-1.02.51-1.79s-.17-1.37-.51-1.78c-.34-.42-.81-.63-1.4-.63s-1.06.21-1.39.63c-.33.42-.5,1.01-.5,1.78s.17,1.36.5,1.79Z"/>
  </g>
</svg>