<?xml version="1.0" encoding="utf-8"?>
<!-- Generator: Adobe Illustrator 28.4.1, SVG Export Plug-In . SVG Version: 6.00 Build 0)  -->
<svg version="1.1" id="Layer_1" xmlns="http://www.w3.org/2000/svg" xmlns:xlink="http://www.w3.org/1999/xlink" x="0px" y="0px"
	 viewBox="0 0 923.1 186" style="enable-background:new 0 0 923.1 186;" xml:space="preserve">
<style type="text/css">
	.st0{fill:#0081FB;}
	.st1{fill:url(#SVGID_1_);}
	.st2{fill:url(#SVGID_00000074412395669127689010000013620141435693248144_);}
	.st3{fill:#192830;}
</style>
<g>
	<path class="st0" d="M30.2,122.6c0,10.7,2.3,18.9,5.4,23.9c4,6.5,10,9.3,16.1,9.3c7.9,0,15.1-2,29-21.2
		c11.1-15.4,24.3-37,33.1-50.6l15-23c10.4-16,22.4-33.7,36.2-45.7C176.3,5.5,188.5,0,200.7,0c20.5,0,40.1,11.9,55,34.2
		c16.4,24.4,24.3,55.2,24.3,86.9c0,18.9-3.7,32.7-10,43.7c-6.1,10.6-18,21.2-38.1,21.2v-30.2c17.2,0,21.5-15.8,21.5-33.8
		c0-25.7-6-54.3-19.2-74.7C224.7,32.8,212.6,24,199.2,24c-14.5,0-26.1,10.9-39.2,30.4c-7,10.3-14.1,22.9-22.1,37.1l-8.8,15.6
		c-17.7,31.4-22.2,38.6-31.1,50.4C82.5,178.1,69.3,186,51.8,186c-20.7,0-33.8-9-41.9-22.5C3.3,152.5,0,138,0,121.6L30.2,122.6z"/>
	
		<linearGradient id="SVGID_1_" gradientUnits="userSpaceOnUse" x1="61.7597" y1="352.7221" x2="259.7597" y2="342.7221" gradientTransform="matrix(0.9737 0 0 -0.9737 0.561 431.6192)">
		<stop  offset="0" style="stop-color:#0064E1"/>
		<stop  offset="0.4" style="stop-color:#0064E1"/>
		<stop  offset="0.83" style="stop-color:#0073EE"/>
		<stop  offset="1" style="stop-color:#0082FB"/>
	</linearGradient>
	<path class="st1" d="M23.8,36.3C37.7,14.9,57.7,0,80.7,0C94,0,107.2,3.9,121,15.2c15.1,12.3,31.2,32.6,51.2,66l7.2,12
		c17.4,28.9,27.3,43.8,33,50.8c7.4,9,12.6,11.7,19.4,11.7c17.2,0,21.5-15.8,21.5-33.8l26.7-0.8c0,18.9-3.7,32.7-10,43.7
		c-6.1,10.6-18,21.2-38.1,21.2c-12.5,0-23.5-2.7-35.7-14.2c-9.4-8.8-20.4-24.5-28.8-38.7l-25.1-41.9c-12.6-21.1-24.2-36.7-30.8-43.9
		c-7.2-7.6-16.4-16.9-31.2-16.9c-11.9,0-22.1,8.4-30.6,21.2L23.8,36.3z"/>
	
		<linearGradient id="SVGID_00000074417171571252537300000007321205553753482112_" gradientUnits="userSpaceOnUse" x1="40.8489" y1="304.2729" x2="40.8489" y2="377.2729" gradientTransform="matrix(0.9737 0 0 -0.9737 0.561 431.6192)">
		<stop  offset="0" style="stop-color:#0082FB"/>
		<stop  offset="1" style="stop-color:#0064E0"/>
	</linearGradient>
	<path style="fill:url(#SVGID_00000074417171571252537300000007321205553753482112_);" d="M80.2,30.4c-11.9,0-22.1,8.4-30.6,21.2
		c-12,18.1-19.4,45.1-19.4,71c0,10.7,2.3,18.9,5.4,23.9l-25.8,17C3.3,152.5,0,138,0,121.6c0-29.9,8.2-61.1,23.8-85.2
		C37.7,14.9,57.7,0,80.7,0L80.2,30.4z"/>
	<path class="st3" d="M338.8,5.9h35l59.5,107.6L492.8,5.9H527v176.8h-28.5V47.2L446.3,141h-26.8l-52.2-93.8v135.5h-28.5V5.9z
		 M616.4,71.8c-20.5,0-32.8,15.4-35.7,34.5h69.5C648.7,86.6,637.4,71.8,616.4,71.8L616.4,71.8z M552.4,117.2
		c0-40.1,25.9-69.3,64.5-69.3c38,0,60.6,28.8,60.6,71.5v7.8h-96.9c3.4,20.7,17.2,34.7,39.4,34.7c17.7,0,28.8-5.4,39.3-15.3
		l15.2,18.6c-14.3,13.1-32.5,20.7-55.5,20.7C577.3,185.9,552.4,155.4,552.4,117.2z M712.1,74.3h-26.3V51h26.3V12.3h27.5V51h39.9
		v23.4h-39.9v59.2c0,20.2,6.5,27.4,22.4,27.4c7.3,0,11.4-0.6,17.6-1.6v23.1c-7.7,2.2-15,3.2-22.9,3.2c-29.7,0-44.6-16.2-44.6-48.8
		L712.1,74.3z M895.5,97.1c-5.5-14-17.9-24.2-36-24.2c-23.6,0-38.6,16.7-38.6,44c0,26.6,13.9,44.1,37.5,44.1
		c18.6,0,31.8-10.8,37.1-24.3V97.1z M923.1,182.7h-27v-18.4c-7.6,10.9-21.3,21.6-43.6,21.6c-35.8,0-59.7-30-59.7-69.1
		c0-39.5,24.5-69,61.3-69c18.2,0,32.4,7.3,42.1,20.1V51h27V182.7z"/>
</g>
</svg>
