<?xml version="1.0" encoding="UTF-8"?><svg id="Layer_2" xmlns="http://www.w3.org/2000/svg" width="144.173" height="46.689" viewBox="0 0 144.173 46.689"><g id="Layer_1-2"><path d="M57.652,8.98c.064-.169.13-.334.197-.494.067-.16.141-.316.223-.468L62.234.446c.075-.146.158-.233.249-.262.09-.029.214-.044.371-.044h1.338v12.547h-1.582V3.664c0-.128.003-.265.008-.411.006-.146.015-.294.027-.446l-4.215,7.712c-.064.134-.153.236-.266.306-.114.07-.241.105-.381.105h-.253c-.298,0-.516-.137-.656-.411l-4.302-7.747c.012.157.023.312.035.463.011.152.017.295.017.429v9.023h-1.582V.14h1.338c.157,0,.281.015.371.044.09.029.173.116.249.262l4.241,7.59c.146.291.283.606.411.944" fill="#2d489d" stroke-width="0"/><rect x="67.41" y=".14" width="1.81" height="12.547" fill="#2d489d" stroke-width="0"/><path d="M73.736.193c.079.035.167.12.267.254l7.143,9.259c-.011-.157-.021-.315-.03-.472-.009-.157-.013-.303-.013-.437V.141h1.582v12.547h-.909c-.14,0-.258-.025-.354-.075-.096-.049-.191-.132-.285-.249l-7.152-9.259c.012.151.022.301.031.45.009.149.013.287.013.415v8.718h-1.583V.141h.936c.157,0,.275.017.354.052" fill="#2d489d" stroke-width="0"/><rect x="85.912" y=".14" width="1.81" height="12.547" fill="#2d489d" stroke-width="0"/><path d="M97.409,2.16c-.052.093-.109.162-.17.205-.062.044-.142.066-.241.066-.105,0-.224-.048-.358-.144-.135-.096-.302-.204-.503-.324-.201-.119-.442-.227-.722-.323-.279-.096-.615-.145-1.005-.145-.373,0-.701.049-.984.145s-.519.229-.708.398c-.189.169-.332.368-.428.598-.096.231-.145.48-.145.748,0,.344.086.627.258.848.172.222.398.413.678.573.28.16.599.299.957.415.359.117.725.239,1.098.368.373.128.739.272,1.097.432.359.161.678.365.957.612.28.248.506.551.678.91.172.358.258.797.258,1.316,0,.554-.095,1.071-.284,1.552-.19.481-.465.9-.826,1.259-.362.358-.805.641-1.33.848-.524.207-1.122.31-1.792.31-.402,0-.791-.039-1.167-.118-.376-.078-.732-.189-1.067-.332s-.65-.315-.944-.516c-.295-.201-.559-.427-.792-.677l.525-.857c.047-.07.106-.127.179-.171s.153-.065.241-.065c.122,0,.263.064.424.192.16.128.358.27.594.424s.521.296.853.424c.332.128.734.192,1.206.192.391,0,.741-.052,1.05-.157.309-.105.57-.253.782-.446.213-.192.375-.425.486-.699.11-.274.166-.577.166-.91,0-.373-.086-.677-.258-.913-.172-.237-.398-.433-.678-.591-.28-.157-.597-.291-.953-.402-.355-.111-.721-.226-1.097-.345-.376-.12-.742-.258-1.097-.416-.356-.157-.674-.363-.954-.616-.279-.254-.505-.57-.677-.949-.172-.379-.258-.848-.258-1.407,0-.443.087-.875.262-1.295.175-.419.429-.789.761-1.11.332-.32.741-.578,1.228-.774.487-.195,1.045-.293,1.675-.293.705,0,1.351.111,1.936.333.586.221,1.098.542,1.535.961l-.446.866Z" fill="#2d489d" stroke-width="0"/><polygon points="109.073 .14 109.073 1.653 105.06 1.653 105.06 12.687 103.259 12.687 103.259 1.653 99.237 1.653 99.237 .14 109.073 .14" fill="#2d489d" stroke-width="0"/><polygon points="118.744 .14 118.744 1.609 112.789 1.609 112.789 5.648 117.59 5.648 117.59 7.065 112.789 7.065 112.789 11.218 118.753 11.218 118.744 12.687 110.98 12.687 110.98 .14 118.744 .14" fill="#2d489d" stroke-width="0"/><path d="M122.958,7.511v5.177h-1.801V.14h3.594c.804,0,1.498.082,2.081.245.582.164,1.065.398,1.447.704.381.306.663.675.844,1.106.18.432.271.913.271,1.443,0,.443-.069.857-.206,1.241-.137.385-.335.731-.595,1.037-.259.306-.577.569-.953.791-.376.222-.803.388-1.281.498.228.135.423.324.586.569l3.576,4.914h-1.608c-.327,0-.566-.129-.717-.385l-3.148-4.398c-.099-.14-.207-.241-.324-.302-.116-.061-.291-.092-.524-.092h-1.242ZM122.958,6.191h1.731c.484,0,.91-.058,1.277-.175.367-.116.673-.282.918-.498s.43-.471.555-.765c.125-.295.188-.622.188-.984,0-.729-.239-1.279-.717-1.652-.478-.373-1.197-.56-2.159-.56h-1.793v4.634Z" fill="#2d489d" stroke-width="0"/><path d="M143.76,6.409c0,.939-.15,1.801-.451,2.588-.3.787-.721,1.463-1.263,2.029-.542.565-1.195,1.005-1.958,1.32-.764.315-1.609.472-2.536.472s-1.771-.157-2.532-.472c-.76-.315-1.415-.755-1.962-1.32-.548-.566-.972-1.242-1.273-2.029-.3-.787-.45-1.649-.45-2.588,0-.933.15-1.792.45-2.579.301-.787.725-1.463,1.273-2.029.547-.565,1.202-1.007,1.962-1.325.761-.317,1.605-.476,2.532-.476s1.772.159,2.536.476c.763.318,1.416.76,1.958,1.325.542.566.963,1.242,1.263,2.029.301.787.451,1.646.451,2.579M141.915,6.409c0-.752-.102-1.428-.306-2.029-.204-.6-.497-1.108-.879-1.525-.382-.417-.841-.736-1.377-.958-.536-.221-1.137-.332-1.801-.332s-1.267.111-1.806.332c-.539.222-1,.541-1.381.958-.382.417-.677.925-.883,1.525-.207.601-.311,1.277-.311,2.029,0,.758.104,1.437.311,2.037.206.601.501,1.108.883,1.522.381.414.842.731,1.381.953.539.221,1.141.332,1.806.332s1.265-.111,1.801-.332c.536-.222.995-.539,1.377-.953.382-.414.675-.921.879-1.522.204-.6.306-1.279.306-2.037" fill="#2d489d" stroke-width="0"/><path d="M60.117,22.505c0,.781-.125,1.493-.375,2.135-.25.643-.601,1.193-1.055,1.651-.453.459-.997.813-1.633,1.062-.635.25-1.338.375-2.109.375h-3.914v-10.439h3.914c.771,0,1.474.126,2.109.379.636.252,1.18.606,1.633,1.062.454.455.805,1.005,1.055,1.647.25.643.375,1.352.375,2.128M58.582,22.505c0-.626-.085-1.187-.255-1.684-.17-.497-.413-.917-.731-1.258-.318-.342-.701-.604-1.149-.786-.449-.182-.949-.273-1.502-.273h-2.408v8.009h2.408c.553,0,1.053-.091,1.502-.273.448-.181.831-.443,1.149-.785s.561-.762.731-1.259c.17-.497.255-1.061.255-1.691" fill="#2d489d" stroke-width="0"/><polygon points="68.555 17.29 68.555 18.512 63.601 18.512 63.601 21.873 67.595 21.873 67.595 23.051 63.601 23.051 63.601 26.507 68.562 26.507 68.555 27.729 62.095 27.729 62.095 17.29 68.555 17.29" fill="#2d489d" stroke-width="0"/><polygon points="71.988 26.463 76.447 26.463 76.447 27.729 70.489 27.729 70.489 17.29 71.988 17.29 71.988 26.463" fill="#2d489d" stroke-width="0"/><polygon points="79.474 26.463 83.933 26.463 83.933 27.729 77.975 27.729 77.975 17.29 79.474 17.29 79.474 26.463" fill="#2d489d" stroke-width="0"/><path d="M94.03,27.729h-1.164c-.131,0-.238-.033-.32-.099-.083-.065-.146-.151-.19-.258l-.938-2.451h-4.634l-.938,2.451c-.029.092-.089.175-.178.247-.09.073-.198.11-.324.11h-1.164l4.161-10.439h1.52l4.169,10.439ZM87.199,23.844h3.804l-1.578-4.11c-.054-.131-.108-.282-.164-.455-.056-.172-.11-.36-.163-.563-.054.203-.107.392-.161.567-.053.175-.106.327-.16.458l-1.578,4.103Z" fill="#2d489d" stroke-width="0"/><path d="M61.212,43.514c.112,0,.211.043.297.129l.811.89c-.581.679-1.288,1.206-2.122,1.582s-1.835.564-3.002.564c-1.028,0-1.96-.178-2.794-.534-.834-.356-1.546-.854-2.136-1.494-.59-.639-1.045-1.404-1.365-2.294s-.48-1.87-.48-2.938.169-2.047.505-2.937.811-1.653,1.424-2.29c.613-.636,1.347-1.132,2.201-1.488.854-.356,1.795-.534,2.824-.534,1.008,0,1.903.165,2.685.494.781.33,1.462.768,2.042,1.316l-.672.949c-.047.066-.101.12-.164.163-.062.043-.15.065-.262.065-.125,0-.272-.063-.44-.188-.168-.126-.389-.266-.662-.421-.274-.155-.615-.295-1.024-.42s-.913-.188-1.513-.188c-.713,0-1.367.125-1.964.376-.597.25-1.109.61-1.538,1.078-.428.468-.761,1.042-.999,1.721-.237.679-.355,1.447-.355,2.304,0,.871.123,1.647.37,2.33.248.682.587,1.257,1.019,1.725.432.469.941.826,1.528,1.074.587.247,1.216.37,1.889.37.415,0,.788-.024,1.118-.074.329-.049.634-.123.915-.222.28-.099.542-.228.786-.386.244-.158.488-.346.732-.564.053-.046.107-.084.163-.114.056-.029.117-.044.183-.044" fill="#2d489d" stroke-width="0"/><path d="M71.063,44.889c.574,0,1.086-.097,1.538-.292.452-.194.834-.466,1.147-.816.313-.349.553-.766.717-1.251.165-.485.248-1.02.248-1.607v-8.595h2.037v8.595c0,.824-.132,1.589-.396,2.295-.263.705-.639,1.315-1.127,1.829-.488.515-1.085.917-1.79,1.207-.706.29-1.497.435-2.374.435-.884,0-1.676-.145-2.379-.435-.702-.29-1.299-.692-1.79-1.207-.491-.514-.869-1.124-1.132-1.829-.264-.706-.396-1.471-.396-2.295v-8.595h2.037v8.595c0,.58.083,1.113.248,1.597.165.485.404.904.717,1.256.313.353.697.627,1.152.821.455.195.969.292,1.543.292" fill="#2d489d" stroke-width="0"/><polygon points="83.228 44.8 89.291 44.8 89.291 46.521 81.191 46.521 81.191 32.328 83.228 32.328 83.228 44.8" fill="#2d489d" stroke-width="0"/><polygon points="100.23 32.328 100.23 34.039 95.69 34.039 95.69 46.521 93.653 46.521 93.653 34.039 89.103 34.039 89.103 32.328 100.23 32.328" fill="#2d489d" stroke-width="0"/><path d="M108.874,44.889c.574,0,1.086-.097,1.538-.292.452-.194.834-.466,1.147-.816.313-.349.553-.766.717-1.251.165-.485.248-1.02.248-1.607v-8.595h2.037v8.595c0,.824-.132,1.589-.396,2.295-.263.705-.639,1.315-1.127,1.829-.488.515-1.085.917-1.79,1.207-.706.29-1.497.435-2.374.435-.884,0-1.676-.145-2.379-.435-.702-.29-1.299-.692-1.79-1.207-.491-.514-.869-1.124-1.132-1.829-.264-.706-.396-1.471-.396-2.295v-8.595h2.037v8.595c0,.58.083,1.113.248,1.597.165.485.404.904.717,1.256.313.353.697.627,1.152.821.455.195.969.292,1.543.292" fill="#2d489d" stroke-width="0"/><path d="M121.039,40.666v5.855h-2.037v-14.193h4.065c.91,0,1.694.092,2.354.277.659.184,1.204.45,1.636.796.432.346.75.763.955,1.251.204.488.306,1.032.306,1.632,0,.501-.077.969-.232,1.404-.155.436-.379.826-.672,1.173-.294.346-.653.644-1.079.895-.425.25-.908.438-1.448.563.257.152.478.366.662.643l4.045,5.559h-1.819c-.37,0-.64-.145-.812-.436l-3.56-4.974c-.112-.159-.234-.272-.366-.342-.132-.069-.33-.103-.593-.103h-1.405ZM121.039,39.172h1.958c.547,0,1.029-.066,1.444-.198.416-.132.762-.32,1.039-.564.277-.243.486-.532.628-.865s.212-.704.212-1.113c0-.824-.27-1.447-.81-1.869-.541-.422-1.356-.633-2.443-.633h-2.028v5.242Z" fill="#2d489d" stroke-width="0"/><path d="M144.173,46.522h-1.582c-.178,0-.324-.045-.436-.134s-.197-.206-.257-.351l-1.276-3.333h-6.3l-1.276,3.333c-.039.125-.12.237-.242.336-.122.099-.269.149-.44.149h-1.583l5.658-14.193h2.067l5.667,14.193ZM134.886,41.24h5.173l-2.147-5.588c-.072-.178-.146-.384-.222-.618-.076-.234-.15-.49-.223-.767-.072.277-.145.534-.217.772-.073.237-.145.445-.218.623l-2.146,5.578Z" fill="#2d489d" stroke-width="0"/><polygon points="46.398 46.531 0 46.531 0 35.238 .396 35.238 .229 .346 46.185 .346 46.398 26.142 46.398 46.531" fill="#fff" stroke-width="0"/><path d="M10.453,46.531v-7.271c0-.137.004-.286.012-.448.008-.162.019-.327.035-.495l-3.432,6.44c-.078.146-.18.26-.306.341-.126.082-.272.122-.44.122h-.29c-.168,0-.314-.04-.44-.122-.126-.081-.228-.195-.306-.341l-3.479-6.463c.02.172.035.341.043.506s.012.318.012.46v7.271h8.591Z" fill="#2d489d" stroke-width="0"/><path d="M0,.133v35.105h1.594c.095,0,.176.003.243.008.069.005.13.018.185.039.055.021.106.055.153.102.048.048.092.11.134.189l3.392,6.306c.089.167.172.342.247.522.076.181.151.362.224.546.074-.189.15-.374.229-.558.078-.183.162-.358.25-.526l3.361-6.29c.042-.079.086-.141.13-.189.045-.047.095-.081.15-.102.055-.021.116-.034.184-.039s.149-.008.244-.008h1.594v11.293h2.308v-7.994h1.941v7.994h5.555c-.057-.015-.114-.031-.17-.048-.187-.055-.369-.121-.544-.196-.673-.287-1.248-.687-1.724-1.201-.477-.513-.841-1.126-1.095-1.838-.255-.711-.382-1.489-.382-2.332,0-.854.142-1.635.424-2.344.284-.71.681-1.321,1.194-1.834s1.127-.912,1.842-1.198c.714-.285,1.504-.428,2.368-.428.842,0,1.579.136,2.211.405.63.27,1.171.627,1.621,1.072l-.707.981c-.042.063-.095.118-.161.165-.066.048-.156.071-.271.071-.12,0-.243-.047-.369-.141-.125-.095-.285-.197-.479-.307-.194-.109-.439-.211-.734-.306-.296-.094-.672-.141-1.127-.141-.534,0-1.025.093-1.472.278-.448.187-.833.453-1.155.798-.322.345-.573.765-.754,1.26-.18.495-.271,1.051-.271,1.669,0,.638.091,1.207.271,1.704.181.498.426.916.734,1.257.309.34.673.601,1.092.781.419.181.869.271,1.351.271.288,0,.548-.016.781-.047.233-.032.447-.081.644-.149.196-.068.382-.156.557-.264.176-.107.35-.239.523-.396.053-.047.107-.085.165-.114.057-.029.12-.043.189-.043.114,0,.214.044.298.134l.832.902c-.461.571-1.028,1.009-1.7,1.312-.19.086-.389.159-.6.22-.056.017-.113.032-.171.047h12.547c.095-.569.17-1.145.222-1.727.066-.702.098-1.411.098-2.13,0-.36-.008-.719-.025-1.074.103-.085.235-.186.331-.245.054-.031.283-.161.618-.352.262-.144.59-.325.952-.523.389-.215.777-.44.87-.503.741-.502,1.259-1.238,1.548-2.185.09-.292.154-.591.154-.73,0-.15-.052-.387-.098-.453-.044-.061-.125-.107-.215-.127l-.073-.01-.039.13c-.022.071-.064.225-.094.34-.171.712-.52,1.134-1.207,1.462-.441.215-.92.335-1.367.355-.115.004-.226.002-.333-.005-.582-.047-.976-.287-1.203-.724-.24-.472-.357-1.413-.252-2.089.042-.271.069-.366.145-.513.114-.22.364-.411.606-.46.21-.041.518.003.699.111.193.107.386.378.458.648.045.163.119.286.222.368.039.03.078.054.122.076.213.101.499.03,1.154-.288l.37-.181h.139c.13,0,.144.005.296.076.26.122.279.127.289.097.007-.014.012-.06.012-.105,0-.076-.005-.088-.076-.146-.264-.237-.315-.296-.367-.406-.096-.191-.108-.411-.026-.567.033-.072.082-.118.187-.187.135-.09.184-.195.216-.471.019-.162.007-.291-.049-.443-.062-.183-.132-.294-.387-.609-.166-.21-.193-.267-.193-.411,0-.193.078-.374.235-.557.218-.25.289-.414.289-.685,0-.203-.015-.252-.16-.467-.048-.071-.099-.167-.112-.208-.063-.179-.02-.432.093-.55.074-.078.45-.228.856-.337.592-.16.8-.404.836-.974.012-.176-.009-.244-.093-.289-.041-.024-.046-.022-.12.02-.308.181-.489.237-1.051.332-.687.115-1.024.241-1.763.656-.237.137-.413.232-.553.306-.242.12-.366.161-.496.183-.267.042-.518-.078-.724-.345-.11-.149-.22-.257-.311-.3-.095-.049-.242-.062-.296-.025-.061.039-.119.152-.158.296-.045.183-.03.227.115.362.058.056.202.159.315.23.294.181.426.283.629.494.251.259.349.305.681.328.089.004.187.014.286.034.245.039.495.097.561.144.022.01.056.054.081.095.163.274-.045.768-.521,1.253-.035.039-.074.072-.11.105-.225.205-.478.366-.749.477-.212.085-.298.105-.574.114-.438.018-.524.047-.864.264-.112.071-.254.159-.32.194-.137.073-.413.171-.56.193-.213.034-.435-.039-.636-.208-.058-.049-.112-.105-.166-.168-.256-.307-.546-.446-1.042-.5-.113-.014-.271-.039-.347-.058-.076-.018-.881-.284-1.79-.59-2.937-.99-2.847-.958-3.837-1.376-.958-.406-1.259-.599-1.548-.976-.183-.247-.276-.474-.393-.944-.142-.592-.201-1.034-.186-1.492.009-.433.056-.643.159-.736.129-.117.244-.112.53.02.191.09.203.095.336.098.121,0,.151-.01.251-.054.196-.094.274-.103.765-.113l.448-.007-.037-.052c-.016-.027-.244-.298-.501-.596-.254-.303-.521-.624-.589-.712-.169-.215-.184-.225-.401-.205-.24.019-.463.015-.685-.02-.313-.041-1.012-.183-1.051-.21-.047-.029-.086-.115-.086-.189,0-.073.007-.076.347-.19.252-.081.262-.088.352-.176.117-.117.157-.232.167-.499.014-.34-.054-.562-.313-1.017-.086-.152-.152-.265-.201-.36-.103-.203-.139-.32-.188-.538-.051-.213-.049-.25.017-.295.125-.081.553-.099.812-.03.195.049.465.088.586.081.099-.006.123-.015.218-.078.064-.042.161-.118.22-.169.059-.054.196-.142.294-.203.247-.14.501-.318.846-.592.154-.12.445-.347.643-.499.609-.467.968-.75,1.221-.964.745-.628,1.378-1.308,1.848-1.977.162-.233.217-.348.316-.642.09-.273.19-.477.325-.66.053-.076.259-.293.469-.504.213-.21.403-.413.443-.471.096-.144.171-.316.215-.482.066-.274.037-.89-.054-1.079-.036-.07-.112-.132-.213-.165-.07-.02-.261-.025-.325,0-.078.031-.239.15-.342.266-.13.137-.216.286-.311.53-.041.111-.107.257-.144.325-.088.152-.277.356-.472.509-.083.061-.257.208-.389.328-.354.308-.398.342-.613.486-.419.277-.512.392-.436.531.012.024.096.117.183.205.196.194.201.214.094.321-.187.183-.292.179-.976-.041-.404-.132-.494-.125-.764.058-.207.142-.268.176-.603.347l-.294.147-.244.012c-.257.015-.336.032-.348.088-.002.015.025.086.062.159.073.145.078.166.041.215-.083.12-.745.196-1.166.135-.083-.009-.245-.019-.355-.019-.249,0-.366.034-.626.178-.325.181-.589.266-.789.259-.115-.007-.123-.01-.172-.069-.029-.031-.085-.138-.132-.239-.156-.367-.284-.496-.484-.496-.218,0-.484.259-.56.55-.036.134-.032.242.015.284.019.019.195.112.389.212.2.1.405.218.474.269.222.164.391.242.692.321.247.061.418.134.489.208l.059.058-.027.049c-.017.027-.056.074-.093.108l-.059.056-.286-.01c-.32-.007-.455-.034-.658-.132-.137-.064-.217-.117-.357-.237-.115-.103-.21-.142-.337-.142-.117,0-.189.019-.372.108-.249.112-.418.146-.92.188-.356.029-.415.059-.452.22-.017.081.005.256.049.338.032.06.105.134.196.193.105.073.487.393.511.433.051.078.019.327-.066.543-.01.021-.017.041-.027.061-.059.132-.171.274-.299.386-.115.105-.154.168-.154.277s.032.193.094.263c.08.095.163.12.354.111.232-.016.411-.072.794-.25.245-.118.468-.188.666-.213.35-.047.636.049.89.282.105.095.193.2.262.317.156.245.239.536.256.876l.008.193-.054.064c-.029.036-.159.175-.291.315-.371.396-.682.749-.799.897-.24.313-.27.333-.602.375-.274.036-.384.071-.509.151-.086.056-.205.203-.247.299-.017.046-.017.051.066.139.047.051.118.122.152.154.088.078.11.135.1.254-.017.208-.176.43-.379.536-.259.135-.712.289-1.056.357-.296.059-.528.08-.839.068-.477-.017-.858-.105-1.316-.303-.157-.068-.57-.286-.721-.382-.115-.073-.301-.251-.34-.327-.064-.128-.027-.252.098-.345.09-.066.166-.054.393.057.22.109.374.151.67.185.484.054.928.047,1.323-.025.286-.051.306-.072.399-.351.081-.245.255-.602.453-.935.187-.318.2-.364.2-.658,0-.205-.003-.232-.034-.271-.064-.093-.12-.105-.36-.095-.257.012-.472.051-.944.176-.418.112-.616.149-.973.171-.623.042-1.257-.036-1.849-.227-.362-.118-.564-.243-.814-.49-.34-.344-.622-.765-.758-1.144-.105-.288-.127-.335-.218-.474-.149-.221-.354-.394-.604-.507-.061-.029-.235-.097-.386-.146-.658-.22-.892-.323-1.13-.502-.257-.195-.513-.476-.739-.811-.051-.076-.08-.123-.107-.184-.022-.058-.041-.124-.078-.247-.042-.137-.11-.22-.204-.237-.07-.012-.087.005-.166.156-.056.108-.087.226-.093.348-.006.093.003.191.027.288.042.157.103.262.259.434.13.138.172.224.187.386.024.232-.328.853-.702,1.232-.154.157-.228.19-.384.19-.125,0-.228-.051-.36-.18-.159-.157-.251-.172-.531-.083-.195.061-.283.049-.417-.056-.186-.15-.372-1.006-.397-1.827-.002-.049-.002-.1-.002-.15-.003-.547.073-.989.225-1.291.056-.11.098-.169.205-.276.118-.117.169-.152.321-.23.227-.117.447-.262.513-.34.14-.154.161-.288.088-.51-.027-.082-.056-.196-.069-.247-.024-.13-.024-.438,0-.59.037-.215.091-.294.326-.487.051-.039.093-.093.129-.166l.057-.113.007-.474.008-.474.043-.081c.066-.132.169-.215.411-.337.159-.081.336-.135.502-.154.083-.008.169-.027.193-.037.061-.037.122-.103.171-.203.093-.191.223-.345.426-.506.217-.171.381-.225.589-.189.056.01.222.057.367.103.239.076.274.083.416.083.138,0,.159-.002.217-.044.129-.083.152-.163.271-.978.032-.218.066-.423.076-.457.022-.096.144-.203.34-.298.098-.049.213-.094.286-.111.162-.034.382-.019.567.037.292.083.529.086.747.005.302-.11.423-.127.501-.069.095.071.134.186.213.653.085.514.149.705.283.895.259.362.318.709.252,1.445-.064.666-.064.641-.013.729.101.172.28.308.71.551.162.09.523.339.783.54.322.247.696.313,1.041.186.108-.044.267-.15.519-.345.381-.299.42-.315.863-.332.176-.01.435-.025.57-.037.241-.025.254-.025.43-.105.239-.105.333-.167.494-.331.303-.298.56-.435,1.154-.596.492-.134.812-.355,1.054-.724.201-.301.306-.387.993-.797.181-.108.384-.238.448-.286.259-.193.655-.641.772-.883.064-.118.066-.237.018-.343-.057-.117-.174-.203-.477-.354-.154-.076-.282-.147-.282-.156,0-.032.064-.121.118-.16.092-.068.286-.129.665-.202.066-.018.108-.035.139-.066.047-.045.047-.049.047-.238,0-.103-.01-.259-.027-.342-.012-.086-.027-.235-.032-.337-.01-.162-.002-.211.027-.316.049-.181.112-.291.398-.692.265-.37.37-.543.416-.707.057-.186.02-.558-.064-.684-.085-.13-.249-.191-.342-.133-.066.042-.088.096-.183.407-.098.313-.186.533-.304.765-.072.142-.111.198-.214.301-.206.205-.323.232-.533.134-.238-.115-.392-.118-.898-.009-.171.036-.342.066-.379.066-.203,0-.374-.076-.656-.286-.401-.304-.618-.522-.826-.839-.115-.174-.203-.262-.306-.316-.09-.044-.222-.075-.682-.151-.433-.072-.48-.076-.766-.076-.329,0-.464.019-.892.121-.252.06-.352.103-.67.284-.606.343-.871.44-1.205.44-.328,0-.45-.21-.45-.757,0-.233.002-.259.041-.387.095-.286.232-.494.479-.731.309-.301.722-.519,1.257-.678.252-.07.296-.08.722-.131.332-.037.712-.054.878-.029.039.002.22.026.403.051.286.034.399.044.731.044.572,0,.629-.017.756-.255.159-.283.445-.624.655-.774.296-.209.563-.294,1.142-.356.458-.048.768-.117,1.152-.256.518-.193.771-.186,1.386.024.607.208.825.23,1.329.152.142-.022.352-.059.469-.074.257-.041.508-.043.64-.007.224.061.387.184.678.506.233.264.235.27.203.538-.025.223-.056.331-.142.509-.093.2-.244.352-.43.45-.137.066-.194.081-.585.171-.408.093-.504.157-.516.352-.014.196.057.316.235.411.135.071.252.096.536.118.616.036.692.063.912.293.156.162.188.213.183.328,0,.11-.031.212-.142.437-.083.169-.103.201-.286.392-.112.112-.206.225-.212.247-.013.056.004.112.061.193.078.114.188.359.225.494.029.12.043.244.078.601.027.301.107.394.489.575.492.235.98.523,1.768,1.027.53.344.66.455.724.619.049.129.049.249,0,.318-.108.161-.272.166-.605.016-.518-.232-.628-.273-.733-.292-.308-.052-.499.119-.499.447,0,.088.01.122.042.178.108.186.176.421.225.758.085.612.173.824.607,1.443.862,1.235,1.281,1.849,1.481,2.181.301.497.526,1.016.673,1.516.08.29.105.428.146.886.015.208.064.76.103,1.232.103,1.181.147,1.593.183,1.698.072.205.243.486.57.914.226.298.528.668.915,1.13.423.506.584.665.738.745.138.074.165.066.135-.031-.015-.037-.079-.13-.181-.245-.279-.312-.355-.423-.379-.55-.044-.235.325-.41.763-.367.01,0,.024.002.034.002,1.607.595,3.166,1.283,4.673,2.062.038.018.075.038.113.057V.133H0ZM39.382,34.388c.068-.132.436-.462.66-.597.006-.003.011-.005.013-.008.222-.13.341-.16.46-.109.084.033.143.095.197.201.103.202.087.262-.127.47-.224.216-.389.335-.581.397-.103.033-.211.051-.341.06-.135.008-.159.005-.203-.024-.094-.06-.137-.274-.078-.39M8.387,32.773c-.057.063-.157.115-.223.117-.022,0-.066-.012-.098-.032-.274-.157-.369-.184-.658-.184-.245.003-.467.035-1.061.162-.188.042-.362.068-.379.066-.066-.017-.142-.096-.181-.181-.088-.198-.068-.259.11-.355.301-.159.431-.19.729-.178.342.017.356.007.728-.337l.204-.187.078.006c.044.004.13.033.206.07.168.086.385.299.479.482.075.149.117.294.117.409,0,.07-.008.092-.051.142M6.729,31.479c.019-.068.156-.249.205-.272.044-.019.188-.037.223-.026.019.004.046.019.058.029.037.032.105.178.129.269.042.169-.039.271-.286.35-.115.039-.158.046-.187.031-.099-.034-.177-.249-.142-.381M9.059,33.44c-.283.139-.474.014-.318-.208.017-.025.064-.11.105-.188.176-.343.44-.548.551-.426.024.027.031.064.036.159.015.301-.12.539-.374.663M13.515,30.276c-.108-.013-.203-.037-.243-.056-.115-.06-.176-.181-.166-.353.002-.019.017-.051.037-.071.031-.031.041-.034.374-.024.188.005.423.022.525.034.49.066.869.191,1.145.372.142.093.23.196.303.344.098.211.086.346-.051.458-.152.122-.247.144-.416.093-.215-.066-.438-.199-.76-.458-.281-.224-.448-.3-.748-.339M16.751,36.66c-.068.147-.158.275-.271.386-.113.109-.245.197-.397.262-.152.066-.314.099-.487.099-.167,0-.326-.033-.474-.099-.15-.065-.28-.153-.389-.262-.111-.111-.198-.239-.264-.386-.065-.146-.098-.303-.098-.47,0-.173.033-.335.098-.488.066-.152.153-.282.264-.393.109-.109.239-.197.389-.262.148-.066.307-.099.474-.099.173,0,.335.033.487.099.152.065.284.153.397.262.113.111.203.241.271.393.068.153.102.315.102.488,0,.167-.034.324-.102.47M16.723,22.831c.026-.026.063-.058.081-.066.041-.024.156-.024.212-.002.098.037.184.154.206.284.017.083-.015.134-.101.181-.142.071-.237.056-.339-.056-.128-.14-.15-.259-.059-.341M15.987,24.859c.017-.024.048-.049.071-.056.061-.015.198-.015.288.007.216.044.343.318.216.452-.096.106-.309.142-.412.071-.063-.044-.151-.21-.178-.34-.017-.082-.015-.097.015-.134M15.749,23.674c0,.096-.031.171-.076.198-.051.027-.29.081-.354.081-.08,0-.181-.069-.249-.171-.084-.137-.093-.242-.027-.304.024-.022.144-.061.227-.07.002,0,.096.017.201.041.163.035.196.044.235.086.036.041.043.063.043.139M14.48,22.172c.138-.149.352-.205.627-.166.307.047.467.162.467.345,0,.098-.045.179-.14.264-.188.174-.538.247-.804.162-.13-.04-.191-.093-.216-.194-.049-.173-.024-.31.066-.411M11.93,26.319c.543.019.602.017.638-.005.022-.015.049-.039.056-.058.01-.02.083-.282.161-.585.216-.805.223-.829.336-.907.068-.047.181-.049.308-.012.125.036.193.112.259.278.066.177.071.274.017.333-.024.025-.068.051-.097.066-.052.022-.211.161-.211.185,0,.006.049.035.11.069.315.162.584.174,1.333.061.318-.046.533-.044,1.022.015.44.046.592.042.863-.046.186-.062.367-.062.497,0,.117.053.173.107.3.271.27.354.599.509,1.191.56.399.037.71.088.761.122.066.044.115.137.103.208-.02.098-.111.223-.213.296-.492.34-1.101.518-1.609.472-.198-.02-.457-.076-.578-.127-.117-.052-.486-.267-.638-.377-.403-.288-.73-.399-1.168-.399-.309,0-.431.027-1.326.284-.597.171-.587.171-.934.049-.223-.078-.443-.071-.621.015-.592.298-.832.963-.631,1.755.127.49.399,1.045.655,1.331.13.146.184.342.108.411-.105.095-.22.093-.485-.008-.247-.088-.779-.352-1.034-.504-.464-.278-.548-.344-.846-.64-.154-.156-.381-.401-.506-.543-.125-.142-.267-.298-.323-.35-.2-.2-.484-.349-.755-.408-.235-.051-.736-.032-.864.032-.107.058-.224.232-.224.342,0,.051.009.071.053.113.062.058.364.291.511.393.184.135.184.137.184.335,0,.164-.003.179-.039.218-.074.078-.103.08-.837.071-.741-.012-.78-.01-.875.071-.091.071-.112.127-.125.325-.012.159-.017.181-.059.215-.033.04-.054.044-.142.044-.1,0-.107-.002-.166-.061-.054-.051-.061-.069-.058-.137.002-.139.053-.31.158-.518.142-.279.179-.377.245-.629.095-.371.225-.589.526-.889.249-.245.506-.438.768-.568.254-.127.459-.186.792-.228.117-.012.281-.043.364-.064.167-.043.463-.16.59-.229.097-.054.395-.213.721-.377.35-.18.629-.259.971-.281.09-.005.433,0,.763.01M11.468,22.274c.06.164.063.186.048.242-.009.035-.048.093-.093.135-.065.066-.078.069-.156.069-.068,0-.115-.018-.264-.091-.22-.113-.286-.12-.359-.045-.066.072-.113.233-.113.385,0,.154.051.462.1.572.064.152.201.337.463.621.305.33.395.445.471.604.103.208.154.435.123.546-.039.148-.438.332-.712.332-.355,0-.665-.203-1.036-.675-.223-.289-.436-.697-.57-1.098-.133-.396-.127-.572.027-.795.156-.232.195-.366.146-.518-.014-.044-.08-.152-.154-.25-.146-.188-.183-.281-.183-.427.002-.12.053-.24.208-.48.154-.234.234-.333.425-.53.173-.179.739-.698.795-.731.049-.028.154-.022.227.009.081.039.149.105.159.159.022.11.041.425.041.69.003.428.057.631.253.949.048.08.115.227.154.327M23.196,9.219c.054-.114.23-.281.354-.341.162-.078.249-.091.594-.094.35-.003.465-.022.684-.105.073-.028.168-.071.211-.1.244-.152.254-.157.333-.157.046,0,.105.013.137.029.076.041.109.076.149.165.068.152.057.341-.022.395-.045.029-.148.048-.694.135-.6.094-.73.143-.981.367-.046.041-.13.095-.187.122-.089.044-.127.051-.257.057-.191.005-.235-.016-.299-.151-.063-.127-.068-.227-.022-.322M22.244,12.471c.335-.06.505-.117.865-.284.372-.176.48-.208,1.008-.311.902-.178,1.441-.365,1.892-.654.17-.111.232-.119.497-.087.092.012.173.033.238.065.184.089.311.282.311.473,0,.076-.005.095-.052.147-.073.083-.132.108-.284.118-.107.011-.14.019-.173.049-.021.022-.04.051-.04.065,0,.046-.051.075-.265.148-.276.098-.527.154-.732.174-.095.007-.198.024-.23.037-.092.038-.235.144-.381.284-.084.081-.178.149-.244.181-.1.052-.113.054-.289.054-.176-.002-.194-.005-.378-.07-.254-.089-.557-.181-.608-.181-.019,0-.1.04-.173.092-.373.248-.778.384-1.195.402-.184.012-.189.009-.227-.029-.038-.038-.076-.162-.076-.243,0-.209.203-.371.536-.43M21.663,8.162c.038.038.09.257.073.324-.005.033-.043.076-.108.133-.054.046-.151.135-.213.197-.189.187-.287.435-.233.595.03.092.184.295.324.424.171.16.23.275.235.473.009.192-.027.276-.135.324-.067.027-.094.03-.237.022-.252-.019-.422-.1-.544-.26-.086-.115-.121-.226-.148-.472-.024-.222-.051-.306-.119-.378-.084-.085-.167-.088-.375-.012-.109.039-.296.044-.514.009-.103-.017-.282-.024-.53-.024-.497,0-.503.002-.573.25-.105.36-.354.681-.678.877-.195.118-.549.218-.647.186-.094-.035-.164-.279-.118-.419.027-.081.118-.179.211-.227.094-.046.194-.076.502-.143.138-.027.27-.065.295-.078.105-.074.086-.184-.057-.338-.111-.12-.13-.152-.13-.225s.093-.221.206-.338c.124-.127.313-.219.6-.294.389-.103.597-.189.784-.333.059-.046.14-.097.178-.113.086-.038.338-.057.559-.047.171.014.56-.002.803-.032.079-.008.206-.035.281-.062.17-.057.265-.062.308-.019M37.377,13.433c-.1.195-.381.2-.611.008-.043-.038-.054-.06-.054-.102.002-.066.038-.147.09-.195.029-.03.045-.033.189-.022.083.003.197.019.251.033.154.035.202.137.135.278M37.661,21.722c-.226-.453-.436-.607-.986-.71-.199-.036-.748-.044-.964-.014-.335.046-.726.149-1.008.257-.368.146-.838.416-1.222.708-.313.238-1.489,1.197-2.073,1.695-.379.321-.482.397-.659.489-.354.179-.75.235-1.119.152-.145-.034-.206-.086-.284-.244-.053-.111-.059-.132-.066-.292-.002-.095.005-.305.022-.464.042-.519.03-.673-.073-.799-.096-.116-.259-.167-.413-.126-.042.01-.15.052-.243.091-.166.074-.261.088-.347.059-.022-.012-.088-.057-.144-.1-.145-.118-.25-.145-.514-.145-.252,0-.322.019-.361.108-.016.034-.027.098-.03.149,0,.075.01.115.083.264.029.066.066.152.095.22.015.034.027.064.037.086.103.259.179.374.644.961.2.249.467.591.593.751.125.161.262.317.296.352.132.112.313.171.428.144.022-.005.111-.076.191-.154.078-.076.174-.159.206-.184.088-.061.188-.053.273.008.008.005.017.012.025.022.01.007.017.014.027.024.053.068.051.123-.015.318-.076.218-.098.369-.086.604.008.255.032.304.177.389.21.125.501.215.75.23.159.012.426-.005.766-.044.171-.02.364-.044.57-.076.501-.081.608-.069.995.11.325.152.418.166.694.115.563-.105,1.086-.374,1.489-.773.179-.169.184-.186.187-.692.004-.499-.006-.467.202-.55.536-.205,1.061-.543,1.485-.951.234-.225.376-.404.462-.57.083-.169.107-.269.12-.474.019-.321-.045-.602-.21-.944M32.506,23.953c-.618.473-.659.5-.775.5-.084,0-.276-.06-.325-.098-.01-.013-.018-.051-.018-.1v-.081l.248-.26c.335-.345.862-.848.984-.938.054-.037.197-.121.314-.183.194-.103.223-.111.291-.108.047.005.103.024.143.051.171.111.181.392.019.544-.032.029-.129.108-.213.167-.084.06-.384.286-.668.506M34.279,23.801c-.037.081-.24.275-.564.546-.271.224-.293.238-.355.227-.067-.013-.156-.07-.181-.121-.01-.022-.022-.071-.022-.106,0-.062.014-.078.225-.305.122-.133.309-.324.408-.425l.187-.186.118-.009c.162-.015.16-.015.193.063.04.105.037.219-.009.316M32.654,8.736c-.012-.08-.026-.117-.06-.148-.057-.062-.098-.057-.157.002-.052.051-.266.389-.418.66-.11.2-.2.42-.247.604-.044.174-.042.178.083.24.096.051.174.063.232.041.071-.027.314-.281.399-.418.186-.298.237-.594.168-.981M29.76,14.891c-.04-.004-.111.008-.155.022-.188.069-.379.223-.448.37-.033.066-.041.103-.039.176l.008.095.056.005c.054.008.08-.012.306-.191.347-.274.342-.271.344-.381v-.093l-.072-.003ZM28.72,7.162c-.125-.157-.284-.216-.389-.152-.068.044-.142.157-.166.264-.018.076-.012.262.009.318.018.052.089.071.247.071.148,0,.162-.003.218-.044.086-.068.13-.159.132-.288,0-.096-.005-.115-.051-.169M24.934,16.19c-.014-.012-.066-.024-.115-.027-.08-.005-.105,0-.222.061-.208.108-.501.277-.66.377-.21.127-.316.23-.381.364-.118.23-.089.367.085.394.051.01.09-.012.386-.213.683-.457.759-.521.89-.748.05-.083.056-.176.017-.208M17.872,16.598c-.051-.383-.288-.809-.65-1.173-.096-.1-.222-.211-.282-.245-.215-.139-.498-.213-.598-.159-.023.015-.062.063-.081.11l-.045.083.035.035c.022.022.113.078.198.127.225.13.428.284.604.472.188.191.276.315.408.567.14.255.201.345.292.413.134.103.161.056.119-.23M17.263,17.64c-.027-.117-.073-.149-.313-.225-.535-.169-.863-.308-1.112-.477-.443-.298-.729-.667-.895-1.161-.093-.284-.128-.512-.14-.922-.004-.252-.014-.359-.029-.392-.027-.048-.037-.053-.086-.019-.049.037-.095.137-.203.435-.12.338-.268.643-.398.81-.183.242-.203.274-.253.405-.043.115-.048.142-.033.184.017.061.572.614.885.888.516.455,1.071.827,1.455.981.357.144.687.183.861.107.215-.095.32-.347.261-.614M14.698,18.266c-.01-.129-.025-.173-.09-.244-.083-.089-.365-.128-.487-.062-.13.066-.211.272-.178.458.036.203.144.311.317.311.147,0,.243-.037.333-.121.091-.09.115-.171.105-.342" fill="#2d489d" stroke-width="0"/></g></svg>