<?xml version="1.0" encoding="UTF-8"?><svg id="Layer_2" xmlns="http://www.w3.org/2000/svg" width="168.245" height="51.63" viewBox="0 0 168.245 51.63"><g id="Layer_1-2"><path d="M41.261,45.322c-.122.021-.245.061-.367.062-7.976.002-15.953.002-23.929.002h-.4v-1.823c.004-.094.012-.188.012-.282,0-8.104.002-16.209.002-24.314,0-.093-.009-.187-.014-.281.004-.141.01-.282.01-.423.002-4.079.003-8.159.004-12.238.094-.005.188-.014.282-.014,8.126,0,16.253,0,24.379,0,.004.141.012.282.012.423,0,12.81,0,25.619,0,38.428,0,.153.005.306.008.459" fill="#fff" stroke-width="0"/><path d="M41.261,45.322c-.003-.153-.008-.306-.008-.459,0-12.809,0-25.618,0-38.428,0-.141-.008-.282-.012-.423.084-.055.16-.129.251-.162C46.878,3.911,52.267,1.974,57.655.039c.043-.016.089-.021.165-.039v51.474c-.291-.108-.573-.21-.855-.315-5.178-1.929-10.357-3.859-15.535-5.788-.055-.02-.113-.033-.169-.049" fill="#e31313" stroke-width="0"/><path d="M16.579,6.025c-.001,4.08-.002,8.159-.003,12.239,0,.14-.007.281-.01.422-.016.15-.045.301-.045.451-.01,8.005-.017,16.01-.024,24.015,0,.141.009.282.014.423-.002.471-.021.943,0,1.414.013.289-.076.431-.359.538-3.616,1.358-7.226,2.73-10.838,4.099-1.597.605-3.193,1.211-4.79,1.815-.162.062-.325.118-.524.189V.148c.127.036.236.059.34.096,5.316,1.883,10.633,3.767,15.949,5.653.099.035.193.085.29.128" fill="#018f39" stroke-width="0"/><path d="M151.085,25.153c.792-1.294,1.558-2.534,2.309-3.785.124-.207.251-.293.496-.287.657.019,1.314.007,1.991.007v9.646h-2.092v-6.095c-.026-.007-.053-.014-.079-.021-.878,1.315-1.755,2.629-2.668,3.996-.906-1.358-1.785-2.674-2.728-4.087v6.199h-2.031v-9.636c.712,0,1.427-.008,2.141.01.082.002.178.134.236.225.738,1.163,1.47,2.329,2.204,3.494.061.098.127.192.221.334" fill="#000" stroke-width="0"/><path d="M80.227,17.609h-2.085v-6.171c-.028-.01-.056-.019-.084-.028-.866,1.321-1.732,2.642-2.636,4.02-.892-1.335-1.763-2.639-2.686-4.021v6.183h-2.12V7.968c.557,0,1.12.039,1.675-.012.494-.046.754.139.993.56.61,1.074,1.276,2.116,1.921,3.171.06.098.127.193.214.326.075-.107.135-.185.188-.269.741-1.175,1.484-2.349,2.216-3.529.113-.182.235-.257.451-.252.645.014,1.291.005,1.953.005v9.641Z" fill="#000" stroke-width="0"/><path d="M95.844,17.619c-.571,0-1.112.013-1.651-.011-.109-.004-.238-.125-.315-.226-1.375-1.808-2.744-3.622-4.115-5.435-.099-.131-.2-.261-.363-.474v6.128h-2.11V7.968c.613,0,1.213-.012,1.81.012.109.004.234.137.312.24,1.337,1.75,2.667,3.504,3.999,5.258.086.112.172.223.31.401v-5.886h2.123v9.626Z" fill="#000" stroke-width="0"/><path d="M122.848,21.149c1.716,0,3.442-.099,5.151.025,2.318.167,3.554,2.479,2.554,4.583-.3.631-.786,1.078-1.407,1.385-.092.046-.185.089-.308.147.772,1.148,1.53,2.276,2.328,3.463-.838,0-1.609.007-2.38-.01-.085,0-.188-.121-.248-.21-.58-.872-1.16-1.745-1.724-2.627-.124-.194-.259-.263-.485-.254-.433.019-.868.006-1.333.006v3.07h-2.148v-9.578ZM124.927,23.07v2.818c.883-.056,1.749-.064,2.599-.181.804-.11,1.182-.651,1.139-1.435-.038-.681-.499-1.149-1.287-1.192-.806-.045-1.617-.01-2.451-.01" fill="#000" stroke-width="0"/><path d="M157.796,25.968c.006-2.837,2.255-5.033,5.146-5.027,2.937.006,5.115,2.134,5.11,4.991-.006,2.775-2.277,4.973-5.133,4.971-2.933-.002-5.13-2.118-5.123-4.935M162.906,22.91c-1.662.005-2.854,1.277-2.846,3.036.007,1.71,1.281,2.995,2.962,2.987,1.633-.008,2.847-1.279,2.838-2.972-.01-1.727-1.297-3.056-2.954-3.051" fill="#000" stroke-width="0"/><path d="M139.161,12.784c.006-2.836,2.251-5.047,5.129-5.049,2.9-.003,5.138,2.174,5.13,4.988-.009,2.801-2.267,4.978-5.156,4.97-2.919-.007-5.108-2.113-5.103-4.909M144.382,15.73c1.613.033,2.817-1.192,2.851-2.901.034-1.706-1.252-3.099-2.885-3.128-1.661-.028-2.882,1.211-2.92,2.968-.038,1.733,1.209,3.025,2.954,3.061" fill="#000" stroke-width="0"/><path d="M70.607,30.754v-9.639c.075-.01.142-.026.208-.026,1.237,0,2.475-.025,3.711.008,1.566.041,2.93.582,3.932,1.832,2.273,2.834.676,7.052-2.92,7.691-.678.121-1.382.114-2.075.129-.939.02-1.88.005-2.856.005M72.722,28.781c.645,0,1.256.027,1.865-.005,1.496-.08,2.531-1.076,2.707-2.571.168-1.424-.652-2.771-2.015-3.076-.821-.184-1.692-.14-2.557-.199v5.851Z" fill="#000" stroke-width="0"/><path d="M129.752,7.994c.059-.009.116-.025.173-.025,1.509.005,3.017.006,4.525.021.269.003.541.046.804.105,1.411.315,2.282,1.239,2.448,2.578.189,1.525-.436,2.719-1.768,3.377-.072.035-.14.078-.225.126.766,1.137,1.521,2.259,2.318,3.443-.563,0-1.078-.051-1.579.013-.686.088-1.094-.161-1.424-.763-.401-.731-.91-1.401-1.359-2.106-.115-.18-.244-.253-.458-.245-.435.016-.87.005-1.35.005v3.08h-2.105V7.994ZM131.855,12.789c.921-.071,1.808-.1,2.682-.219.674-.091,1.056-.601,1.07-1.248.014-.699-.306-1.219-.978-1.301-.912-.112-1.84-.096-2.774-.136v2.904Z" fill="#000" stroke-width="0"/><polygon points="81.398 21.096 88.671 21.096 88.671 22.98 83.508 22.98 83.508 24.936 88.064 24.936 88.064 26.81 83.516 26.81 83.516 28.855 88.755 28.855 88.755 30.73 81.398 30.73 81.398 21.096" fill="#000" stroke-width="0"/><polygon points="122.511 13.692 122.511 15.725 127.748 15.725 127.748 17.605 120.405 17.605 120.405 7.985 127.667 7.985 127.667 9.843 122.521 9.843 122.521 11.804 127.002 11.804 127.002 13.692 122.511 13.692" fill="#000" stroke-width="0"/><path d="M120.602,21.186v.325c0,1.672.013,3.345-.008,5.017-.007.526-.053,1.063-.172,1.574-.365,1.579-1.545,2.599-3.156,2.811-.904.119-1.789.056-2.645-.252-1.557-.561-2.337-1.761-2.407-3.335-.09-2.057-.022-4.12-.022-6.209h2.075v.388c0,1.626-.007,3.251.005,4.877.003.385.028.781.115,1.155.233,1.001.968,1.495,2.111,1.468,1.009-.024,1.712-.585,1.905-1.554.061-.309.078-.631.08-.947.007-1.637.003-3.274.003-4.911v-.407h2.116Z" fill="#000" stroke-width="0"/><path d="M109.513,9.103c-.381.533-.743,1.04-1.115,1.559-.296-.172-.57-.352-.862-.498-.661-.329-1.344-.578-2.103-.406-.449.102-.698.343-.739.7-.044.378.109.667.556.84.579.225,1.183.385,1.774.582.412.137.828.268,1.227.439,1.017.436,1.644,1.169,1.642,2.325-.003,1.2-.508,2.119-1.609,2.647-1.569.751-4.479.573-6.145-1.118.413-.487.828-.976,1.235-1.455.448.273.865.558,1.31.79.62.323,1.29.437,1.987.343.349-.047.669-.16.857-.488.241-.42.079-.927-.428-1.127-.588-.232-1.209-.381-1.812-.575-.392-.126-.785-.25-1.165-.404-.952-.387-1.541-1.064-1.613-2.12-.075-1.109.312-2.011,1.246-2.643.879-.594,1.869-.672,2.884-.559,1.05.117,2.003.495,2.873,1.168" fill="#000" stroke-width="0"/><path d="M136.748,29.389c.442-.521.853-1.004,1.252-1.474.438.271.84.56,1.276.781.699.353,1.446.498,2.225.311.462-.11.712-.376.742-.743.035-.421-.121-.697-.612-.874-.617-.223-1.259-.378-1.885-.577-.391-.125-.779-.265-1.159-.419-2.066-.839-1.812-3.403-.665-4.404.752-.656,1.634-.91,2.606-.897,1.294.017,2.47.397,3.533,1.209-.379.531-.745,1.043-1.061,1.485-.714-.289-1.368-.609-2.057-.81-.349-.101-.77-.031-1.143.042-.313.061-.521.301-.552.654-.032.362.114.644.438.77.579.224,1.178.396,1.765.601.51.178,1.029.337,1.517.563.875.404,1.418,1.073,1.463,2.074.051,1.12-.326,2.042-1.302,2.645-.935.578-1.972.652-3.036.519-1.244-.157-2.353-.624-3.345-1.456" fill="#000" stroke-width="0"/><rect x="70.617" y="34.245" width="97.419" height=".331" fill="#000" stroke-width="0"/><polygon points="105.604 30.73 105.604 23.07 102.664 23.07 102.664 21.11 110.622 21.11 110.622 23.052 107.714 23.052 107.714 30.73 105.604 30.73" fill="#000" stroke-width="0"/><polygon points="118.697 7.99 118.697 9.913 115.791 9.913 115.791 17.596 113.673 17.596 113.673 9.935 110.74 9.935 110.74 7.99 118.697 7.99" fill="#000" stroke-width="0"/><polygon points="90.686 21.099 92.766 21.099 92.766 28.858 97.583 28.858 97.583 30.729 90.686 30.729 90.686 21.099" fill="#000" stroke-width="0"/><rect x="132.846" y="21.097" width="2.07" height="9.628" fill="#000" stroke-width="0"/><rect x="98.287" y="7.992" width="2.084" height="9.609" fill="#000" stroke-width="0"/><rect x="82.693" y="7.991" width="2.056" height="9.615" fill="#000" stroke-width="0"/><path d="M99.001,38.007c.059-.057.074-.084.089-.083,1.057.016,2.115.026,3.172.062.217.007.437.091.643.172.633.251.894.686.871,1.417-.017.569-.301.921-.925,1.144-.043.015-.085.033-.149.057.235.101.451.191.664.287,1.042.471.846,1.927.141,2.341-.327.192-.704.396-1.068.413-1.124.053-2.252.019-3.393.019v-.314c.035-.01.065-.024.097-.028.606-.068.709-.165.719-.769.012-.765.003-1.53.004-2.296,0-.517.005-1.036-.002-1.553-.01-.626-.088-.709-.714-.813-.04-.007-.078-.029-.149-.056M100.847,40.804v.305c0,.611,0,1.223.004,1.834,0,.239.135.369.368.391.517.05,1.01-.028,1.454-.311.599-.381.586-1.609-.031-1.905-.546-.262-1.13-.382-1.795-.314M100.771,40.521c.535-.064,1.033-.074,1.5-.2.217-.059.465-.308.544-.527.256-.715-.114-1.325-.858-1.487-.275-.06-.56-.071-.841-.094-.231-.019-.349.087-.347.33.005.624.002,1.249.002,1.978" fill="#000" stroke-width="0"/><path d="M93.114,38.005c.07-.052.094-.086.119-.086,1.047.018,2.093.035,3.14.063.15.004.301.055.446.101.752.237,1.085.677,1.081,1.418-.004.653-.313,1.019-1.103,1.27.241.102.456.188.667.283,1.079.484.858,1.958.144,2.36-.332.186-.707.389-1.072.406-1.113.052-2.231.019-3.365.019v-.33c.065-.008.132-.013.197-.022.475-.07.584-.15.59-.626.019-1.378.02-2.756.004-4.134-.006-.505-.1-.571-.599-.657-.07-.012-.137-.035-.249-.065M94.958,40.799c0,.741-.016,1.458.015,2.173.005.124.194.325.32.344.533.079,1.058.033,1.518-.302.532-.388.579-1.519.044-1.836-.569-.336-1.204-.438-1.897-.379M94.879,40.501c.452-.038.87-.058,1.282-.113.527-.07.77-.314.819-.767.068-.624-.141-1.083-.638-1.231-.366-.108-.759-.13-1.142-.175-.192-.022-.319.076-.32.284-.003.644,0,1.288,0,2.002" fill="#000" stroke-width="0"/><path d="M70.536,37.966c.088-.079.111-.118.133-.118.988.011,1.976.011,2.963.049.261.011.523.127.775.219.561.205.826.627.861,1.212.037.603-.234,1.018-.77,1.264-.233.107-.48.183-.748.283.029.051.056.123.102.18.555.701,1.098,1.413,1.679,2.092.183.214.471.34.797.566-.543,0-1.003.01-1.463-.01-.077-.003-.158-.125-.221-.205-.612-.777-1.226-1.551-1.827-2.336-.148-.195-.302-.281-.561-.185,0,.592-.019,1.191.006,1.788.021.494.109.561.612.648.069.012.136.037.195.124h-2.35c.613-.092.625-.562.627-1.029.005-1.118.005-2.237.001-3.355-.002-.554.126-1.194-.811-1.187M72.248,40.608c.591.014,1.127-.015,1.593-.348.655-.469.609-1.593-.123-1.921-.366-.164-.819-.146-1.235-.172-.072-.004-.222.182-.225.284-.019.703-.01,1.408-.01,2.157" fill="#000" stroke-width="0"/><path d="M157.703,43.62h-2.008c-.006-.019-.011-.038-.017-.056.051-.025.099-.061.152-.074.52-.123.618-.169.634-.69.043-1.388.059-2.779.025-4.167-.005-.2-.34-.399-.538-.582-.067-.062-.183-.071-.276-.104.002-.034.005-.067.007-.1.493,0,.986-.009,1.478.01.075.003.152.133.216.214.968,1.201,1.934,2.404,2.901,3.607.073.09.15.175.226.263.028-.021.06-.035.06-.048,0-1.048.01-2.096-.011-3.144-.009-.466-.137-.575-.607-.677-.063-.014-.123-.035-.178-.119h2.112c-.146.073-.198.107-.255.125-.567.185-.637.249-.643.848-.014,1.52-.009,3.04-.013,4.56,0,.092-.008.183-.062.313-.389-.322-.681-.733-.999-1.116-.339-.408-.67-.822-1.004-1.233-.327-.402-.654-.805-.981-1.207-.322-.396-.645-.792-1.01-1.24,0,1.3-.003,2.52.002,3.739.002.38.194.615.577.688.084.016.16.07.24.107-.009.027-.019.055-.028.083" fill="#000" stroke-width="0"/><path d="M80.695,39.768v1.933c-.024.024-.048.047-.072.07-.066-.076-.163-.141-.191-.228-.165-.525-.217-.581-.761-.596-.468-.013-.937-.003-1.443-.003,0,.759-.007,1.496.011,2.233.002.086.145.239.226.241.608.012,1.22.027,1.826-.024.514-.042.826-.404,1.045-.851.052-.105.141-.191.213-.286l.12.062c-.113.461-.222.924-.348,1.381-.013.046-.131.089-.201.089-1.507.005-3.013.004-4.644.004.107-.146.16-.293.23-.302.46-.058.52-.387.525-.745.01-.613.005-1.225.005-1.838,0-.647.002-1.295,0-1.943-.003-.69-.043-.738-.694-.911-.026-.007-.043-.043-.105-.107h4.691v1.205c-.022.02-.044.041-.067.061-.061-.072-.15-.135-.179-.219-.221-.638-.279-.69-.955-.705-.471-.01-.942.009-1.413-.007-.246-.008-.36.107-.363.325-.01.633-.003,1.266-.003,1.911.601,0,1.175.01,1.747-.004.323-.007.46-.229.526-.521.023-.104.099-.196.151-.293.042.023.083.045.124.068" fill="#000" stroke-width="0"/><path d="M81.929,37.84c.146,0,.293-.004.439,0,.893.023,1.792-.01,2.677.087.926.101,1.522.742,1.539,1.479.019.876-.545,1.486-1.535,1.614-.476.061-.96.065-1.44.095,0,.627-.02,1.258.016,1.886.008.13.211.273.354.361.114.071.275.067.407.172h-2.425c.732-.057.698-.607.7-1.129.004-1.095.003-2.189,0-3.284,0-.548.107-1.169-.823-1.149.031-.044.061-.088.091-.132M83.492,40.727c.41-.037.785-.045,1.15-.111.551-.1.818-.427.875-.995.063-.629-.161-1.141-.662-1.31-.349-.117-.736-.133-1.108-.158-.079-.006-.242.145-.244.227-.019.762-.011,1.524-.011,2.347" fill="#000" stroke-width="0"/><path d="M86.671,37.79c.054-.008.107-.024.161-.024.786-.002,1.573,0,2.359,0,.016.032.032.064.047.096-.069.045-.132.114-.208.132-.56.135-.62.187-.624.75-.007,1.001-.004,2.002.009,3.003.008.571.175,1.093.735,1.346.609.275,1.247.272,1.832-.072.443-.262.597-.737.611-1.214.033-1.07.031-2.142.011-3.213-.011-.556-.132-.653-.684-.752-.037-.006-.071-.034-.096-.112h2.016c-.018.05-.022.086-.034.089-.703.188-.766.256-.777.992-.013.894.011,1.79-.02,2.684-.044,1.25-.646,1.925-1.842,2.049-.403.042-.828.013-1.225-.071-.885-.186-1.41-.886-1.438-1.891-.024-.894-.008-1.79-.011-2.685,0-.129-.005-.259-.011-.388-.018-.361-.198-.563-.569-.584-.084-.005-.168-.028-.252-.042.004-.031.007-.061.01-.092" fill="#000" stroke-width="0"/><path d="M118.353,37.708v2.024c-.115-.137-.205-.217-.262-.316-.17-.293-.276-.64-.497-.884-.693-.767-1.973-.719-2.672.058-.6.668-.74,1.476-.722,2.333.003.141.02.282.039.422.242,1.783,2.059,2.6,3.561,1.601.157-.104.304-.224.467-.316.072-.04.172-.029.333-.051-1.188,1.559-3.361,1.485-4.468.473-.845-.772-1.162-2.137-.738-3.357.404-1.162,1.394-1.954,2.575-1.983.487-.012.984.069,1.463.172.329.072.62.188.815-.262.035.028.071.057.106.086" fill="#000" stroke-width="0"/><path d="M122.083,37.746c.055.108.114.213.162.323.65,1.472,1.299,2.945,1.948,4.418q.329.748.993,1.121h-2.303c-.008-.022-.015-.044-.022-.066.119-.032.236-.083.357-.092.253-.018.304-.168.227-.361-.16-.404-.334-.803-.527-1.192-.037-.075-.187-.131-.286-.133-.624-.012-1.248-.016-1.872.003-.105.003-.255.108-.3.205-.128.275-.223.568-.312.859-.134.438-.073.537.358.651.058.016.112.045.157.129h-1.625c.645-.201.764-.804.983-1.293.617-1.384,1.191-2.787,1.782-4.182.054-.126.111-.251.166-.377.038-.004.076-.008.114-.013M121.812,38.971c-.343.847-.652,1.608-.971,2.395h1.94c-.316-.783-.623-1.539-.969-2.395" fill="#000" stroke-width="0"/><path d="M165.935,43.529c.118-.028.234-.071.353-.08.282-.02.304-.189.221-.392-.16-.391-.329-.781-.519-1.158-.038-.076-.185-.133-.284-.135-.624-.012-1.249-.016-1.873.003-.105.003-.256.107-.302.204-.124.264-.215.546-.3.826-.146.487-.095.57.382.691.042.01.082.025.116.108h-1.619c.54-.13.679-.599.857-1.007.649-1.487,1.277-2.982,1.916-4.473.052-.123.118-.241.221-.451.097.182.16.283.207.39.664,1.507,1.321,3.016,1.99,4.519.187.42.309.915.944.94-.018.03-.036.06-.054.09h-2.236c-.007-.025-.013-.05-.02-.075M165.859,41.372c-.326-.8-.635-1.559-.977-2.398-.343.846-.651,1.608-.97,2.398h1.947Z" fill="#000" stroke-width="0"/><path d="M137.777,37.748c.054.109.112.216.161.327.639,1.452,1.272,2.907,1.918,4.356.209.467.324,1.026.957,1.179h-2.237c-.007-.025-.014-.05-.022-.076.109-.027.218-.075.327-.078.276-.008.328-.176.25-.378-.157-.405-.336-.802-.527-1.192-.033-.068-.168-.121-.257-.122-.636-.011-1.273-.016-1.908.004-.103.003-.248.116-.294.215-.124.265-.216.546-.302.826-.145.477-.09.561.401.681.041.01.08.025.115.108h-1.631c.623-.173.746-.746.955-1.219.623-1.407,1.211-2.83,1.813-4.247.054-.126.112-.25.167-.375l.114-.009M138.475,41.369c-.328-.804-.636-1.559-.977-2.395-.345.856-.65,1.611-.967,2.395h1.944Z" fill="#000" stroke-width="0"/><path d="M155.444,43.615h-2.234c-.006-.029-.012-.057-.018-.085.113-.027.224-.073.338-.078.286-.012.305-.197.231-.388-.152-.394-.324-.781-.513-1.158-.038-.077-.183-.14-.281-.142-.624-.012-1.248-.018-1.872.004-.113.004-.27.121-.322.227-.128.262-.216.545-.302.825-.14.456-.082.548.383.667.051.013.101.034.144.116h-1.642c.547-.145.693-.622.876-1.041.648-1.486,1.277-2.981,1.913-4.472.049-.114.105-.224.198-.422.103.178.173.275.22.383.684,1.548,1.367,3.096,2.044,4.647.173.395.344.779.867.824-.01.031-.02.062-.03.093M153.182,41.369c-.32-.789-.628-1.549-.972-2.397-.345.851-.652,1.611-.97,2.397h1.942Z" fill="#000" stroke-width="0"/><path d="M132.982,38.258c0,1.542-.003,3.083.002,4.625,0,.354.17.576.549.6.092.006.184.033.262.125h-2.539c-.003-.025-.006-.05-.008-.075.082-.016.165-.034.248-.048.443-.076.553-.173.557-.622.013-1.483.008-2.967.008-4.45,0-.032-.02-.064-.049-.15-.375.033-.762.04-1.138.107-.43.077-.518.466-.641.81-.033.092-.096.174-.146.26-.04-.017-.08-.034-.12-.051.046-.506.092-1.013.139-1.532h4.976c.029.483.056.949.088,1.491-.108-.045-.242-.067-.248-.108-.153-1.097-.973-1.037-1.765-1.029-.035,0-.07.004-.105.008-.01,0-.02.011-.07.039" fill="#000" stroke-width="0"/><path d="M110.023,42.199c-.13.437-.253.876-.396,1.308-.02.062-.133.131-.203.132-1.507.004-3.013,0-4.52-.004-.017,0-.034-.023-.085-.059.067-.035.115-.073.168-.084.503-.105.598-.186.603-.7.014-1.342.014-2.684.001-4.025-.005-.506-.104-.592-.604-.7-.051-.011-.1-.034-.143-.114h2.465c.006.024.012.048.018.072-.123.029-.245.07-.37.086-.299.038-.429.215-.436.501-.008.282-.015.564-.015.847-.002,1.153.005,2.307-.004,3.46-.002.309.093.46.429.433.421-.034.845-.043,1.268-.054.659-.017,1.14-.311,1.456-.891.062-.113.171-.201.258-.3.037.031.073.061.11.092" fill="#000" stroke-width="0"/><path d="M141.038,43.584c.027-.039.037-.069.053-.074.683-.184.713-.219.714-.93.002-1.118.003-2.236,0-3.355-.001-.559.116-1.198-.834-1.182.027-.03.054-.06.082-.09h2.465c.006.024.012.048.018.072-.123.03-.246.07-.371.086-.299.039-.429.216-.436.501-.007.306-.014.612-.014.918-.002,1.13.005,2.26-.004,3.39-.003.309.094.459.429.433.421-.034.845-.044,1.268-.055.66-.017,1.14-.312,1.456-.891.062-.113.17-.2.258-.299.037.023.075.047.112.07-.133.456-.262.913-.407,1.364-.016.05-.128.098-.195.098-1.507.003-3.013-.001-4.519-.005-.018,0-.035-.023-.074-.051" fill="#000" stroke-width="0"/><path d="M112.895,43.609h-2.609c-.004-.019-.008-.038-.012-.057.055-.021.108-.051.164-.06.547-.081.65-.162.657-.719.017-1.331.017-2.662,0-3.993-.007-.551-.106-.626-.663-.713-.052-.008-.103-.024-.149-.109h2.606c.007.02.014.039.021.059-.096.022-.191.056-.288.063-.361.03-.522.232-.524.581-.004.565-.011,1.131-.013,1.696-.002.766-.005,1.532.002,2.297.006.669.059.724.713.842.038.007.071.036.106.055-.003.02-.007.039-.011.058" fill="#000" stroke-width="0"/><path d="M146.489,37.95h2.611c.005.023.01.046.015.069-.112.025-.223.061-.337.073-.313.034-.465.213-.466.515-.003,1.449-.003,2.898,0,4.346,0,.305.16.479.468.515.111.012.22.039.324.132h-2.614c-.003-.02-.006-.04-.008-.059.048-.017.096-.041.146-.048.573-.09.67-.168.677-.737.015-1.32.014-2.639,0-3.959-.006-.557-.106-.641-.646-.729-.06-.01-.118-.035-.177-.053.003-.022.005-.043.008-.065" fill="#000" stroke-width="0"/><path d="M127.102,43.547c.046-.018.091-.045.139-.053.59-.1.671-.169.677-.772.012-1.296.012-2.593,0-3.889-.006-.597-.083-.662-.68-.77-.047-.008-.091-.037-.126-.114h2.604c.003.02.006.041.009.061-.047.018-.092.045-.141.054-.588.102-.675.177-.68.77-.013,1.296-.013,2.593,0,3.889.005.598.094.675.68.771.048.007.094.034.131.113h-2.603c-.003-.02-.007-.04-.01-.06" fill="#000" stroke-width="0"/></g></svg>