<?xml version="1.0" encoding="UTF-8"?><svg id="Layer_2" xmlns="http://www.w3.org/2000/svg" width="185.825" height="186.026" viewBox="0 0 185.825 186.026"><g id="Layer_1-2"><path d="M56.112,115.609c-1.149-1.652-2.078-2.97-2.987-4.301-7.134-10.451-13-21.52-16.31-33.81-4.272-15.859-3.486-31.341,4.328-45.983,7.925-14.849,20.041-24.898,36.384-29.283,19.252-5.165,36.881-1.333,52.346,11.141,12.086,9.748,19.077,22.623,21.159,38.057,1.626,12.051-.548,23.608-4.849,34.838-3.677,9.599-8.772,18.436-14.691,26.813-.512.726-1.006,1.464-1.667,2.428.899.041,1.532.096,2.165.096,7.748.006,15.496.045,23.243-.023,2.109-.018,3.325.787,4.133,2.755,8.562,20.85,17.186,41.675,25.786,62.509,1.527,3.699.504,5.174-3.553,5.175H4.188c-.363,0-.727.014-1.089-.005-2.488-.128-3.69-1.751-2.814-4.041,1.296-3.385,2.698-6.731,4.137-10.058.702-1.623,2.142-2.22,3.532-1.665,1.475.589,2.088,2.051,1.447,3.765-.797,2.133-1.696,4.229-2.628,6.528,6.034,0,11.831.017,17.627-.037.393-.003.98-.454,1.14-.838,3.025-7.249,5.999-14.52,8.977-21.788.041-.1.005-.233.005-.545-4.093,0-8.182-.008-12.272.004-1.934.005-4.313-.629-5.678.267-1.353.888-1.683,3.334-2.463,5.096-.171.387-.308.796-.528,1.153-.753,1.22-1.838,1.799-3.232,1.283-1.444-.534-2.03-1.666-1.71-3.184.123-.584.365-1.148.594-1.704,5.737-13.91,11.479-27.818,17.222-41.725,1.064-2.577,1.562-2.915,4.34-2.917,8.289-.004,16.579,0,25.317,0M92.854,146.684c.834-.703,1.44-1.2,2.03-1.714,9.798-8.516,18.849-17.756,26.882-27.964,9.531-12.111,17.43-25.125,21.713-40.083,2.72-9.499,3.609-19.133,1.468-28.857-3.466-15.742-12.225-27.754-26.211-35.732-11.548-6.588-24.025-8.384-36.992-5.568-13.713,2.978-24.614,10.438-32.579,21.976-7.506,10.876-10.452,23.042-9.128,36.147,1.262,12.485,5.877,23.871,12.116,34.644,8.534,14.737,19.573,27.448,31.862,39.129,2.843,2.703,5.808,5.277,8.839,8.022M167.254,151.865c-1.135-2.766-2.189-5.194-3.119-7.668-.386-1.027-.958-1.336-2.018-1.325-4.842.049-9.685.04-14.527.01-2.074-.012-3.21-.968-3.269-2.607-.06-1.685,1.167-2.829,3.257-2.856,3.753-.048,7.506-.015,11.259-.016h2.452c-2.2-5.333-4.234-10.369-6.395-15.349-.213-.491-1.2-.91-1.831-.914-8.716-.06-17.433-.068-26.148.007-.767.007-1.73.495-2.259,1.073-4.203,4.601-8.324,9.276-12.465,13.933-.288.325-.527.693-.947,1.25,7.989,0,15.672-.005,23.354.008.72.002,1.462.026,2.155.195,1.44.352,2.111,1.362,1.99,2.822-.114,1.381-.914,2.209-2.292,2.39-.657.087-1.329.073-1.994.073-9.079.004-18.159.028-27.238-.026-1.313-.008-2.26.373-3.218,1.254-2.715,2.499-5.503,4.921-8.31,7.319-2.349,2.006-3.146,1.991-5.494.043-10.231-8.489-19.589-17.858-27.982-28.164-1.375-1.687-2.735-2.406-4.87-2.278-1.295.078-1.889.474-2.362,1.651-2.317,5.776-4.725,11.516-7.102,17.269-1.107,2.68-1.465,2.931-4.304,2.933-6.598.005-13.196-.013-19.793.028-.577.004-1.495.219-1.673.605-1.231,2.664-2.308,5.399-3.529,8.34,6.496,0,12.659-.002,18.822.001,3.848.001,4.911,1.589,3.441,5.141-2.957,7.147-5.921,14.292-8.875,21.441-.266.645-.475,1.314-.739,2.052h9.996c.264-.574.534-1.113.763-1.668,3.066-7.43,6.123-14.862,9.188-22.292,3.019-7.318,6.025-14.641,9.076-21.946,1.108-2.653,2.897-3.062,5.128-1.274.236.189.461.392.691.589,17.929,15.258,35.852,30.524,53.813,45.745.616.523,1.601.839,2.422.855,4.236.085,8.473.044,12.711.034.439-.001.878-.085,1.548-.155-.648-.596-1.083-1.014-1.536-1.41-8.11-7.092-16.223-14.18-24.331-21.274-.5-.437-1.035-.858-1.441-1.375-1.353-1.722-.424-4.072,1.738-4.414.592-.093,1.208-.049,1.813-.049,17.311-.002,34.623-.001,51.934-.001h2.51ZM112.346,180.467c-16.235-13.813-32.134-27.34-48.202-41.011-5.695,13.789-11.285,27.322-16.939,41.011h65.141ZM178.878,180.549c-.015-.292.022-.486-.04-.638-2.963-7.204-5.96-14.395-8.88-21.617-.448-1.108-1.216-.956-2.04-.956-15.788,0-31.576-.002-47.363.004-.496,0-.992.072-1.646.123.278.322.38.474.513.59,8.284,7.25,16.558,14.51,24.882,21.713.561.485,1.5.741,2.266.747,6.412.059,12.824.034,19.236.034h13.072ZM49.769,121.101c-6.068,0-11.751-.03-17.432.051-.515.008-1.266.631-1.488,1.148-2.004,4.659-3.918,9.358-5.846,14.05-.12.291-.144.621-.239,1.052,5.844,0,11.527.014,17.209-.029.438-.003,1.125-.301,1.272-.643,2.176-5.093,4.28-10.216,6.524-15.629" fill="#f1716f" stroke-width="0"/><path d="M92.797,84.484c-18.359-.239-30.399-19.68-22.398-36.279.892-1.851,2.239-2.542,3.745-1.921,1.515.624,2.062,2.266,1.206,4.155-2.932,6.471-2.796,12.827.879,18.923,5.683,9.424,17.659,12.309,26.898,6.608,9.269-5.719,12.165-17.943,6.443-27.188-5.648-9.125-17.264-12.029-26.512-6.628-.365.214-.72.447-1.096.641-1.694.872-3.131.571-3.957-.817-.817-1.373-.39-2.862,1.179-3.868,6.112-3.922,12.734-5.172,19.785-3.397,11.372,2.862,19.209,13.203,18.993,24.842-.218,11.718-8.291,21.647-19.784,24.23-1.757.395-3.585.474-5.381.699" fill="#f1716f" stroke-width="0"/></g></svg>