<?xml version="1.0" encoding="UTF-8"?><svg id="Layer_2" xmlns="http://www.w3.org/2000/svg" width="184" height="184" viewBox="0 0 184 184"><g id="Layer_1-2"><path d="M184,92C184,41.19,142.81,0,92,0S0,41.19,0,92s41.19,92,92,92,92-41.19,92-92" fill="#0099b7" stroke-width="0"/><path d="M57.62,100.862v-7.174h3.583v7.106h16.305c0-.4-.009-.832.001-1.264.061-2.555-.118-5.146.246-7.658.598-4.12,4.301-7.18,8.462-7.254,3.84-.069,7.684-.076,11.524.001,4.707.095,8.566,3.992,8.682,8.708.061,2.473.011,4.949.011,7.479h16.24v-7.109h3.598v7.107c.481.024.842.055,1.204.056,2.523.005,5.047-.008,7.57.007,1.42.009,2.117.668,2.125,2.047.019,3.464.02,6.929,0,10.393-.008,1.325-.705,1.978-2.042,2.021-.263.009-.527.002-.79.002H49.6c-2.381,0-2.827-.447-2.828-2.825,0-3.125-.006-6.251.003-9.376.004-1.624.635-2.258,2.251-2.264,2.818-.009,5.636-.003,8.594-.003M72.186,111.631h39.582v-7.127h-39.582v7.127ZM90.164,88.221c-1.362,0-2.563-.029-3.762.006-2.479.074-4.773,1.727-5.04,4.185-.299,2.765-.068,5.589-.068,8.363h21.516c0-2.531.048-4.975-.014-7.416-.056-2.186-1.544-4.309-3.647-4.794-1.711-.395-3.529-.324-5.396-.468v9.088h-3.589v-8.964ZM68.417,104.565h-17.928v7.083h17.928v-7.083ZM133.498,104.549h-17.939v7.076h17.939v-7.076Z" fill="#fff" stroke-width="0"/><path d="M39.466,146.003h-3.442c-.336-3.896,2.91-8.006,7.04-8.738,1.65-.292,3.371-.203,5.06-.244,1.393-.034,2.787-.023,4.18.001,2.745.049,4.726,1.039,7.105,3.544.179-.169.369-.33.537-.511,1.835-1.978,4.09-3.022,6.798-3.038,2.184-.012,4.369.036,6.553-.013,3.182-.07,5.771,1.122,7.828,3.622,1.585-1.873,3.445-3.307,5.833-3.439,3.335-.186,6.697-.191,10.031,0,2.382.136,4.273,1.523,5.816,3.45,1.588-1.86,3.438-3.331,5.824-3.44,3.522-.162,7.066-.112,10.586.09,1.881.108,3.09,1.097,5.386,3.343.337-.385.646-.805,1.021-1.155,1.66-1.552,3.633-2.406,5.908-2.443,2.598-.042,5.198-.061,7.795.003,4.482.111,8.235,3.674,8.664,8.148.024.253.003.511.003.82h-3.504c-.066-.324-.129-.676-.208-1.026-.588-2.593-2.67-4.301-5.337-4.333-2.184-.027-4.369-.008-6.553-.007-3.572.003-5.569,1.74-6.114,5.363h-3.448c-.781-3.352-2.356-5.088-4.971-5.318-1.308-.115-2.634-.039-3.951-.044-1.168-.004-2.335-.006-3.503,0-3.151.016-5.239,1.805-5.752,4.922-.023.141-.05.281-.082.456h-3.466c-.091-.422-.171-.851-.278-1.273-.604-2.364-2.629-4.042-5.065-4.09-2.522-.05-5.047-.056-7.569,0-2.849.064-4.775,2.03-5.319,5.351h-3.448c-.86-4.001-2.566-5.368-6.667-5.368h-2.147c-1.092,0-2.184-.001-3.276,0-3.598.004-5.608,1.734-6.14,5.348h-3.501c-.065-.33-.124-.688-.206-1.041-.596-2.588-2.678-4.271-5.361-4.301-2.071-.024-4.143-.006-6.214-.006-3.888,0-5.755,1.544-6.446,5.367" fill="#fff" stroke-width="0"/><path d="M121.952,44.29c-3.321-2.856-3.788-6.192-1.243-8.722,2.278-2.266,5.932-2.072,7.998.407,1.773,2.128,1.998,6.023-1.832,8.369.206.712.407,1.462.639,2.202,2.514,8.03,5.034,16.058,7.551,24.087.69,2.201.016,3.12-2.29,3.123-2.102.002-4.203,0-6.445,0v1.277c0,4.214-.013,8.429.01,12.643.005,1.033-.221,1.899-1.289,2.249-1.029.338-1.694-.249-2.288-1.015-3.895-5.025-7.771-10.065-11.732-15.038-.947-1.189-1.085-2.189-.463-3.584,3.715-8.339,7.349-16.715,11.009-25.08.134-.306.253-.618.375-.918M124.294,48.403c-.16.151-.199.172-.213.204-3.296,7.499-6.6,14.996-9.854,22.514-.141.325.047.942.292,1.263,2.443,3.2,4.93,6.367,7.407,9.541.193.248.411.476.781.901,0-3.636-.005-7.012.002-10.388.004-1.686.625-2.296,2.326-2.303,1.981-.007,3.961,0,6.058,0-2.284-7.298-4.524-14.459-6.799-21.731M124.506,41.203c.969.007,1.799-.812,1.807-1.783.007-.969-.812-1.799-1.783-1.806-.972-.007-1.799.809-1.806,1.782-.006.971.811,1.8,1.782,1.807" fill="#fff" stroke-width="0"/><path d="M57.067,44.392c-3.403-2.589-4.035-5.994-1.651-8.614,2.169-2.383,5.834-2.393,8.009-.022,2.351,2.564,1.8,5.975-1.45,8.513.762,1.754,1.531,3.535,2.309,5.312,3.043,6.953,6.063,13.916,9.154,20.848.565,1.267.447,2.207-.415,3.295-3.971,5.012-7.878,10.076-11.795,15.131-.616.795-1.288,1.43-2.372,1.058-1.073-.368-1.251-1.256-1.246-2.277.023-4.176.01-8.353.01-12.53v-1.35c-2.22,0-4.352.002-6.484,0-2.253-.002-2.94-.921-2.275-3.05,2.634-8.425,5.272-16.85,7.907-25.275.11-.353.205-.711.299-1.038M61.243,82.549c.075.028.15.056.226.084,2.722-3.497,5.456-6.985,8.142-10.511.2-.262.181-.851.037-1.191-1.335-3.147-2.72-6.272-4.09-9.404-1.911-4.367-3.822-8.734-5.84-13.344-2.325,7.437-4.578,14.641-6.861,21.942,1.988,0,3.793,0,5.597,0,2.331,0,2.788.449,2.789,2.738v9.685M61.225,39.421c.008-.969-.81-1.799-1.782-1.807-.972-.008-1.799.807-1.806,1.781-.008.971.809,1.8,1.78,1.808.969.008,1.8-.811,1.808-1.782" fill="#fff" stroke-width="0"/><path d="M82.935,73.758c-.003-4.993,4.065-9.052,9.061-9.044,4.991.009,9.038,4.087,9.018,9.087-.02,4.939-4.062,8.975-9.005,8.989-4.993.015-9.072-4.045-9.074-9.032M91.945,68.337c-2.941.014-5.374,2.446-5.387,5.387-.013,2.987,2.458,5.458,5.445,5.444,2.937-.014,5.374-2.452,5.387-5.39.014-2.988-2.454-5.455-5.445-5.441" fill="#fff" stroke-width="0"/><path d="M48.635,120.748c3.996.022,7.214,3.298,7.18,7.31-.033,3.989-3.327,7.198-7.34,7.152-3.939-.046-7.133-3.299-7.123-7.255.01-3.997,3.275-7.228,7.283-7.207M48.573,131.587c1.949.006,3.597-1.62,3.618-3.569s-1.591-3.611-3.54-3.646c-1.993-.037-3.685,1.631-3.675,3.625.009,1.949,1.647,3.584,3.597,3.59" fill="#fff" stroke-width="0"/><path d="M70.316,120.748c3.998.016,7.221,3.285,7.194,7.296-.027,3.99-3.315,7.206-7.325,7.166-3.941-.039-7.142-3.286-7.138-7.24.004-3.999,3.263-7.237,7.269-7.222M70.233,131.587c1.949.025,3.615-1.585,3.654-3.533.04-1.949-1.557-3.627-3.504-3.682-1.992-.056-3.702,1.597-3.711,3.589-.01,1.95,1.612,3.601,3.561,3.626" fill="#fff" stroke-width="0"/><path d="M99.206,128.035c-.023,3.991-3.307,7.211-7.317,7.175-3.988-.037-7.193-3.331-7.146-7.345.046-3.936,3.303-7.129,7.26-7.117,3.999.012,7.226,3.276,7.203,7.287M95.582,127.997c.01-1.949-1.612-3.601-3.561-3.626-1.949-.025-3.617,1.587-3.655,3.533-.039,1.995,1.624,3.688,3.618,3.682,1.95-.005,3.588-1.639,3.598-3.589" fill="#fff" stroke-width="0"/><path d="M120.902,127.958c.009,4.003-3.237,7.255-7.239,7.252-3.997-.003-7.239-3.265-7.224-7.267.014-3.949,3.235-7.175,7.182-7.195,4.009-.02,7.272,3.211,7.281,7.21M117.278,127.942c-.019-1.95-1.665-3.575-3.617-3.571-1.947.004-3.589,1.641-3.599,3.589-.01,1.995,1.68,3.662,3.674,3.627,1.947-.035,3.561-1.696,3.542-3.645" fill="#fff" stroke-width="0"/><path d="M128.134,127.916c.026-3.99,3.311-7.206,7.322-7.168,3.99.039,7.191,3.333,7.141,7.349-.049,3.938-3.307,7.127-7.266,7.113-3.994-.014-7.223-3.287-7.197-7.294M131.758,127.886c-.048,1.949,1.541,3.635,3.487,3.7,1.993.066,3.708-1.576,3.729-3.57.02-1.949-1.594-3.61-3.543-3.645-1.949-.034-3.625,1.57-3.673,3.515" fill="#fff" stroke-width="0"/></g></svg>