<?xml version="1.0" encoding="UTF-8"?><svg id="Layer_2" xmlns="http://www.w3.org/2000/svg" width="30.072" height="9.824" viewBox="0 0 30.072 9.824"><g id="Layer_1-2"><path d="M11.599,3.524c.308-.421.463-.921.463-1.501,0-.635-.224-1.13-.672-1.487C10.943.178,10.314,0,9.504,0h-2.712l-.283,1.415h2.741c.314,0,.559.065.735.195.175.13.263.325.263.585,0,.344-.109.611-.327.798-.217.187-.526.281-.925.281h-2.859l-.615,3.075h1.796l.336-1.687h.906l.944,1.687h1.878l-1.08-1.905c.556-.193.988-.5,1.297-.92" fill="#ed1c2a" stroke-width="0"/><path d="M13.078,0l-.283,1.415h4.966L18.048,0h-4.97ZM13.557,5.019l.089-.46h3.12l.251-1.285h-4.591l-.269,1.343-.07.344-.278,1.388h5.088l.278-1.33h-3.618Z" fill="#ed1c2a" stroke-width="0"/><path d="M24.164,1.248c-.257-.402-.624-.71-1.102-.925s-1.043-.323-1.696-.323h-2.757l-.283,1.416h2.845c.513,0,.909.088,1.175.32.266.233.39.611.39,1.04,0,.411-.081.778-.245,1.102-.163.324-.412.623-.73.807-.318.185-.694.276-1.129.276h-1.216l.334-1.687h-1.796l-.614,3.075h3.246c.775,0,1.461-.151,2.059-.453.599-.303,1.066-.732,1.401-1.288.336-.557.503-1.203.503-1.941,0-.544-.128-1.017-.385-1.419" fill="#ed1c2a" stroke-width="0"/><path d="M.189,8.853v.489h-.189v-1.559h.688c.293,0,.544.17.544.539,0,.254-.147.43-.346.499l.429.521h-.238l-.392-.489H.189ZM.189,8.682h.478c.202,0,.371-.135.371-.359,0-.248-.169-.366-.371-.366H.189v.725Z" fill="#000" stroke-width="0"/><path d="M2.444,9.257c-.129.074-.267.108-.415.108-.371,0-.627-.235-.627-.574,0-.329.236-.574.567-.574.373,0,.584.302.524.64h-.901c.031.217.215.337.428.337.129,0,.244-.022.392-.103l.032.166ZM2.327,8.708c-.013-.188-.142-.321-.352-.321-.208,0-.361.133-.378.321h.73Z" fill="#000" stroke-width="0"/><path d="M3.196,8.721c.219.044.335.142.335.315,0,.214-.171.329-.438.329-.156,0-.31-.031-.414-.083l.026-.163c.101.052.242.083.375.083.177,0,.272-.055.272-.157,0-.099-.085-.14-.24-.17l-.143-.029c-.183-.035-.3-.132-.3-.302,0-.196.173-.327.448-.327.133,0,.267.025.353.061l-.023.159c-.089-.035-.211-.058-.319-.058-.179,0-.278.06-.278.161,0,.095.076.128.231.158l.115.023Z" fill="#000" stroke-width="0"/><path d="M4.305,8.217c.149,0,.277.044.331.073l-.02.165c-.073-.036-.184-.067-.311-.067-.258,0-.435.162-.435.399,0,.24.178.407.437.407.112,0,.237-.029.318-.07l.03.166c-.097.044-.226.075-.348.075-.369,0-.622-.234-.622-.578,0-.338.252-.57.62-.57" fill="#000" stroke-width="0"/><path d="M5.687,8.24h.18v.654c0,.277-.195.471-.499.471s-.499-.192-.499-.464v-.661h.181v.628c0,.207.127.326.318.326.192,0,.319-.119.319-.326v-.628Z" fill="#000" stroke-width="0"/><path d="M7.141,9.257c-.128.074-.267.108-.415.108-.371,0-.627-.235-.627-.574,0-.329.236-.574.567-.574.373,0,.584.302.524.64h-.901c.031.217.215.337.429.337.128,0,.243-.022.391-.103l.032.166ZM7.024,8.708c-.013-.188-.142-.321-.352-.321-.208,0-.361.133-.378.321h.73Z" fill="#000" stroke-width="0"/><path d="M8.878,7.997c-.066-.033-.2-.071-.331-.071-.181,0-.326.07-.326.223,0,.138.064.208.18.321l.507.478c.082-.111.113-.299.103-.453h.174c.01.203-.032.414-.144.568l.291.279h-.253l-.159-.148c-.088.078-.232.171-.466.171-.338,0-.582-.19-.582-.468,0-.217.169-.358.297-.425-.081-.086-.135-.189-.135-.317,0-.252.226-.395.511-.395.135,0,.26.03.356.07l-.023.167ZM8.267,8.588c-.09.046-.208.135-.208.309,0,.178.168.299.397.299.163,0,.279-.06.34-.122l-.529-.486Z" fill="#000" stroke-width="0"/><polygon points="9.953 9.342 9.953 7.783 11.071 7.783 11.071 7.955 10.142 7.955 10.142 8.455 10.951 8.455 10.951 8.627 10.142 8.627 10.142 9.171 11.095 9.171 11.095 9.342 9.953 9.342" fill="#000" stroke-width="0"/><path d="M13.149,8.668v.674h-.183v-.629c0-.203-.112-.324-.304-.324-.179,0-.327.125-.327.32v.633h-.182v-.629c0-.203-.113-.324-.298-.324-.184,0-.331.127-.331.327v.626h-.183v-1.102h.183v.164c.06-.102.189-.187.361-.187.195,0,.336.087.403.232.075-.144.224-.232.403-.232.287,0,.458.181.458.451" fill="#000" stroke-width="0"/><path d="M14.426,9.248c-.129.074-.267.108-.415.108-.371,0-.627-.235-.627-.574,0-.329.236-.574.567-.574.373,0,.584.302.524.64h-.901c.031.217.215.337.428.337.129,0,.244-.022.392-.103l.032.166ZM14.309,8.699c-.013-.188-.142-.321-.352-.321-.208,0-.361.133-.378.321h.73Z" fill="#000" stroke-width="0"/><path d="M14.919,8.403c.062-.127.171-.186.297-.186.078,0,.136.02.156.029l-.018.168c-.031-.011-.073-.027-.145-.027-.147,0-.29.096-.29.343v.612h-.184v-1.102h.184v.163Z" fill="#000" stroke-width="0"/><path d="M16,9.364c-.315,0-.555-.245-.555-.577s.24-.57.555-.57c.198,0,.342.084.425.203v-.181h.182v1.029c0,.32-.219.556-.623.556-.136,0-.318-.031-.434-.092l.029-.167c.123.061.269.093.404.093.256,0,.442-.129.442-.376v-.122c-.08.116-.227.204-.425.204M15.626,8.787c0,.228.163.412.393.412.235,0,.408-.184.408-.412s-.173-.405-.408-.405c-.23,0-.393.178-.393.405" fill="#000" stroke-width="0"/><path d="M17.899,9.257c-.128.074-.267.108-.415.108-.371,0-.627-.235-.627-.574,0-.329.236-.574.567-.574.373,0,.584.302.524.64h-.901c.031.217.215.337.429.337.128,0,.243-.022.391-.103l.032.166ZM17.782,8.708c-.013-.188-.142-.321-.352-.321-.208,0-.361.133-.378.321h.73Z" fill="#000" stroke-width="0"/><path d="M19.225,8.671v.67h-.181v-.625c0-.215-.113-.327-.313-.327-.188,0-.341.129-.341.33v.622h-.182v-1.102h.184v.166c.062-.102.192-.189.368-.189.291,0,.465.171.465.455" fill="#000" stroke-width="0"/><path d="M20.08,8.217c.149,0,.277.044.331.073l-.02.165c-.073-.036-.184-.067-.311-.067-.258,0-.435.162-.435.399,0,.24.178.407.437.407.112,0,.237-.029.318-.07l.03.166c-.097.044-.226.075-.348.075-.369,0-.622-.234-.622-.578,0-.338.252-.57.62-.57" fill="#000" stroke-width="0"/><path d="M21.446,8.24h.201l-.52,1.242c-.094.219-.198.342-.42.342-.089,0-.157-.022-.188-.038l.021-.155c.038.017.099.03.156.03.126,0,.2-.079.264-.236l.02-.052-.476-1.133h.198l.376.923.368-.923Z" fill="#000" stroke-width="0"/><path d="M22.962,7.783c.52,0,.786.32.786.78,0,.478-.267.778-.788.778h-.636v-1.558h.638ZM22.513,7.956v1.212h.437c.403,0,.605-.218.605-.605,0-.375-.202-.607-.605-.607h-.437Z" fill="#000" stroke-width="0"/><path d="M24.973,9.257c-.128.074-.267.108-.415.108-.371,0-.627-.235-.627-.574,0-.329.236-.574.567-.574.373,0,.584.302.524.64h-.901c.031.217.215.337.429.337.128,0,.243-.022.391-.103l.032.166ZM24.856,8.708c-.013-.188-.142-.321-.352-.321-.208,0-.361.133-.378.321h.73Z" fill="#000" stroke-width="0"/><polygon points="25.779 9.342 25.554 9.342 25.104 8.24 25.299 8.24 25.667 9.168 26.033 8.24 26.229 8.24 25.779 9.342" fill="#000" stroke-width="0"/><path d="M26.393,7.87c0-.067.046-.112.113-.112.066,0,.115.045.115.112s-.049.114-.115.114c-.067,0-.113-.047-.113-.114M26.415,8.24h.182v1.102h-.182v-1.102Z" fill="#000" stroke-width="0"/><path d="M27.466,8.217c.149,0,.277.044.331.073l-.02.165c-.073-.036-.184-.067-.311-.067-.258,0-.435.162-.435.399,0,.24.178.407.437.407.112,0,.237-.029.318-.07l.03.166c-.097.044-.226.075-.348.075-.369,0-.622-.234-.622-.578,0-.338.252-.57.62-.57" fill="#000" stroke-width="0"/><path d="M28.984,9.257c-.129.074-.267.108-.415.108-.371,0-.627-.235-.627-.574,0-.329.236-.574.567-.574.373,0,.584.302.524.64h-.901c.031.217.215.337.428.337.129,0,.244-.022.392-.103l.032.166ZM28.867,8.708c-.013-.188-.142-.321-.352-.321-.208,0-.361.133-.378.321h.73Z" fill="#000" stroke-width="0"/><path d="M29.737,8.721c.219.044.335.142.335.315,0,.214-.171.329-.438.329-.156,0-.31-.031-.414-.083l.026-.163c.101.052.242.083.375.083.177,0,.272-.055.272-.157,0-.099-.085-.14-.24-.17l-.143-.029c-.183-.035-.3-.132-.3-.302,0-.196.173-.327.448-.327.133,0,.267.025.353.061l-.023.159c-.089-.035-.211-.058-.319-.058-.179,0-.278.06-.278.161,0,.095.076.128.231.158l.115.023Z" fill="#000" stroke-width="0"/></g></svg>