<?xml version="1.0" encoding="UTF-8"?>
<svg id="Livello_1" data-name="Livello 1" xmlns="http://www.w3.org/2000/svg" version="1.1" viewBox="0 0 347.36 96.61">
  <defs>
    <style>
      .cls-1 {
        fill: #6fc9f0;
      }

      .cls-1, .cls-2, .cls-3, .cls-4, .cls-5, .cls-6, .cls-7, .cls-8, .cls-9, .cls-10 {
        stroke-width: 0px;
      }

      .cls-2 {
        fill: #009dc7;
      }

      .cls-3 {
        fill: #a3c516;
      }

      .cls-4 {
        fill: #4ababa;
      }

      .cls-5 {
        fill: #32a836;
      }

      .cls-6 {
        fill: #a6a4a4;
      }

      .cls-7 {
        fill: #dada00;
      }

      .cls-8 {
        fill: #005196;
      }

      .cls-9 {
        fill: #a1ca7a;
      }

      .cls-10 {
        fill: #c4e2d4;
      }
    </style>
  </defs>
  <path class="cls-7" d="M53.38,28.6c.23.89.45,1.79.63,2.69,2.29.85,4.53,1.87,6.71,3.15,6.2,3.56,11.15,8.52,14.7,14.24.81-1.12,1.57-2.29,2.27-3.5,4.73-8.19,6.21-17.34,4.88-25.99-7.37-2.37-15.13-2.47-22.36-.53-3.15.84-6.19,2.07-9.05,3.65.9,2.05,1.64,4.15,2.23,6.29"/>
  <path class="cls-5" d="M54.2,66.3c-3.27.86-6.63,1.35-10.04,1.44-2.65,2.96-5.68,5.5-8.95,7.56,3.35,6.52,8.52,12.15,15.3,16.07,6.09,3.53,12.73,5.22,19.32,5.25,1.47-1.75,2.81-3.65,3.99-5.68,5.48-9.5,6.57-20.35,3.93-30.19h.01c-.69-2.51-1.6-4.97-2.76-7.31-5.62,6.35-12.92,10.74-20.81,12.86"/>
  <path class="cls-3" d="M53.5,63.68c7.71-2.06,14.79-6.41,20.15-12.77-3.35-5.71-8.16-10.65-14.27-14.2-1.59-.9-3.23-1.7-4.89-2.38,1.13,8.84-.47,18.11-5.24,26.36-.86,1.47-1.8,2.89-2.8,4.2,2.38-.18,4.74-.59,7.04-1.22"/>
  <path class="cls-2" d="M28.81,30.25c3.25-.88,6.61-1.37,10.02-1.43,2.62-2.98,5.62-5.49,8.85-7.55-3.34-6.5-8.51-12.12-15.25-16C26.34,1.75,19.7.04,13.1,0c-1.44,1.72-2.76,3.59-3.91,5.62-5.48,9.46-6.58,20.32-3.95,30.16v.02c.68,2.51,1.6,4.96,2.75,7.31,5.64-6.36,12.92-10.74,20.82-12.85"/>
  <path class="cls-8" d="M28.89,65.21c-2.25-.83-4.47-1.84-6.62-3.08-6.19-3.59-11.14-8.55-14.68-14.26-.81,1.12-1.57,2.29-2.27,3.5C.59,59.53-.88,68.7.48,77.37c7.34,2.33,15.08,2.43,22.3.49,3.12-.84,6.12-2.05,8.96-3.62-.89-1.99-1.62-4.08-2.19-6.2-.24-.92-.47-1.88-.66-2.83"/>
  <path class="cls-1" d="M29.5,32.82c-7.72,2.07-14.81,6.45-20.15,12.82,3.34,5.71,8.15,10.63,14.27,14.18,1.57.89,3.16,1.69,4.77,2.33-1.08-8.81.6-18.05,5.35-26.3.86-1.5,1.8-2.9,2.79-4.24-2.37.19-4.74.59-7.04,1.21"/>
  <path class="cls-4" d="M42.44,28.88c2.88.18,5.76.68,8.63,1.47-.1-.37-.17-.71-.28-1.06-.5-1.92-1.15-3.78-1.93-5.59-2.3,1.49-4.45,3.21-6.41,5.17"/>
  <path class="cls-9" d="M40.55,67.66c-2.91-.19-5.84-.67-8.71-1.49.09.4.2.8.3,1.19.51,1.88,1.14,3.73,1.92,5.51,2.32-1.47,4.5-3.22,6.49-5.2"/>
  <path class="cls-10" d="M31.27,63.19c3.82,1.22,7.76,1.84,11.67,1.88,1.46-1.75,2.8-3.66,3.97-5.71,4.72-8.13,6.14-17.34,4.74-26.05-3.81-1.2-7.72-1.81-11.6-1.84-1.47,1.77-2.8,3.67-3.99,5.71-4.71,8.16-6.18,17.34-4.8,26.02"/>
  <path class="cls-6" d="M106.52,19.53c2.05-.23,3.97-.43,5.76-.59,1.79-.16,3.78-.24,5.96-.24,2.56,0,5.08.23,7.57.7,2.49.46,4.73,1.29,6.73,2.48,2,1.19,3.61,2.79,4.84,4.81,1.24,2.03,1.85,4.59,1.85,7.71,0,1.86-.23,3.5-.7,4.92-.47,1.42-1.06,2.67-1.78,3.73-.72,1.07-1.5,1.99-2.33,2.75-.84.77-1.63,1.39-2.37,1.85l-1.19.77,12.2,21.2c-.93.09-1.9.19-2.93.28-1.02.09-2.07.14-3.14.14-1.77,0-3.51-.14-5.23-.42l-13.11-23.3,1.68-.84c.65-.32,1.44-.74,2.37-1.25.93-.51,1.82-1.15,2.69-1.92.86-.77,1.59-1.69,2.2-2.79.6-1.09.9-2.38.9-3.87,0-2.93-.84-5.08-2.51-6.45-1.68-1.38-3.84-2.06-6.49-2.06-1.03,0-1.95.07-2.79.21v42.34c-.84.1-1.68.18-2.51.24-.83.07-1.65.11-2.44.11s-1.63-.03-2.51-.07c-.88-.05-1.79-.14-2.72-.28V19.53"/>
  <path class="cls-6" d="M231.14,54.68c.18,2.77,1.16,4.78,2.91,6.03,1.76,1.25,4.07,1.87,6.93,1.87,1.57,0,3.18-.15,4.81-.45,1.64-.29,3.21-.72,4.68-1.28.51.92.95,2.03,1.32,3.33.37,1.29.58,2.68.62,4.16-3.6,1.39-7.67,2.08-12.2,2.08-3.33,0-6.18-.46-8.56-1.39-2.38-.92-4.32-2.2-5.82-3.85-1.51-1.64-2.61-3.59-3.33-5.86-.72-2.26-1.07-4.74-1.07-7.42s.36-5.11,1.11-7.42c.73-2.31,1.83-4.32,3.29-6.03,1.45-1.71,3.25-3.06,5.4-4.05,2.16-1,4.66-1.5,7.53-1.5,2.5,0,4.72.44,6.65,1.32,1.94.88,3.6,2.08,4.96,3.6,1.36,1.52,2.39,3.34,3.08,5.45.69,2.1,1.05,4.35,1.05,6.76,0,.88-.04,1.74-.11,2.6-.07.85-.14,1.53-.25,2.05h-23.01M245.21,47.82c-.09-2.22-.7-4.01-1.84-5.37-1.13-1.37-2.71-2.05-4.75-2.05-2.3,0-4.06.65-5.27,1.94-1.21,1.29-1.92,3.12-2.15,5.47h14Z"/>
  <path class="cls-6" d="M154.4,54.68c.18,2.77,1.15,4.78,2.91,6.03,1.76,1.25,4.07,1.87,6.94,1.87,1.57,0,3.18-.15,4.82-.45,1.64-.29,3.2-.72,4.68-1.28.51.92.95,2.03,1.31,3.33.37,1.29.58,2.68.62,4.16-3.6,1.39-7.67,2.08-12.2,2.08-3.33,0-6.19-.46-8.57-1.39-2.38-.92-4.33-2.2-5.82-3.85-1.51-1.64-2.62-3.59-3.33-5.86-.72-2.26-1.08-4.74-1.08-7.42s.37-5.11,1.11-7.42c.74-2.31,1.84-4.32,3.3-6.03,1.45-1.71,3.25-3.06,5.4-4.05,2.15-1,4.66-1.5,7.53-1.5,2.5,0,4.72.44,6.66,1.32,1.94.88,3.6,2.08,4.96,3.6,1.36,1.52,2.39,3.34,3.08,5.45.69,2.1,1.05,4.35,1.05,6.76,0,.88-.04,1.74-.11,2.6-.07.85-.15,1.53-.25,2.05h-23.02M168.48,47.82c-.09-2.22-.71-4.01-1.84-5.37-1.13-1.37-2.71-2.05-4.75-2.05-2.31,0-4.07.65-5.27,1.94-1.2,1.29-1.92,3.12-2.15,5.47h14.01Z"/>
  <path class="cls-6" d="M265.6,51.08l-6.86-17.34c1.53-.28,3.21-.41,5.06-.41,1.75,0,3.53.14,5.34.41l5.48,17.55-7.14,18.3c-1.66.28-3.3.42-4.92.42s-3.33-.14-5.14-.42l8.19-18.51M275.1,51.29l5.55-17.55c1.71-.28,3.48-.41,5.33-.41,1.71,0,3.4.14,5.06.41l-6.93,17.34,8.25,18.51c-1.81.28-3.51.42-5.13.42s-3.26-.14-4.92-.42l-7.21-18.3Z"/>
  <path class="cls-6" d="M301.8,41.23h-4.65c-.14-.6-.24-1.23-.31-1.91-.08-.67-.1-1.31-.1-1.9,0-1.25.13-2.47.41-3.68h14.28v35.85c-1.66.28-3.28.42-4.85.42s-3.12-.14-4.78-.42v-28.36M300.34,27.71c-.28-1.57-.42-3.12-.42-4.65s.14-3.03.42-4.65c.79-.14,1.63-.25,2.53-.31.9-.07,1.72-.1,2.46-.1.79,0,1.64.03,2.57.1.92.07,1.78.17,2.57.31.14.79.23,1.56.28,2.32.05.76.07,1.53.07,2.32,0,.74-.02,1.5-.07,2.29-.05.79-.14,1.57-.28,2.36-.79.14-1.63.23-2.53.28-.9.04-1.74.07-2.53.07-.74,0-1.57-.03-2.5-.07-.92-.04-1.77-.14-2.56-.28Z"/>
  <path class="cls-6" d="M337.79,46.02c0-1.11-.19-2.01-.56-2.7-.37-.7-.88-1.24-1.53-1.63-.65-.4-1.45-.66-2.39-.8-.95-.14-2.01-.21-3.16-.21-2.5,0-5.16.48-7.98,1.46-.65-1.21-1.13-2.34-1.45-3.4-.32-1.07-.49-2.33-.49-3.82,2.04-.69,4.07-1.2,6.11-1.53,2.03-.32,3.93-.48,5.68-.48,4.81,0,8.57,1.16,11.27,3.47,2.71,2.31,4.06,6.01,4.06,11.09v20.8c-1.62.51-3.59,1-5.9,1.46-2.31.46-4.92.69-7.83.69-2.36,0-4.52-.21-6.49-.62-1.96-.42-3.65-1.11-5.06-2.09-1.41-.97-2.49-2.22-3.25-3.74-.76-1.52-1.15-3.39-1.15-5.62s.47-4.08,1.43-5.58c.94-1.5,2.17-2.7,3.67-3.6,1.5-.9,3.18-1.55,5.03-1.94,1.84-.39,3.69-.59,5.54-.59,1.34,0,2.82.07,4.44.21v-.83M337.79,53.16c-.56-.09-1.15-.17-1.81-.24-.64-.07-1.22-.1-1.73-.1-2.27,0-4.06.4-5.37,1.21-1.32.81-1.98,2.11-1.98,3.92,0,1.2.25,2.12.76,2.77.51.65,1.12,1.13,1.84,1.42.72.31,1.48.49,2.29.56.81.07,1.52.1,2.11.1.69,0,1.39-.05,2.08-.17.7-.12,1.3-.22,1.81-.32v-9.15Z"/>
  <path class="cls-6" d="M212.05,36.24c-2.05-2.22-5.12-3.33-9.19-3.33-1.29,0-2.47.17-3.53.52-.85.28-1.61.64-2.33,1.05l-2.37,7.51c1.41-.2,4.85-.41,5.53-.41,1.9,0,3.23.67,3.99,2.01.76,1.34,1.15,3.26,1.15,5.76v20.24c1.66.28,3.3.42,4.92.42s3.26-.14,4.92-.42v-22.88c0-4.76-1.03-8.25-3.09-10.47"/>
  <path class="cls-6" d="M193.57,50.8l.35,18.79c-1.67.28-3.31.42-4.93.42s-3.26-.14-4.92-.42v-35.85c.64-.14,1.29-.24,1.94-.31.65-.07,1.36-.1,2.15-.1s1.48.03,2.08.1c.6.07,1.24.11,1.87.31.79.26,1.24.49,1.46.78v16.28"/>
</svg>