<?xml version="1.0" encoding="UTF-8"?>
<svg id="Livello_1" data-name="Livello 1" xmlns="http://www.w3.org/2000/svg" version="1.1" viewBox="0 0 202.16 65.75">
  <defs>
    <style>
      .cls-1 {
        fill: #1f3c7c;
        stroke-width: 0px;
      }
    </style>
  </defs>
  <path class="cls-1" d="M71.01,22.56c-.31.57-.62,1.14-.93,1.72-4.53,8.38-9.07,16.76-13.6,25.14-.13.24-.27.34-.56.34-4.19-.01-8.38,0-12.57,0h-.37c.26-.49.49-.94.73-1.38,5.25-9.75,10.51-19.5,15.77-29.25,1.77-3.28,3.52-6.58,5.32-9.85,1.32-2.41,2.92-4.62,4.98-6.46,1.18-1.05,2.45-2,4.02-2.3,2.23-.43,4.48-.76,6.74-.19,1.42.36,2.61,1.08,3.34,2.4.33.59.5,1.22.5,1.9,0,6.99,0,13.98,0,20.96v.36s.05.01.08.02c.28-.55.57-1.09.85-1.64,3.42-6.6,6.83-13.19,10.25-19.79.57-1.09,1.14-2.19,1.7-3.28.08-.15.16-.24.35-.24,4,0,8,0,12,0,.05,0,.1,0,.2.02-.1.2-.18.37-.27.55-2.44,4.74-4.89,9.48-7.33,14.22-3.08,5.97-6.15,11.93-9.23,17.9-1.62,3.15-3.22,6.31-4.86,9.44-.89,1.69-1.98,3.24-3.38,4.56-2.02,1.91-4.43,2.74-7.18,2.66-.85-.03-1.68-.14-2.47-.48-1.8-.77-2.77-2.16-2.88-4.1-.14-2.5-.24-4.99-.36-7.49-.1-2.2-.21-4.4-.32-6.6-.11-2.2-.21-4.4-.32-6.6-.04-.83-.08-1.66-.13-2.48-.03,0-.05-.02-.08-.02Z"/>
  <path class="cls-1" d="M92.33,49.73c.64-.79,1.23-1.53,1.82-2.27,4.89-6.08,9.79-12.17,14.68-18.25,3.87-4.81,7.75-9.61,11.6-14.43,1.07-1.33,2.04-2.74,3.12-4.07,2.22-2.72,4.69-5.17,7.64-7.1,2.19-1.44,4.55-2.49,7.16-2.88,1.85-.28,3.7-.35,5.49.34,1.9.73,2.86,2.18,3.12,4.17.14,1.07-.11,2.07-.39,3.08-2.45,8.76-4.9,17.52-7.34,26.28-1.37,4.92-2.75,9.83-4.11,14.76-.08.29-.18.4-.51.4-4.48-.01-8.95,0-13.43,0-.1,0-.21,0-.38,0,.83-2.03,1.65-4.02,2.48-6.07h-.38c-4.08,0-8.17,0-12.25,0-.25,0-.4.07-.54.28-1.28,1.86-2.57,3.71-3.85,5.57-.1.15-.21.23-.4.23-4.42,0-8.84,0-13.27,0-.06,0-.12,0-.26-.01ZM120.42,31.9s.03.05.04.08c.12,0,.25,0,.37,0,2.08,0,4.16,0,6.24,0,.32,0,.45-.09.54-.4,1.12-4,2.25-8.01,3.38-12.01.08-.29.16-.58.24-.87l-.07-.04c-3.58,4.41-7.15,8.82-10.73,13.23Z"/>
  <path class="cls-1" d="M172.98,1.2c-3.23,10.57-6.46,21.12-9.68,31.66.02.01.04.02.06.03.43-.56.85-1.12,1.28-1.68,7.55-9.94,15.1-19.88,22.65-29.82.12-.16.25-.22.45-.22,4.7,0,9.39,0,14.09,0,.09,0,.18.01.33.03-.22.28-.41.51-.6.74-6.17,7.47-12.34,14.94-18.51,22.41-5.73,6.94-11.45,13.89-17.2,20.82-1.01,1.21-2.3,2.1-3.67,2.87-2.51,1.42-5.21,2.11-8.09,2-1.6-.06-3.2-.24-4.71-.85-1.56-.62-2.31-1.78-2.3-3.46,0-1.55.36-3.03.75-4.51,2.16-8,4.34-15.99,6.52-23.99,1.43-5.24,2.85-10.48,4.28-15.73.06-.23.13-.34.41-.34,4.54.01,9.08,0,13.62,0,.09,0,.19.01.32.02Z"/>
  <path class="cls-1" d="M57.99,1.18c-.52.96-1.01,1.84-1.49,2.73-1.52,2.77-3.05,5.54-4.56,8.32-.13.24-.27.34-.56.34-3.89-.01-7.79,0-11.68,0-.8,0-1.6-.02-2.4.02-.37.02-.74.14-1.1.26-1.55.5-2.2,2.52-1.15,3.77.75.89,1.53,1.77,2.34,2.62,1.19,1.25,2.43,2.46,3.62,3.72,1.04,1.1,1.98,2.27,2.72,3.6.61,1.1.77,2.23.48,3.47-.81,3.36-2.33,6.36-4.35,9.13-1.8,2.47-3.83,4.72-6.32,6.52-2.84,2.06-6.03,3.3-9.49,3.84-1.41.22-2.83.24-4.26.24-5.82-.02-11.63,0-17.45,0-.12,0-.24,0-.42,0,.29-.54.54-1.02.8-1.5,1.76-3.26,3.53-6.52,5.29-9.79.12-.22.24-.29.49-.29,4.92,0,9.84-.02,14.75-.05,1.17,0,2.3-.28,3.34-.83,1.64-.87,1.97-2.38,1.29-4.12-.39-1.01-1.06-1.85-1.78-2.63-1.42-1.54-2.87-3.07-4.31-4.59-1.78-1.89-2.67-4.13-2.49-6.74.13-1.85.77-3.55,1.69-5.15,1.05-1.81,2.4-3.39,3.94-4.8,2.09-1.9,4.26-3.69,6.71-5.11,2.5-1.45,5.2-2.26,8.06-2.63,2.08-.27,4.16-.34,6.25-.33,3.86,0,7.73,0,11.59,0,.12,0,.25,0,.44,0Z"/>
  <path class="cls-1" d="M109.4,58.41h2.9c.37,1.41.73,2.83,1.1,4.25h.07c.13-.49.26-.98.39-1.48.22-.84.43-1.67.64-2.51.05-.21.13-.29.36-.28.86.02,1.73,0,2.62,0v7.18h-1.77v-5.25l-.07-.02c-.03.09-.07.17-.09.26-.4,1.57-.81,3.14-1.21,4.71-.06.23-.15.33-.4.31-.43-.02-.86,0-1.33,0-.45-1.76-.9-3.52-1.36-5.27h-.08v5.26h-1.78v-7.16Z"/>
  <path class="cls-1" d="M164.12,58.41h2.91c.37,1.42.73,2.83,1.1,4.24h.07c.13-.46.25-.94.38-1.41.22-.86.44-1.71.65-2.57.05-.2.13-.29.36-.29.86.02,1.73,0,2.62,0v7.18h-1.77v-5.21s-.05,0-.08-.01c-.06.22-.13.43-.18.65-.37,1.43-.74,2.85-1.09,4.29-.06.24-.15.33-.4.31-.35-.02-.7-.02-1.04,0-.23.01-.31-.07-.36-.28-.4-1.58-.8-3.16-1.21-4.74-.02-.09-.05-.18-.14-.26v5.26h-1.79v-7.16Z"/>
  <path class="cls-1" d="M68.66,65.58h-1.78v-5.21s-.05,0-.08,0c-.45,1.74-.9,3.47-1.35,5.23-.5,0-.99.01-1.47-.01-.08,0-.19-.14-.22-.23-.41-1.55-.8-3.1-1.2-4.65-.03-.11-.06-.22-.16-.32v5.19h-1.78v-7.19c.19,0,.38,0,.58,0,.68,0,1.35,0,2.03,0,.2,0,.29.05.34.26.32,1.28.66,2.55.99,3.82.01.06.04.11.12.17.12-.44.23-.88.35-1.32.23-.9.46-1.8.7-2.69.02-.09.13-.22.19-.22.91-.01,1.81,0,2.74,0v7.19Z"/>
  <path class="cls-1" d="M81.54,61.74v3.83h-2.06v-7.18c.4,0,.82.04,1.22,0,.62-.08.99.16,1.31.69.62,1.02,1.33,1.98,2,2.96.06.08.11.16.24.21v-3.83h2.07v7.17c-.66,0-1.33,0-1.99,0-.08,0-.17-.11-.22-.19-.75-1.09-1.49-2.18-2.23-3.26-.09-.14-.19-.27-.28-.4-.02,0-.04.01-.06.02Z"/>
  <path class="cls-1" d="M133.63,62.42c.79.29,1.11.9,1.43,1.53.27.53.55,1.06.84,1.64-.83,0-1.6,0-2.38,0-.08,0-.19-.12-.24-.2-.39-.7-.77-1.4-1.15-2.11-.22-.42-.54-.67-1.08-.58v2.88h-2.22v-7.13s.05-.04.07-.04c1.54.02,3.08,0,4.61.06,1.02.04,1.68.68,1.78,1.56.13,1.14-.35,1.94-1.39,2.29-.07.02-.14.05-.28.1ZM131.06,61.36c.56-.05,1.06-.08,1.55-.16.32-.05.49-.34.5-.65,0-.33-.18-.61-.52-.65-.49-.06-.99-.07-1.52-.1v1.56Z"/>
  <path class="cls-1" d="M16.29,61.99c.01.8-.11,1.58-.55,2.27-.63.97-1.57,1.39-2.67,1.44-.59.02-1.21-.01-1.79-.15-1.43-.33-2.37-1.56-2.41-3.13-.02-.6.03-1.23.18-1.81.3-1.16,1.1-1.87,2.25-2.18.85-.23,1.72-.22,2.57,0,1.45.37,2.35,1.52,2.43,3.06,0,.17,0,.34,0,.51ZM14.13,62.03c-.04-.32-.05-.57-.09-.82-.12-.71-.6-1.19-1.24-1.26-.72-.08-1.29.2-1.53.81-.32.82-.32,1.67,0,2.5.21.54.76.84,1.35.81.69-.04,1.15-.36,1.32-.98.1-.36.13-.74.18-1.06Z"/>
  <path class="cls-1" d="M49.25,60.3c-.64.12-1.26.24-1.88.34-.09.01-.25-.07-.29-.14-.4-.87-1.98-.92-2.48.03-.5.97-.49,2,.02,2.97.31.59,1.13.8,1.95.57.11-.03.22-.07.33-.12.57-.25.59-.28.51-.96h-1.42v-1.47h3.36c.01.07.03.15.03.23,0,.87,0,1.73,0,2.6,0,.11-.08.27-.17.33-1.43,1.01-3.01,1.26-4.7.89-1.31-.29-2.21-1.37-2.4-2.79-.12-.88-.07-1.75.3-2.57.48-1.05,1.3-1.67,2.43-1.86.86-.14,1.72-.13,2.58.04.94.2,1.7.98,1.84,1.9Z"/>
  <path class="cls-1" d="M34.03,65.58v-7.17h5.94v1.5h-3.7v1.14c.12,0,.23.02.34.02.91,0,1.81.02,2.72,0,.34,0,.43.1.39.41-.02.24-.02.49,0,.73.02.26-.07.35-.33.34-.92-.02-1.84,0-2.75,0-.11,0-.23,0-.37,0v1.43h3.81v1.61h-6.05Z"/>
  <path class="cls-1" d="M71.14,58.41h5.94v1.5h-3.7v1.14c.12,0,.24.02.35.02.94,0,1.88,0,2.82,0,.21,0,.31.05.3.28-.02.29-.02.59,0,.89.01.24-.07.31-.31.31-.93-.01-1.86,0-2.78,0-.11,0-.23,0-.36,0v1.42h3.8v1.6h-6.04v-7.16Z"/>
  <path class="cls-1" d="M121.92,58.39c.77,0,1.53,0,2.28,0,.07,0,.17.08.2.15.87,2.29,1.73,4.59,2.6,6.89.01.04,0,.08.01.15-.72,0-1.42,0-2.13,0-.07,0-.15-.09-.19-.15-.05-.09-.07-.2-.1-.3q-.22-.74-1.01-.74c-.51,0-1.01,0-1.52,0-.18,0-.28.06-.31.23,0,.02,0,.04-.01.06-.1.3-.12.7-.32.86-.19.15-.59.05-.89.05-.42,0-.84,0-1.32,0,.91-2.42,1.8-4.8,2.71-7.2ZM123.15,60.37s-.06,0-.09,0c-.25.81-.49,1.61-.75,2.44h1.58c-.26-.84-.5-1.65-.75-2.45Z"/>
  <path class="cls-1" d="M51.01,65.59c.52-1.37,1.01-2.69,1.51-4.01.36-.97.74-1.93,1.08-2.9.08-.23.2-.3.43-.29.62.02,1.25,0,1.87.01.1,0,.27.09.3.18.88,2.3,1.74,4.61,2.6,6.92,0,.02,0,.04,0,.09-.71,0-1.42,0-2.14,0-.07,0-.16-.11-.19-.19-.09-.26-.15-.53-.25-.78-.04-.09-.18-.21-.28-.21-.7-.02-1.39,0-2.09-.01-.19,0-.26.08-.31.24-.09.31-.1.76-.31.9-.25.16-.67.06-1.02.06-.39,0-.78,0-1.21,0ZM54.95,60.36s-.05,0-.08.01c-.25.81-.49,1.62-.75,2.45h1.58c-.26-.84-.51-1.65-.76-2.46Z"/>
  <path class="cls-1" d="M5.11,62.67c.63.19,1.25.38,1.86.56-.09,1.13-1.07,2.18-2.26,2.4-.8.14-1.6.12-2.38-.08-1.21-.32-2.14-1.48-2.28-2.82-.07-.71-.06-1.41.12-2.1.36-1.32,1.26-2.06,2.58-2.29.68-.12,1.36-.1,2.04.05,1.14.25,1.77,1.02,2.15,2.11-.66.15-1.29.29-1.93.43-.04-.07-.07-.13-.09-.18-.24-.54-.71-.85-1.26-.83-.6.02-1.1.36-1.27.93-.25.81-.24,1.63.02,2.43.17.53.6.77,1.14.79.52.02.96-.13,1.22-.62.12-.23.21-.48.33-.77Z"/>
  <path class="cls-1" d="M92.83,65.57h-2.2v-5.42h-2.27v-1.74h6.73v1.74c-.64,0-1.26.02-1.88,0-.31-.01-.39.1-.38.39.01,1.54,0,3.08,0,4.62,0,.13,0,.25,0,.41Z"/>
  <path class="cls-1" d="M142.11,60.1v-1.69h6.73v1.73h-2.26v5.43h-2.2c0-.13-.02-.25-.02-.37,0-1.46,0-2.91,0-4.37q0-.68-.69-.68c-.5,0-.99,0-1.49,0-.02,0-.04-.02-.08-.04Z"/>
  <path class="cls-1" d="M154.89,65.58h-2.2c0-.13-.02-.26-.02-.4,0-1.55,0-3.1,0-4.65,0-.31-.09-.4-.39-.39-.61.02-1.22,0-1.85,0v-1.74h6.71v1.73h-2.24v5.43Z"/>
  <path class="cls-1" d="M28.5,58.41v5.41h3.46v1.74h-5.66v-7.16h2.2Z"/>
  <path class="cls-1" d="M24.22,63.84v1.73h-5.65v-7.16h2.17c0,.13.02.25.02.37,0,1.56,0,3.12,0,4.68,0,.28.07.38.37.38,1.02-.02,2.04,0,3.1,0Z"/>
  <path class="cls-1" d="M137.76,58.41h2.2v7.16h-2.2v-7.16Z"/>
  <path class="cls-1" d="M161.49,65.58h-2.19v-7.16h2.19v7.16Z"/>
  <path class="cls-1" d="M97.27,58.4h2.16v7.16h-2.16v-7.16Z"/>
  <path class="cls-1" d="M176.96,65.57h-2.17v-7.16h2.17v7.16Z"/>
</svg>