<?xml version="1.0" encoding="UTF-8"?>
<svg id="Livello_1" data-name="Livello 1" xmlns="http://www.w3.org/2000/svg" version="1.1" viewBox="0 0 202.16 55.92">
  <defs>
    <style>
      .cls-1 {
        fill: #003c59;
      }

      .cls-1, .cls-2 {
        stroke-width: 0px;
      }

      .cls-2 {
        fill: #fff;
      }
    </style>
  </defs>
  <path class="cls-1" d="M79.22,23.06c-.04-1.94-.55-5.32-3.41-7.56,1.23-1.12,2.43-2.95,2.43-6.29,0-2.5-1.31-6.15-5.01-8.24-1.5-.85-3.6-.94-6-.97h-16.49c-.36,0-.69.23-.81.57-.12.34-.02.72.26.96.66.55,2.37,2.31,2.37,3.86v21.64c0,2.68-2.16,4.15-2.25,4.2-.32.21-.46.6-.35.97.11.37.44.62.83.62h17.02s.03,0,.05,0c1.98,0,3.84-.33,5.51-.99,1.74-.68,3.16-1.75,4.21-3.19,1.07-1.45,1.62-3.32,1.65-5.56,0,0,0-.02,0-.03ZM63.42,9.09h1.83c2.31,0,2.62,1.25,2.64,1.96,0,.49-.38.96-1.22,1.1-1.17.19-2.06.13-3.25.07v-3.12ZM67.36,23.77c-1.17.19-2.74.13-3.94.07v-3.12h2.51c2.31,0,2.62,1.25,2.64,1.96,0,.49-.39.96-1.22,1.1Z"/>
  <path class="cls-1" d="M155.75,32.83h-15.12c-.34,0-.64-.19-.78-.5-.14-.3-.09-.66.12-.92.8-.96,1.75-2.18,1.88-2.47.18-.45.25-.9.23-1.39,0-.01,0-.03,0-.04V5.45s0-.02,0-.03c.02-.52-.07-1.03-.26-1.5-.12-.29-1.06-1.53-1.86-2.5-.21-.26-.25-.61-.11-.92.14-.3.45-.49.78-.49h15.12c.33,0,.64.19.78.49.14.3.1.66-.11.92-.79.97-1.73,2.21-1.86,2.5-.19.47-.28.98-.26,1.5,0,0,0,.02,0,.03v22.43s0,.02,0,.02c-.02.65,1.07,2.32,2.1,3.5.22.25.27.62.13.92-.14.31-.45.51-.78.51Z"/>
  <path class="cls-1" d="M142.43,31.1h11.55c-.69-.99-1.43-2.26-1.4-3.24V5.46c-.02-.77.11-1.5.39-2.2.13-.33.56-.94,1.01-1.54h-11.56c.45.6.87,1.2,1.01,1.53.28.7.41,1.44.38,2.2v22.02c.03.72-.09,1.43-.35,2.1-.13.32-.55.92-1.01,1.52Z"/>
  <path class="cls-1" d="M102.71,32.83h-22.29c-.37,0-.69-.23-.81-.57-.12-.34-.01-.73.27-.96.01,0,1.45-1.21,1.48-3.06V5.71c.03-2.4-1.59-4.18-1.61-4.2-.23-.25-.3-.62-.16-.93s.45-.52.79-.52h21.9c.94,0,1.64.85,2.81,5.5.61,2.42,1.08,4.87,1.08,4.9.06.33-.07.66-.34.86-.27.2-.63.22-.92.06-.81-.44-3.23-1.57-4.69-1.57h-5.57v1.32h3.47c.48,0,2.35-.39,2.72-.56.26-.16.59-.18.86-.04.28.15.46.44.46.76v10.24c0,.31-.17.59-.43.75-.27.15-.59.16-.86,0-1.12-.64-1.83-.84-2.93-.84h-3.29s0,1.54,0,1.54h4.38c2.9-.03,5.88-1.79,5.91-1.81.28-.17.64-.16.91.02.28.18.43.5.39.83l-.37,2.97s0,.02,0,.03c-.38,2.44-.8,4.34-1.27,5.64-.36,1.01-.9,2.17-1.88,2.17Z"/>
  <path class="cls-1" d="M82.25,31.1h20.24c.22-.32.95-1.66,1.67-6.34l.17-1.36c-1.3.58-3.27,1.27-5.29,1.3h-5.25c-.48,0-.86-.39-.86-.86v-3.26c0-.23.09-.45.25-.61.16-.16.38-.25.61-.25h4.16c.94,0,1.69.13,2.49.44v-7.68c-.9.22-1.95.38-2.32.38h-4.33c-.48,0-.86-.39-.86-.86v-3.05c0-.48.39-.86.86-.86h6.43c1.23,0,2.78.54,3.92,1.02-.69-3.25-1.57-6.52-2.11-7.32h-19.99c.53.95,1.07,2.32,1.05,3.94v22.52s0,0,0,.01c-.02,1.16-.4,2.12-.84,2.85Z"/>
  <path class="cls-1" d="M100.83,10.57s-.01,0-.02.01c0,0,.01,0,.02-.01Z"/>
  <path class="cls-1" d="M47.41,32.83h-15.12c-.34,0-.64-.19-.78-.5-.14-.3-.09-.66.12-.92.8-.96,1.75-2.18,1.88-2.47.18-.44.25-.9.23-1.4,0-.01,0-.03,0-.04V5.45s0-.02,0-.03c.02-.53-.07-1.03-.26-1.5-.12-.29-1.06-1.53-1.86-2.5-.21-.26-.25-.61-.11-.92.14-.3.45-.49.78-.49h15.12c.33,0,.64.19.78.49.14.3.1.66-.11.92-.79.97-1.73,2.21-1.86,2.5-.19.47-.28.97-.26,1.5,0,0,0,.02,0,.03v22.43s0,.02,0,.02c-.02.65,1.07,2.32,2.1,3.5.22.25.27.62.13.92-.14.31-.45.51-.78.51Z"/>
  <path class="cls-1" d="M22.76,32.83H7.26c-.32,0-.61-.18-.76-.46-.15-.28-.13-.63.05-.89.7-1.02,1.73-2.85,1.73-3.56V9.87h-2.99c-.83,0-2.78,1.48-3.84,2.48-.27.25-.66.31-.99.14-.33-.17-.51-.53-.46-.89L1.58.74C1.64.32,2,0,2.43,0h25.08c.43,0,.79.31.85.73l1.63,10.85c.05.35-.11.69-.42.87-.31.18-.69.15-.97-.07-1.34-1.05-3.63-2.53-4.52-2.53h-2.3v17.92c0,1.23,1.2,3.05,1.66,3.64.2.26.24.61.09.91-.14.3-.44.48-.77.48Z"/>
  <path class="cls-1" d="M189.42,9.54c-.84-1.94-1.99-3.68-3.42-5.16-1.16-1.24-2.71-2.28-4.62-3.1-1.9-.81-4.27-1.24-7.03-1.28-2.35-.02-4.58.32-6.61,1.02-2.07.72-3.98,1.97-5.66,3.71-1.22,1.24-2.28,2.85-3.16,4.8-.89,1.95-1.36,4.24-1.41,6.8,0,0,0,.01,0,.02.02,2.46.39,4.71,1.1,6.68.72,1.99,1.71,3.66,2.95,4.96,1.59,1.7,3.41,2.95,5.41,3.71,1.94.74,4.27,1.12,6.92,1.12.05,0,.1,0,.15,0h0c3.33-.04,6.28-.81,8.76-2.3,2.49-1.49,4.44-3.51,5.81-6,1.37-2.48,2.08-5.27,2.1-8.3-.02-2.48-.46-4.73-1.3-6.69ZM178.36,20.03c-.52.8-1.16,1.37-1.94,1.74-.8.38-1.6.56-2.44.56h-.03c-1.4-.02-2.52-.56-3.42-1.65-.93-1.12-1.42-2.7-1.45-4.68.02-1.68.47-2.98,1.38-3.97.89-.97,2.09-1.45,3.67-1.49,1.22.03,2.16.34,2.88.95.76.65,1.3,1.43,1.64,2.39.36.99.54,2,.53,2.99-.02,1.32-.29,2.38-.8,3.17Z"/>
  <path class="cls-1" d="M138.17,31.3c0-.12-.03-.24-.08-.36-.17-.36-.55-1.08-1.04-1.99-.72-1.36-1.72-3.22-2.02-3.99-.39-1.02-1.57-3.34-2.16-4.47,3.8-3.06,4.58-6.12,4.58-9.99,0-2.82-1.24-5.48-3.48-7.49C131.85,1.1,129.03,0,126.24,0c-.02,0-1.87-.01-3.53,0h-14.6c-.35,0-.67.21-.8.54-.13.33-.05.7.2.94.02.02,1.76,1.71,1.76,3.46v22.88c0,1.89-1.69,3.49-1.7,3.51-.26.24-.35.62-.22.95s.45.55.8.55h14.36c.34,0,.65-.2.78-.51s.09-.67-.14-.92c-.56-.64-1.24-1.53-1.37-1.85-.19-.48-.33-1.98-.31-2.84,0,0,0-.01,0-.02v-2.78c1.74,2.95,4.19,8.35,4.21,8.41.14.31.45.51.79.51h10.84c.23,0,.45-.09.61-.25.16-.16.25-.38.25-.61v-.66ZM125.57,12h-4.09v-1.74h2.5c.91,0,1.97.35,2.06.59,0,1.06-.15,1.11-.47,1.15Z"/>
  <g>
    <g>
      <path class="cls-2" d="M65.39,25.03c-.69,0-1.38-.03-2.03-.06-.6-.03-1.08-.53-1.08-1.13v-3.12c0-.63.51-1.13,1.13-1.13h2.51c1.45,0,2.52.42,3.16,1.26.52.67.61,1.42.62,1.81v.02c0,.86-.57,1.95-2.16,2.21-.59.1-1.29.14-2.15.14ZM63.42,20.12c-.33,0-.59.26-.59.59v3.12c0,.31.25.57.56.59.64.03,1.32.06,2,.06.83,0,1.5-.04,2.06-.14,1.26-.21,1.71-1.03,1.71-1.68-.02-.78-.36-2.55-3.23-2.55h-2.51Z"/>
      <path class="cls-2" d="M65.04,13.41c-.47,0-.94-.02-1.43-.05h-.24c-.6-.04-1.08-.54-1.08-1.15v-3.12c0-.63.51-1.13,1.13-1.13h1.83c1.46,0,2.52.42,3.16,1.26.52.67.6,1.42.61,1.81v.02c0,.86-.57,1.95-2.17,2.21-.59.1-1.17.14-1.82.14ZM63.42,8.5c-.33,0-.59.26-.59.59v3.12c0,.31.25.57.56.59h.24c.48.04.94.06,1.4.06.62,0,1.17-.04,1.73-.14,1.26-.21,1.71-1.03,1.71-1.68-.02-.77-.36-2.55-3.23-2.55h-1.83Z"/>
    </g>
    <path class="cls-2" d="M173.9,32.24c-2.58,0-4.83-.36-6.71-1.08-1.92-.73-3.66-1.93-5.19-3.56-1.18-1.24-2.14-2.85-2.83-4.76-.69-1.9-1.05-4.08-1.06-6.48.04-2.48.5-4.69,1.35-6.57.86-1.88,1.88-3.44,3.05-4.63,1.62-1.68,3.45-2.88,5.44-3.57,1.97-.68,4.13-1.01,6.41-.99,2.68.03,4.97.44,6.8,1.23,1.83.79,3.32,1.78,4.42,2.97,1.38,1.43,2.49,3.1,3.3,4.98.82,1.89,1.24,4.06,1.25,6.46-.02,2.92-.7,5.61-2.02,8.01-1.32,2.4-3.21,4.34-5.6,5.78-2.4,1.44-5.24,2.18-8.47,2.22h0s-.1,0-.15,0ZM174.04,31.96h0,0ZM174.14,1.14c-2.14,0-4.17.32-6.02.96-1.9.66-3.66,1.81-5.22,3.43-1.12,1.15-2.11,2.65-2.94,4.47-.83,1.81-1.26,3.95-1.31,6.35.02,2.33.36,4.45,1.03,6.29.67,1.84,1.58,3.38,2.71,4.57,1.47,1.57,3.15,2.73,4.99,3.43,1.85.71,4.09,1.06,6.66,1.05,3.12-.04,5.88-.76,8.19-2.14,2.31-1.39,4.13-3.26,5.41-5.57,1.28-2.32,1.94-4.92,1.95-7.75-.02-2.32-.42-4.42-1.21-6.24-.79-1.82-1.86-3.44-3.19-4.82-1.05-1.13-2.48-2.08-4.24-2.84-1.76-.76-3.98-1.15-6.59-1.18-.07,0-.14,0-.21,0ZM67.85,32.24s-.03,0-.05,0h-17.02c-.12,0-.23-.08-.26-.19-.03-.12.01-.24.11-.31.02-.02,2.52-1.69,2.52-4.7V5.4c0-2.15-2.56-4.3-2.59-4.32-.09-.07-.12-.19-.08-.3.04-.11.14-.18.26-.18h16.49c2.31.03,4.33.11,5.71.89,3.48,1.96,4.71,5.38,4.71,7.72,0,3.64-1.52,5.36-2.81,6.33,3.21,2.06,3.76,5.58,3.8,7.53-.03,2.12-.54,3.88-1.54,5.23-.99,1.35-2.32,2.35-3.95,2.99-1.6.63-3.38.95-5.29.95ZM51.56,31.69h16.24s.03,0,.05,0c1.84,0,3.56-.31,5.09-.91,1.53-.6,2.78-1.54,3.71-2.81.92-1.26,1.41-2.91,1.43-4.9-.04-1.9-.59-5.39-3.88-7.28-.08-.05-.13-.13-.14-.23,0-.09.04-.18.12-.24,1.36-.92,2.92-2.45,2.92-6.12,0-2.19-1.16-5.41-4.43-7.25-1.27-.72-3.22-.8-5.45-.82h-15.79c.81.8,2.26,2.48,2.26,4.26v21.64c0,2.34-1.32,3.91-2.14,4.65ZM155.75,32.24h-15.12c-.11,0-.2-.06-.25-.16-.04-.1-.03-.21.04-.29.68-.81,1.82-2.25,1.97-2.63.21-.52.3-1.08.27-1.64V5.45c.02-.62-.08-1.2-.3-1.75-.16-.4-1.25-1.81-1.95-2.65-.07-.08-.08-.19-.04-.29.05-.1.14-.16.25-.16h15.12c.11,0,.2.06.25.16.05.09.03.21-.04.29-.69.85-1.78,2.25-1.95,2.65-.22.55-.32,1.14-.3,1.75v22.44c-.03,1.06,1.61,3.18,2.24,3.91.07.08.09.19.04.29-.04.1-.14.16-.25.16ZM141.21,31.69h13.96c-.68-.85-2.04-2.69-2-3.82V5.45c-.02-.68.09-1.34.34-1.96.18-.45,1.13-1.67,1.67-2.35h-13.98c.54.67,1.49,1.89,1.67,2.35.25.62.37,1.28.34,1.97v22.05c.03.63-.07,1.26-.31,1.86-.17.44-1.14,1.65-1.69,2.33ZM137.31,32.24h-10.84c-.11,0-.2-.06-.25-.16-.03-.06-2.87-6.35-4.63-9.11-.28-.44-.35-.52-.63-.52-.06.06-.1.34-.08.58,0,0,0,.01,0,.02v3.63c-.02.82.11,2.46.35,3.07.2.51,1.13,1.64,1.47,2.03.07.08.09.19.04.29-.04.1-.14.16-.25.16h-14.36c-.11,0-.21-.07-.25-.17-.04-.1-.01-.22.07-.3.02-.02,1.89-1.79,1.89-3.94V4.95c0-2-1.92-3.86-1.94-3.88-.08-.08-.11-.19-.06-.3s.14-.17.25-.17h14.6c1.66-.01,3.51,0,3.53,0,2.65,0,5.33,1.04,7.35,2.85,2.12,1.9,3.28,4.4,3.28,7.05,0,3.82-.8,6.81-4.74,9.83.42.8,1.91,3.69,2.36,4.84.31.81,1.27,2.61,2.05,4.06.46.87.86,1.61,1.02,1.96.02.04.02.07.02.11v.66c0,.07-.02.14-.08.19-.05.05-.12.08-.19.08ZM126.65,31.69h10.39v-.33c-.17-.35-.55-1.06-.98-1.88-.78-1.46-1.75-3.28-2.07-4.12-.5-1.29-2.42-4.95-2.44-4.99-.06-.12-.03-.26.08-.34,3.92-2.93,4.71-5.82,4.71-9.53,0-2.49-1.1-4.85-3.1-6.65-1.92-1.72-4.47-2.71-6.99-2.71-.02,0-1.87-.01-3.53,0h-13.97c.62.72,1.67,2.19,1.67,3.81v22.88c0,1.71-1.02,3.16-1.62,3.87h13.15c-.4-.49-1.01-1.27-1.19-1.73-.29-.74-.41-2.5-.39-3.28v-3.62c0-.14-.03-.7.23-.98.1-.11.24-.17.39-.17.6,0,.82.34,1.09.77,1.63,2.54,4.14,8.01,4.6,9.01ZM102.71,32.24h-22.29c-.12,0-.22-.07-.26-.18s0-.23.09-.3c.02-.01,1.66-1.38,1.7-3.51V5.71c.04-2.65-1.75-4.58-1.77-4.6-.07-.08-.09-.19-.05-.29.04-.1.14-.16.25-.16h21.9c.31,0,.96,0,2.23,5.05.6,2.4,1.07,4.84,1.07,4.86.02.1-.02.21-.11.27-.08.06-.2.07-.29.02-.03-.02-3.06-1.64-4.97-1.64h-6.16v2.5h4.06c.61,0,2.75-.46,3.03-.65.08-.06.19-.06.28-.02.09.05.15.14.15.24v10.24c0,.1-.06.19-.14.24-.08.05-.19.05-.27,0-1.21-.69-2.02-.92-3.22-.92h-3.88s0,2.72,0,2.72h4.97c3.06-.04,6.18-1.88,6.21-1.89.09-.05.2-.05.29,0,.09.06.13.16.12.26l-.37,2.97c-.42,2.74-1.32,7.32-2.57,7.32ZM81.09,31.69h21.62s1.03-.32,2.03-6.85l.3-2.44c-1.01.53-3.49,1.68-6.01,1.71h-5.25c-.15,0-.27-.12-.27-.27v-3.26c0-.07.03-.14.08-.19.05-.05.12-.08.19-.08h4.16c1.15,0,2,.21,3.08.77v-9.38c-.83.27-2.44.56-2.91.56h-4.33c-.15,0-.27-.12-.27-.27v-3.05c0-.15.12-.27.27-.27h6.43c1.58,0,3.75.97,4.73,1.45-.17-.83-.51-2.49-.93-4.16-1.12-4.47-1.68-4.75-1.75-4.77h-21.32c.57.76,1.57,2.42,1.54,4.52v22.53c-.03,1.63-.85,2.83-1.41,3.45ZM47.41,32.24h-15.12c-.11,0-.2-.06-.25-.16-.04-.1-.03-.21.04-.29.68-.81,1.82-2.25,1.97-2.63.21-.52.3-1.07.27-1.64V5.45c.02-.62-.08-1.21-.3-1.75-.16-.4-1.25-1.8-1.95-2.65-.07-.08-.08-.19-.04-.29.05-.1.14-.16.25-.16h15.12c.11,0,.2.06.25.16.04.1.03.21-.04.29-.69.85-1.78,2.25-1.95,2.65-.22.55-.32,1.13-.3,1.74v22.44c-.03,1.06,1.61,3.18,2.24,3.91.07.08.09.19.04.29-.04.1-.14.16-.25.16ZM32.87,31.69h13.96c-.68-.85-2.04-2.69-2-3.82V5.45c-.02-.68.09-1.34.34-1.96.19-.45,1.13-1.67,1.67-2.35h-13.98c.54.67,1.49,1.89,1.67,2.35.25.62.37,1.28.34,1.97v22.05c.03.64-.08,1.26-.31,1.86-.17.44-1.14,1.65-1.69,2.33ZM22.76,32.24H7.26c-.1,0-.19-.06-.24-.15s-.04-.2.02-.28c.51-.74,1.84-2.89,1.83-3.89V9.28h-3.58c-1.2,0-3.47,1.91-4.25,2.64-.08.08-.21.1-.31.04-.1-.05-.16-.17-.14-.28L2.16.83c.02-.13.13-.23.27-.23h25.08c.13,0,.25.1.27.23l1.63,10.85c.02.11-.04.22-.13.28-.1.06-.22.05-.3-.02-.94-.74-3.65-2.65-4.89-2.66h-2.89v18.52c0,1.68,1.76,3.98,1.78,4.01.06.08.07.19.03.29-.05.09-.14.15-.24.15ZM7.77,31.69h14.46c-.54-.79-1.58-2.49-1.58-3.9V9c0-.15.12-.27.27-.27h3.17c1.29,0,3.63,1.6,4.68,2.37l-1.49-9.97H2.66l-1.43,9.88c.94-.81,2.83-2.29,4.06-2.29h3.85c.15,0,.27.12.27.27v18.91c0,1.07-1.11,2.94-1.65,3.78ZM173.98,23.46s-.02,0-.04,0c-1.73-.03-3.17-.72-4.28-2.06-1.1-1.33-1.68-3.15-1.71-5.4.02-1.96.59-3.55,1.68-4.75,1.1-1.2,2.61-1.82,4.5-1.85,1.49.03,2.7.44,3.61,1.22.9.77,1.57,1.73,1.97,2.87.4,1.12.6,2.26.6,3.39-.02,1.54-.36,2.81-.99,3.78-.63.97-1.44,1.69-2.41,2.15-.94.44-1.93.67-2.93.67ZM173.95,22.92s.02,0,.03,0c.92,0,1.82-.21,2.7-.62.87-.41,1.61-1.07,2.18-1.95.58-.88.88-2.05.9-3.48,0-1.06-.18-2.14-.56-3.2-.38-1.04-.99-1.93-1.82-2.64-.81-.69-1.91-1.06-3.26-1.09-1.72.03-3.1.59-4.1,1.68-1,1.09-1.51,2.56-1.53,4.38.04,2.12.57,3.82,1.59,5.05,1.02,1.23,2.29,1.84,3.87,1.87ZM125.61,13.13h-4.99c-.15,0-.27-.12-.27-.27v-3.47c0-.15.12-.27.27-.27h3.36c.83,0,3.2.32,3.2,1.73,0,1.53-.43,2.17-1.54,2.28,0,0-.02,0-.03,0ZM120.89,12.59h4.71c.61-.06,1.03-.23,1.03-1.74,0-.83-1.76-1.18-2.65-1.18h-3.09v2.92Z"/>
  </g>
  <g>
    <path class="cls-1" d="M7.24,40.78c-.23-.23-.34-.52-.34-.87s.11-.64.34-.87.52-.34.87-.34.64.11.87.34c.23.23.34.52.34.87s-.11.64-.34.87-.52.34-.87.34-.64-.11-.87-.34ZM7.16,52.09v-9.26c0-.13.06-.19.19-.19h1.44c.13,0,.19.06.19.19v9.26c0,.13-.06.19-.19.19h-1.44c-.13,0-.19-.06-.19-.19Z"/>
    <path class="cls-1" d="M11.85,52.11v-12.9c0-.13.06-.19.19-.19h1.44c.13,0,.19.06.19.19v12.9c0,.13-.06.19-.19.19h-1.44c-.13,0-.19-.06-.19-.19Z"/>
    <path class="cls-1" d="M22.41,52.14l-3.09-9.29-.02-.08c0-.09.06-.13.17-.13h1.59c.11,0,.19.05.23.15l2.09,6.87s.03.04.06.04.04-.01.06-.04l2.07-6.87c.04-.1.11-.15.23-.15l1.59.02c.14,0,.19.07.15.21l-3.07,9.28c-.04.1-.11.15-.23.15h-1.59c-.11,0-.19-.05-.23-.15Z"/>
    <path class="cls-1" d="M29.64,40.78c-.23-.23-.34-.52-.34-.87s.11-.64.34-.87.52-.34.87-.34.64.11.87.34c.23.23.34.52.34.87s-.11.64-.34.87-.52.34-.87.34-.64-.11-.87-.34ZM29.56,52.09v-9.26c0-.13.06-.19.19-.19h1.44c.13,0,.19.06.19.19v9.26c0,.13-.06.19-.19.19h-1.44c-.13,0-.19-.06-.19-.19Z"/>
    <path class="cls-1" d="M41.02,43.41c.61.6.91,1.41.91,2.44v6.26c0,.13-.06.19-.19.19h-1.44c-.13,0-.19-.06-.19-.19v-5.9c0-.63-.18-1.14-.55-1.54-.37-.39-.85-.59-1.46-.59s-1.08.2-1.46.59c-.38.39-.57.9-.57,1.52v5.92c0,.13-.06.19-.19.19h-1.44c-.13,0-.19-.06-.19-.19v-9.28c0-.13.06-.19.19-.19h1.44c.13,0,.19.06.19.19v.68s0,.04.03.06c.02.01.03,0,.05-.02.54-.7,1.35-1.04,2.41-1.04s1.86.3,2.47.9Z"/>
    <path class="cls-1" d="M45.91,51.74c-.7-.47-1.18-1.13-1.46-1.98-.23-.68-.34-1.45-.34-2.31s.11-1.66.32-2.28c.28-.83.76-1.49,1.46-1.96.7-.47,1.52-.71,2.48-.71.91,0,1.7.24,2.38.71.68.47,1.16,1.12,1.45,1.94.23.64.34,1.4.34,2.28s-.11,1.66-.34,2.33c-.28.85-.76,1.51-1.44,1.98-.68.47-1.49.71-2.41.71s-1.75-.24-2.45-.71ZM49.69,50.45c.38-.28.65-.69.82-1.2.14-.48.21-1.07.21-1.78s-.06-1.3-.19-1.76c-.16-.52-.44-.92-.82-1.2-.38-.28-.84-.43-1.38-.43s-.97.14-1.35.43c-.38.28-.65.69-.82,1.2-.14.44-.21,1.03-.21,1.76s.07,1.33.21,1.78c.15.52.42.92.81,1.2.39.28.85.43,1.39.43.51,0,.95-.14,1.33-.43Z"/>
    <path class="cls-1" d="M64.92,39.02h1.44c.13,0,.19.06.19.19v12.9c0,.13-.06.19-.19.19h-1.44c-.13,0-.19-.06-.19-.19v-.63s0-.04-.03-.06c-.02-.01-.04,0-.07.02-.28.32-.61.56-.99.74-.38.18-.79.27-1.23.27-.91,0-1.67-.22-2.27-.67-.6-.45-1.04-1.08-1.32-1.91-.24-.67-.36-1.48-.36-2.43,0-.89.1-1.65.3-2.3.27-.83.7-1.49,1.31-1.95.61-.47,1.38-.7,2.33-.7.43,0,.84.09,1.22.26.39.17.72.41,1,.73.03.03.05.03.07.02.02-.01.03-.03.03-.06v-4.23c0-.13.06-.19.19-.19ZM64.69,47.46c0-1.06-.16-1.87-.47-2.43-.37-.64-.9-.97-1.61-.97-.76,0-1.32.3-1.69.91-.4.63-.61,1.47-.61,2.5,0,.97.16,1.76.47,2.35.37.7.97,1.04,1.8,1.04.73,0,1.29-.34,1.67-1.02.29-.53.44-1.33.44-2.39Z"/>
    <path class="cls-1" d="M69.45,40.78c-.23-.23-.34-.52-.34-.87s.11-.64.34-.87c.23-.23.52-.34.87-.34s.64.11.87.34c.23.23.34.52.34.87s-.11.64-.34.87c-.23.23-.52.34-.87.34s-.64-.11-.87-.34ZM69.38,52.09v-9.26c0-.13.06-.19.19-.19h1.44c.13,0,.19.06.19.19v9.26c0,.13-.06.19-.19.19h-1.44c-.13,0-.19-.06-.19-.19Z"/>
    <path class="cls-1" d="M79.93,51.93c-.7-.36-1.25-.87-1.63-1.54-.39-.66-.58-1.43-.58-2.29v-4.91c0-.86.19-1.62.58-2.27.39-.65.93-1.16,1.63-1.52s1.51-.54,2.42-.54,1.71.17,2.41.52c.7.35,1.24.84,1.62,1.47.39.63.58,1.37.58,2.2v.02c0,.06-.02.11-.06.15-.04.04-.08.06-.13.06l-1.44.08c-.13,0-.19-.06-.19-.17v-.06c0-.81-.25-1.46-.76-1.95-.51-.49-1.18-.74-2.03-.74s-1.53.25-2.04.74c-.51.49-.77,1.14-.77,1.95v5.05c0,.81.26,1.46.77,1.95.51.49,1.19.74,2.04.74s1.52-.25,2.03-.74c.51-.49.76-1.14.76-1.95v-.04c0-.11.06-.17.19-.17l1.44.08c.13,0,.19.06.19.19,0,.83-.19,1.57-.58,2.21-.39.64-.93,1.14-1.62,1.49-.7.35-1.5.53-2.41.53s-1.72-.18-2.42-.54Z"/>
    <path class="cls-1" d="M94.8,42.9c.58.27,1.02.65,1.33,1.14.31.49.46,1.04.46,1.66v6.41c0,.13-.06.19-.19.19h-1.44c-.13,0-.19-.06-.19-.19v-.68c0-.06-.03-.08-.09-.04-.33.34-.73.6-1.2.79-.47.18-1,.28-1.58.28-.94,0-1.71-.24-2.32-.71-.61-.47-.92-1.19-.92-2.15s.34-1.76,1.03-2.32c.69-.56,1.65-.84,2.89-.84h2.12c.05,0,.08-.03.08-.08v-.51c0-.56-.16-.99-.48-1.3-.32-.31-.81-.46-1.47-.46-.53,0-.96.1-1.3.31-.34.21-.54.49-.62.84-.04.13-.11.18-.23.17l-1.54-.21c-.13-.03-.18-.08-.17-.15.1-.75.5-1.36,1.2-1.83.7-.47,1.57-.71,2.62-.71.77,0,1.44.14,2.02.41ZM94.04,50.38c.49-.35.74-.8.74-1.35v-1.12c0-.05-.03-.08-.08-.08h-1.78c-.75,0-1.34.15-1.78.44-.44.29-.66.7-.66,1.21,0,.47.17.82.5,1.06.33.24.77.36,1.32.36.67,0,1.25-.18,1.75-.53Z"/>
    <path class="cls-1" d="M107.26,47.5c0,.89-.1,1.65-.3,2.3-.27.85-.7,1.5-1.31,1.96-.61.46-1.38.69-2.33.69-.43,0-.84-.09-1.22-.26-.39-.17-.72-.41-1-.73-.03-.03-.05-.03-.07-.02-.02.01-.03.03-.03.06v4.23c0,.13-.06.19-.19.19h-1.44c-.13,0-.19-.06-.19-.19v-12.9c0-.13.06-.19.19-.19h1.44c.13,0,.19.06.19.19v.63s0,.04.03.06c.02.01.04,0,.07-.02.28-.32.61-.56.99-.74.38-.18.79-.27,1.23-.27.91,0,1.67.22,2.27.67.6.45,1.04,1.08,1.32,1.91.24.68.36,1.49.36,2.43ZM105.42,47.46c0-.97-.16-1.76-.47-2.35-.37-.7-.97-1.04-1.8-1.04-.73,0-1.29.34-1.67,1.02-.3.54-.46,1.34-.46,2.39s.16,1.87.49,2.43c.37.64.9.97,1.61.97.76,0,1.32-.3,1.69-.91.4-.61.61-1.44.61-2.5Z"/>
    <path class="cls-1" d="M114.98,42.79c.09.04.12.11.09.23l-.3,1.42c-.01.11-.09.15-.23.11-.22-.09-.47-.13-.76-.13l-.27.02c-.59.03-1.08.23-1.47.62-.39.39-.58.89-.58,1.51v5.54c0,.13-.06.19-.19.19h-1.44c-.13,0-.19-.06-.19-.19v-9.28c0-.13.06-.19.19-.19h1.44c.13,0,.19.06.19.19v1.01s0,.06.03.07c.02,0,.03,0,.05-.03.57-.88,1.35-1.33,2.33-1.33.4,0,.77.08,1.1.25Z"/>
    <path class="cls-1" d="M116.91,40.78c-.23-.23-.34-.52-.34-.87s.11-.64.34-.87c.23-.23.52-.34.87-.34s.64.11.87.34c.23.23.34.52.34.87s-.11.64-.34.87c-.23.23-.52.34-.87.34s-.64-.11-.87-.34ZM116.84,52.09v-9.26c0-.13.06-.19.19-.19h1.44c.13,0,.19.06.19.19v9.26c0,.13-.06.19-.19.19h-1.44c-.13,0-.19-.06-.19-.19Z"/>
    <path class="cls-1" d="M131.5,39.02h1.44c.13,0,.19.06.19.19v12.9c0,.13-.06.19-.19.19h-1.44c-.13,0-.19-.06-.19-.19v-.63s0-.04-.03-.06c-.02-.01-.04,0-.07.02-.28.32-.61.56-.99.74-.38.18-.79.27-1.23.27-.91,0-1.67-.22-2.27-.67-.6-.45-1.04-1.08-1.32-1.91-.24-.67-.36-1.48-.36-2.43,0-.89.1-1.65.3-2.3.27-.83.7-1.49,1.31-1.95.61-.47,1.38-.7,2.33-.7.43,0,.84.09,1.22.26.39.17.72.41,1,.73.03.03.05.03.07.02.02-.01.03-.03.03-.06v-4.23c0-.13.06-.19.19-.19ZM131.27,47.46c0-1.06-.16-1.87-.47-2.43-.37-.64-.9-.97-1.61-.97-.76,0-1.32.3-1.69.91-.4.63-.61,1.47-.61,2.5,0,.97.16,1.76.47,2.35.37.7.97,1.04,1.8,1.04.73,0,1.29-.34,1.67-1.02.29-.53.44-1.33.44-2.39Z"/>
    <path class="cls-1" d="M141.35,42.9c.58.27,1.02.65,1.33,1.14.31.49.46,1.04.46,1.66v6.41c0,.13-.06.19-.19.19h-1.44c-.13,0-.19-.06-.19-.19v-.68c0-.06-.03-.08-.09-.04-.33.34-.73.6-1.2.79-.47.18-1,.28-1.58.28-.94,0-1.71-.24-2.32-.71-.61-.47-.92-1.19-.92-2.15s.34-1.76,1.03-2.32c.69-.56,1.65-.84,2.89-.84h2.12c.05,0,.08-.03.08-.08v-.51c0-.56-.16-.99-.48-1.3-.32-.31-.81-.46-1.47-.46-.53,0-.96.1-1.3.31-.34.21-.54.49-.62.84-.04.13-.11.18-.23.17l-1.54-.21c-.13-.03-.18-.08-.17-.15.1-.75.5-1.36,1.2-1.83.7-.47,1.57-.71,2.62-.71.77,0,1.44.14,2.02.41ZM140.59,50.38c.49-.35.74-.8.74-1.35v-1.12c0-.05-.03-.08-.08-.08h-1.78c-.75,0-1.34.15-1.78.44-.44.29-.66.7-.66,1.21,0,.47.17.82.5,1.06.33.24.77.36,1.32.36.67,0,1.25-.18,1.75-.53Z"/>
    <path class="cls-1" d="M145.61,52.11v-12.9c0-.13.06-.19.19-.19h1.44c.13,0,.19.06.19.19v12.9c0,.13-.06.19-.19.19h-1.44c-.13,0-.19-.06-.19-.19Z"/>
    <path class="cls-1" d="M156.01,39.02h1.5c.13,0,.19.06.19.19v12.9c0,.13-.06.19-.19.19h-1.44c-.13,0-.19-.06-.19-.19v-11.13s0-.04-.03-.06c-.02-.01-.04-.01-.07,0l-1.99.68s-.06.02-.09.02c-.08,0-.12-.05-.13-.15l-.08-1.08c0-.13.04-.2.11-.23l2.16-1.08c.08-.04.16-.06.25-.06Z"/>
    <path class="cls-1" d="M168.09,43.19v5.84c0,1.04-.36,1.87-1.08,2.48-.72.62-1.66.93-2.83.93-.75,0-1.41-.14-1.98-.42-.58-.28-1.02-.67-1.34-1.17-.32-.5-.47-1.07-.47-1.72v-.38c0-.13.06-.19.19-.19h1.44c.13,0,.19.06.19.19v.17c0,.57.18,1.03.55,1.38.37.35.84.53,1.42.53s1.11-.18,1.5-.55c.39-.37.59-.85.59-1.46v-2.39s0-.04-.03-.06c-.02-.01-.04,0-.07.02-.54.62-1.33.93-2.37.93-.75,0-1.39-.15-1.93-.46-.54-.3-.96-.75-1.26-1.33-.35-.67-.53-1.47-.53-2.41,0-.76.12-1.44.36-2.03.29-.72.75-1.27,1.37-1.66.62-.39,1.37-.58,2.24-.58.94,0,1.73.22,2.37.64.64.43,1.11,1.04,1.38,1.82.19.53.28,1.14.28,1.84ZM166.27,43.06c0-.53-.08-.98-.25-1.35-.16-.4-.41-.71-.74-.92-.33-.21-.73-.31-1.2-.31s-.86.1-1.19.31c-.32.21-.56.51-.71.9-.19.39-.28.88-.28,1.46,0,.63.11,1.15.32,1.56.39.73,1.01,1.1,1.86,1.1.9,0,1.52-.38,1.88-1.14.2-.42.3-.95.3-1.61Z"/>
    <path class="cls-1" d="M171.48,51.4c-.75-.73-1.13-1.7-1.13-2.93v-5.61c0-1.23.38-2.2,1.13-2.92.75-.72,1.77-1.08,3.04-1.08s2.3.36,3.06,1.08c.77.72,1.15,1.69,1.15,2.92v5.61c0,1.23-.38,2.2-1.15,2.93-.77.73-1.79,1.09-3.06,1.09s-2.29-.36-3.04-1.09ZM176.27,50.28c.43-.42.64-.99.64-1.7v-5.8c0-.71-.22-1.27-.64-1.7-.43-.42-1.01-.64-1.75-.64s-1.28.21-1.71.64c-.43.42-.64.99-.64,1.7v5.8c0,.71.21,1.27.64,1.7.43.42,1,.64,1.71.64s1.31-.21,1.75-.64Z"/>
    <path class="cls-1" d="M188.78,43.19v5.84c0,1.04-.36,1.87-1.08,2.48-.72.62-1.66.93-2.83.93-.75,0-1.41-.14-1.98-.42-.58-.28-1.02-.67-1.34-1.17-.32-.5-.47-1.07-.47-1.72v-.38c0-.13.06-.19.19-.19h1.44c.13,0,.19.06.19.19v.17c0,.57.18,1.03.55,1.38.37.35.84.53,1.42.53s1.11-.18,1.5-.55c.39-.37.59-.85.59-1.46v-2.39s0-.04-.03-.06c-.02-.01-.04,0-.07.02-.54.62-1.33.93-2.37.93-.75,0-1.39-.15-1.93-.46-.54-.3-.96-.75-1.26-1.33-.35-.67-.53-1.47-.53-2.41,0-.76.12-1.44.36-2.03.29-.72.75-1.27,1.37-1.66.62-.39,1.37-.58,2.24-.58.94,0,1.73.22,2.37.64.64.43,1.11,1.04,1.38,1.82.19.53.28,1.14.28,1.84ZM186.96,43.06c0-.53-.08-.98-.25-1.35-.16-.4-.41-.71-.74-.92-.33-.21-.73-.31-1.2-.31s-.86.1-1.19.31c-.32.21-.56.51-.71.9-.19.39-.28.88-.28,1.46,0,.63.11,1.15.32,1.56.39.73,1.01,1.1,1.86,1.1.9,0,1.52-.38,1.88-1.14.2-.42.3-.95.3-1.61Z"/>
  </g>
  <g id="GeHQKH">
    <g>
      <path class="cls-1" d="M197.4.45c2.66.04,4.76,2.16,4.76,4.79,0,2.7-2.16,4.81-4.82,4.8-2.63-.01-4.77-2.18-4.76-4.79,0-2.64,2.18-4.81,4.82-4.79ZM201.64,5.38c.07-2.28-1.7-4.31-4.12-4.4-2.33-.08-4.33,1.72-4.41,4.12-.08,2.3,1.69,4.31,4.11,4.41,2.33.09,4.33-1.72,4.42-4.13Z"/>
      <path class="cls-1" d="M198.15,5.38c.31.14.46.38.59.64.3.6.58,1.22.87,1.83,0,.02.01.04.03.08-.37,0-.73,0-1.09,0-.1,0-.11-.08-.14-.14-.23-.52-.46-1.04-.69-1.56-.16-.36-.41-.52-.8-.52-.12,0-.14.04-.14.15,0,.63,0,1.26,0,1.9,0,.14-.04.18-.18.17-.22-.01-.43-.01-.65,0-.14,0-.19-.03-.19-.18,0-1.21,0-2.42,0-3.63,0-.47,0-.93,0-1.4,0-.1,0-.16.13-.16.65.02,1.3-.04,1.95.04.44.05.86.16,1.15.53.64.83.23,1.95-.85,2.24ZM196.78,4.16s0,0,0,0c0,.21,0,.42,0,.63,0,.05-.02.12.07.12.35,0,.71.04,1.03-.16.27-.16.36-.41.34-.71-.03-.3-.19-.49-.47-.57-.29-.09-.59-.05-.88-.06-.09,0-.08.06-.08.11,0,.21,0,.42,0,.63Z"/>
    </g>
  </g>
</svg>