<?xml version="1.0" encoding="utf-8"?>
<!-- Generator: Adobe Illustrator 28.4.1, SVG Export Plug-In . SVG Version: 6.00 Build 0)  -->
<svg version="1.1" id="Livello_1" xmlns="http://www.w3.org/2000/svg" xmlns:xlink="http://www.w3.org/1999/xlink" x="0px" y="0px"
	 viewBox="0 0 1030.4 451.2" style="enable-background:new 0 0 1030.4 451.2;" xml:space="preserve">
<style type="text/css">
	.st0{fill:url(#SVGID_1_);}
	.st1{fill:#FFFFFF;}
	.st2{fill:url(#SVGID_00000024689998879391359440000008855858678914659457_);}
</style>
<g>
	
		<linearGradient id="SVGID_1_" gradientUnits="userSpaceOnUse" x1="-250.61" y1="76.9998" x2="1027.7001" y2="76.9998" gradientTransform="matrix(1 0 0 -1 0 416.1699)">
		<stop  offset="0" style="stop-color:#74C1EB"/>
		<stop  offset="6.000000e-02" style="stop-color:#6ABBE7"/>
		<stop  offset="0.15" style="stop-color:#51ADDE"/>
		<stop  offset="0.27" style="stop-color:#2895D0"/>
		<stop  offset="0.35" style="stop-color:#0682C4"/>
		<stop  offset="0.51" style="stop-color:#0866AC"/>
		<stop  offset="0.69" style="stop-color:#17529B"/>
		<stop  offset="1" style="stop-color:#24356B"/>
	</linearGradient>
	<polyline class="st0" points="3.9,451.2 3.9,227.2 764.4,227.2 764.4,451.2 	"/>
	<g>
		<path class="st1" d="M148.2,385.2l-2.4-59.9l0-70.8h27.3l-0.1,169.2h-32.4L56.1,292.8l2.6,59.9l0,70.8H31.4l0.1-169.2h32.2
			L148.2,385.2L148.2,385.2z"/>
		<path class="st1" d="M322,280.6l-83.1,0v43.8l77.1,0v26.1l-77.1,0v47.1l83.1,0v26.1l-110.5,0l0-169.2l110.5,0L322,280.6L322,280.6
			z"/>
		<path class="st1" d="M522.1,423.7H488l-16.2-61.2l-16.4-75.4l-4.3-0.2l-16.2,75.6l-16.2,61.1h-34.3l-44.9-169.2h28l21.5,81
			l12.8,59.5l12.8-59.5l21.3-81h34.8l21.2,81l13,60l12.8-59.9l21.3-81h28L522.1,423.7L522.1,423.7z"/>
		<path class="st1" d="M716.4,375.2c0,37-32.9,51.5-63.1,51.5c-47.4,0-68.2-26.1-72.7-55.4h27.5c5.1,19.6,18.1,29.7,45,29.8
			c22.7,0,35.8-8.9,35.8-24.6c0-15.7-13.8-18.4-45.2-25.4c-32.9-7.3-58.5-16.5-58.5-48.1c0-33.6,29.7-51.2,62.1-51.2
			c42.5,0,62.1,22,66.9,48.8h-27.5c-4.8-14-16.4-23.2-39.2-23.2c-22.7,0-35,10.1-35,24.9c0,12.1,9.7,16,37.7,22
			C693,333.6,716.4,342.6,716.4,375.2L716.4,375.2z"/>
	</g>
	<g>
		<path d="M153.6,0v114.2c0,52.9-33.1,79-76.8,79S0,167.1,0,114.2V0h31.2v112.3c0,36.9,19.3,51.5,45.6,51.5s45.6-14.6,45.6-51.5V0
			C122.4,0,153.6,0,153.6,0z"/>
		<path d="M196.7,0h78.4c41.2,0,64.6,24.4,64.6,60.2c0,31.5-17.6,51.6-47.8,57.2l56.7,72.4h-37.7l-54-70.8h-29.6v70.8h-30.7L196.7,0
			L196.7,0z M271.8,92c25.2,0,36.9-13,36.9-31.5s-11.9-31.2-36.9-31.2h-44.5V92H271.8z"/>
		<path d="M439,0H478l73.5,189.9H519l-19.3-51h-82.5l-19.3,51h-32.6L439,0L439,0z M488.6,109.9l-30.1-79.8l-30.1,79.8H488.6
			L488.6,109.9z"/>
		<path d="M711.9,146.8l-2.7-67.3V0h30.7v189.9h-36.3l-95-146.8l3,67.3v79.5h-30.7V0h36.1L711.9,146.8L711.9,146.8z"/>
		<path d="M783,0h30.7v189.9H783V0z"/>
		<path d="M917.8,0h39.1l73.5,189.9h-32.6l-19.3-51h-82.5l-19.3,51h-32.6L917.8,0L917.8,0z M967.5,109.9l-30.1-79.8l-30.1,79.8
			H967.5L967.5,109.9z"/>
	</g>
	<g>
		<path d="M1021.1,298.3c23.4,59.2-3.9,121.5-62.3,144.5c-58.4,23-121.1-3.7-144.5-62.9c-23.4-59.2,4.5-121.7,62.5-144.6
			C935.3,212.2,997.7,239.1,1021.1,298.3L1021.1,298.3z M827.7,367.2c19.8,50,72.5,72.7,121.1,53.5c48.3-19.1,71.7-71.8,51.7-121.7
			c-19.5-50.2-72.5-72.7-120.8-53.6C831,264.6,807.9,317.2,827.7,367.2L827.7,367.2z"/>
		
			<linearGradient id="SVGID_00000132087224231374217320000008279232319670315939_" gradientUnits="userSpaceOnUse" x1="870.194" y1="81.7136" x2="980.1786" y2="81.7136" gradientTransform="matrix(1 3.490658e-04 3.490658e-04 -1 -0.5296 418.2619)">
			<stop  offset="0" style="stop-color:#74C1EB"/>
			<stop  offset="6.000000e-02" style="stop-color:#6ABBE7"/>
			<stop  offset="0.15" style="stop-color:#51ADDE"/>
			<stop  offset="0.27" style="stop-color:#2895D0"/>
			<stop  offset="0.35" style="stop-color:#0682C4"/>
			<stop  offset="0.51" style="stop-color:#0866AC"/>
			<stop  offset="0.69" style="stop-color:#17529B"/>
			<stop  offset="1" style="stop-color:#24356B"/>
		</linearGradient>
		<path style="fill:url(#SVGID_00000132087224231374217320000008279232319670315939_);" d="M979.7,329.8c-25.8,29.9-59.3,53-97.5,66
			c-12.9-37.4-16.1-78.1-8.1-117.8C912.8,285.4,949.4,303.1,979.7,329.8L979.7,329.8z"/>
	</g>
</g>
</svg>
