<?xml version="1.0" encoding="UTF-8"?><svg id="Layer_2" xmlns="http://www.w3.org/2000/svg" width="212.458" height="212.458" viewBox="0 0 212.458 212.458"><g id="Layer_1-2"><path d="M212.458,106.229c0,58.669-47.56,106.229-106.229,106.229S0,164.898,0,106.229,47.56,0,106.229,0s106.229,47.56,106.229,106.229" fill="#f1716f" stroke-width="0"/><path d="M166.516,139.241l-21.494-21.519c9.775-18.857,6.838-41.676-7.483-57.39-13.963-15.321-36.134-20.759-56.08-12.846-18.11,7.184-30.947,24.807-31.707,44.987-.664,17.613,7.986,34.381,22.428,43.953,15.469,10.253,34.973,11.28,51.413,2.735l21.58,21.547c5.987,5.977,15.605,5.582,21.318-.191,5.741-5.802,5.927-15.367.025-21.276M104.076,134.623c-22.093,2.098-41.762-14.048-44.032-36.119-2.276-22.133,13.892-42.171,36.342-44.336,22.401-2.159,42.048,14.373,44.106,36.451,2.068,22.19-14.237,41.898-36.416,44.004M159.458,153.461c-1.926,1.985-5.115,2.162-7.278,0l-19.946-19.939c2.527-2.212,4.841-4.413,7.116-7.183l20.033,20.035c2.014,2.013,1.948,5.158.075,7.088" fill="#fff" stroke-width="0"/><path d="M100.582,59.019c-2.89-.027-5.245,1.926-5.372,4.889-.107,2.507,1.933,5.196,4.741,5.186,14.046-.052,25.523,11.114,25.579,25.349.012,3.047,2.573,5.097,5.264,4.987,2.681-.109,4.816-2.309,4.819-5.05.025-19.39-15.656-35.183-35.031-35.361" fill="#fff" stroke-width="0"/></g></svg>