<?xml version="1.0" encoding="UTF-8"?>
<svg id="Livello_1" data-name="Livello 1" xmlns="http://www.w3.org/2000/svg" version="1.1" viewBox="0 0 179.03 152.41">
  <defs>
    <style>
      .cls-1 {
        stroke: #b8b7b7;
      }

      .cls-1, .cls-2, .cls-3, .cls-4, .cls-5, .cls-6 {
        fill: none;
        stroke-miterlimit: 10;
        stroke-width: 0px;
      }

      .cls-7 {
        fill: #6d7273;
      }

      .cls-7, .cls-8, .cls-9, .cls-10, .cls-11, .cls-12 {
        stroke-width: 0px;
      }

      .cls-2 {
        stroke: #6d7273;
      }

      .cls-3 {
        stroke: #bab7b7;
      }

      .cls-8 {
        fill: #b8b7b7;
      }

      .cls-4 {
        stroke: #c11533;
      }

      .cls-5 {
        stroke: #fff;
      }

      .cls-6 {
        stroke: #dcdad9;
      }

      .cls-9 {
        fill: #dcdad9;
      }

      .cls-10 {
        fill: #c11533;
      }

      .cls-11 {
        fill: #fff;
      }

      .cls-12 {
        fill: #bab7b7;
      }
    </style>
  </defs>
  <path class="cls-12" d="M68.82,1.56c9.39-2.18,19.29-2.08,28.64.28,7.03,1.6,13.76,4.46,19.78,8.43,3.9,2.58,7.61,5.5,10.87,8.86,2.32,2.37,4.45,4.93,6.36,7.64,4.44,6.1,7.72,13.03,9.61,20.33.61,2.39,1.17,4.78,1.55,7.21,1.13,7.26.95,14.73-.55,21.92-.31,1.54-.74,3.06-1.06,4.59.54-.59,1.17-1.08,1.76-1.61.72-.66,1.52-1.19,2.29-1.79,1.19-.93,2.55-1.64,3.97-2.17,1.26-.54,2.62-.73,3.98-.79,1.12.04,2.22.23,3.28.59.72.25,1.33.72,1.93,1.17.55.52.95,1.17,1.39,1.79.37.5.5,1.12.63,1.71.26.83.18,1.74.06,2.59-.24.97-.44,1.97-.8,2.91.65-.62,1.23-1.3,1.83-1.97.41-.48.86-.93,1.25-1.43.6-.57,1.26-1.15,2.08-1.38.56-.25,1.17-.36,1.77-.5.41-.11.81.11,1.22.17.56.06.99.46,1.41.8.28.43.7.73.98,1.16.3.45.66.88.79,1.41.1.42.21.85.31,1.27.09.34-.06.68-.13,1.01-.08.32-.1.66-.31.92-.28.34-.46.74-.71,1.09-.53.79-1.19,1.47-1.8,2.2-1.21,1.32-2.43,2.63-3.64,3.95-1.68,1.68-3.34,3.38-5.09,4.98-.78.79-1.69,1.43-2.55,2.14-1.32,1.1-2.77,2.01-4.17,2.99-.84.51-1.72.94-2.58,1.43-.69.3-1.38.63-2.12.77-1.58.37-3.15,1-4.8.83-.99,0-1.93-.28-2.86-.57-1.61-.41-2.92-1.51-4.18-2.55-.66.52-1.41.86-2.13,1.27-.81.5-1.72.78-2.58,1.15-1.03.33-2.1.5-3.17.69-.57.1-1.12-.13-1.69-.19-.12.04-.19.14-.28.22-3.13,3.43-6.7,6.44-10.51,9.08-5.75,4.06-12.23,7.08-19.02,8.91-1.15.32-2.32.58-3.48.86-9.33,2.16-19.16,2.08-28.45-.23-7.7-1.74-15.06-4.97-21.52-9.52-1.51-1.07-3.01-2.17-4.44-3.35-4.19-3.43-7.92-7.44-11.06-11.85-2.56-3.48-4.74-7.24-6.51-11.17-.31.48-.55,1.01-.83,1.51-.54,1.03-1.12,2.04-1.6,3.1-1.08,2.35-2.2,4.68-3.52,6.9-.29.42-.58.83-.93,1.21-.85.98-1.98,1.64-3.08,2.3-.57.32-1.21.42-1.83.58-.36.08-.73.18-1.1.08-.79-.19-1.58-.37-2.35-.61-.5-.22-.99-.48-1.48-.73-.62-.4-1.2-.86-1.76-1.34-.45-.39-.78-.88-1.12-1.37-.21-.32-.48-.63-.54-1.03-.17-.8-.46-1.6-.41-2.43.05-3.75.21-7.5.48-11.24.22-3.01.39-6.04.6-9.05.34-3.86.7-7.72,1.04-11.58.28-2.62.57-5.24.85-7.86.34-3.56.96-7.08,1.28-10.65.1-1.02.2-2.05.17-3.08-.01-.5.06-.99.19-1.48.13-.5.19-1.05.52-1.48.7-1.25,1.71-2.28,2.74-3.26.75-.57,1.54-1.08,2.31-1.63.58-.43,1.25-.74,1.95-.88.71-.16,1.42-.38,2.16-.35.81.03,1.63-.08,2.43.15.48.14.99.17,1.41.45.3.22.63.42.92.67.46.58.94,1.19,1.05,1.95.12-.21.21-.43.3-.66,1.76-4.01,3.97-7.84,6.55-11.38,2.5-3.53,5.37-6.8,8.55-9.73,2.46-2.29,5.15-4.32,7.93-6.21,5.64-3.81,11.93-6.66,18.51-8.39,1.03-.27,2.07-.5,3.11-.75Z"/>
  <path class="cls-3" d="M68.82,1.56c9.39-2.18,19.29-2.08,28.64.28,7.03,1.6,13.76,4.46,19.78,8.43,3.9,2.58,7.61,5.5,10.87,8.86,2.32,2.37,4.45,4.93,6.36,7.64,4.44,6.1,7.72,13.03,9.61,20.33.61,2.39,1.17,4.78,1.55,7.21,1.13,7.26.95,14.73-.55,21.92-.31,1.54-.74,3.06-1.06,4.59.54-.59,1.17-1.08,1.76-1.61.72-.66,1.52-1.19,2.29-1.79,1.19-.93,2.55-1.64,3.97-2.17,1.26-.54,2.62-.73,3.98-.79,1.12.04,2.22.23,3.28.59.72.25,1.33.72,1.93,1.17.55.52.95,1.17,1.39,1.79.37.5.5,1.12.63,1.71.26.83.18,1.74.06,2.59-.24.97-.44,1.97-.8,2.91.65-.62,1.23-1.3,1.83-1.97.41-.48.86-.93,1.25-1.43.6-.57,1.26-1.15,2.08-1.38.56-.25,1.17-.36,1.77-.5.41-.11.81.11,1.22.17.56.06.99.46,1.41.8.28.43.7.73.98,1.16.3.45.66.88.79,1.41.1.42.21.85.31,1.27.09.34-.06.68-.13,1.01-.08.32-.1.66-.31.92-.28.34-.46.74-.71,1.09-.53.79-1.19,1.47-1.8,2.2-1.21,1.32-2.43,2.63-3.64,3.95-1.68,1.68-3.34,3.38-5.09,4.98-.78.79-1.69,1.43-2.55,2.14-1.32,1.1-2.77,2.01-4.17,2.99-.84.51-1.72.94-2.58,1.43-.69.3-1.38.63-2.12.77-1.58.37-3.15,1-4.8.83-.99,0-1.93-.28-2.86-.57-1.61-.41-2.92-1.51-4.18-2.55-.66.52-1.41.86-2.13,1.27-.81.5-1.72.78-2.58,1.15-1.03.33-2.1.5-3.17.69-.57.1-1.12-.13-1.69-.19-.12.04-.19.14-.28.22-3.13,3.43-6.7,6.44-10.51,9.08-5.75,4.06-12.23,7.08-19.02,8.91-1.15.32-2.32.58-3.48.86-9.33,2.16-19.16,2.08-28.45-.23-7.7-1.74-15.06-4.97-21.52-9.52-1.51-1.07-3.01-2.17-4.44-3.35-4.19-3.43-7.92-7.44-11.06-11.85-2.56-3.48-4.74-7.24-6.51-11.17-.31.48-.55,1.01-.83,1.51-.54,1.03-1.12,2.04-1.6,3.1-1.08,2.35-2.2,4.68-3.52,6.9-.29.42-.58.83-.93,1.21-.85.98-1.98,1.64-3.08,2.3-.57.32-1.21.42-1.83.58-.36.08-.73.18-1.1.08-.79-.19-1.58-.37-2.35-.61-.5-.22-.99-.48-1.48-.73-.62-.4-1.2-.86-1.76-1.34-.45-.39-.78-.88-1.12-1.37-.21-.32-.48-.63-.54-1.03-.17-.8-.46-1.6-.41-2.43.05-3.75.21-7.5.48-11.24.22-3.01.39-6.04.6-9.05.34-3.86.7-7.72,1.04-11.58.28-2.62.57-5.24.85-7.86.34-3.56.96-7.08,1.28-10.65.1-1.02.2-2.05.17-3.08-.01-.5.06-.99.19-1.48.13-.5.19-1.05.52-1.48.7-1.25,1.71-2.28,2.74-3.26.75-.57,1.54-1.08,2.31-1.63.58-.43,1.25-.74,1.95-.88.71-.16,1.42-.38,2.16-.35.81.03,1.63-.08,2.43.15.48.14.99.17,1.41.45.3.22.63.42.92.67.46.58.94,1.19,1.05,1.95.12-.21.21-.43.3-.66,1.76-4.01,3.97-7.84,6.55-11.38,2.5-3.53,5.37-6.8,8.55-9.73,2.46-2.29,5.15-4.32,7.93-6.21,5.64-3.81,11.93-6.66,18.51-8.39,1.03-.27,2.07-.5,3.11-.75Z"/>
  <path class="cls-11" d="M66.81,2.59c4.76-1.23,9.65-1.96,14.57-2.03,4.7-.1,9.42.36,14.02,1.35,2.37.53,4.73,1.1,7.04,1.86,5.88,1.89,11.45,4.71,16.47,8.29,5.78,4.03,10.87,9.03,14.95,14.77,3.9,5.32,6.93,11.28,8.9,17.58.73,2.32,1.3,4.7,1.81,7.08,1.18,5.75,1.53,11.68,1.01,17.53-.34,4.28-1.24,8.5-2.39,12.64-.1.37-.24.73-.3,1.12.96-.96,1.84-2.01,2.9-2.86,1.02-.95,2.17-1.74,3.29-2.57.98-.63,2.02-1.17,3.12-1.57,1-.43,2.08-.66,3.17-.7.72-.12,1.44.01,2.16.1.87.17,1.77.37,2.51.88.31.22.63.41.91.68.45.46.8,1.01,1.17,1.53.43.59.55,1.35.72,2.04.07.63.03,1.26-.04,1.89-.3,1.25-.54,2.55-1.19,3.68-.48,1.01-1.27,1.81-1.96,2.66-.47.63-1.13,1.09-1.7,1.61-.86.81-1.92,1.36-2.9,1.99-.57.38-1.2.64-1.81.94-.45.21-.88.46-1.37.57-1.5.38-2.99.92-4.55.98,0,.55.29,1.1.74,1.41.31.21.7.23,1.06.18.68-.1,1.39-.21,2.01-.54.47-.25.95-.47,1.42-.72,1.17-.77,2.27-1.63,3.39-2.47,1.86-1.51,3.5-3.26,5.2-4.94,1.35-1.43,2.7-2.87,3.99-4.35.43-.38.69-.92,1.16-1.26.41-.36.83-.74,1.37-.9.65-.26,1.32-.47,2.01-.56.59.1,1.23.18,1.7.59.33.19.49.57.77.82.37.32.63.77.9,1.17.34.51.39,1.14.56,1.72.1.32-.06.65-.12.97-.04.5-.41.87-.64,1.28-.5.9-1.23,1.62-1.88,2.4-1.06,1.18-2.15,2.32-3.21,3.49-.92,1.01-1.91,1.95-2.87,2.92-1.08,1.1-2.23,2.14-3.35,3.2-.96.81-1.96,1.59-2.94,2.37-1.1.79-2.22,1.55-3.35,2.3-1.46.77-2.86,1.71-4.49,2.06-1.45.34-2.88.91-4.39.78-1.23.03-2.41-.41-3.57-.78-.81-.39-1.6-.86-2.29-1.43-.43-.33-.89-.65-1.19-1.12-.78.59-1.63,1.07-2.5,1.52-.79.48-1.68.76-2.52,1.13-.83.3-1.72.43-2.59.59-.79.26-1.59-.06-2.37-.18-3.81,4.27-8.3,7.9-13.11,10.98-5.83,3.71-12.3,6.4-19.03,7.94-8.68,2.15-17.82,2.37-26.59.6-1.25-.24-2.48-.54-3.71-.84-6.38-1.56-12.49-4.17-18.03-7.7-4.27-2.75-8.28-5.91-11.81-9.57-2.15-2.23-4.12-4.61-5.9-7.13-2.41-3.32-4.5-6.88-6.2-10.63-.21-.44-.37-.9-.6-1.32-.85,1.54-1.66,3.1-2.49,4.65-.83,1.7-1.57,3.44-2.47,5.11-.42.87-.92,1.7-1.39,2.55-.7,1.15-1.69,2.11-2.83,2.81-.66.38-1.27.87-2.03,1.02-.53.1-1.06.32-1.61.25-.74-.19-1.5-.34-2.23-.59-.5-.23-.99-.48-1.47-.74-.97-.66-1.94-1.39-2.57-2.39-.23-.34-.51-.66-.59-1.07-.15-.73-.41-1.46-.36-2.21.05-1.79.03-3.59.15-5.37.08-1.75.14-3.5.3-5.25.2-3.12.4-6.26.61-9.39.28-3.12.56-6.25.84-9.37.37-4.17.86-8.33,1.3-12.48.28-2.21.57-4.42.86-6.63.09-1.28.29-2.55.34-3.83.07-.76-.06-1.53.12-2.28.1-.41.16-.86.34-1.25.42-.7.86-1.41,1.43-2.01.65-.68,1.27-1.41,2.08-1.92,1.05-.67,1.99-1.59,3.24-1.87.7-.14,1.39-.39,2.11-.34.83.02,1.68-.08,2.49.18,1.39.2,2.61,1.37,2.82,2.77.09.38.21.76.18,1.15-.02.35-.08.7-.09,1.06.12-.27.23-.54.33-.82,1.58-4,3.59-7.82,5.98-11.4,1.95-2.88,4.06-5.65,6.43-8.19,2.88-3.11,6.1-5.92,9.56-8.37,6.3-4.57,13.48-7.93,21.05-9.79Z"/>
  <path class="cls-5" d="M66.81,2.59c4.76-1.23,9.65-1.96,14.57-2.03,4.7-.1,9.42.36,14.02,1.35,2.37.53,4.73,1.1,7.04,1.86,5.88,1.89,11.45,4.71,16.47,8.29,5.78,4.03,10.87,9.03,14.95,14.77,3.9,5.32,6.93,11.28,8.9,17.58.73,2.32,1.3,4.7,1.81,7.08,1.18,5.75,1.53,11.68,1.01,17.53-.34,4.28-1.24,8.5-2.39,12.64-.1.37-.24.73-.3,1.12.96-.96,1.84-2.01,2.9-2.86,1.02-.95,2.17-1.74,3.29-2.57.98-.63,2.02-1.17,3.12-1.57,1-.43,2.08-.66,3.17-.7.72-.12,1.44.01,2.16.1.87.17,1.77.37,2.51.88.31.22.63.41.91.68.45.46.8,1.01,1.17,1.53.43.59.55,1.35.72,2.04.07.63.03,1.26-.04,1.89-.3,1.25-.54,2.55-1.19,3.68-.48,1.01-1.27,1.81-1.96,2.66-.47.63-1.13,1.09-1.7,1.61-.86.81-1.92,1.36-2.9,1.99-.57.38-1.2.64-1.81.94-.45.21-.88.46-1.37.57-1.5.38-2.99.92-4.55.98,0,.55.29,1.1.74,1.41.31.21.7.23,1.06.18.68-.1,1.39-.21,2.01-.54.47-.25.95-.47,1.42-.72,1.17-.77,2.27-1.63,3.39-2.47,1.86-1.51,3.5-3.26,5.2-4.94,1.35-1.43,2.7-2.87,3.99-4.35.43-.38.69-.92,1.16-1.26.41-.36.83-.74,1.37-.9.65-.26,1.32-.47,2.01-.56.59.1,1.23.18,1.7.59.33.19.49.57.77.82.37.32.63.77.9,1.17.34.51.39,1.14.56,1.72.1.32-.06.65-.12.97-.04.5-.41.87-.64,1.28-.5.9-1.23,1.62-1.88,2.4-1.06,1.18-2.15,2.32-3.21,3.49-.92,1.01-1.91,1.95-2.87,2.92-1.08,1.1-2.23,2.14-3.35,3.2-.96.81-1.96,1.59-2.94,2.37-1.1.79-2.22,1.55-3.35,2.3-1.46.77-2.86,1.71-4.49,2.06-1.45.34-2.88.91-4.39.78-1.23.03-2.41-.41-3.57-.78-.81-.39-1.6-.86-2.29-1.43-.43-.33-.89-.65-1.19-1.12-.78.59-1.63,1.07-2.5,1.52-.79.48-1.68.76-2.52,1.13-.83.3-1.72.43-2.59.59-.79.26-1.59-.06-2.37-.18-3.81,4.27-8.3,7.9-13.11,10.98-5.83,3.71-12.3,6.4-19.03,7.94-8.68,2.15-17.82,2.37-26.59.6-1.25-.24-2.48-.54-3.71-.84-6.38-1.56-12.49-4.17-18.03-7.7-4.27-2.75-8.28-5.91-11.81-9.57-2.15-2.23-4.12-4.61-5.9-7.13-2.41-3.32-4.5-6.88-6.2-10.63-.21-.44-.37-.9-.6-1.32-.85,1.54-1.66,3.1-2.49,4.65-.83,1.7-1.57,3.44-2.47,5.11-.42.87-.92,1.7-1.39,2.55-.7,1.15-1.69,2.11-2.83,2.81-.66.38-1.27.87-2.03,1.02-.53.1-1.06.32-1.61.25-.74-.19-1.5-.34-2.23-.59-.5-.23-.99-.48-1.47-.74-.97-.66-1.94-1.39-2.57-2.39-.23-.34-.51-.66-.59-1.07-.15-.73-.41-1.46-.36-2.21.05-1.79.03-3.59.15-5.37.08-1.75.14-3.5.3-5.25.2-3.12.4-6.26.61-9.39.28-3.12.56-6.25.84-9.37.37-4.17.86-8.33,1.3-12.48.28-2.21.57-4.42.86-6.63.09-1.28.29-2.55.34-3.83.07-.76-.06-1.53.12-2.28.1-.41.16-.86.34-1.25.42-.7.86-1.41,1.43-2.01.65-.68,1.27-1.41,2.08-1.92,1.05-.67,1.99-1.59,3.24-1.87.7-.14,1.39-.39,2.11-.34.83.02,1.68-.08,2.49.18,1.39.2,2.61,1.37,2.82,2.77.09.38.21.76.18,1.15-.02.35-.08.7-.09,1.06.12-.27.23-.54.33-.82,1.58-4,3.59-7.82,5.98-11.4,1.95-2.88,4.06-5.65,6.43-8.19,2.88-3.11,6.1-5.92,9.56-8.37,6.3-4.57,13.48-7.93,21.05-9.79Z"/>
  <path class="cls-8" d="M64.17,5.27c6.51-2.01,13.35-3.01,20.15-2.78,4.1.1,8.2.64,12.19,1.59,7.35,1.68,14.36,4.77,20.57,9.03,5.47,3.72,10.34,8.33,14.33,13.61,5.2,6.81,8.95,14.73,10.86,23.09,2.23,9.46,2.16,19.44-.23,28.86-1.72,7.01-4.74,13.71-8.83,19.66-.35.49-.63,1.03-1.02,1.48-.32-.07-.55-.31-.66-.61.26-.21.43-.5.61-.77,2.95-4.19,5.35-8.76,7.13-13.56,2.58-6.91,3.87-14.31,3.77-21.69-.06-9.48-2.42-18.94-6.81-27.33-3.39-6.52-8-12.4-13.49-17.28-6.53-5.81-14.32-10.18-22.69-12.7-5.69-1.72-11.64-2.59-17.58-2.57-9.93-.01-19.86,2.48-28.6,7.2-5.46,2.94-10.45,6.72-14.77,11.17-7.05,7.25-12.25,16.3-14.92,26.06-2.17,7.86-2.69,16.15-1.6,24.22.03.28.07.57.15.84-.26.53-.53,1.05-.8,1.57-.01-1.75-.37-3.46-.48-5.2-1.14-12.61,1.76-25.56,8.2-36.46,1.59-2.69,3.39-5.25,5.36-7.68,7.52-9.23,17.77-16.22,29.16-19.75Z"/>
  <path class="cls-1" d="M64.17,5.27c6.51-2.01,13.35-3.01,20.15-2.78,4.1.1,8.2.64,12.19,1.59,7.35,1.68,14.36,4.77,20.57,9.03,5.47,3.72,10.34,8.33,14.33,13.61,5.2,6.81,8.95,14.73,10.86,23.09,2.23,9.46,2.16,19.44-.23,28.86-1.72,7.01-4.74,13.71-8.83,19.66-.35.49-.63,1.03-1.02,1.48-.32-.07-.55-.31-.66-.61.26-.21.43-.5.61-.77,2.95-4.19,5.35-8.76,7.13-13.56,2.58-6.91,3.87-14.31,3.77-21.69-.06-9.48-2.42-18.94-6.81-27.33-3.39-6.52-8-12.4-13.49-17.28-6.53-5.81-14.32-10.18-22.69-12.7-5.69-1.72-11.64-2.59-17.58-2.57-9.93-.01-19.86,2.48-28.6,7.2-5.46,2.94-10.45,6.72-14.77,11.17-7.05,7.25-12.25,16.3-14.92,26.06-2.17,7.86-2.69,16.15-1.6,24.22.03.28.07.57.15.84-.26.53-.53,1.05-.8,1.57-.01-1.75-.37-3.46-.48-5.2-1.14-12.61,1.76-25.56,8.2-36.46,1.59-2.69,3.39-5.25,5.36-7.68,7.52-9.23,17.77-16.22,29.16-19.75Z"/>
  <path class="cls-9" d="M53.88,10.49c8.74-4.72,18.67-7.21,28.6-7.2,5.95-.02,11.89.85,17.58,2.57,8.37,2.52,16.16,6.89,22.69,12.7,5.49,4.88,10.1,10.76,13.49,17.28,4.39,8.39,6.76,17.85,6.81,27.33.1,7.38-1.19,14.78-3.77,21.69-1.79,4.8-4.19,9.37-7.13,13.56-.19.27-.36.56-.61.77-.42-1.06-.1-2.2.12-3.26.46-2.05.95-4.09,1.37-6.15.07-.6.16-1.21.03-1.81-.15-.97-.9-1.75-1.77-2.17-.9-.28-1.85-.14-2.75.06-1.84.57-3.44,1.69-5.01,2.77-1.21.94-2.41,1.91-3.61,2.87-1.77,1.52-3.46,3.13-5.24,4.64.47-1.95,1.04-3.86,1.61-5.78.14-.47.14-.96.21-1.44.05-.3.1-.61.04-.9-.09-.41-.08-.86-.29-1.24-.19-.34-.37-.72-.74-.92-.51-.39-1.14-.63-1.79-.61-.79,0-1.52.3-2.23.59-.49.19-.92.5-1.37.77-1.83,1.19-3.66,2.4-5.5,3.59-.63.34-1.21.77-1.81,1.17-1.09.74-2.19,1.48-3.28,2.23-.63.47-1.23.97-1.88,1.43.86-2.1,1.8-4.15,2.77-6.19.1-.19.24-.36.34-.54.36-.81.85-1.56,1.26-2.34.61-1.21,1.43-2.3,2.12-3.46-.88.27-1.75.54-2.62.82-1.21.43-2.39.91-3.59,1.38-.25.08-.38.32-.49.54-.27.51-.58,1-.82,1.53-.51,1.1-1.07,2.19-1.61,3.28-.18.38-.5.66-.77.96-1.77,1.93-3.52,3.89-5.52,5.59-.55.49-1.1.98-1.72,1.37-.59.47-1.29.77-1.99,1.03-.52.17-1.07.35-1.63.26-.3-.03-.65-.23-.64-.57-.12-1.02.08-2.04.39-3.01.26-.86.53-1.73.88-2.56.63-1.29,1.21-2.61,1.98-3.82,1.21-1.99,2.47-3.97,3.55-6.04-1.1.1-2.21.26-3.3.41-.61.1-1.19.29-1.79.43-.25.07-.54.1-.7.34-.63.88-1.19,1.81-1.72,2.75-.46.97-.99,1.91-1.48,2.87-.46.83-.8,1.72-1.2,2.59-.22.48-.46.97-.59,1.49-.39,1.46-.97,2.89-.97,4.41-.02.52-.05,1.06.09,1.57.14.63.47,1.2.81,1.74.45.73,1.23,1.19,2.05,1.41.59.08,1.19.3,1.79.21.37-.05.74-.1,1.1-.14.56-.07,1.03-.38,1.56-.57.66-.25,1.21-.71,1.81-1.09.68-.43,1.3-.94,1.95-1.43.98-.7,1.74-1.64,2.66-2.41-.39,1.38-.92,2.73-1.12,4.16-.04.46.25.83.5,1.17.26.42.74.63,1.19.78.55-.14,1.14-.32,1.54-.74.83-.83,1.63-1.68,2.46-2.51.59-.64,1.28-1.17,1.91-1.75.74-.64,1.46-1.32,2.24-1.9,1.3-.99,2.57-2.01,3.94-2.89,1.76-1.18,3.54-2.34,5.26-3.57.7-.54,1.35-1.16,2.12-1.62.12.82-.31,1.58-.59,2.32-.17.48-.39.95-.55,1.43-.48,2.02-1.12,4-1.57,6.03-.22.71-.23,1.46-.24,2.2,0,.67.21,1.32.53,1.9.43.52,1.09.86,1.77.94.34,0,.64-.17.94-.31.46-.21.7-.68,1.03-1.03,1.06-1.1,2.16-2.17,3.23-3.26.7-.73,1.49-1.36,2.26-2.02.77-.59,1.51-1.22,2.34-1.73.97-.64,1.95-1.28,2.92-1.91.96-.7,1.93-1.38,2.9-2.06.43-.3.83-.62,1.28-.88-.3,1.37-.7,2.7-.99,4.06-.14.67-.37,1.32-.38,2.01-.04,1.01-.19,2.02-.08,3.03.33,1.28.92,2.61,2.08,3.33-.43.66-1.02,1.2-1.53,1.79-.61.65-1.25,1.28-1.88,1.92-4.59,4.58-9.96,8.39-15.77,11.26-8.15,4.03-17.21,6.17-26.29,6.21-7.99.08-16.01-1.45-23.4-4.48-8.24-3.36-15.69-8.58-21.7-15.13-3.68-4.02-6.84-8.53-9.3-13.39-1.54-2.99-2.79-6.11-3.82-9.3,2.48-4.67,5.05-9.3,7.57-13.95.43-.82.92-1.61,1.38-2.41.24-.43.54-.86.93-1.17.21,0,.17.29.21.43.12,2.15.34,4.28.7,6.39.46,3.12.94,6.24,1.42,9.35.35,1.39.79,2.75,1.09,4.15.3,1.39.66,2.76,1.06,4.12,1.01,2.62,2.23,5.15,3.41,7.7.44.98.99,1.9,1.5,2.84.88,1.53,1.97,3.03,3.54,3.92.7.46,1.59.54,2.41.37.89-.32,1.74-.83,2.35-1.57.4-.52.88-.99,1.17-1.59.34-.69.76-1.34,1.06-2.05,1.79-5.41,3.56-10.82,5.35-16.23.99-3.04,1.98-6.09,2.93-9.15-.03,0-.08.02-.11.03.26-.14.5-.28.73-.46.37.1.75.06,1.12.06,3.52,0,7.04,0,10.55,0-2.48,7.74-4.96,15.48-7.44,23.22-.83,2.61-1.7,5.21-2.5,7.84,2.15-.02,4.29,0,6.43-.01,3.15-10.15,6.35-20.29,9.51-30.45.06-.19.12-.39.19-.58,5.61,0,11.22,0,16.84.03,2.14.01,4.27.01,6.41,0-.41,1.23-.83,2.47-1.19,3.72.3-.06.59-.15.88-.26,5.59-1.79,11.19-3.57,16.79-5.36,1.36-.44,2.73-.86,4.08-1.32-5.87-2.26-11.72-4.59-17.59-6.86-.47,1.49-.92,2.99-1.38,4.49-13.22.01-26.45,0-39.67,0-.44,0-.88-.03-1.32.03-.09-.25-.19-.49-.3-.73.2-.28.26-.61.36-.93,4.03-12.51,7.89-25.08,11.84-37.61.07-.22.13-.43.19-.65,2.12-.03,4.24,0,6.35-.01-.83-7.26-1.74-14.52-2.58-21.78-5.8,7.17-11.58,14.37-17.36,21.56,2.26.02,4.52-.02,6.77.01-.12.43-.25.86-.39,1.28-3.38,10.61-6.73,21.23-10.11,31.84-.32.94-.62,1.9-.93,2.86-.11.38-.29.75-.32,1.15-1.67.64-2.88,2.28-3.03,4.06-.12,1.05.16,2.12.7,3.03-.35.96-.63,1.94-.96,2.9-.71,2.25-1.47,4.48-2.17,6.73-.97,2.89-1.98,5.76-2.95,8.64-.48,1.28-.92,2.57-1.44,3.83-.43-.81-.83-1.65-1.14-2.52-.85-2.15-1.68-4.3-2.5-6.47-.7-2.12-1.34-4.25-1.95-6.39-.79-3.43-1.54-6.86-2.18-10.31-.16-1.41-.2-2.83-.33-4.25-.01-2.58-.02-5.16.25-7.73.23-1.66.46-3.36,1.32-4.83.48-.74.99-1.47,1.62-2.09.46-.57,1.21-.81,1.59-1.46.32-.6.43-1.36.08-1.97-.54-.9-1.36-1.62-2.28-2.15-.7-.5-1.61-.87-2.48-.63-.54.11-.96.5-1.39.81-1.86,1.79-3.1,4.13-3.92,6.56-.21.85-.37,1.72-.72,2.54-.34.58-.74,1.12-1.24,1.58-.63.68-1.3,1.32-1.92,2.01-1.15,1.68-2.08,3.5-3.08,5.27-1.96,3.8-3.92,7.6-5.88,11.4-.08-.28-.12-.56-.15-.84-1.09-8.07-.57-16.37,1.6-24.22,2.67-9.76,7.87-18.81,14.92-26.06,4.32-4.45,9.31-8.23,14.77-11.17Z"/>
  <path class="cls-6" d="M53.88,10.49c8.74-4.72,18.67-7.21,28.6-7.2,5.95-.02,11.89.85,17.58,2.57,8.37,2.52,16.16,6.89,22.69,12.7,5.49,4.88,10.1,10.76,13.49,17.28,4.39,8.39,6.76,17.85,6.81,27.33.1,7.38-1.19,14.78-3.77,21.69-1.79,4.8-4.19,9.37-7.13,13.56-.19.27-.36.56-.61.77-.42-1.06-.1-2.2.12-3.26.46-2.05.95-4.09,1.37-6.15.07-.6.16-1.21.03-1.81-.15-.97-.9-1.75-1.77-2.17-.9-.28-1.85-.14-2.75.06-1.84.57-3.44,1.69-5.01,2.77-1.21.94-2.41,1.91-3.61,2.87-1.77,1.52-3.46,3.13-5.24,4.64.47-1.95,1.04-3.86,1.61-5.78.14-.47.14-.96.21-1.44.05-.3.1-.61.04-.9-.09-.41-.08-.86-.29-1.24-.19-.34-.37-.72-.74-.92-.51-.39-1.14-.63-1.79-.61-.79,0-1.52.3-2.23.59-.49.19-.92.5-1.37.77-1.83,1.19-3.66,2.4-5.5,3.59-.63.34-1.21.77-1.81,1.17-1.09.74-2.19,1.48-3.28,2.23-.63.47-1.23.97-1.88,1.43.86-2.1,1.8-4.15,2.77-6.19.1-.19.24-.36.34-.54.36-.81.85-1.56,1.26-2.34.61-1.21,1.43-2.3,2.12-3.46-.88.27-1.75.54-2.62.82-1.21.43-2.39.91-3.59,1.38-.25.08-.38.32-.49.54-.27.51-.58,1-.82,1.53-.51,1.1-1.07,2.19-1.61,3.28-.18.38-.5.66-.77.96-1.77,1.93-3.52,3.89-5.52,5.59-.55.49-1.1.98-1.72,1.37-.59.47-1.29.77-1.99,1.03-.52.17-1.07.35-1.63.26-.3-.03-.65-.23-.64-.57-.12-1.02.08-2.04.39-3.01.26-.86.53-1.73.88-2.56.63-1.29,1.21-2.61,1.98-3.82,1.21-1.99,2.47-3.97,3.55-6.04-1.1.1-2.21.26-3.3.41-.61.1-1.19.29-1.79.43-.25.07-.54.1-.7.34-.63.88-1.19,1.81-1.72,2.75-.46.97-.99,1.91-1.48,2.87-.46.83-.8,1.72-1.2,2.59-.22.48-.46.97-.59,1.49-.39,1.46-.97,2.89-.97,4.41-.02.52-.05,1.06.09,1.57.14.63.47,1.2.81,1.74.45.73,1.23,1.19,2.05,1.41.59.08,1.19.3,1.79.21.37-.05.74-.1,1.1-.14.56-.07,1.03-.38,1.56-.57.66-.25,1.21-.71,1.81-1.09.68-.43,1.3-.94,1.95-1.43.98-.7,1.74-1.64,2.66-2.41-.39,1.38-.92,2.73-1.12,4.16-.04.46.25.83.5,1.17.26.42.74.63,1.19.78.55-.14,1.14-.32,1.54-.74.83-.83,1.63-1.68,2.46-2.51.59-.64,1.28-1.17,1.91-1.75.74-.64,1.46-1.32,2.24-1.9,1.3-.99,2.57-2.01,3.94-2.89,1.76-1.18,3.54-2.34,5.26-3.57.7-.54,1.35-1.16,2.12-1.62.12.82-.31,1.58-.59,2.32-.17.48-.39.95-.55,1.43-.48,2.02-1.12,4-1.57,6.03-.22.71-.23,1.46-.24,2.2,0,.67.21,1.32.53,1.9.43.52,1.09.86,1.77.94.34,0,.64-.17.94-.31.46-.21.7-.68,1.03-1.03,1.06-1.1,2.16-2.17,3.23-3.26.7-.73,1.49-1.36,2.26-2.02.77-.59,1.51-1.22,2.34-1.73.97-.64,1.95-1.28,2.92-1.91.96-.7,1.93-1.38,2.9-2.06.43-.3.83-.62,1.28-.88-.3,1.37-.7,2.7-.99,4.06-.14.67-.37,1.32-.38,2.01-.04,1.01-.19,2.02-.08,3.03.33,1.28.92,2.61,2.08,3.33-.43.66-1.02,1.2-1.53,1.79-.61.65-1.25,1.28-1.88,1.92-4.59,4.58-9.96,8.39-15.77,11.26-8.15,4.03-17.21,6.17-26.29,6.21-7.99.08-16.01-1.45-23.4-4.48-8.24-3.36-15.69-8.58-21.7-15.13-3.68-4.02-6.84-8.53-9.3-13.39-1.54-2.99-2.79-6.11-3.82-9.3,2.48-4.67,5.05-9.3,7.57-13.95.43-.82.92-1.61,1.38-2.41.24-.43.54-.86.93-1.17.21,0,.17.29.21.43.12,2.15.34,4.28.7,6.39.46,3.12.94,6.24,1.42,9.35.35,1.39.79,2.75,1.09,4.15.3,1.39.66,2.76,1.06,4.12,1.01,2.62,2.23,5.15,3.41,7.7.44.98.99,1.9,1.5,2.84.88,1.53,1.97,3.03,3.54,3.92.7.46,1.59.54,2.41.37.89-.32,1.74-.83,2.35-1.57.4-.52.88-.99,1.17-1.59.34-.69.76-1.34,1.06-2.05,1.79-5.41,3.56-10.82,5.35-16.23.99-3.04,1.98-6.09,2.93-9.15-.03,0-.08.02-.11.03.26-.14.5-.28.73-.46.37.1.75.06,1.12.06,3.52,0,7.04,0,10.55,0-2.48,7.74-4.96,15.48-7.44,23.22-.83,2.61-1.7,5.21-2.5,7.84,2.15-.02,4.29,0,6.43-.01,3.15-10.15,6.35-20.29,9.51-30.45.06-.19.12-.39.19-.58,5.61,0,11.22,0,16.84.03,2.14.01,4.27.01,6.41,0-.41,1.23-.83,2.47-1.19,3.72.3-.06.59-.15.88-.26,5.59-1.79,11.19-3.57,16.79-5.36,1.36-.44,2.73-.86,4.08-1.32-5.87-2.26-11.72-4.59-17.59-6.86-.47,1.49-.92,2.99-1.38,4.49-13.22.01-26.45,0-39.67,0-.44,0-.88-.03-1.32.03-.09-.25-.19-.49-.3-.73.2-.28.26-.61.36-.93,4.03-12.51,7.89-25.08,11.84-37.61.07-.22.13-.43.19-.65,2.12-.03,4.24,0,6.35-.01-.83-7.26-1.74-14.52-2.58-21.78-5.8,7.17-11.58,14.37-17.36,21.56,2.26.02,4.52-.02,6.77.01-.12.43-.25.86-.39,1.28-3.38,10.61-6.73,21.23-10.11,31.84-.32.94-.62,1.9-.93,2.86-.11.38-.29.75-.32,1.15-1.67.64-2.88,2.28-3.03,4.06-.12,1.05.16,2.12.7,3.03-.35.96-.63,1.94-.96,2.9-.71,2.25-1.47,4.48-2.17,6.73-.97,2.89-1.98,5.76-2.95,8.64-.48,1.28-.92,2.57-1.44,3.83-.43-.81-.83-1.65-1.14-2.52-.85-2.15-1.68-4.3-2.5-6.47-.7-2.12-1.34-4.25-1.95-6.39-.79-3.43-1.54-6.86-2.18-10.31-.16-1.41-.2-2.83-.33-4.25-.01-2.58-.02-5.16.25-7.73.23-1.66.46-3.36,1.32-4.83.48-.74.99-1.47,1.62-2.09.46-.57,1.21-.81,1.59-1.46.32-.6.43-1.36.08-1.97-.54-.9-1.36-1.62-2.28-2.15-.7-.5-1.61-.87-2.48-.63-.54.11-.96.5-1.39.81-1.86,1.79-3.1,4.13-3.92,6.56-.21.85-.37,1.72-.72,2.54-.34.58-.74,1.12-1.24,1.58-.63.68-1.3,1.32-1.92,2.01-1.15,1.68-2.08,3.5-3.08,5.27-1.96,3.8-3.92,7.6-5.88,11.4-.08-.28-.12-.56-.15-.84-1.09-8.07-.57-16.37,1.6-24.22,2.67-9.76,7.87-18.81,14.92-26.06,4.32-4.45,9.31-8.23,14.77-11.17Z"/>
  <path class="cls-10" d="M63.71,27.06c5.78-7.19,11.56-14.39,17.36-21.56.84,7.26,1.75,14.52,2.58,21.78-2.11,0-4.23-.01-6.35.01-.06.21-.12.43-.19.65-3.95,12.53-7.81,25.1-11.84,37.61-.1.32-.16.66-.36.93-.79-1.55-2.48-2.65-4.24-2.66-.67-.02-1.34.1-1.95.37.03-.4.21-.77.32-1.15.31-.95.61-1.91.93-2.86,3.38-10.61,6.73-21.23,10.11-31.84.14-.42.27-.85.39-1.28-2.26-.03-4.52,0-6.77-.01Z"/>
  <path class="cls-4" d="M63.71,27.06c5.78-7.19,11.56-14.39,17.36-21.56.84,7.26,1.75,14.52,2.58,21.78-2.11,0-4.23-.01-6.35.01-.06.21-.12.43-.19.65-3.95,12.53-7.81,25.1-11.84,37.61-.1.32-.16.66-.36.93-.79-1.55-2.48-2.65-4.24-2.66-.67-.02-1.34.1-1.95.37.03-.4.21-.77.32-1.15.31-.95.61-1.91.93-2.86,3.38-10.61,6.73-21.23,10.11-31.84.14-.42.27-.85.39-1.28-2.26-.03-4.52,0-6.77-.01Z"/>
  <path class="cls-7" d="M86.3,27.89c1.62-.3,3.37.4,4.35,1.73.81,1.06,1.1,2.49.76,3.78-.28,1.14-1.05,2.17-2.07,2.76-1.14.68-2.6.81-3.84.34-1.77-.63-3.01-2.48-2.9-4.37.03-2.06,1.68-3.92,3.71-4.24Z"/>
  <path class="cls-2" d="M86.3,27.89c1.62-.3,3.37.4,4.35,1.73.81,1.06,1.1,2.49.76,3.78-.28,1.14-1.05,2.17-2.07,2.76-1.14.68-2.6.81-3.84.34-1.77-.63-3.01-2.48-2.9-4.37.03-2.06,1.68-3.92,3.71-4.24Z"/>
  <path class="cls-10" d="M14.32,40.39c.98-.62,1.9-1.52,3.12-1.59.81-.02,1.61-.01,2.41,0,.57,0,.99.57.95,1.12-.03.72-.04,1.46-.25,2.16-.63,2.14-1.13,4.31-1.66,6.48-.29,1.52-.56,3.04-.88,4.55-.32,1.88-.58,3.77-.9,5.66-.57,4.3-1.09,8.59-1.68,12.89-.28,2.37-.65,4.74-.89,7.12-.17,1.23-.28,2.48-.43,3.72-.16.91-.17,1.84-.28,2.76-.05.52-.14,1.06-.1,1.59.05.64-.07,1.32.2,1.93.42-.06.59-.48.77-.81,1.3-2.28,2.55-4.58,3.79-6.88,1.14-2.24,2.28-4.48,3.43-6.72.27-.52.54-1.04.8-1.57,1.96-3.8,3.92-7.6,5.88-11.4,1-1.77,1.92-3.59,3.08-5.27.62-.69,1.3-1.32,1.92-2.01.5-.46.9-1,1.24-1.58.35-.81.5-1.69.72-2.54.82-2.43,2.06-4.77,3.92-6.56.43-.32.85-.7,1.39-.81.87-.24,1.78.12,2.48.63.92.52,1.73,1.24,2.28,2.15.36.61.24,1.37-.08,1.97-.37.64-1.13.88-1.59,1.46-.63.62-1.14,1.35-1.62,2.09-.86,1.47-1.1,3.17-1.32,4.83-.27,2.57-.26,5.15-.25,7.73.13,1.41.17,2.83.33,4.25.64,3.45,1.39,6.88,2.18,10.31.61,2.15,1.25,4.28,1.95,6.39.81,2.17,1.65,4.32,2.5,6.47.32.87.72,1.7,1.14,2.52.52-1.26.96-2.55,1.44-3.83.97-2.88,1.98-5.75,2.95-8.64.7-2.24,1.46-4.48,2.17-6.73.33-.97.61-1.95.96-2.9.88,1.46,2.57,2.38,4.28,2.32.72.01,1.43-.17,2.08-.5.03,0,.08-.02.11-.03-.95,3.06-1.94,6.1-2.93,9.15-1.79,5.41-3.56,10.82-5.35,16.23-.3.71-.72,1.36-1.06,2.05-.29.59-.77,1.07-1.17,1.59-.61.74-1.46,1.25-2.35,1.57-.81.17-1.7.08-2.41-.37-1.57-.88-2.66-2.39-3.54-3.92-.5-.94-1.06-1.86-1.5-2.84-1.17-2.55-2.39-5.08-3.41-7.7-.4-1.36-.76-2.73-1.06-4.12-.3-1.4-.74-2.76-1.09-4.15-.48-3.12-.96-6.24-1.42-9.35-.37-2.11-.58-4.24-.7-6.39-.04-.14,0-.43-.21-.43-.39.31-.69.73-.93,1.17-.46.81-.94,1.59-1.38,2.41-2.52,4.65-5.09,9.28-7.57,13.95-.19.34-.37.68-.54,1.01-1.66,3.12-3.32,6.21-4.97,9.34-1.2,2.57-2.39,5.16-3.86,7.59-.52.63-1.1,1.23-1.83,1.62-.69.41-1.46,1.02-2.31.7-.8-.15-1.5-.59-2.21-.94-.74-.5-1.43-1.13-1.88-1.91-.17-.47-.16-.98-.15-1.48.03-4.21.25-8.42.58-12.62.14-2.28.29-4.55.43-6.84.05-1.1.24-2.2.28-3.31.42-4.3.72-8.61,1.26-12.89.3-3.05.63-6.1,1.03-9.15.19-1.15.28-2.32.48-3.48.1-1.68.41-3.34.35-5.03.02-.42-.05-.9.21-1.26.25-.37.44-.79.77-1.09.23-.21.39-.48.61-.7.42-.36.77-.81,1.25-1.1Z"/>
  <path class="cls-4" d="M14.32,40.39c.98-.62,1.9-1.52,3.12-1.59.81-.02,1.61-.01,2.41,0,.57,0,.99.57.95,1.12-.03.72-.04,1.46-.25,2.16-.63,2.14-1.13,4.31-1.66,6.48-.29,1.52-.56,3.04-.88,4.55-.32,1.88-.58,3.77-.9,5.66-.57,4.3-1.09,8.59-1.68,12.89-.28,2.37-.65,4.74-.89,7.12-.17,1.23-.28,2.48-.43,3.72-.16.91-.17,1.84-.28,2.76-.05.52-.14,1.06-.1,1.59.05.64-.07,1.32.2,1.93.42-.06.59-.48.77-.81,1.3-2.28,2.55-4.58,3.79-6.88,1.14-2.24,2.28-4.48,3.43-6.72.27-.52.54-1.04.8-1.57,1.96-3.8,3.92-7.6,5.88-11.4,1-1.77,1.92-3.59,3.08-5.27.62-.69,1.3-1.32,1.92-2.01.5-.46.9-1,1.24-1.58.35-.81.5-1.69.72-2.54.82-2.43,2.06-4.77,3.92-6.56.43-.32.85-.7,1.39-.81.87-.24,1.78.12,2.48.63.92.52,1.73,1.24,2.28,2.15.36.61.24,1.37-.08,1.97-.37.64-1.13.88-1.59,1.46-.63.62-1.14,1.35-1.62,2.09-.86,1.47-1.1,3.17-1.32,4.83-.27,2.57-.26,5.15-.25,7.73.13,1.41.17,2.83.33,4.25.64,3.45,1.39,6.88,2.18,10.31.61,2.15,1.25,4.28,1.95,6.39.81,2.17,1.65,4.32,2.5,6.47.32.87.72,1.7,1.14,2.52.52-1.26.96-2.55,1.44-3.83.97-2.88,1.98-5.75,2.95-8.64.7-2.24,1.46-4.48,2.17-6.73.33-.97.61-1.95.96-2.9.88,1.46,2.57,2.38,4.28,2.32.72.01,1.43-.17,2.08-.5.03,0,.08-.02.11-.03-.95,3.06-1.94,6.1-2.93,9.15-1.79,5.41-3.56,10.82-5.35,16.23-.3.71-.72,1.36-1.06,2.05-.29.59-.77,1.07-1.17,1.59-.61.74-1.46,1.25-2.35,1.57-.81.17-1.7.08-2.41-.37-1.57-.88-2.66-2.39-3.54-3.92-.5-.94-1.06-1.86-1.5-2.84-1.17-2.55-2.39-5.08-3.41-7.7-.4-1.36-.76-2.73-1.06-4.12-.3-1.4-.74-2.76-1.09-4.15-.48-3.12-.96-6.24-1.42-9.35-.37-2.11-.58-4.24-.7-6.39-.04-.14,0-.43-.21-.43-.39.31-.69.73-.93,1.17-.46.81-.94,1.59-1.38,2.41-2.52,4.65-5.09,9.28-7.57,13.95-.19.34-.37.68-.54,1.01-1.66,3.12-3.32,6.21-4.97,9.34-1.2,2.57-2.39,5.16-3.86,7.59-.52.63-1.1,1.23-1.83,1.62-.69.41-1.46,1.02-2.31.7-.8-.15-1.5-.59-2.21-.94-.74-.5-1.43-1.13-1.88-1.91-.17-.47-.16-.98-.15-1.48.03-4.21.25-8.42.58-12.62.14-2.28.29-4.55.43-6.84.05-1.1.24-2.2.28-3.31.42-4.3.72-8.61,1.26-12.89.3-3.05.63-6.1,1.03-9.15.19-1.15.28-2.32.48-3.48.1-1.68.41-3.34.35-5.03.02-.42-.05-.9.21-1.26.25-.37.44-.79.77-1.09.23-.21.39-.48.61-.7.42-.36.77-.81,1.25-1.1Z"/>
  <path class="cls-7" d="M82.29,40.36c1.56-.37,3.1-.84,4.66-1.19-1.35,2.3-2.68,4.61-4.03,6.93-.48.86-.94,1.72-1.41,2.59-1.14,1.97-2.3,3.9-3.46,5.85-.4.75-.78,1.52-1.17,2.28-.43.77-.68,1.63-.74,2.5,0,.35.01.74.23,1.02,1.05.29,2.08-.22,3.04-.57,2.32-1.12,4.46-2.6,6.46-4.22,1.46-1.3,2.9-2.62,4.35-3.93.21-.2.47-.39.6-.66.38-.83.72-1.69,1.13-2.51.52-.97.96-1.99,1.59-2.9.32-.5.64-1.01.97-1.5.18-.3.54-.34.83-.48.76-.26,1.5-.59,2.29-.75,1.4-.33,2.78-.72,4.19-1.02-.13.3-.32.57-.49.86-1.35,2.23-2.69,4.48-4.03,6.73-.77,1.5-1.5,3.01-2.23,4.52-.36.66-.65,1.35-.92,2.03,1.24-.89,2.45-1.83,3.68-2.74.9-.69,1.86-1.31,2.78-1.97,2.55-1.77,5.1-3.54,7.66-5.31.59-.41,1.23-.74,1.84-1.12,1.14-.67,2.29-1.44,3.63-1.55.6.06,1.13.39,1.59.76.21.37.41.76.56,1.17.2.87.41,1.74.43,2.63-.05.72-.39,1.37-.6,2.05-.31,1.04-.68,2.06-.96,3.11-.3,1.56-.68,3.11-.77,4.7-.1.64-.12,1.3.12,1.92.14.33.43.61.79.66.44.1.87-.09,1.29-.19.38-.1.67-.38.99-.59.5-.37,1.04-.7,1.49-1.13.74-.68,1.5-1.36,2.23-2.04,1.18-1.17,2.34-2.35,3.52-3.51.5.46,1.02.91,1.52,1.37-.79.87-1.53,1.78-2.33,2.64-1.33,1.3-2.68,2.57-4.05,3.81-.96.74-1.81,1.63-2.89,2.21-1.04.63-2.1,1.37-3.35,1.49-1.52.08-3.02-.78-3.8-2.08-.75-1.39-.73-3.02-.7-4.56-.06-.86.18-1.7.3-2.55.22-1.03.48-2.06.7-3.1.35-.86.96-1.61,1.09-2.56-.3.15-.57.35-.83.55-4.99,3.68-9.9,7.44-14.86,11.15-1.04.81-1.88,1.88-2.99,2.6-.57.37-1.28.37-1.94.3-.59-.12-1.1-.43-1.63-.71-.26-.13-.38-.41-.53-.64-.42-.63-.37-1.42-.26-2.13.08-1.09.47-2.12.67-3.19-.9.72-1.75,1.51-2.66,2.23-1.32.92-2.62,1.86-4,2.69-.74.51-1.56.88-2.35,1.3-.77.45-1.64.63-2.48.9-.91.16-1.85.47-2.77.23-.41-.12-.85-.2-1.2-.45-.62-.42-1.26-.86-1.68-1.5-.57-1.06-.79-2.31-.57-3.49.12-.73.15-1.49.41-2.2.24-.7.39-1.44.68-2.14.51-1.12.94-2.28,1.54-3.36,1.04-2.02,2.15-4.01,3.23-6.01.44-.81.81-1.68,1.23-2.5.31-.51.66-1.01.96-1.52.09-.19.31-.22.48-.28.97-.3,1.92-.66,2.9-.94Z"/>
  <path class="cls-2" d="M82.29,40.36c1.56-.37,3.1-.84,4.66-1.19-1.35,2.3-2.68,4.61-4.03,6.93-.48.86-.94,1.72-1.41,2.59-1.14,1.97-2.3,3.9-3.46,5.85-.4.75-.78,1.52-1.17,2.28-.43.77-.68,1.63-.74,2.5,0,.35.01.74.23,1.02,1.05.29,2.08-.22,3.04-.57,2.32-1.12,4.46-2.6,6.46-4.22,1.46-1.3,2.9-2.62,4.35-3.93.21-.2.47-.39.6-.66.38-.83.72-1.69,1.13-2.51.52-.97.96-1.99,1.59-2.9.32-.5.64-1.01.97-1.5.18-.3.54-.34.83-.48.76-.26,1.5-.59,2.29-.75,1.4-.33,2.78-.72,4.19-1.02-.13.3-.32.57-.49.86-1.35,2.23-2.69,4.48-4.03,6.73-.77,1.5-1.5,3.01-2.23,4.52-.36.66-.65,1.35-.92,2.03,1.24-.89,2.45-1.83,3.68-2.74.9-.69,1.86-1.31,2.78-1.97,2.55-1.77,5.1-3.54,7.66-5.31.59-.41,1.23-.74,1.84-1.12,1.14-.67,2.29-1.44,3.63-1.55.6.06,1.13.39,1.59.76.21.37.41.76.56,1.17.2.87.41,1.74.43,2.63-.05.72-.39,1.37-.6,2.05-.31,1.04-.68,2.06-.96,3.11-.3,1.56-.68,3.11-.77,4.7-.1.64-.12,1.3.12,1.92.14.33.43.61.79.66.44.1.87-.09,1.29-.19.38-.1.67-.38.99-.59.5-.37,1.04-.7,1.49-1.13.74-.68,1.5-1.36,2.23-2.04,1.18-1.17,2.34-2.35,3.52-3.51.5.46,1.02.91,1.52,1.37-.79.87-1.53,1.78-2.33,2.64-1.33,1.3-2.68,2.57-4.05,3.81-.96.74-1.81,1.63-2.89,2.21-1.04.63-2.1,1.37-3.35,1.49-1.52.08-3.02-.78-3.8-2.08-.75-1.39-.73-3.02-.7-4.56-.06-.86.18-1.7.3-2.55.22-1.03.48-2.06.7-3.1.35-.86.96-1.61,1.09-2.56-.3.15-.57.35-.83.55-4.99,3.68-9.9,7.44-14.86,11.15-1.04.81-1.88,1.88-2.99,2.6-.57.37-1.28.37-1.94.3-.59-.12-1.1-.43-1.63-.71-.26-.13-.38-.41-.53-.64-.42-.63-.37-1.42-.26-2.13.08-1.09.47-2.12.67-3.19-.9.72-1.75,1.51-2.66,2.23-1.32.92-2.62,1.86-4,2.69-.74.51-1.56.88-2.35,1.3-.77.45-1.64.63-2.48.9-.91.16-1.85.47-2.77.23-.41-.12-.85-.2-1.2-.45-.62-.42-1.26-.86-1.68-1.5-.57-1.06-.79-2.31-.57-3.49.12-.73.15-1.49.41-2.2.24-.7.39-1.44.68-2.14.51-1.12.94-2.28,1.54-3.36,1.04-2.02,2.15-4.01,3.23-6.01.44-.81.81-1.68,1.23-2.5.31-.51.66-1.01.96-1.52.09-.19.31-.22.48-.28.97-.3,1.92-.66,2.9-.94Z"/>
  <path class="cls-10" d="M107.59,62.7c5.87,2.27,11.72,4.6,17.59,6.86-1.35.46-2.72.88-4.08,1.32-5.6,1.79-11.19,3.57-16.79,5.36-.29.1-.59.19-.88.26.35-1.25.78-2.48,1.19-3.72-2.14,0-4.27,0-6.41,0-5.61-.04-11.22-.04-16.84-.03-.07.19-.13.39-.19.58-3.16,10.15-6.36,20.29-9.51,30.45-2.14.02-4.28,0-6.43.01.8-2.62,1.67-5.22,2.5-7.84,2.48-7.74,4.96-15.48,7.44-23.22-3.52,0-7.04,0-10.55,0-.37,0-.76.04-1.12-.06,1.65-1.2,2.41-3.49,1.73-5.43.44-.06.88-.03,1.32-.03,13.22,0,26.45,0,39.67,0,.46-1.5.91-3,1.38-4.49Z"/>
  <path class="cls-4" d="M107.59,62.7c5.87,2.27,11.72,4.6,17.59,6.86-1.35.46-2.72.88-4.08,1.32-5.6,1.79-11.19,3.57-16.79,5.36-.29.1-.59.19-.88.26.35-1.25.78-2.48,1.19-3.72-2.14,0-4.27,0-6.41,0-5.61-.04-11.22-.04-16.84-.03-.07.19-.13.39-.19.58-3.16,10.15-6.36,20.29-9.51,30.45-2.14.02-4.28,0-6.43.01.8-2.62,1.67-5.22,2.5-7.84,2.48-7.74,4.96-15.48,7.44-23.22-3.52,0-7.04,0-10.55,0-.37,0-.76.04-1.12-.06,1.65-1.2,2.41-3.49,1.73-5.43.44-.06.88-.03,1.32-.03,13.22,0,26.45,0,39.67,0,.46-1.5.91-3,1.38-4.49Z"/>
  <path class="cls-8" d="M19.03,65.17c.08-.58.13-1.17.24-1.74.05,1.08,0,2.17.09,3.26.08,1.84.26,3.68.52,5.5.03.21-.12.4-.21.59-.72,1.39-1.42,2.8-2.15,4.19,0-.3.04-.59.08-.88.48-3.64.95-7.28,1.43-10.93Z"/>
  <path class="cls-1" d="M19.03,65.17c.08-.58.13-1.17.24-1.74.05,1.08,0,2.17.09,3.26.08,1.84.26,3.68.52,5.5.03.21-.12.4-.21.59-.72,1.39-1.42,2.8-2.15,4.19,0-.3.04-.59.08-.88.48-3.64.95-7.28,1.43-10.93Z"/>
  <path class="cls-11" d="M58.73,64.21c.61-.27,1.28-.39,1.95-.37,1.76,0,3.44,1.1,4.24,2.66.12.24.21.48.3.73.68,1.94-.08,4.23-1.73,5.43-.23.17-.48.32-.73.46-.64.33-1.35.52-2.08.5-1.71.06-3.4-.86-4.28-2.32-.54-.9-.81-1.98-.7-3.03.15-1.77,1.36-3.41,3.03-4.06Z"/>
  <path class="cls-5" d="M58.73,64.21c.61-.27,1.28-.39,1.95-.37,1.76,0,3.44,1.1,4.24,2.66.12.24.21.48.3.73.68,1.94-.08,4.23-1.73,5.43-.23.17-.48.32-.73.46-.64.33-1.35.52-2.08.5-1.71.06-3.4-.86-4.28-2.32-.54-.9-.81-1.98-.7-3.03.15-1.77,1.36-3.41,3.03-4.06Z"/>
  <path class="cls-10" d="M59.81,65.21c.68-.12,1.39-.1,2.03.17,1.41.52,2.41,2.01,2.31,3.52-.02,1.84-1.7,3.47-3.55,3.43-1.53.06-3.01-1.01-3.46-2.48-.21-.53-.21-1.12-.15-1.68.22-1.43,1.38-2.67,2.81-2.97Z"/>
  <path class="cls-4" d="M59.81,65.21c.68-.12,1.39-.1,2.03.17,1.41.52,2.41,2.01,2.31,3.52-.02,1.84-1.7,3.47-3.55,3.43-1.53.06-3.01-1.01-3.46-2.48-.21-.53-.21-1.12-.15-1.68.22-1.43,1.38-2.67,2.81-2.97Z"/>
  <path class="cls-11" d="M19,69.57c.15.77.18,1.57.3,2.36.08.37-.16.68-.32.99-.2.36-.34.74-.57,1.08.19-1.48.37-2.96.58-4.43Z"/>
  <path class="cls-5" d="M19,69.57c.15.77.18,1.57.3,2.36.08.37-.16.68-.32.99-.2.36-.34.74-.57,1.08.19-1.48.37-2.96.58-4.43Z"/>
  <path class="cls-7" d="M88.16,73.33c1.83-.23,3.68,1.06,4.15,2.84.48,1.54-.15,3.32-1.46,4.26-.93.71-2.19.93-3.31.63-1.7-.43-2.97-2.13-2.88-3.9-.02-1.92,1.59-3.68,3.5-3.84Z"/>
  <path class="cls-2" d="M88.16,73.33c1.83-.23,3.68,1.06,4.15,2.84.48,1.54-.15,3.32-1.46,4.26-.93.71-2.19.93-3.31.63-1.7-.43-2.97-2.13-2.88-3.9-.02-1.92,1.59-3.68,3.5-3.84Z"/>
  <path class="cls-7" d="M154.48,77.87c.71-.04,1.42-.18,2.13-.07.42.06.86.02,1.26.2.54.21,1.09.48,1.43.97.32.43.66.87.79,1.4.19,1.75-.42,3.5-1.36,4.97-.51.6-.99,1.22-1.52,1.8-.57.49-1.12.99-1.7,1.47-.71.46-1.44.9-2.17,1.35-.68.35-1.39.67-2.08,1.02-.77.29-1.57.43-2.35.68-.34.11-.7.13-1.06.17-.76.06-1.51.18-2.27.14-.21-.03-.29.19-.39.33-.23.41-.64.77-.58,1.28-.18,1.21.04,2.48.68,3.52.33.4.68.8,1.08,1.13.97.58,2.15.88,3.27.63.47-.08.93-.17,1.39-.32.4-.13.83-.17,1.2-.39.63-.35,1.34-.6,1.92-1.04,1.41-.97,2.79-1.99,4.12-3.06,1.07-.92,2.1-1.89,3.1-2.9.77-.79,1.59-1.55,2.32-2.37,1.17-1.27,2.36-2.52,3.49-3.82.48-.44.79-1.05,1.37-1.39.37-.14.74-.26,1.1-.41.41.61,1.12,1.06,1.21,1.84-.36.53-.65,1.11-1.1,1.57-.92,1.12-1.94,2.17-2.91,3.23-2.19,2.42-4.53,4.72-6.93,6.94-.73.72-1.58,1.32-2.37,1.97-.98.83-2.08,1.5-3.14,2.25-.45.33-.96.56-1.43.83-.7.37-1.37.8-2.12,1.06-.72.37-1.55.45-2.32.7-1,.34-2.07.24-3.1.19-.36-.05-.68-.22-1.03-.31-.63-.14-1.16-.54-1.72-.85-.5-.39-1.07-.72-1.41-1.28-.5-.64-.83-1.39-1.21-2.1-.78.69-1.66,1.24-2.49,1.87-.48.39-1.05.66-1.59.97-.52.27-1.01.59-1.56.79-.75.29-1.49.69-2.3.78-.46.04-.91.23-1.38.17-.49-.07-.97-.16-1.44-.32-.3-.1-.55-.28-.81-.45-1.16-.72-1.75-2.06-2.08-3.33-.12-1.01.03-2.02.08-3.03,0-.69.24-1.34.38-2.01.3-1.36.69-2.7.99-4.06-.46.26-.86.58-1.28.88-.97.68-1.94,1.37-2.9,2.06-.98.63-1.95,1.27-2.92,1.91-.83.51-1.57,1.14-2.34,1.73-.77.66-1.56,1.29-2.26,2.02-1.08,1.09-2.17,2.15-3.23,3.26-.34.34-.57.82-1.03,1.03-.3.14-.61.32-.94.31-.68-.08-1.33-.41-1.77-.94-.32-.58-.53-1.23-.53-1.9.01-.74.02-1.49.24-2.2.45-2.03,1.08-4.01,1.57-6.03.17-.48.38-.95.55-1.43.28-.74.7-1.5.59-2.32-.77.46-1.41,1.08-2.12,1.62-1.72,1.23-3.5,2.39-5.26,3.57-1.37.88-2.64,1.9-3.94,2.89-.79.58-1.5,1.26-2.24,1.9-.63.58-1.32,1.1-1.91,1.75-.83.83-1.63,1.68-2.46,2.51-.4.43-.99.6-1.54.74-.45-.15-.92-.36-1.19-.78-.25-.34-.54-.72-.5-1.17.2-1.43.73-2.78,1.12-4.16-.92.77-1.68,1.71-2.66,2.41-.64.49-1.26,1.01-1.95,1.43-.59.38-1.14.84-1.81,1.09-.52.19-1,.5-1.56.57-.37.05-.74.1-1.1.14-.61.09-1.2-.13-1.79-.21-.81-.22-1.6-.68-2.05-1.41-.34-.54-.67-1.1-.81-1.74-.14-.51-.11-1.05-.09-1.57,0-1.52.58-2.96.97-4.41.13-.52.37-1.01.59-1.49.4-.87.74-1.75,1.2-2.59.5-.96,1.02-1.9,1.48-2.87.54-.94,1.1-1.87,1.72-2.75.15-.24.45-.27.7-.34.6-.14,1.18-.33,1.79-.43,1.1-.16,2.2-.31,3.3-.41-1.08,2.07-2.33,4.04-3.55,6.04-.77,1.21-1.35,2.53-1.98,3.82-.35.83-.62,1.7-.88,2.56-.3.97-.51,1.99-.39,3.01,0,.34.34.54.64.57.56.1,1.1-.09,1.63-.26.7-.26,1.4-.57,1.99-1.03.63-.39,1.17-.88,1.72-1.37,2-1.7,3.76-3.66,5.52-5.59.28-.3.59-.58.77-.96.54-1.09,1.1-2.17,1.61-3.28.24-.53.55-1.02.82-1.53.11-.22.24-.46.49-.54,1.19-.47,2.38-.95,3.59-1.38.88-.28,1.75-.55,2.62-.82-.7,1.16-1.52,2.25-2.12,3.46-.41.78-.9,1.52-1.26,2.34-.1.19-.24.35-.34.54-.97,2.04-1.91,4.1-2.77,6.19.64-.46,1.24-.96,1.88-1.43,1.09-.75,2.19-1.48,3.28-2.23.6-.4,1.18-.82,1.81-1.17,1.84-1.19,3.67-2.4,5.5-3.59.45-.28.88-.58,1.37-.77.71-.29,1.44-.59,2.23-.59.65-.02,1.28.21,1.79.61.37.2.55.58.74.92.21.38.2.83.29,1.24.06.3,0,.61-.04.9-.07.48-.06.97-.21,1.44-.57,1.92-1.14,3.84-1.61,5.78,1.79-1.5,3.48-3.11,5.24-4.64,1.2-.96,2.4-1.92,3.61-2.87,1.57-1.08,3.17-2.2,5.01-2.77.9-.21,1.85-.34,2.75-.06.86.42,1.61,1.19,1.77,2.17.12.6.03,1.21-.03,1.81-.42,2.06-.91,4.1-1.37,6.15-.23,1.06-.54,2.21-.12,3.26.11.3.34.54.66.61.39.1.81.12,1.21,0,.79-.3,1.59-.6,2.31-1.06.72-.58,1.48-1.14,2.22-1.7.58-.52,1.18-1.02,1.75-1.55.08-.48.08-.96.23-1.42.21-1.19.65-2.33,1.12-3.44.37-.76.79-1.49,1.14-2.25.39-.63.81-1.26,1.21-1.89,1.77-2.21,3.72-4.3,6-6,1.24-1.01,2.67-1.77,4.17-2.31.3-.11.6-.28.93-.3Z"/>
  <path class="cls-2" d="M154.48,77.87c.71-.04,1.42-.18,2.13-.07.42.06.86.02,1.26.2.54.21,1.09.48,1.43.97.32.43.66.87.79,1.4.19,1.75-.42,3.5-1.36,4.97-.51.6-.99,1.22-1.52,1.8-.57.49-1.12.99-1.7,1.47-.71.46-1.44.9-2.17,1.35-.68.35-1.39.67-2.08,1.02-.77.29-1.57.43-2.35.68-.34.11-.7.13-1.06.17-.76.06-1.51.18-2.27.14-.21-.03-.29.19-.39.33-.23.41-.64.77-.58,1.28-.18,1.21.04,2.48.68,3.52.33.4.68.8,1.08,1.13.97.58,2.15.88,3.27.63.47-.08.93-.17,1.39-.32.4-.13.83-.17,1.2-.39.63-.35,1.34-.6,1.92-1.04,1.41-.97,2.79-1.99,4.12-3.06,1.07-.92,2.1-1.89,3.1-2.9.77-.79,1.59-1.55,2.32-2.37,1.17-1.27,2.36-2.52,3.49-3.82.48-.44.79-1.05,1.37-1.39.37-.14.74-.26,1.1-.41.41.61,1.12,1.06,1.21,1.84-.36.53-.65,1.11-1.1,1.57-.92,1.12-1.94,2.17-2.91,3.23-2.19,2.42-4.53,4.72-6.93,6.94-.73.72-1.58,1.32-2.37,1.97-.98.83-2.08,1.5-3.14,2.25-.45.33-.96.56-1.43.83-.7.37-1.37.8-2.12,1.06-.72.37-1.55.45-2.32.7-1,.34-2.07.24-3.1.19-.36-.05-.68-.22-1.03-.31-.63-.14-1.16-.54-1.72-.85-.5-.39-1.07-.72-1.41-1.28-.5-.64-.83-1.39-1.21-2.1-.78.69-1.66,1.24-2.49,1.87-.48.39-1.05.66-1.59.97-.52.27-1.01.59-1.56.79-.75.29-1.49.69-2.3.78-.46.04-.91.23-1.38.17-.49-.07-.97-.16-1.44-.32-.3-.1-.55-.28-.81-.45-1.16-.72-1.75-2.06-2.08-3.33-.12-1.01.03-2.02.08-3.03,0-.69.24-1.34.38-2.01.3-1.36.69-2.7.99-4.06-.46.26-.86.58-1.28.88-.97.68-1.94,1.37-2.9,2.06-.98.63-1.95,1.27-2.92,1.91-.83.51-1.57,1.14-2.34,1.73-.77.66-1.56,1.29-2.26,2.02-1.08,1.09-2.17,2.15-3.23,3.26-.34.34-.57.82-1.03,1.03-.3.14-.61.32-.94.31-.68-.08-1.33-.41-1.77-.94-.32-.58-.53-1.23-.53-1.9.01-.74.02-1.49.24-2.2.45-2.03,1.08-4.01,1.57-6.03.17-.48.38-.95.55-1.43.28-.74.7-1.5.59-2.32-.77.46-1.41,1.08-2.12,1.62-1.72,1.23-3.5,2.39-5.26,3.57-1.37.88-2.64,1.9-3.94,2.89-.79.58-1.5,1.26-2.24,1.9-.63.58-1.32,1.1-1.91,1.75-.83.83-1.63,1.68-2.46,2.51-.4.43-.99.6-1.54.74-.45-.15-.92-.36-1.19-.78-.25-.34-.54-.72-.5-1.17.2-1.43.73-2.78,1.12-4.16-.92.77-1.68,1.71-2.66,2.41-.64.49-1.26,1.01-1.95,1.43-.59.38-1.14.84-1.81,1.09-.52.19-1,.5-1.56.57-.37.05-.74.1-1.1.14-.61.09-1.2-.13-1.79-.21-.81-.22-1.6-.68-2.05-1.41-.34-.54-.67-1.1-.81-1.74-.14-.51-.11-1.05-.09-1.57,0-1.52.58-2.96.97-4.41.13-.52.37-1.01.59-1.49.4-.87.74-1.75,1.2-2.59.5-.96,1.02-1.9,1.48-2.87.54-.94,1.1-1.87,1.72-2.75.15-.24.45-.27.7-.34.6-.14,1.18-.33,1.79-.43,1.1-.16,2.2-.31,3.3-.41-1.08,2.07-2.33,4.04-3.55,6.04-.77,1.21-1.35,2.53-1.98,3.82-.35.83-.62,1.7-.88,2.56-.3.97-.51,1.99-.39,3.01,0,.34.34.54.64.57.56.1,1.1-.09,1.63-.26.7-.26,1.4-.57,1.99-1.03.63-.39,1.17-.88,1.72-1.37,2-1.7,3.76-3.66,5.52-5.59.28-.3.59-.58.77-.96.54-1.09,1.1-2.17,1.61-3.28.24-.53.55-1.02.82-1.53.11-.22.24-.46.49-.54,1.19-.47,2.38-.95,3.59-1.38.88-.28,1.75-.55,2.62-.82-.7,1.16-1.52,2.25-2.12,3.46-.41.78-.9,1.52-1.26,2.34-.1.19-.24.35-.34.54-.97,2.04-1.91,4.1-2.77,6.19.64-.46,1.24-.96,1.88-1.43,1.09-.75,2.19-1.48,3.28-2.23.6-.4,1.18-.82,1.81-1.17,1.84-1.19,3.67-2.4,5.5-3.59.45-.28.88-.58,1.37-.77.71-.29,1.44-.59,2.23-.59.65-.02,1.28.21,1.79.61.37.2.55.58.74.92.21.38.2.83.29,1.24.06.3,0,.61-.04.9-.07.48-.06.97-.21,1.44-.57,1.92-1.14,3.84-1.61,5.78,1.79-1.5,3.48-3.11,5.24-4.64,1.2-.96,2.4-1.92,3.61-2.87,1.57-1.08,3.17-2.2,5.01-2.77.9-.21,1.85-.34,2.75-.06.86.42,1.61,1.19,1.77,2.17.12.6.03,1.21-.03,1.81-.42,2.06-.91,4.1-1.37,6.15-.23,1.06-.54,2.21-.12,3.26.11.3.34.54.66.61.39.1.81.12,1.21,0,.79-.3,1.59-.6,2.31-1.06.72-.58,1.48-1.14,2.22-1.7.58-.52,1.18-1.02,1.75-1.55.08-.48.08-.96.23-1.42.21-1.19.65-2.33,1.12-3.44.37-.76.79-1.49,1.14-2.25.39-.63.81-1.26,1.21-1.89,1.77-2.21,3.72-4.3,6-6,1.24-1.01,2.67-1.77,4.17-2.31.3-.11.6-.28.93-.3Z"/>
  <path class="cls-11" d="M153.61,81.6c.68-.23,1.43-.3,2.14-.17.37.28.29.81.21,1.21-.08.84-.54,1.59-1.11,2.19-.26.29-.5.61-.81.85-.5.4-.96.85-1.5,1.19-.5.33-.97.73-1.55.94-.79.36-1.6.7-2.44.93-.52.22-1.1.22-1.65.27-.23.01-.41-.13-.57-.25.54-1,.96-2.12,1.81-2.91.55-.55.97-1.23,1.6-1.71.75-.63,1.55-1.21,2.33-1.81.46-.33.97-.63,1.53-.74Z"/>
  <path class="cls-5" d="M153.61,81.6c.68-.23,1.43-.3,2.14-.17.37.28.29.81.21,1.21-.08.84-.54,1.59-1.11,2.19-.26.29-.5.61-.81.85-.5.4-.96.85-1.5,1.19-.5.33-.97.73-1.55.94-.79.36-1.6.7-2.44.93-.52.22-1.1.22-1.65.27-.23.01-.41-.13-.57-.25.54-1,.96-2.12,1.81-2.91.55-.55.97-1.23,1.6-1.71.75-.63,1.55-1.21,2.33-1.81.46-.33.97-.63,1.53-.74Z"/>
  <path class="cls-8" d="M24.26,82.93c.17-.34.35-.68.54-1.01,1.03,3.19,2.28,6.32,3.82,9.3,2.47,4.86,5.62,9.37,9.3,13.39,6.01,6.55,13.46,11.77,21.7,15.13,7.39,3.03,15.41,4.57,23.4,4.48,9.08-.04,18.15-2.19,26.29-6.21,5.81-2.88,11.18-6.68,15.77-11.26.63-.63,1.26-1.27,1.88-1.92.51-.59,1.1-1.14,1.53-1.79.26.17.52.35.81.45-.42.46-.86.92-1.27,1.39-5.3,5.86-11.74,10.68-18.85,14.12-9.02,4.35-19.13,6.42-29.14,6.02-6.9-.28-13.76-1.75-20.19-4.28-7.95-3.15-15.21-8.01-21.19-14.13-6.17-6.31-10.99-13.95-13.93-22.28-.21-.46-.25-.97-.49-1.4Z"/>
  <path class="cls-1" d="M24.26,82.93c.17-.34.35-.68.54-1.01,1.03,3.19,2.28,6.32,3.82,9.3,2.47,4.86,5.62,9.37,9.3,13.39,6.01,6.55,13.46,11.77,21.7,15.13,7.39,3.03,15.41,4.57,23.4,4.48,9.08-.04,18.15-2.19,26.29-6.21,5.81-2.88,11.18-6.68,15.77-11.26.63-.63,1.26-1.27,1.88-1.92.51-.59,1.1-1.14,1.53-1.79.26.17.52.35.81.45-.42.46-.86.92-1.27,1.39-5.3,5.86-11.74,10.68-18.85,14.12-9.02,4.35-19.13,6.42-29.14,6.02-6.9-.28-13.76-1.75-20.19-4.28-7.95-3.15-15.21-8.01-21.19-14.13-6.17-6.31-10.99-13.95-13.93-22.28-.21-.46-.25-.97-.49-1.4Z"/>
  <path class="cls-11" d="M152.39,94.04c.42-.12.79-.38,1.21-.52-.74.61-1.55,1.12-2.42,1.5-.73.43-1.57.63-2.41.66-.37,0-.72-.26-.78-.62.66.02,1.28-.21,1.91-.34.83-.22,1.66-.45,2.5-.68Z"/>
  <path class="cls-5" d="M152.39,94.04c.42-.12.79-.38,1.21-.52-.74.61-1.55,1.12-2.42,1.5-.73.43-1.57.63-2.41.66-.37,0-.72-.26-.78-.62.66.02,1.28-.21,1.91-.34.83-.22,1.66-.45,2.5-.68Z"/>
  <path class="cls-10" d="M152.72,115.47c.96-.44,2.12-.42,3.08-.02.75.35,1.23,1.14,1.28,1.96-.49.01-.98.06-1.47.06-.06-.3-.14-.61-.39-.81-.39-.32-.94-.3-1.41-.24-.36.03-.72.31-.72.69-.03.26.12.52.34.66.86.55,1.91.76,2.68,1.46.83.88.5,2.39-.44,3.06-.76.58-1.77.64-2.68.54-.78-.1-1.62-.44-2-1.17-.19-.4-.34-.9-.23-1.32.46-.05.93-.05,1.4-.06.06.35.06.78.37,1.02.38.3.89.3,1.35.28.4-.01.86-.13,1.08-.5.21-.31.12-.77-.19-.98-.83-.54-1.86-.74-2.6-1.4-.95-.9-.59-2.66.57-3.21Z"/>
  <path class="cls-10" d="M152.72,115.47c.96-.44,2.12-.42,3.08-.02.75.35,1.23,1.14,1.28,1.96-.49.01-.98.06-1.47.06-.06-.3-.14-.61-.39-.81-.39-.32-.94-.3-1.41-.24-.36.03-.72.31-.72.69-.03.26.12.52.34.66.86.55,1.91.76,2.68,1.46.83.88.5,2.39-.44,3.06-.76.58-1.77.64-2.68.54-.78-.1-1.62-.44-2-1.17-.19-.4-.34-.9-.23-1.32.46-.05.93-.05,1.4-.06.06.35.06.78.37,1.02.38.3.89.3,1.35.28.4-.01.86-.13,1.08-.5.21-.31.12-.77-.19-.98-.83-.54-1.86-.74-2.6-1.4-.95-.9-.59-2.66.57-3.21Z"/>
  <path class="cls-10" d="M174.88,115.31c-.57-.04-1.14-.01-1.71-.02-1.18,2.03-2.31,4.08-3.48,6.12-.23.44-.52.86-.72,1.32.52,0,1.05,0,1.57,0,.22-.46.49-.9.72-1.34.08-.13.14-.34.34-.31.92,0,1.85,0,2.77,0,.08.53.18,1.07.22,1.61.49.03.99.03,1.48,0-.39-2.46-.82-4.92-1.19-7.39ZM172.14,119.81c.53-.99,1.05-1.97,1.62-2.93.09.99.29,1.96.4,2.94-.68,0-1.34.02-2.02,0Z"/>
  <path class="cls-10" d="M165.44,117.6c-.42-.39-1.03-.44-1.57-.37-.47.06-.87.34-1.23.62.03-.18.08-.35.12-.52-.47,0-.94,0-1.41,0-.5,2.48-1.03,4.95-1.54,7.44.49.03.97.01,1.46,0,.2-.9.38-1.81.57-2.72.24.24.47.52.79.64.72.3,1.59.18,2.2-.3.88-.67,1.35-1.79,1.31-2.88.02-.69-.14-1.46-.69-1.92ZM164.28,121.11c-.23.4-.68.72-1.17.64-.45-.06-.74-.48-.85-.88-.1-.59.03-1.19.26-1.73.19-.4.51-.77.96-.85.51-.15,1.06.21,1.19.71.17.72-.03,1.48-.39,2.11Z"/>
  <path class="cls-10" d="M157.72,121.32c.48,0,.97,0,1.45,0-.12.44-.17.9-.3,1.35-.45.12-.96.02-1.43.03.08-.46.17-.92.28-1.39Z"/>
  <path class="cls-10" d="M157.72,121.32c.48,0,.97,0,1.45,0-.12.44-.17.9-.3,1.35-.45.12-.96.02-1.43.03.08-.46.17-.92.28-1.39Z"/>
  <path class="cls-10" d="M166.93,121.33c.48,0,.97,0,1.45,0-.08.47-.18.94-.28,1.4-.48,0-.94,0-1.42-.01.05-.46.19-.92.26-1.38Z"/>
  <path class="cls-10" d="M166.93,121.33c.48,0,.97,0,1.45,0-.08.47-.18.94-.28,1.4-.48,0-.94,0-1.42-.01.05-.46.19-.92.26-1.38Z"/>
  <path class="cls-10" d="M56.37,136.14c.82-.04,1.64-.03,2.47,0-.14.71-.28,1.43-.45,2.14-.8.09-1.62.01-2.43.03.07-.74.3-1.44.41-2.17Z"/>
  <path class="cls-10" d="M56.37,136.14c.82-.04,1.64-.03,2.47,0-.14.71-.28,1.43-.45,2.14-.8.09-1.62.01-2.43.03.07-.74.3-1.44.41-2.17Z"/>
  <path class="cls-10" d="M109.17,136.13c.81-.03,1.63-.02,2.44,0-.1.74-.29,1.47-.44,2.21-.81,0-1.62,0-2.43,0,.1-.74.3-1.47.43-2.2Z"/>
  <path class="cls-10" d="M109.17,136.13c.81-.03,1.63-.02,2.44,0-.1.74-.29,1.47-.44,2.21-.81,0-1.62,0-2.43,0,.1-.74.3-1.47.43-2.2Z"/>
  <path class="cls-10" d="M114.06,136.13c.81,0,1.63-.02,2.44,0-.83,4.19-1.77,8.37-2.59,12.56-.83.04-1.65.03-2.47,0,.86-4.19,1.74-8.39,2.62-12.57Z"/>
  <path class="cls-10" d="M114.06,136.13c.81,0,1.63-.02,2.44,0-.83,4.19-1.77,8.37-2.59,12.56-.83.04-1.65.03-2.47,0,.86-4.19,1.74-8.39,2.62-12.57Z"/>
  <path class="cls-10" d="M123.93,136.13c.86,0,1.71-.02,2.57,0-.7,3.5-1.48,6.97-2.16,10.47,2.12,0,4.25-.02,6.37.01-.12.7-.27,1.39-.42,2.08-2.99.02-5.99.03-8.99,0,.86-4.19,1.75-8.39,2.63-12.57Z"/>
  <path class="cls-10" d="M123.93,136.13c.86,0,1.71-.02,2.57,0-.7,3.5-1.48,6.97-2.16,10.47,2.12,0,4.25-.02,6.37.01-.12.7-.27,1.39-.42,2.08-2.99.02-5.99.03-8.99,0,.86-4.19,1.75-8.39,2.63-12.57Z"/>
  <path class="cls-10" d="M83.79,136.76c-.79-.57-1.81-.63-2.76-.64-1.7,0-3.4-.02-5.1.01-.87,4.19-1.76,8.38-2.62,12.57.75.03,1.51,0,2.27.02.13,0,.35.03.35-.17.32-1.55.64-3.11.98-4.66.89,0,1.78,0,2.67,0,1.04.01,2.11-.1,3.06-.55,1.43-.72,2.22-2.33,2.3-3.88.06-1.01-.32-2.08-1.15-2.7ZM81.56,141.16c-.5.42-1.16.56-1.79.61-.81.04-1.61.08-2.41.04.24-1.19.49-2.38.74-3.57.11-.08.26-.03.39-.05.88.02,1.75-.03,2.63.04.46.03.97.25,1.14.71.29.79-.06,1.7-.68,2.22Z"/>
  <path class="cls-10" d="M10.07,136.12c-.97,0-1.94-.01-2.9.01-2.12,3.78-4.28,7.55-6.41,11.33-.22.41-.48.8-.67,1.23.88.03,1.77.02,2.65,0,.48-.92.99-1.82,1.49-2.74.14-.04.3-.03.45-.03,1.52,0,3.04-.01,4.56,0,.15.92.28,1.84.41,2.77.82.03,1.64.03,2.47,0-.7-4.19-1.36-8.39-2.05-12.58ZM5.43,143.8c.69-1.32,1.43-2.62,2.15-3.94.21-.35.37-.73.61-1.06.12.68.21,1.35.29,2.03.14.99.32,1.98.42,2.97-1.15,0-2.31.02-3.47,0Z"/>
  <path class="cls-10" d="M38.27,140.76c.74-.65,1.61-1.23,2.62-1.37.79-.1,1.68-.03,2.29.53.7.61.85,1.62.67,2.49-.39,2.02-.86,4.02-1.27,6.04-.03.1-.03.28-.17.27-.78,0-1.56.01-2.34-.01.41-1.99.87-3.97,1.28-5.97.08-.4.16-.87-.1-1.23-.28-.41-.86-.45-1.31-.33-1.03.33-1.83,1.23-2.08,2.27-.47,1.73-.77,3.51-1.16,5.26-.81,0-1.63.02-2.44,0,.61-3.05,1.26-6.08,1.88-9.13.78-.03,1.56-.03,2.34,0-.08.39-.17.78-.2,1.17Z"/>
  <path class="cls-10" d="M38.27,140.76c.74-.65,1.61-1.23,2.62-1.37.79-.1,1.68-.03,2.29.53.7.61.85,1.62.67,2.49-.39,2.02-.86,4.02-1.27,6.04-.03.1-.03.28-.17.27-.78,0-1.56.01-2.34-.01.41-1.99.87-3.97,1.28-5.97.08-.4.16-.87-.1-1.23-.28-.41-.86-.45-1.31-.33-1.03.33-1.83,1.23-2.08,2.27-.47,1.73-.77,3.51-1.16,5.26-.81,0-1.63.02-2.44,0,.61-3.05,1.26-6.08,1.88-9.13.78-.03,1.56-.03,2.34,0-.08.39-.17.78-.2,1.17Z"/>
  <path class="cls-10" d="M93.93,144.91c.22-1.17.27-2.43-.19-3.55-.42-1.01-1.39-1.77-2.47-1.94-1.37-.21-2.86.05-3.96.93-1.66,1.35-2.32,3.72-1.77,5.76.33,1.21,1.3,2.22,2.49,2.61,1.51.46,3.29.19,4.47-.9.48-.43.83-.97,1.13-1.54-.73-.14-1.46-.26-2.2-.37-.2.3-.39.62-.69.84-.59.48-1.5.57-2.15.16-.67-.41-.93-1.24-.87-2,2.06,0,4.13.03,6.19,0ZM89.36,141.3c.63-.32,1.51-.25,2.01.3.45.48.51,1.17.48,1.79-1.28.03-2.57.02-3.85,0,.13-.84.57-1.71,1.37-2.09Z"/>
  <path class="cls-10" d="M100.38,139.56c.66-.3,1.44-.26,2.07.08-.31.66-.6,1.32-.93,1.97-.44-.1-.91-.15-1.34.02-.97.37-1.62,1.27-1.92,2.23-.49,1.58-.74,3.22-1.1,4.84-.82.03-1.65.03-2.47,0,.61-3.03,1.29-6.06,1.88-9.11.77-.04,1.55-.03,2.32,0-.1.56-.25,1.1-.33,1.67.5-.67,1.03-1.36,1.81-1.7Z"/>
  <path class="cls-10" d="M100.38,139.56c.66-.3,1.44-.26,2.07.08-.31.66-.6,1.32-.93,1.97-.44-.1-.91-.15-1.34.02-.97.37-1.62,1.27-1.92,2.23-.49,1.58-.74,3.22-1.1,4.84-.82.03-1.65.03-2.47,0,.61-3.03,1.29-6.06,1.88-9.11.77-.04,1.55-.03,2.32,0-.1.56-.25,1.1-.33,1.67.5-.67,1.03-1.36,1.81-1.7Z"/>
  <path class="cls-10" d="M140.34,143.72c.13-.66.31-1.32.28-2,0-.78-.49-1.49-1.14-1.88-.63-.37-1.37-.48-2.09-.49-.79-.02-1.61.06-2.35.37-.94.4-1.7,1.22-2,2.2.79.08,1.59.14,2.39.2.1-.26.21-.51.44-.68.39-.34.94-.36,1.43-.32.41.03.83.29.94.7.06.35-.05.7-.12,1.03-1.57.47-3.3.17-4.78.95-.97.51-1.39,1.68-1.28,2.73.05,1.14.96,2.18,2.1,2.34,1.17.21,2.35-.34,3.15-1.17.05.32.07.64.19.94.08.07.21.03.31.06.69-.01,1.39.01,2.08-.02-.12-.5-.24-1.01-.19-1.52.12-1.17.42-2.3.66-3.46ZM137.19,146.23c-.48.68-1.43,1.03-2.22.74-.52-.2-.75-.86-.53-1.36.12-.28.37-.48.65-.59.85-.35,1.77-.39,2.66-.55-.08.61-.23,1.23-.56,1.75Z"/>
  <path class="cls-10" d="M161.23,142.29c-.23-1.06-.95-2.01-1.93-2.48-.99-.49-2.12-.54-3.19-.4-1.18.17-2.28.79-3.03,1.72-.96,1.17-1.27,2.75-1.17,4.23.12,1.04.57,2.11,1.46,2.74,1.1.81,2.57.95,3.9.73,1.13-.19,2.17-.83,2.87-1.75,1.08-1.32,1.45-3.14,1.1-4.79ZM158.88,143.8c-.12.87-.42,1.74-1.01,2.41-.4.5-1.01.86-1.66.81-.83.04-1.57-.61-1.77-1.4-.26-1.01.05-2.06.48-2.98.33-.66.92-1.22,1.66-1.38.73-.18,1.59.06,2.01.71.39.52.34,1.21.3,1.83Z"/>
  <path class="cls-10" d="M167.93,139.51c.63-.26,1.34-.17,1.96.09-.27.68-.61,1.34-.92,2-.4-.08-.83-.15-1.23-.01-.96.31-1.67,1.17-1.97,2.11-.55,1.61-.77,3.32-1.17,4.97-.11.08-.26.03-.39.05-.69-.02-1.38.01-2.07-.02.62-3.04,1.28-6.07,1.88-9.11.77-.04,1.55-.03,2.32,0-.1.56-.26,1.1-.32,1.66.51-.69,1.08-1.41,1.91-1.73Z"/>
  <path class="cls-10" d="M167.93,139.51c.63-.26,1.34-.17,1.96.09-.27.68-.61,1.34-.92,2-.4-.08-.83-.15-1.23-.01-.96.31-1.67,1.17-1.97,2.11-.55,1.61-.77,3.32-1.17,4.97-.11.08-.26.03-.39.05-.69-.02-1.38.01-2.07-.02.62-3.04,1.28-6.07,1.88-9.11.77-.04,1.55-.03,2.32,0-.1.56-.26,1.1-.32,1.66.51-.69,1.08-1.41,1.91-1.73Z"/>
  <path class="cls-10" d="M46.19,139.58c2.38-.03,4.76-.02,7.14,0-.08.5-.16,1.03-.33,1.5-1.63,1.89-3.32,3.73-4.95,5.62,1.45.03,2.9.02,4.35,0-.12.67-.28,1.32-.41,1.99-2.48.03-4.97.03-7.45,0,.09-.47.19-.93.28-1.4.06-.34.35-.56.57-.81,1.49-1.68,3.01-3.32,4.48-5.01-1.35-.01-2.69.01-4.04,0,.08-.64.26-1.26.37-1.89Z"/>
  <path class="cls-10" d="M46.19,139.58c2.38-.03,4.76-.02,7.14,0-.08.5-.16,1.03-.33,1.5-1.63,1.89-3.32,3.73-4.95,5.62,1.45.03,2.9.02,4.35,0-.12.67-.28,1.32-.41,1.99-2.48.03-4.97.03-7.45,0,.09-.47.19-.93.28-1.4.06-.34.35-.56.57-.81,1.49-1.68,3.01-3.32,4.48-5.01-1.35-.01-2.69.01-4.04,0,.08-.64.26-1.26.37-1.89Z"/>
  <path class="cls-10" d="M55.66,139.58c.82-.03,1.64-.02,2.47,0-.65,3.04-1.27,6.09-1.92,9.13-.81,0-1.63.02-2.44,0,.6-3.05,1.28-6.08,1.89-9.13Z"/>
  <path class="cls-10" d="M55.66,139.58c.82-.03,1.64-.02,2.47,0-.65,3.04-1.27,6.09-1.92,9.13-.81,0-1.63.02-2.44,0,.6-3.05,1.28-6.08,1.89-9.13Z"/>
  <path class="cls-10" d="M108.44,139.59c.83-.04,1.65-.03,2.47,0-.61,3.04-1.27,6.08-1.88,9.12-.82.03-1.64.02-2.46,0,.61-3.04,1.28-6.07,1.88-9.11Z"/>
  <path class="cls-10" d="M108.44,139.59c.83-.04,1.65-.03,2.47,0-.61,3.04-1.27,6.08-1.88,9.12-.82.03-1.64.02-2.46,0,.61-3.04,1.28-6.07,1.88-9.11Z"/>
  <path class="cls-10" d="M142.36,139.58c.8-.03,1.61-.02,2.41,0,.27,1.7.55,3.41.82,5.11.06.32.09.66.11.98.17-.19.3-.43.41-.66.98-1.85,2.08-3.63,3.12-5.44.88,0,1.77-.02,2.64,0-1.84,3.06-3.72,6.09-5.59,9.13-.7-.03-1.43.07-2.11-.05-.61-3.02-1.22-6.06-1.82-9.08Z"/>
  <path class="cls-10" d="M142.36,139.58c.8-.03,1.61-.02,2.41,0,.27,1.7.55,3.41.82,5.11.06.32.09.66.11.98.17-.19.3-.43.41-.66.98-1.85,2.08-3.63,3.12-5.44.88,0,1.77-.02,2.64,0-1.84,3.06-3.72,6.09-5.59,9.13-.7-.03-1.43.07-2.11-.05-.61-3.02-1.22-6.06-1.82-9.08Z"/>
  <path class="cls-10" d="M21.52,139.59c-.1.51-.17,1.03-.3,1.54-.2-.27-.36-.57-.59-.81-.61-.66-1.54-1.03-2.44-.96-1.35.08-2.59.91-3.26,2.07-.79,1.36-1.04,2.99-.84,4.55.12.95.62,1.9,1.48,2.38.94.54,2.12.48,3.09.04.42-.18.79-.46,1.17-.69-.15.7-.23,1.42-.55,2.07-.26.54-.86.81-1.43.86-.5.04-1.08.05-1.48-.32-.22-.19-.23-.49-.28-.75-.86-.11-1.72-.26-2.57-.37-.07.81.05,1.7.64,2.3.63.62,1.55.81,2.4.9.94.05,1.91.05,2.83-.21.79-.22,1.52-.72,1.92-1.45.54-.96.72-2.05.98-3.09.54-2.68,1-5.37,1.54-8.05-.77-.02-1.55-.03-2.32,0ZM20.41,144.56c-.19.81-.63,1.6-1.36,2.03-.43.28-.97.34-1.46.23-.54-.18-.94-.67-1.06-1.23-.26-1.17.07-2.4.66-3.41.29-.49.74-.9,1.31-1.02.77-.19,1.55.33,1.88,1.01.34.75.26,1.62.03,2.39Z"/>
  <path class="cls-10" d="M21.52,139.59c-.1.51-.17,1.03-.3,1.54-.2-.27-.36-.57-.59-.81-.61-.66-1.54-1.03-2.44-.96-1.35.08-2.59.91-3.26,2.07-.79,1.36-1.04,2.99-.84,4.55.12.95.62,1.9,1.48,2.38.94.54,2.12.48,3.09.04.42-.18.79-.46,1.17-.69-.15.7-.23,1.42-.55,2.07-.26.54-.86.81-1.43.86-.5.04-1.08.05-1.48-.32-.22-.19-.23-.49-.28-.75-.86-.11-1.72-.26-2.57-.37-.07.81.05,1.7.64,2.3.63.62,1.55.81,2.4.9.94.05,1.91.05,2.83-.21.79-.22,1.52-.72,1.92-1.45.54-.96.72-2.05.98-3.09.54-2.68,1-5.37,1.54-8.05-.77-.02-1.55-.03-2.32,0ZM20.41,144.56c-.19.81-.63,1.6-1.36,2.03-.43.28-.97.34-1.46.23-.54-.18-.94-.67-1.06-1.23-.26-1.17.07-2.4.66-3.41.29-.49.74-.9,1.31-1.02.77-.19,1.55.33,1.88,1.01.34.75.26,1.62.03,2.39Z"/>
  <path class="cls-10" d="M33.42,142.49c-.12-.98-.59-1.95-1.41-2.51-.64-.46-1.45-.64-2.23-.63-1.1,0-2.23.3-3.09,1.01-1.64,1.33-2.3,3.66-1.78,5.68.31,1.21,1.26,2.25,2.45,2.66,1.41.46,3.06.26,4.26-.65.61-.46,1.06-1.09,1.39-1.77-.73-.14-1.47-.26-2.2-.37-.28.48-.65.92-1.17,1.12-.62.23-1.41.18-1.9-.31-.52-.45-.67-1.16-.64-1.81,2.07,0,4.13.02,6.2,0,.17-.79.2-1.61.12-2.41ZM27.37,143.38c.14-.8.54-1.63,1.28-2.03.65-.38,1.57-.34,2.1.23.46.48.5,1.18.48,1.8-1.28.01-2.58.03-3.86,0Z"/>
  <path class="cls-10" d="M33.42,142.49c-.12-.98-.59-1.95-1.41-2.51-.64-.46-1.45-.64-2.23-.63-1.1,0-2.23.3-3.09,1.01-1.64,1.33-2.3,3.66-1.78,5.68.31,1.21,1.26,2.25,2.45,2.66,1.41.46,3.06.26,4.26-.65.61-.46,1.06-1.09,1.39-1.77-.73-.14-1.47-.26-2.2-.37-.28.48-.65.92-1.17,1.12-.62.23-1.41.18-1.9-.31-.52-.45-.67-1.16-.64-1.81,2.07,0,4.13.02,6.2,0,.17-.79.2-1.61.12-2.41ZM27.37,143.38c.14-.8.54-1.63,1.28-2.03.65-.38,1.57-.34,2.1.23.46.48.5,1.18.48,1.8-1.28.01-2.58.03-3.86,0Z"/>
  <path class="cls-10" d="M67.05,143.54c.11-.58.26-1.16.24-1.75.03-.86-.54-1.63-1.28-2.02-.72-.37-1.56-.44-2.37-.42-.69,0-1.39.12-2.03.41-.9.4-1.63,1.21-1.91,2.16.79.08,1.59.14,2.39.19.09-.24.19-.48.4-.65.41-.36,1.01-.39,1.53-.32.38.03.75.28.86.66.08.35-.03.71-.1,1.06-1.57.5-3.34.17-4.81.98-1.21.68-1.55,2.35-1.05,3.58.3.71.96,1.28,1.72,1.43,1.22.3,2.48-.28,3.32-1.14.04.32.1.66.17.98.8.03,1.6.02,2.4,0-.21-.73-.24-1.5-.1-2.24.17-.99.41-1.95.61-2.92ZM63.95,146.09c-.39.66-1.19,1.04-1.95.97-.52,0-.97-.47-.97-.99-.03-.43.26-.83.65-1.01.86-.39,1.82-.46,2.75-.58-.09.55-.21,1.11-.47,1.61Z"/>
  <path class="cls-10" d="M178.81,142.31c-.21-1-.85-1.9-1.75-2.39-1.01-.58-2.23-.64-3.37-.5-1.46.2-2.8,1.12-3.5,2.42-.61,1.1-.79,2.41-.69,3.66.14.97.57,1.95,1.36,2.56.86.65,1.95.92,3.01.88,1.29,0,2.6-.48,3.49-1.43,1.32-1.34,1.84-3.36,1.45-5.19ZM175.19,146.49c-.52.5-1.34.67-2.02.43-.59-.21-1.02-.77-1.17-1.37-.14-.77,0-1.55.25-2.26.26-.89.88-1.73,1.8-1.99.37-.1.75-.1,1.12-.03.81.19,1.37,1.03,1.32,1.84.04,1.23-.39,2.52-1.3,3.39Z"/>
</svg>