<?xml version="1.0" encoding="UTF-8"?><svg id="Layer_2" xmlns="http://www.w3.org/2000/svg" width="212.458" height="212.458" viewBox="0 0 212.458 212.458"><g id="Layer_1-2"><path d="M212.458,106.229c0,58.669-47.56,106.229-106.229,106.229S0,164.898,0,106.229,47.56,0,106.229,0s106.229,47.56,106.229,106.229" fill="#f1716f" stroke-width="0"/><path d="M87.858,171.043c-2.189.001-3.872-1.72-3.876-3.74l-.009-4.709c-.002-1.18,1.083-1.923,2.052-1.871,1.06.056,1.855.91,1.841,2.082l.061,4.329,18.964.002.011-19.014-18.987-.024-.045,5.947c.079,1.318-.834,2.284-2.072,2.223-1.175-.059-1.908-1.053-1.861-2.458-15.069-6.837-26.235-19.91-30.694-35.783l-9.437-.031c-2.219-.008-3.767-1.881-3.765-4.028l.017-19.043c.001-1.977,1.645-3.72,3.615-3.73l8.921-.047c1.572-6.94,4.36-13.341,8.413-19.277-1.952-.655-3.114-2.027-3.112-3.898l.015-19.271c.002-2.018,1.789-3.657,3.762-3.659l19.027-.017c2.304-.003,3.953,1.582,4.04,3.894l.129,3.422c14.592-6.121,30.651-5.981,45.306.76l.086-11.61c.017-2.173,1.666-3.896,3.884-3.896l19.024-.003c2.22,0,3.927,1.681,3.927,3.912v19.021c0,2.249-1.723,3.89-3.91,3.905l-6.948.045c3.455,3.703,6.243,7.317,8.637,11.54.57,1.006.291,2.184-.583,2.718-.956.585-2.136.319-2.744-.7-1.296-2.17-2.685-4.31-4.189-6.219-3.133,1.213-5.957,2.126-9.135,3.038,3.324,8.559,4.889,17.354,5.135,26.481l14.709-.016c-.211-5.905-1.367-11.237-3.367-16.536-.241-1.142.209-2.138,1.315-2.476.795-.244,1.961.104,2.361,1.157,4.385,11.543,4.857,24.015,1.232,36.093l9.999.028c2.063.005,3.887,1.567,3.887,3.766v19.276c-.001,2.202-1.853,3.8-3.967,3.8h-19.114c-2.474-.148-3.915-2.083-3.842-4.755-9.586,9.86-21.959,15.76-35.711,16.821l-.066,8.81c-.015,2.008-1.693,3.735-3.76,3.735l-19.176.006ZM153.189,60.523l-.003-19.023-19.025.006v19.025l19.028-.008ZM80.847,54.272l-.052-5.324h-18.973s-.003,18.919-.003,18.919c.77.084,1.472.086,2.258.008,4.676-5.639,10.24-10.1,16.77-13.603M113.72,74.473c-1.049-7.123-2.289-16.032-5.977-21.922-2.06-2.948-4.631,4.974-5.024,6.272-1.547,5.107-2.414,10.188-3.142,15.629,4.712.26,9.298.239,14.143.021M95.653,74.207c.645-4.825,1.405-9.056,2.426-13.477.767-2.761,1.636-5.26,2.782-8.099-9.285,2.544-16.187,11.023-20.288,19.46,5.066,1.05,10.025,1.758,15.08,2.116M132.704,72.111c-3.832-8.218-11.002-16.989-20.291-19.479,3.166,7.436,4.083,13.945,5.26,21.608,5.068-.433,9.91-1.089,15.031-2.129M76.662,71.209c2.726-5.919,6.347-10.979,11.148-15.73-7.539,2.752-13.8,7.35-19.215,13.116,2.686,1.084,5.245,1.85,8.067,2.614M130.168,57.419c-1.718-.783-2.987-1.377-4.655-1.92l4.677,5.041c.044-1.087.042-2.127-.022-3.121M144.686,68.622c-1.441-1.562-2.777-2.91-4.272-4.187l-7.407.025,3.691,6.731c2.732-.741,5.284-1.508,7.988-2.569M66.918,101.344l3.017-.065c.248-9.063,1.804-17.86,5.134-26.431-3.211-.909-6.152-1.879-9.154-3.036-4.422,5.738-7.551,12.118-9.281,19.323l6.368.038c2.096.013,3.858,1.571,3.873,3.753l.043,6.418ZM95.168,128.416c-.752-7.842-1.142-15.291-1.22-23.094l-3.954-.136c-1.114-.038-1.777-1.175-1.713-2.033.08-1.081.912-1.799,2.063-1.812l3.591-.042c.095-7.808.499-15.435,1.224-23.17-5.621-.481-10.875-1.268-16.258-2.353-3.275,8.293-4.862,16.864-5.023,25.548l7.883.02c1.208.003,1.966.961,1.918,2.065-.034.801-.764,1.801-1.816,1.809l-8.007.063c.263,8.896,1.832,17.441,5.121,25.512,5.49-1.169,10.642-1.878,16.191-2.377M132.17,91.008l.05,10.328,7.198-.019c-.19-8.742-1.76-17.263-5.033-25.542-5.399,1.095-10.617,1.864-16.24,2.358l.723,9.096,9.555.048c1.997.01,3.736,1.612,3.747,3.731M109.187,87.267l5.768-.03-.768-8.836c-5.201.192-9.901.197-15.09-.006-.789,7.674-1.174,15.257-1.222,22.939l7.441-.019.042-10.398c.008-2.032,1.771-3.639,3.829-3.65M128.274,110.177l-.01-19.005-19.004.002-.004,19.022,19.018-.019ZM62.992,114.104l-.022-19.028-19.018.011.014,19.02,19.026-.003ZM65.943,134.738c3.089-1.204,5.974-2.14,9.166-3.05-3.348-8.613-4.901-17.377-5.18-26.402l-3.04-.009.013,8.711c.003,2.142-1.549,3.964-3.763,3.998l-5.773.087c1.816,6.169,4.717,11.661,8.577,16.665M108.884,114.05c-2.105-.035-3.523-1.968-3.538-3.809l-.039-4.999-7.446.032c.09,7.81.459,15.225,1.249,22.874,5.221-.184,10.042-.164,15.115-.016l.997-13.974-6.338-.108ZM118.141,128.417c5.59.489,10.867,1.26,16.227,2.36,3.272-8.239,4.83-16.645,5.06-25.502l-7.185-.032-.114,5.416c-.038,1.808-1.806,3.41-3.601,3.42l-9.356.048-1.031,14.29ZM147.395,134.728c6.609-8.605,10.236-18.635,10.681-29.463l-14.711-.025c-.274,9.075-1.812,17.901-5.158,26.459l9.188,3.029ZM169.599,142.498l-.024-19.012-11.322.009c-2.002,4.851-4.408,9.31-7.669,13.467l-.018,5.556,19.033-.02ZM110.838,146.827c1.423-5.136,2.196-9.703,2.891-14.73-4.683-.251-9.178-.22-14.126-.041.487,4.156,1.208,8.062,2.132,12.15l4.779-.038c2.024-.015,3.266.942,4.324,2.659M123.988,146.938c3.669-3.686,6.396-7.715,8.717-12.488-5.017-1.039-9.931-1.703-15.024-2.139l-2.066,11.84c-.83,3.334-1.787,6.402-3.199,9.761,4.536-1.23,8.212-3.754,11.572-6.974M97.682,144.179c-.86-4.19-1.473-7.685-2.04-11.805-4.999.308-9.985,1.037-15.058,2.084,1.775,3.633,3.742,6.715,6.204,9.754l10.894-.033ZM83.843,149.384l.148-2.48c-3.032-3.527-5.252-7.278-7.315-11.538-2.716.688-5.327,1.494-8.061,2.563,4.48,4.865,9.468,8.679,15.228,11.455M144.677,137.937c-2.883-1.144-5.399-1.898-8.075-2.572-2.784,6.056-6.417,11.126-11.311,15.816,7.437-2.729,13.95-7.304,19.386-13.244" fill="#fff" stroke-width="0"/></g></svg>