<svg xmlns="http://www.w3.org/2000/svg" width="24" height="24" viewBox="0 0 24 24" fill="none" stroke="currentColor" stroke-width="2" stroke-linecap="round" stroke-linejoin="round"><path d="m11 17 2 2a1 1 0 1 0 3-3l-1.15-1.15"></path><path d="m18.5 12.5-2.15-2.15a1 1 0 0 0-3 3l1.15 1.15"></path><path d="m14 14 2 2a1 1 0 0 0 3-3l-1.15-1.15"></path><path d="M10 10 8 8a1 1 0 0 0-3 3l1.15 1.15"></path><path d="M2 13a6 6 0 1 0 12 0"></path><path d="M2 17a6 6 0 0 0 12 0"></path><path d="M22 13a6 6 0 1 1-12 0"></path><path d="M22 17a6 6 0 0 1-12 0"></path></svg>
