<?xml version="1.0" encoding="UTF-8"?><svg id="Layer_2" xmlns="http://www.w3.org/2000/svg" width="184" height="184" viewBox="0 0 184 184"><g id="Layer_1-2"><path d="M184,92C184,41.19,142.81,0,92,0S0,41.19,0,92s41.19,92,92,92,92-41.19,92-92" fill="#f1716f" stroke-width="0"/><path d="M94.129,116.923c1.505-5.21,5.341-8.098,9.838-10.281,4.773-2.316,9.875-3.306,15.159-3.565,2.076-.102,4.186-.33,6.192-.844,3.997-1.024,6.263-3.648,6.531-7.778.275-4.241.292-8.507.233-12.759-.052-3.703,1.362-6.328,4.901-7.739-.019-.219-.032-.427-.057-.633-.026-.212-.064-.423-.127-.831-11.167,2.121-22.3,4.235-33.586,6.378.267,1.605.53,3.151.781,4.699.252,1.558-.205,2.231-1.752,2.484-10.567,1.732-21.137,3.451-31.705,5.176-2.847.464-5.695.918-8.538,1.409-.919.159-1.75.136-2.301-.728-.559-.876-.189-1.63.361-2.376,3.572-4.851,7.13-9.712,10.692-14.57.212-.29.415-.585.677-.954-.999-.698-1.96-1.377-2.929-2.043-4.342-2.98-8.683-5.961-13.034-8.928-.78-.531-1.51-1.086-1.282-2.158.236-1.114,1.136-1.346,2.119-1.508,10.46-1.717,20.917-3.454,31.374-5.187.103-.017.203-.059.428-.127-.308-1.899-.605-3.804-.926-5.705-.277-1.635.252-2.361,1.873-2.608,11.656-1.776,23.312-3.561,34.967-5.343,2.923-.447,5.844-.906,8.769-1.338,1.383-.203,2.126.359,2.352,1.737,1.748,10.67,3.498,21.34,5.228,32.014.116.71.394,1.077,1.116,1.333,2.666.942,4.469,3.464,4.485,6.293.035,5.917.053,11.835-.011,17.752-.032,2.99-1.339,5.574-3.004,7.98-1.826,2.637-4.121,4.811-6.673,6.742-.355.268-.658.85-.664,1.292-.054,3.536-.03,7.072-.031,10.608,0,2.033-.443,2.254-2.413,2.625-3.994.751-8.018,1.503-11.887,2.713-4.286,1.339-8.41,3.191-12.608,4.813-.553.214-.821.502-.848,1.177-.163,4.014-3.187,6.82-7.312,6.822-16.965.007-33.931.003-50.897.003-1.841,0-3.682.009-5.523-.004-1.438-.01-2.105-.623-2.089-2.014.031-2.594-.125-5.22.228-7.773.86-6.222,6.441-10.985,12.719-10.973,1.818.003,3.632.436,5.453.623.363.037.86-.032,1.108-.258,4.201-3.814,9.044-4.641,14.415-3.231.361.095.928-.015,1.201-.256,4.928-4.327,10.407-4.862,16.338-2.459.199.081.393.177.659.298M136.255,69.069c-1.454-8.856-2.881-17.554-4.319-26.32-13.797,2.102-27.454,4.184-41.145,6.271,1.553,9.338,3.077,18.502,4.626,27.818,13.64-2.595,27.183-5.171,40.838-7.769M132.113,123.904c0-3.589.042-7.086-.023-10.582-.023-1.252.365-2.087,1.433-2.781,2.408-1.564,4.485-3.516,6.205-5.823,1.395-1.871,2.679-3.88,2.724-6.257.114-6.024.075-12.051.031-18.076-.013-1.733-1.504-3.122-3.208-3.232-1.76-.114-3.349,1.13-3.639,2.883-.071.423-.042.864-.05,1.296-.075,4.471.032,8.954-.273,13.409-.298,4.363-2.28,7.966-6.435,9.799-2.107.929-4.45,1.517-6.742,1.788-3.86.458-7.775.443-11.549,1.563-3.947,1.172-7.686,2.732-10.667,5.69-1.39,1.379-2.434,2.992-2.445,5.028-.032,5.737-.037,11.475.017,17.212.007.706.307,1.497.703,2.095.816,1.235,2.367,1.678,3.738,1.247,1.503-.471,2.443-1.757,2.447-3.446.013-5.268.005-10.536.005-15.804v-1.113h3.521v12.628c7.772-3.705,15.798-6.166,24.207-7.524M65.064,88.677c11.915-1.967,23.534-3.885,35.272-5.822-.2-1.132-.384-2.172-.579-3.277-1.745.334-3.369.65-4.995.955-1.495.281-2.289-.236-2.544-1.721-.581-3.373-1.134-6.751-1.694-10.127-.608-3.655-1.211-7.31-1.842-11.121-9.375,1.548-18.674,3.083-28.218,4.658.536.384.821.596,1.113.797,4.343,2.975,8.691,5.943,13.028,8.927,1.282.883,1.421,1.745.509,3.003-1.545,2.131-3.11,4.248-4.665,6.372-1.743,2.379-3.485,4.759-5.385,7.356M94.994,139.453c-1.22-1.985-1.002-4.06-1.005-6.104-.006-3.789.012-7.579-.022-11.368-.004-.407-.169-.975-.463-1.193-5.628-4.155-15.26-2.116-16.62,6.118-.291,1.762-.188,3.594-.211,5.394-.031,2.369-.008,4.739-.008,7.153h18.329ZM73.088,139.446c.567-5.628-.902-11.338,1.411-16.72-.081-.07-.128-.142-.19-.159-5.372-1.466-11.514,1.089-12.728,6.756-.697,3.253-.5,6.698-.709,10.123h12.216ZM58.996,126.124c-1.748-.564-3.448-.681-5.108-.362-7.249,1.392-9.224,7.296-8.248,13.673h11.9c.313-4.477-.67-9.027,1.456-13.311" fill="#fff" stroke-width="0"/><path d="M118.224,99.662c-5.712.002-10.383-4.694-10.371-10.424.013-5.73,4.679-10.37,10.426-10.368,5.674.002,10.355,4.657,10.372,10.314.018,5.797-4.638,10.476-10.427,10.478M118.244,96.19c3.784.01,6.908-3.082,6.934-6.862.026-3.844-3.083-6.984-6.917-6.986-3.797-.002-6.913,3.081-6.934,6.859-.022,3.845,3.08,6.979,6.917,6.989" fill="#fff" stroke-width="0"/><path d="M80.125,104.798c.021-3.823,3.174-6.911,7.016-6.873,3.783.039,6.858,3.151,6.85,6.933-.008,3.836-3.125,6.938-6.965,6.93-3.822-.009-6.923-3.149-6.901-6.99M87.095,101.401c-1.889-.017-3.452,1.501-3.493,3.392-.04,1.869,1.498,3.478,3.366,3.52,1.931.044,3.542-1.522,3.547-3.447.005-1.884-1.539-3.448-3.42-3.465" fill="#fff" stroke-width="0"/><path d="M78.395,108.356c-.021,3.831-3.156,6.92-6.998,6.897-3.818-.023-6.904-3.179-6.868-7.023.035-3.775,3.154-6.847,6.942-6.84,3.837.008,6.946,3.135,6.924,6.966M71.401,111.778c1.89.026,3.47-1.488,3.517-3.369.048-1.925-1.527-3.542-3.45-3.542-1.89-.001-3.438,1.529-3.463,3.421-.024,1.871,1.527,3.464,3.396,3.49" fill="#fff" stroke-width="0"/><path d="M55.869,104.855c3.831-.002,6.939,3.12,6.929,6.961-.01,3.781-3.105,6.885-6.882,6.901-3.841.017-6.969-3.078-6.983-6.909-.015-3.833,3.096-6.951,6.936-6.953M59.321,111.751c-.018-1.885-1.572-3.419-3.465-3.421-1.883-.003-3.443,1.55-3.448,3.433-.005,1.936,1.587,3.509,3.517,3.476,1.886-.032,3.414-1.602,3.396-3.488" fill="#fff" stroke-width="0"/></g></svg>