<?xml version="1.0" encoding="UTF-8"?><svg id="Layer_2" xmlns="http://www.w3.org/2000/svg" width="90.822" height="88.765" viewBox="0 0 90.822 88.765"><g id="Layer_1-2"><path d="M45.808.005C55.226.005,64.644-.004,74.062.009c4.84.006,8.568,2.866,9.573,7.367.203.912.25,1.874.251,2.813.016,12.473.016,24.945-.003,37.418,0,.715.222,1.201.715,1.724,5.893,6.261,7.756,13.59,4.924,21.703-2.845,8.151-8.884,12.848-17.445,13.944-8.504,1.089-16.751-3.35-20.784-10.891-.314-.586-.642-.8-1.298-.787-2.141.041-4.284.051-6.425.002-1.332-.031-2.435.389-3.469,1.213-5.689,4.532-11.403,9.034-17.102,13.553-.613.486-1.22.94-2.047.55-.861-.407-.909-1.182-.905-2.005.016-3.056.014-6.111.004-9.166-.009-2.523-1.609-4.103-4.139-4.134-2.643-.033-5.315.151-7.922-.178C3.256,72.539.029,68.647.013,63.848c-.025-7.433-.007-14.866-.007-22.299C.006,33.863.005,26.178.006,18.493c0-5.068,2.474-8.372,7.315-9.831.248-.074.543-.407.593-.664C8.87,3.071,12.502.02,17.555.009c9.418-.018,18.836-.005,28.253-.005M51.596,53.509h-1.349c-9.766,0-19.532,0-29.298-.002-1.295,0-1.994-.522-2.013-1.476-.019-.974.736-1.546,2.054-1.555.252,0,.504,0,.756,0,10.333,0,20.666-.006,31,.014.714,0,1.204-.194,1.703-.732,3.499-3.773,7.819-5.999,12.946-6.497,1.828-.177,3.687-.028,5.587-.028.014-.131.043-.282.043-.433,0-8.348.034-16.696-.018-25.044-.023-3.64-2.77-6.256-6.426-6.257-19.029-.009-38.057-.008-57.085,0-3.704.002-6.45,2.736-6.453,6.451-.014,15.279-.013,30.557,0,45.836.003,3.76,2.747,6.472,6.519,6.496,2.236.015,4.474-.022,6.71.014,3.783.06,6.746,3.031,6.806,6.811.028,1.795.007,3.591.008,5.387v1.624c.478-.373.774-.601,1.066-.832,4.767-3.771,9.541-7.534,14.297-11.319,1.44-1.145,3.042-1.724,4.886-1.688,1.606.031,3.213.006,4.82.006h1.489c-.859-2.89-1.093-5.7-.783-8.542.313-2.873,1.247-5.56,2.736-8.233M11.002,8.462h1.184c17.986,0,35.972-.005,53.958.012.968,0,1.965.061,2.898.295,4.293,1.073,7.014,4.746,7.024,9.448.018,7.906.051,15.812-.034,23.717-.016,1.556.248,2.523,1.913,2.882.774.166,1.466.703,2.199,1.065.205.102.421.181.687.294.014-.272.029-.428.029-.584,0-11.969.005-23.938-.01-35.907,0-.654-.08-1.328-.249-1.959-.79-2.947-3.253-4.686-6.614-4.686-18.71-.005-37.421-.002-56.131-.002-.283,0-.568-.004-.85.013-3.146.185-5.634,2.379-6.004,5.412M63.923,72.722c-5.92-4.431-5.561-11.877-1.5-15.916,4.134-4.111,10.805-4.006,14.82.204,3.88,4.069,4.092,11.415-1.73,15.72,2.382,1.205,4.238,2.949,5.61,5.193,5.014-3.872,8.363-11.719,5.593-19.756-2.593-7.525-9.967-12.452-18.004-12.032-7.891.412-14.719,6.177-16.496,13.905-1.774,7.714,1.918,14.855,6.166,17.825,1.337-2.242,3.199-3.939,5.541-5.143M69.777,56.833c-4.052-.025-7.351,3.245-7.347,7.281.004,3.977,3.3,7.289,7.262,7.295,4.048.007,7.303-3.24,7.324-7.307.021-4.005-3.206-7.245-7.239-7.269M60.849,79.634c5.285,3.315,12.902,3.146,17.762.001-1.942-3.18-4.72-5.027-8.464-5.163-4.07-.148-7.115,1.696-9.298,5.162" fill="#fff" stroke-width="0"/><path d="M42.575,37.869c-7.115,0-14.23.001-21.345,0-1.535,0-2.277-.486-2.291-1.493-.014-1.014.75-1.543,2.251-1.543,14.293,0,28.586,0,42.879,0,1.506,0,2.266.53,2.244,1.55-.021.993-.744,1.486-2.204,1.486-7.178.002-14.356,0-21.534,0" fill="#fff" stroke-width="0"/><path d="M39.615,22.238c-6.14,0-12.281.001-18.421-.004-.375,0-.764.002-1.121-.093-.769-.203-1.174-.765-1.112-1.54.06-.767.514-1.275,1.32-1.367.342-.039.691-.029,1.037-.029,12.218-.002,24.435-.002,36.653-.001.315,0,.631-.008.944.023.845.081,1.332.579,1.382,1.403.051.837-.425,1.364-1.228,1.549-.331.076-.688.057-1.033.057-6.141.003-12.281.002-18.421.002" fill="#fff" stroke-width="0"/><path d="M32.665,42.678c3.969,0,7.938-.005,11.908.003,1.149.003,1.84.647,1.751,1.615-.073.8-.565,1.24-1.325,1.383-.274.052-.564.029-.848.029-7.655,0-15.31,0-22.965,0-.157,0-.315.004-.472,0-1.081-.035-1.789-.654-1.775-1.549.015-.904.7-1.477,1.818-1.479,3.969-.006,7.939-.002,11.908-.002" fill="#fff" stroke-width="0"/><path d="M27.93,58.317c2.36,0,4.72-.006,7.08.003,1.238.004,1.882.519,1.897,1.474.015.968-.639,1.549-1.84,1.552-4.752.012-9.504.012-14.256,0-1.274-.003-2.081-.821-1.831-1.823.226-.911.886-1.216,1.775-1.211,2.392.014,4.783.005,7.175.005" fill="#fff" stroke-width="0"/><path d="M26.495,30.04c-1.917,0-3.833.007-5.75-.003-1.104-.005-1.793-.588-1.805-1.49-.012-.9.688-1.53,1.772-1.533,3.896-.011,7.792-.011,11.688,0,1.077.003,1.776.644,1.756,1.546-.02.902-.708,1.473-1.817,1.478-1.948.008-3.896.002-5.844.002" fill="#fff" stroke-width="0"/><path d="M12.405,42.682c.408.001.818-.022,1.225.006.834.057,1.436.663,1.466,1.44.029.752-.555,1.482-1.365,1.544-.874.068-1.763.072-2.635-.007-.835-.075-1.338-.762-1.297-1.574.04-.802.609-1.354,1.475-1.406.376-.023.754-.004,1.131-.003" fill="#fff" stroke-width="0"/><path d="M12.468,53.491c-.44,0-.883.035-1.318-.009-.788-.079-1.266-.536-1.34-1.33-.077-.836.318-1.479,1.137-1.585.955-.125,1.947-.126,2.905-.02.812.089,1.276.716,1.223,1.536-.051.807-.536,1.33-1.383,1.403-.405.035-.816.006-1.224.005" fill="#fff" stroke-width="0"/><path d="M12.29,61.384c-.42-.038-.933-.022-1.412-.141-.777-.193-1.129-.765-1.07-1.552.056-.75.485-1.26,1.229-1.322.904-.074,1.821-.065,2.727-.012.807.048,1.259.6,1.309,1.362.055.813-.377,1.394-1.201,1.557-.487.096-.998.073-1.582.108" fill="#fff" stroke-width="0"/><path d="M12.541,19.23c.408,0,.82-.035,1.223.008.804.085,1.253.604,1.311,1.367.058.771-.338,1.428-1.112,1.518-1.016.118-2.068.118-3.083-.007-.778-.096-1.136-.747-1.072-1.535.065-.794.533-1.263,1.322-1.346.465-.05.94-.009,1.411-.009v.004" fill="#fff" stroke-width="0"/><path d="M12.423,30.033c-.408,0-.819.029-1.225-.006-.846-.072-1.394-.671-1.4-1.484-.007-.809.532-1.454,1.374-1.51.844-.056,1.699-.056,2.543.004.812.058,1.401.767,1.38,1.527-.02.777-.618,1.398-1.447,1.463-.406.032-.817.006-1.225.006" fill="#fff" stroke-width="0"/><path d="M12.453,37.84c-.439,0-.883.042-1.316-.009-.829-.098-1.31-.59-1.334-1.433-.022-.841.421-1.418,1.248-1.5.9-.09,1.82-.079,2.723-.008.841.067,1.269.657,1.314,1.468.043.772-.565,1.392-1.412,1.479-.404.042-.815.007-1.223.007v-.004" fill="#fff" stroke-width="0"/></g></svg>