<?xml version="1.0" encoding="UTF-8"?><svg id="Layer_2" xmlns="http://www.w3.org/2000/svg" width="211.115" height="276.62" viewBox="0 0 211.115 276.62"><g id="Livello_1"><path d="M103.514,2.536c0,.537.167,1.052.478,1.491l.078.105c.931,1.16,2.805,1.203,3.779.085l.354-.406.541.013c1.012.026,2.854.079,3.831.154,5.227.4,10.339,1.176,15.185,2.31,1.527.354,3.1.764,4.673,1.212l2.864.855.986.324c13.461,4.421,26.156,11.8,36.786,21.372l1.186-1.199c-12.593-11.404-27.322-19.36-43.792-23.653-6.144-1.606-12.469-2.599-19.327-3.044-.39-.026-1.081-.049-1.904-.069l-.708-.02-.302-.639c-.416-.881-1.271-1.429-2.228-1.429-1.366,0-2.48,1.137-2.48,2.536M101.24,13.389c-29.935.079-57.827,15.084-74.808,40.188l1.16,1.18c4.437-6.583,9.828-12.626,16.037-17.977,16.453-14.179,35.79-21.46,57.477-21.634,2.848-.023,5.702-.013,8.553.003,6.285.029,12.682.809,19.006,2.313,1.491.36,1.986.367,3.346.842l1.157.347c1.399.413,2.808.872,4.191,1.357l.593.21.144.609c.272,1.144,1.262,1.94,2.412,1.94,1.37,0,2.484-1.137,2.484-2.533s-1.114-2.54-2.484-2.54c-.537,0-1.052.177-1.488.511l-.495.377-.586-.203c-1.612-.56-3.287-1.091-4.975-1.573l-1.278-.367-2.552-.632c-2.677-.632-5.407-1.144-8.114-1.517-4.178-.577-8.303-.878-12.269-.895-1.301-.007-2.602-.01-3.903-.01-1.203,0-2.405.003-3.608.003M3.516,82.709c-.576,2.34-1.068,4.751-1.507,7.376l-.098.577-.521.262c-.858.429-1.39,1.298-1.39,2.271,0,1.399,1.114,2.533,2.481,2.533s2.484-1.134,2.484-2.533c0-.76-.331-1.474-.904-1.959l-.504-.426.108-.649c.452-2.644,1.026-5.332,1.704-7.986,1.317-5.164,3.048-10.28,5.141-15.205l1.344-3.034.374-.796c7.855-16.614,19.887-30.852,34.83-41.236l-.692-1.592C24.941,35.102,9.749,57.208,3.516,82.709M147.205,24.128c17.41,8.562,31.822,22.824,40.656,40.263,6.455,12.76,9.742,26.448,9.772,40.686.01,4.067.01,8.133.007,12.203v5.643l-.007,18.934c-.003,9.978-.006,19.96.013,29.938.003,3.415-.177,6.826-.531,10.145-1.118.246-1.96,1.239-1.96,2.431,0,1.376,1.118,2.494,2.494,2.494s2.49-1.117,2.49-2.494c0-.967-.557-1.792-1.36-2.209l.04-.364c.334-3.185.501-6.419.495-9.614-.016-7.671-.013-15.336-.01-23.007l.003-8.707-.01-10.552c-.007-8.094-.013-16.188.016-24.282.134-35.23-20.035-67.717-51.49-83.119l-.619,1.609ZM84.672,26.399c0,1.396,1.111,2.533,2.48,2.533.924,0,1.766-.521,2.202-1.36l.259-.505.557-.102c3.719-.672,7.576-1.111,11.466-1.304,7.861-.387,16.007.508,24.196,2.657,35.338,9.287,60.813,41.407,62.294,78.351h1.635c-.96-22.011-9.215-41.24-24.544-57.126-6.413-6.649-13.668-12.056-21.634-16.195-4.129-2.002-8.284-3.736-12.232-5.194l-1.816-.557c-2.077-.636-4.198-1.203-6.305-1.684-7.029-1.606-14.464-2.254-22.089-1.93-3.621.151-7.308.56-10.968,1.216l-.672.121-.426-.531c-.478-.59-1.18-.931-1.924-.931-1.37,0-2.48,1.137-2.48,2.54M30.705,68.324l-.298.547-1.822,3.572c-.492,1.019-.97,2.048-1.425,3.093-3.166,7.304-5.312,15.025-6.38,22.952-.22,1.661-.39,3.378-.518,5.233l-.158,2.543-.042,1.668c-.023.95-.036,1.897-.036,2.841l-.007,3.831c-.99.331-1.707,1.255-1.707,2.353,0,1.376,1.114,2.494,2.494,2.494s2.49-1.117,2.49-2.494c0-1.075-.685-1.982-1.642-2.33l.059-8.405.196-2.592c.321-4.368.99-8.71,1.986-12.908,3.791-16.031,11.59-29.899,23.181-41.22,9.693-9.467,20.775-16.208,32.953-20.051l-.488-1.609c-20.543,6.593-38.297,21.293-48.836,40.483M176.75,35.151c0,1.396,1.114,2.533,2.48,2.533.193,0,.387-.026.574-.075l.678-.174.466.521c8.575,9.562,15.25,20.487,19.841,32.474,4.571,11.944,6.895,24.554,6.911,37.484.016,10.28.02,20.566.013,30.846h1.55c-.007-9.936-.007-20.523.039-31.019.111-25.884-9.857-51.831-27.352-71.184l-.374-.413.095-.554c.026-.144.039-.292.039-.439,0-1.399-1.114-2.536-2.48-2.536s-2.48,1.137-2.48,2.536M101.892,34.581c-12.108.534-23.518,3.831-33.939,9.801l.688,1.589c11.138-6.41,23.499-9.719,36.161-9.719,2.294,0,4.601.108,6.908.328,5.951.564,11.758,1.832,17.253,3.762,19.946,6.99,36.069,22.342,44.238,42.118l.242.59-.37.518c-.314.442-.482.96-.482,1.501,0,1.399,1.114,2.533,2.48,2.533s2.484-1.134,2.484-2.533c0-1.183-.826-2.228-1.96-2.481l-.586-.128-.23-.557c-9.451-22.958-29.276-39.945-53.03-45.434-5.613-1.301-11.236-1.956-16.781-1.956-1.029,0-2.055.023-3.077.069M107.283,46.722c0,1.376,1.118,2.49,2.494,2.49.947,0,1.763-.534,2.182-1.314l.167.02c.757.085,1.514.177,2.278.288,10.04,1.455,19.448,5.45,27.965,11.872,15.936,12.029,25.448,31.095,25.442,50.995v55.452c.006,3.578-.318,7.219-.957,10.827l1.599.515c.682-3.772,1.032-7.593,1.042-11.371.007-2.422.01-4.843.01-7.265l.006-4.349-.006-43.491c-.013-29.994-20.012-56.156-48.632-63.615-2.553-.668-5.22-1.176-7.93-1.514l-.728-.089-.006.016c-.242-1.121-1.239-1.963-2.432-1.963-1.376,0-2.494,1.117-2.494,2.494M43.164,92.248c-.941,3.116-1.655,6.328-2.114,9.552l-.092.629-.58.259c-.911.403-1.494,1.317-1.494,2.323,0,1.399,1.111,2.536,2.48,2.536s2.48-1.137,2.48-2.536c0-.718-.288-1.383-.816-1.871l-.442-.413.085-.596c.16-1.111.36-2.255.596-3.405,3.077-14.916,10.427-27.267,21.853-36.711,10.952-9.044,23.286-13.914,36.682-14.484v-1.697c-27.057,1.209-50.605,19.832-58.64,46.414M59.279,48.947c0,.157.02.311.039.456l.098.662-.528.413c-9.503,7.438-17.233,17.161-22.349,28.109-3.303,7.065-5.505,14.572-6.544,22.309-.236,1.763-.41,3.588-.518,5.423l-.138,3.572-.02,1.56c.007,7.684.007,15.372.004,23.056h1.612v-.839c-.003-7.278-.006-14.553,0-21.827.01-6.357.704-12.452,2.071-18.121,4.011-16.676,13.675-31.625,27.208-42.098l.439-.341.538.134c.2.049.387.072.57.072,1.37,0,2.481-1.137,2.481-2.54s-1.111-2.533-2.481-2.533-2.484,1.137-2.484,2.533M66.967,73.19c-2.418,2.372-4.611,4.968-6.521,7.73l1.317,1.153c.714-1.045,1.472-2.081,2.264-3.083,10.06-12.734,25.265-20.006,41.03-20.006,2.674,0,5.367.21,8.051.639,9.965,1.589,18.78,5.794,26.208,12.495,11.902,10.748,17.964,24.305,18.017,40.299.01,3.529.016,7.052.02,10.578l.003,2.14-.534.338c-.731.472-1.17,1.275-1.17,2.153,0,1.396,1.114,2.53,2.481,2.53s2.484-1.134,2.484-2.53c0-.855-.416-1.645-1.114-2.114l-.508-.341.007-10.889c.003-.829.003-1.655-.007-2.48-.177-14.451-5.249-27.093-15.074-37.586-8.176-8.73-18.049-14.127-29.355-16.047-3.477-.59-6.871-.885-10.181-.885-14.074,0-26.622,5.328-37.419,15.906M20.019,61.059c0,.786.37,1.478.941,1.936l-.108-.029-.331.652c-.652,1.291-1.314,2.677-1.96,4.123l-.629,1.406-.967,2.399c-1.409,3.569-2.605,7.252-3.549,10.948-1.898,7.409-2.858,14.982-2.851,22.506.007,7.511.007,15.018.004,22.525l-.004,11.266c0,5.731,0,11.469-.003,17.201h1.658l.004-25.642c.003-6.832.006-13.665-.007-20.497v-4.224c.016-7.491.793-14.34,2.382-20.939,1.029-4.296,2.356-8.536,3.939-12.597l.953-2.392.79-1.763c.626-1.403,1.284-2.772,1.95-4.077l.164-.321c.039,0,.075.01.114.01,1.376,0,2.49-1.114,2.49-2.49s-1.114-2.494-2.49-2.494-2.49,1.117-2.49,2.494M82.224,74.622c-10.27,6.285-17.476,16.276-20.291,28.132-.78,3.31-1.17,6.858-1.156,10.555v2.468l-.466.344c-.655.488-1.032,1.235-1.032,2.058,0,.809.386,1.576,1.035,2.051l.115.085c.4.259.858.397,1.33.397,1.37,0,2.484-1.137,2.484-2.533,0-.908-.482-1.75-1.252-2.202l-.57-.331v-1.55c0-3.434.262-6.492.8-9.346,3.601-19.045,19.569-33.329,38.831-34.732,5.466-.4,10.84.279,15.991,2.009l.613-1.593c-1.127-.374-2.268-.701-3.405-.98-3.444-.842-6.924-1.258-10.381-1.258-7.917,0-15.709,2.179-22.647,6.426M122.861,74.019c0,1.396,1.114,2.533,2.484,2.533.324,0,.645-.066.947-.19l.55-.229.508.321c12.298,7.786,19.989,21.621,20.071,36.108.013,2.703.013,5.407.01,8.107v2.818l.003,20.16h1.664c.004-10.385.01-20.772-.029-31.15-.059-14.982-7.996-29.322-20.717-37.429l-.531-.341.01-.793c-.003-1.314-1.117-2.451-2.487-2.451s-2.484,1.137-2.484,2.536M89.44,83.423l.685,1.573c4.601-2.454,9.66-3.696,14.762-3.696,3.795,0,7.612.685,11.279,2.081,12.58,4.768,20.739,16.689,20.792,30.364,0,.495,0,.989.003,1.484l.004.37c-1.042.298-1.809,1.248-1.809,2.385,0,1.376,1.114,2.494,2.49,2.494s2.494-1.117,2.494-2.494c0-1.042-.639-1.93-1.547-2.304v-2.025c.016-15.441-10.29-28.988-25.065-32.943-2.86-.764-5.764-1.144-8.647-1.144-5.348,0-10.624,1.301-15.441,3.854M54.819,87.562c0,.524.154,1.026.442,1.445l.364.524-.249.583c-1.638,3.834-2.874,7.966-3.673,12.285-.57,3.087-.846,6.288-.836,9.785.016,6.508.013,13.022.013,19.534l-.007,13.658c0,4.765-.003,9.526.003,14.284h1.632c.003-4.512.003-9.028,0-13.543v-7.35l.003-25.825c0-3.503.197-6.36.616-8.992.741-4.63,2.035-9.084,3.851-13.235l.236-.547.586-.121c1.147-.236,1.982-1.278,1.982-2.484,0-1.396-1.114-2.533-2.484-2.533s-2.481,1.137-2.481,2.533M80.861,88.306c0,.452.131.872.344,1.239l-.442.459c-4.368,4.575-7.383,10.263-8.72,16.453-.521,2.422-.777,5.099-.777,8.192-.003,5.351,0,10.706,0,16.06v14.294h1.632l.006-6.252v-24.6c-.006-2.897.331-5.702,1-8.343,1.425-5.633,4.319-10.794,8.372-14.92l.239-.246c.262.095.541.157.839.157,1.373,0,2.49-1.117,2.49-2.494s-1.117-2.494-2.49-2.494-2.494,1.117-2.494,2.494M176.619,92.766c1.52,6.039,2.297,12.288,2.3,18.593.01,12.229.01,24.456.003,36.688l.003,2.225-.006,8.343-.505.341c-.698.475-1.117,1.265-1.117,2.117,0,1.399,1.114,2.536,2.484,2.536s2.481-1.137,2.481-2.536c0-.878-.439-1.684-1.176-2.153l-.534-.341v-10.516c.003-7.871,0-15.745-.003-23.617l-.003-1.74.003-2.602c0-3.07,0-6.148-.006-9.218-.007-6.318-.8-12.613-2.356-18.734l-1.566.613ZM.626,105.575c-.013.823-.023,1.642-.023,2.461-.007,7.543-.007,15.08-.007,22.62l.004,16.499c.003,7.353.006,14.703-.01,22.057-.01,5.358.278,10.113.878,14.533,1.468,10.801,4.516,21.201,9.054,30.918,1.665,3.555,3.575,7.101,5.672,10.539l.052.079c13.852,22.578,35.355,39.008,60.551,46.26,5.302,1.524,10.919,2.631,16.693,3.29l.567.062.292.495c.455.77,1.252,1.232,2.13,1.232.721,0,1.406-.324,1.881-.885l.138-.184c.301-.436.462-.944.462-1.465,0-1.403-1.114-2.54-2.481-2.54-.793,0-1.546.393-2.015,1.058l-.393.557-.678-.079c-4.781-.544-9.493-1.422-14.002-2.605l-4.073-1.163-.6-.19c-23.994-7.566-44.431-23.751-57.555-45.575-3.785-6.298-6.914-13.013-9.303-19.953-2.825-8.212-4.604-16.722-5.286-25.291-.138-1.678-.232-3.474-.292-5.482l-.052-1.842-.023-3.152c-.036-7.045-.03-14.097-.023-21.146l.004-7.969v-7.848c-.007-6.918-.01-13.835.01-20.753.003-1.366.026-2.802.079-4.539H.626ZM186.515,114.489c0,.878.442,1.687,1.186,2.156l.531.341.03,8.989v.76c.013,8.028,0,16.054-.016,24.075l-.006,3.402-.033,13.714c-.013,7.101-.957,14.225-2.805,21.175-3.142,11.823-8.644,22.594-16.365,32.035l1.278,1.193c8.553-10.349,14.471-22.647,17.597-36.567,1.307-5.843,1.943-12.007,1.94-18.836-.01-13.363-.01-26.733-.01-40.096v-9.877l.514-.344c.708-.469,1.13-1.262,1.13-2.12,0-1.396-1.117-2.533-2.49-2.533s-2.48,1.137-2.48,2.533M40.375,112.965v3.375c-.013,16.598-.02,33.198,0,49.796.02,20.461,9.221,39.385,25.242,51.919l.554.433-.134.688c-.03.161-.049.324-.049.498,0,1.396,1.114,2.533,2.484,2.533s2.481-1.137,2.481-2.533-1.111-2.536-2.481-2.536c-.187,0-.357.016-.521.053l-.518.108-.422-.324c-15.706-12.105-25.032-31.121-24.95-50.867.023-6.229.016-12.455.01-18.678l-.006-8.7.003-8.972c0-5.597,0-11.194-.003-16.791h-1.688ZM20.019,125.332l.004,13.347-.004,9.362c0,6.239,0,12.479.004,18.718,0,.777.003,1.547.023,2.323l.066,2.605.092,1.527c.095,1.566.22,2.972.38,4.299.836,6.944,2.458,13.688,4.824,20.051.829,2.222,1.763,4.444,2.779,6.6l.272.583-.351.541c-.278.423-.426.914-.426,1.419,0,1.37,1.094,2.507,2.438,2.536l.167-.01c1.324-.065,2.359-1.176,2.359-2.526,0-1.235-.865-2.284-2.061-2.497l-.586-.102-.252-.541c-5.358-11.371-8.081-23.597-8.091-36.341-.006-7.108-.006-14.215-.006-21.32l-.007-20.576h-1.622ZM136.985,126.154c.013,12.492-.007,24.993-.04,37.484-.006,1.861-.196,3.841-.586,6.043-1.96,11.151-10.093,20.805-20.713,24.6l-.56.2-.488-.344c-.416-.292-.904-.449-1.406-.449-1.37,0-2.484,1.137-2.484,2.536s1.114,2.533,2.484,2.533c1.186,0,2.208-.862,2.434-2.051l.124-.639.61-.226c10.853-3.998,19.085-13.553,21.483-24.937.492-2.313.74-4.719.74-7.154l.007-37.596h-1.606ZM60.787,126.367v21.08c-.003,5.777-.006,11.558,0,17.332.02,7.763,1.937,15.028,5.699,21.598,1.871,3.257,4.001,6.213,6.331,8.785l.413.452-.148.596c-.056.226-.082.439-.082.652,0,1.396,1.114,2.533,2.48,2.533s2.484-1.137,2.484-2.533-1.114-2.533-2.484-2.533c-.124,0-.249.013-.37.026l-.586.079-.403-.433c-4.833-5.151-8.353-11.453-10.188-18.223-1.022-3.782-1.517-7.802-1.517-12.292.003-5.469.003-10.942,0-16.408v-8.205l.006-12.508h-1.635ZM157.364,135.353c0,9.863-.016,19.724-.036,29.584-.004,2.238-.148,4.611-.423,7.042-.872,7.619-3.451,14.903-7.668,21.65-2.34,3.746-5.135,7.193-8.314,10.247l-.275.266c-.341-.174-.721-.282-1.13-.282-1.376,0-2.49,1.114-2.49,2.49s1.114,2.494,2.49,2.494,2.49-1.117,2.49-2.494c0-.36-.079-.701-.216-1.012l.61-.583c8.297-7.933,13.606-17.957,15.782-29.794.557-3.044.826-6.301.819-9.965-.007-9.88-.007-19.76-.007-29.643h-1.632ZM27.68,142.391c0,.859.423,1.652,1.131,2.123l.511.344v1.517c-.003,6.61-.01,13.222.01,19.832.046,17.627,5.499,33.536,16.201,47.286,11.446,14.707,26.497,24.115,44.737,27.959,3.778.796,7.713,1.275,11.715,1.425v-1.733c-4.751-.193-9.539-.868-14.258-2.015-22.627-5.502-41.63-21.808-50.835-43.616-3.464-8.202-5.413-16.745-5.797-25.396-.095-2.097-.144-4.27-.147-6.459-.016-6.049-.016-12.095-.01-18.141v-.629l.531-.341c.737-.472,1.176-1.278,1.176-2.156,0-1.396-1.114-2.533-2.484-2.533s-2.481,1.137-2.481,2.533M206.153,146.157c0,.832.403,1.612,1.075,2.087l.488.344-.003,6.885c0,4.195,0,8.386.003,12.58,0,4.142-.193,8.195-.567,12.049-.59,6.039-1.724,12.049-3.375,17.866-7.373,25.989-24.079,47.794-47.092,61.501l.691,1.589c1.524-.914,3.038-1.881,4.522-2.874,22.24-14.985,37.068-35.836,44.071-61.969,1.442-5.358,2.405-10.978,2.959-17.181.246-2.752.36-5.689.36-9.247,0-6.049-.006-12.102-.013-18.151l-.003-2.939.58-.331c.78-.449,1.265-1.298,1.265-2.208,0-1.399-1.111-2.533-2.48-2.533s-2.481,1.134-2.481,2.533M145.934,151.157c0,.819.377,1.566,1.032,2.054l.469.344v10.135c0,4.037-.393,7.612-1.196,10.922-5.341,22.031-26.746,36.194-48.744,32.232-5.446-.976-10.778-3.123-15.503-6.223l-.747,1.704c4.653,2.995,9.972,5.066,15.821,6.167,22.653,4.244,44.9-10.25,50.661-32.985.904-3.572,1.363-7.163,1.363-10.683,0-3.496,0-6.993.003-10.489l.003-.655.56-.334c.764-.455,1.239-1.294,1.239-2.189,0-1.403-1.114-2.54-2.481-2.54s-2.48,1.137-2.48,2.54M69.621,152.297c0,.862.422,1.655,1.134,2.127l.514.341-.003,3.664c0,1.527,0,3.054-.006,4.581-.007,4.43.636,8.418,1.972,12.19,4.172,11.744,14.228,20.261,26.251,22.221,2.064.341,4.162.498,6.223.442l-.193-1.727c-8.641.22-16.313-2.838-22.781-9.152-6.429-6.272-9.729-14.104-9.814-23.276-.02-2.766-.03-5.531-.03-8.294v-.632l.531-.341c.731-.465,1.167-1.265,1.167-2.143,0-1.396-1.111-2.533-2.481-2.533s-2.484,1.137-2.484,2.533M9.015,163.501c0,.829.4,1.609,1.068,2.084l.485.344.042,8.854.023.711c.396,11.59,2.995,22.951,7.727,33.768,9.225,21.103,26.533,38.343,47.607,47.456l.613-1.602c-20.92-9.044-37.504-25.599-46.778-46.725-3.592-8.192-5.957-16.984-7.032-26.127-.252-2.15-.41-4.424-.485-6.947l-.026-.839-.036-8.468.547-.337c.757-.462,1.209-1.275,1.209-2.173,0-1.399-1.114-2.536-2.484-2.536s-2.48,1.137-2.48,2.536M49.111,167.188c0,.957.518,1.822,1.353,2.258l.564.292.052.632c.587,7.131,2.563,13.904,5.866,20.133,8.235,15.5,21.067,25.183,38.143,28.784,14.31,2.353,27.293-.18,38.566-7.543l-.678-1.56c-11.433,7.399-25,9.975-38.366,7.242-17.954-3.67-32.936-16.863-39.1-34.43-1.426-4.057-2.356-8.382-2.762-12.852l-.052-.603.462-.387c.583-.485.914-1.203.914-1.966,0-1.396-1.111-2.533-2.481-2.533s-2.48,1.137-2.48,2.533M178.854,169.137c-.193,4.961-.862,9.86-1.989,14.582-7.373,30.796-33.195,53.728-64.257,57.064l-.639.069-.393-.508c-.478-.616-1.186-.967-1.946-.967-1.37,0-2.484,1.137-2.484,2.533s1.114,2.536,2.484,2.536c.911,0,1.75-.511,2.182-1.334l.285-.541.613-.066c13.527-1.445,26.428-6.564,37.308-14.798l2.422-1.904.692-.583c6.917-5.833,12.711-12.773,17.22-20.628,4.761-8.3,7.913-17.338,9.369-26.867.432-2.815.698-5.699.793-8.589h-1.658ZM163.337,185.401c0,.557.177,1.088.508,1.53l.37.498-.21.583c-9.811,27.123-36.331,44.278-64.496,41.715-6.092-.554-11.994-1.963-17.541-4.181-2.14-.859-4.257-1.848-6.315-2.952l-.616,1.609c1.163.619,2.372,1.222,3.608,1.786,5.843,2.661,12.066,4.417,18.502,5.217,29.902,3.716,58.037-13.796,68.431-42.61l.21-.583.606-.147c1.124-.269,1.907-1.281,1.907-2.464,0-1.399-1.114-2.536-2.481-2.536s-2.484,1.137-2.484,2.536M194.917,194.196c-4.47,17.345-13.176,32.137-25.878,43.966l-1.933,1.779-1.537,1.301c-.501.426-1.009.845-1.524,1.262-15.975,12.95-34.489,19.606-55.019,19.783-1.245.01-2.527.013-3.854.013-1.76,0-3.601-.007-5.561-.026-4.201-.036-8.5-.419-12.783-1.14l-2.684-.495-1.232-.269c-1.058-.233-2.117-.475-3.172-.75-1.003-.252-1.996-.534-2.992-.829l-.593-.177-.18-.59c-.328-1.065-1.278-1.779-2.372-1.779-1.366,0-2.48,1.137-2.48,2.533s1.114,2.536,2.48,2.536c.606,0,1.166-.213,1.622-.616l.475-.419.61.177c1.625.475,3.254.904,4.843,1.271.079.016.197.043.318.072l1.953.462,2.995.514c4.856.826,9.831,1.252,14.788,1.265h7.298c30.675.003,59.079-15.611,75.998-41.78,5.751-8.887,9.896-18.6,12.331-28.88l-1.563-.616c-.112.478-.233.957-.354,1.432M33.743,214.227c11.744,18.311,29.669,31.34,50.579,36.738l.976.252,2.828.636c3.945.819,7.956,1.337,11.921,1.543,20.599,1.058,39.267-4.65,55.472-16.958l.495-.374,3.123-2.507c1.291-1.091,2.434-2.104,3.503-3.103l.436-.406.584.125c.144.026.298.043.472.043,1.37,0,2.487-1.137,2.487-2.533,0-.154-.023-.308-.049-.455l-.016-.102c-.256-1.163-1.252-1.979-2.422-1.979-1.37,0-2.484,1.14-2.484,2.536,0,.174.023.357.065.557l.141.639-.478.449c-1.37,1.281-2.641,2.405-3.897,3.438l-1.114.924-2.104,1.612c-16.126,12.095-35.928,17.869-55.73,16.273-6.154-.495-12.207-1.661-17.991-3.461-18.698-5.823-34.82-18.233-45.539-35.017l-1.258,1.13Z" fill="#fff" stroke-width="0"/><path d="M96.825,164.705c-1.31,0-2.623-.499-3.622-1.5-2.001-2.001-2.001-5.244,0-7.245l17.29-17.29-17.72-17.724c-2.001-2.001-2.001-5.242,0-7.243,2.001-1.999,5.246-2.001,7.245.002l21.341,21.343c2.001,1.999,2.001,5.242,0,7.241l-20.914,20.916c-.999,1.001-2.311,1.5-3.621,1.5" fill="#fff" stroke-width="0"/></g></svg>