<?xml version="1.0" encoding="UTF-8"?><svg id="Layer_2" xmlns="http://www.w3.org/2000/svg" width="145.31" height="145.31" viewBox="0 0 145.31 145.31"><g id="Layer_1-2"><rect x="7.445" y="100.604" width="54.02" height="25.72" rx=".8" ry=".8" transform="translate(-70.139 57.596) rotate(-45)" fill="#fff" stroke-width="0"/><rect x="83.835" y="24.222" width="54.02" height="25.72" rx=".8" ry=".8" transform="translate(6.245 89.24) rotate(-45)" fill="#fff" stroke-width="0"/><path d="M137.39,125.13c.91-.91.91-2.39,0-3.3l-36.55-36.55-38.2-38.2L26.09,10.53c-.91-.91-2.39-.91-3.3,0l-14.89,14.89c-.91.91-.91,2.39,0,3.3l36.55,36.55,38.2,38.2h0l36.55,36.55c.91.91,2.39.91,3.3,0l14.89-14.89h0Z" fill="#fff" stroke-width="0"/><circle cx="72.65" cy="14.01" r="14.01" fill="#fff" stroke-width="0"/><circle cx="72.65" cy="131.3" r="14.01" fill="#fff" stroke-width="0"/><circle cx="131.3" cy="72.66" r="14.01" fill="#fff" stroke-width="0"/><circle cx="14.01" cy="72.66" r="14.01" fill="#fff" stroke-width="0"/></g></svg>