<?xml version="1.0" encoding="UTF-8"?>
<svg xmlns="http://www.w3.org/2000/svg" xmlns:xlink="http://www.w3.org/1999/xlink" version="1.1" id="Layer_2_00000087396783580176860800000008902512189813490093_" x="0px" y="0px" viewBox="0 0 253 50" style="enable-background:new 0 0 253 50;" xml:space="preserve">
<style type="text/css">
	.st0{fill:#009FB7;}
</style>
<g id="Livello_1">
	<path class="st0" d="M19.48,29.47c0,3.03-1.21,5.34-3.63,6.94c-2.01,1.31-4.43,1.97-7.25,1.97c-2.97,0-5.84-0.61-8.6-1.83   l1.57-6.55c0.29,0.38,1.09,0.76,2.4,1.16c1.31,0.39,2.53,0.59,3.67,0.59c1.78,0,2.66-0.49,2.66-1.49c0-0.7-0.89-1.24-2.66-1.62   c-2.45-0.52-4.11-1.05-4.98-1.57C0.89,26.02,0,24.32,0,21.96c0-2.59,1.03-4.77,3.08-6.53c2.05-1.76,4.61-2.64,7.67-2.64   c3.84,0,6.38,0.45,7.6,1.35l-1.09,7.42c-2.77-1.49-4.89-2.23-6.38-2.23c-0.93,0-1.51,0.32-1.75,0.96   c-0.06,0.15-0.09,0.28-0.09,0.39c0,0.61,0.9,1.14,2.71,1.57c2.42,0.58,4.09,1.18,5.02,1.79C18.58,25.25,19.48,27.05,19.48,29.47   L19.48,29.47z"></path>
	<path class="st0" d="M43.89,22.13c0,2.5-0.8,4.64-2.4,6.42c-1.6,1.78-3.52,2.66-5.77,2.66h-5.85v6.86h-8.21V13.09h14.06   c2.24,0,4.16,0.88,5.77,2.64C43.09,17.5,43.89,19.63,43.89,22.13z M35.73,22.26c0-0.61-0.2-1.14-0.61-1.59   c-0.41-0.45-0.9-0.68-1.49-0.68h-3.76v4.54h3.76c0.58,0,1.08-0.22,1.49-0.66C35.52,23.44,35.73,22.9,35.73,22.26z"></path>
	<path class="st0" d="M54.25,10.82c0,0.55-0.19,1.02-0.57,1.4c-0.38,0.38-0.84,0.57-1.4,0.57h-4.24c-0.55,0-1.02-0.19-1.4-0.57   c-0.38-0.38-0.57-0.84-0.57-1.4V8.5c0-0.55,0.19-1.02,0.57-1.4c0.38-0.38,0.84-0.57,1.4-0.57h4.24c0.55,0,1.02,0.19,1.4,0.57   c0.38,0.38,0.57,0.84,0.57,1.4L54.25,10.82L54.25,10.82z M54.29,38.07h-8.21V14.79h8.17L54.29,38.07L54.29,38.07z"></path>
	<path class="st0" d="M79.53,38.07h-8.21l0.04-14.28c0-0.93-0.33-1.72-1-2.38c-0.67-0.66-1.47-0.98-2.4-0.98   c-0.84,0-1.59,0.28-2.23,0.85c-0.64,0.57-1,1.27-1.09,2.12v14.68h-8.21V13.09h8.21v1.66c1.66-1.31,3.55-1.97,5.68-1.97   c2.53,0,4.7,0.9,6.51,2.71c1.81,1.81,2.71,3.97,2.71,6.51L79.53,38.07L79.53,38.07z"></path>
	<path class="st0" d="M135.99,29.08h-9.65v9h-8.21V13.09h17.86v6.86h-9.65v2.23h9.65V29.08L135.99,29.08z"></path>
	<path class="st0" d="M163.77,38.07h-8.21v-1.75c-1.22,1.37-2.75,2.05-4.59,2.05c-3.55,0-6.57-1.25-9.06-3.76   c-2.49-2.5-3.73-5.52-3.73-9.04s1.24-6.54,3.73-9.04c2.49-2.5,5.51-3.76,9.06-3.76c1.83,0,3.36,0.68,4.59,2.05v-1.75h8.21   C163.77,13.09,163.77,38.07,163.77,38.07z M155.56,25.58c0-1.28-0.45-2.37-1.35-3.25c-0.9-0.89-1.98-1.33-3.23-1.33   c-1.28,0-2.37,0.44-3.28,1.33c-0.9,0.89-1.35,1.97-1.35,3.25s0.45,2.37,1.35,3.25c0.9,0.89,1.99,1.33,3.28,1.33   c1.25,0,2.33-0.44,3.23-1.33C155.11,27.95,155.56,26.86,155.56,25.58z"></path>
	<path class="st0" d="M183.29,31.22v6.86h-4.89c-3.44,0-6.38-1.22-8.82-3.67s-3.67-5.39-3.67-8.82c0-3.46,1.22-6.41,3.67-8.84   c2.45-2.43,5.39-3.65,8.82-3.65h4.89v6.86h-3.58c-1.54,0-2.86,0.55-3.95,1.64c-1.09,1.09-1.64,2.42-1.64,4   c0,1.54,0.55,2.86,1.64,3.95c1.09,1.09,2.41,1.64,3.95,1.64L183.29,31.22z"></path>
	<path class="st0" d="M205.26,36.37c-2.42,1.34-5.01,2.01-7.77,2.01c-2.85,0-5.42-0.86-7.69-2.58c-2.91-2.18-4.37-5.3-4.37-9.35V9.6   h8.21v3.49h10.22v6.9h-10.22v5.68c-0.03,3.03,1.19,4.54,3.67,4.54c0.32,0,0.66-0.03,1-0.09c1.34-0.2,2.62-0.51,3.84-0.92   C202.16,29.21,205.26,36.37,205.26,36.37z"></path>
	<path class="st0" d="M229.9,25.58c0,3.52-1.24,6.54-3.73,9.04c-2.49,2.5-5.5,3.76-9.02,3.76c-3.55,0-6.57-1.25-9.06-3.76   c-2.49-2.5-3.73-5.52-3.73-9.04s1.24-6.54,3.73-9.04c2.49-2.5,5.51-3.76,9.06-3.76c3.52,0,6.53,1.25,9.02,3.76   C228.65,19.05,229.9,22.06,229.9,25.58z M221.73,25.58c0-1.28-0.45-2.37-1.35-3.25c-0.9-0.89-1.98-1.33-3.23-1.33   c-1.28,0-2.37,0.44-3.28,1.33c-0.9,0.89-1.35,1.97-1.35,3.25s0.45,2.37,1.35,3.25c0.9,0.89,1.99,1.33,3.28,1.33   c1.25,0,2.33-0.44,3.23-1.33C221.28,27.95,221.73,26.86,221.73,25.58z"></path>
	<path class="st0" d="M253,28.03h-8.17v-5.11c0-0.64-0.22-1.18-0.65-1.62s-0.98-0.66-1.62-0.66c-0.64,0-1.18,0.22-1.62,0.66   c-0.44,0.44-0.66,0.98-0.66,1.62v15.16h-8.21V13.09h8.21v1.14c1.05-0.96,2.23-1.44,3.54-1.44c2.53,0,4.7,0.9,6.49,2.71   C252.1,17.3,253,19.47,253,22L253,28.03L253,28.03z"></path>
	<path class="st0" d="M87.31,49.98c-1.25,0-2.5-0.48-3.45-1.43c-1.9-1.9-1.9-4.99,0-6.89l16.46-16.46L83.46,8.34   c-1.9-1.9-1.9-4.99,0-6.89c1.9-1.9,4.99-1.9,6.89,0l20.31,20.31c1.9,1.9,1.9,4.99,0,6.89l-19.9,19.9   C89.81,49.5,88.56,49.98,87.31,49.98L87.31,49.98z"></path>
</g>
</svg>
