<?xml version="1.0" encoding="utf-8"?>
<!-- Generator: Adobe Illustrator 28.4.1, SVG Export Plug-In . SVG Version: 6.00 Build 0)  -->
<svg version="1.2" baseProfile="tiny" id="Layer_2_00000087396783580176860800000008902512189813490093_"
	 xmlns="http://www.w3.org/2000/svg" xmlns:xlink="http://www.w3.org/1999/xlink" x="0px" y="0px" viewBox="0 0 32 32"
	 overflow="visible" xml:space="preserve">
<path fill="#009FB7" d="M25.1,32H6.9C3.1,32,0,28.9,0,25.1V6.9C0,3.1,3.1,0,6.9,0h18.2C28.9,0,32,3.1,32,6.9v18.2
	C32,28.9,28.9,32,25.1,32z"/>
<g id="Livello_1">
	<path fill="#FFFFFF" d="M12.1,26c-0.5,0-1-0.2-1.4-0.6c-0.8-0.8-0.8-2,0-2.8l6.6-6.6l-6.8-6.8c-0.8-0.8-0.8-2,0-2.8s2-0.8,2.8,0
		l8.1,8.1c0.8,0.8,0.8,2,0,2.8l-8,8C13.1,25.8,12.6,26,12.1,26L12.1,26z"/>
</g>
</svg>
